<?xml version="1.0" encoding="utf-8"?>
<!-- Generator: Adobe Illustrator 16.0.0, SVG Export Plug-In . SVG Version: 6.00 Build 0)  -->
<!DOCTYPE svg PUBLIC "-//W3C//DTD SVG 1.1//EN" "http://www.w3.org/Graphics/SVG/1.1/DTD/svg11.dtd">
<svg version="1.1" id="Layer_1" xmlns="http://www.w3.org/2000/svg" xmlns:xlink="http://www.w3.org/1999/xlink" x="0px" y="0px"
	 width="595.281px" height="841.891px" viewBox="0 0 595.281 841.891" enable-background="new 0 0 595.281 841.891"
	 xml:space="preserve">
<g id="ground" display="none">
	<g display="inline">
		<g>
			<path fill="#E8E8E8" d="M501.263,551.126c-3.572-9.078-4.093-19.012-1.451-28.388c-0.26,0.111-0.559,0.223-0.818,0.335
				c0.67,0.446,1.303,0.93,1.973,1.376c0.26,0.187,0.781,0,0.818-0.334c2.455-17.301,9.673-33.671,20.834-47.14
				c-0.297-0.074-0.633-0.148-0.93-0.26c6.102,25.56-1.451,51.789-10.678,75.601c-0.261,0.67,0.818,0.967,1.078,0.298
				c9.302-24.035,16.817-50.413,10.678-76.196c-0.074-0.372-0.669-0.558-0.93-0.261c-11.236,13.617-18.603,30.174-21.096,47.66
				c0.262-0.112,0.559-0.224,0.819-0.335c-0.67-0.446-1.302-0.931-1.972-1.377c-0.298-0.223-0.744,0-0.818,0.335
				c-2.68,9.562-2.195,19.756,1.451,28.982C500.445,552.093,501.523,551.795,501.263,551.126L501.263,551.126z"/>
		</g>
	</g>
	<g display="inline">
		<g>
			<path fill="#E8E8E8" d="M524.479,502.424c2.345-5.692,5.283-11.087,8.743-16.221c-0.26,0.074-0.521,0.148-0.781,0.186
				c0.446,0.335,0.93,0.67,1.377,0.968c0.26,0.186,0.633,0.037,0.781-0.187c3.236-5.841,7.031-11.348,11.385-16.407
				c-0.298-0.037-0.596-0.074-0.893-0.111c5.729,9.859,1.376,22.025-2.121,31.885c-3.795,10.826-8.52,21.318-14.398,31.141
				c-3.349,5.58-7.069,10.938-11.162,15.961c-0.445,0.558,0.336,1.339,0.781,0.781c7.516-9.227,13.691-19.384,18.715-30.137
				c2.492-5.32,4.688-10.752,6.697-16.258c1.971-5.47,3.906-11.05,4.799-16.817c0.93-5.878,0.633-11.905-2.381-17.151
				c-0.186-0.298-0.633-0.372-0.893-0.111c-4.391,5.172-8.26,10.715-11.571,16.631c0.261-0.074,0.521-0.149,0.781-0.187
				c-0.446-0.335-0.931-0.67-1.376-0.967c-0.261-0.187-0.596-0.037-0.781,0.186c-3.498,5.172-6.438,10.678-8.855,16.482
				C523.14,502.796,524.218,503.094,524.479,502.424L524.479,502.424z"/>
		</g>
	</g>
	<g display="inline">
		<g>
			<path fill="#E8E8E8" d="M521.093,477.347c-4.91,22.732-12.389,44.87-15.924,67.862c-0.111,0.707,0.968,1.005,1.079,0.298
				c3.534-23.03,11.013-45.167,15.924-67.862C522.322,476.938,521.242,476.641,521.093,477.347L521.093,477.347z"/>
		</g>
	</g>
	<g display="inline">
		<g>
			<path fill="#E8E8E8" d="M545.388,470.911c-3.832,23.365-15.217,44.386-26.453,64.886c-0.334,0.633,0.633,1.19,0.968,0.559
				c11.273-20.612,22.695-41.707,26.564-65.146C546.58,470.502,545.5,470.205,545.388,470.911L545.388,470.911z"/>
		</g>
	</g>
	<g display="inline">
		<g>
			<path fill="#E8E8E8" d="M505.839,504.693c2.642,4.093,4.391,8.632,5.135,13.469c0.111,0.707,1.189,0.409,1.078-0.298
				c-0.744-4.911-2.529-9.562-5.246-13.729C506.398,503.54,505.43,504.098,505.839,504.693L505.839,504.693z"/>
		</g>
	</g>
	<g display="inline">
		<g>
			<path fill="#E8E8E8" d="M513.652,511.465c3.758-5.767,7.516-11.57,11.273-17.337c0.41-0.596-0.558-1.153-0.967-0.559
				c-3.758,5.767-7.516,11.571-11.273,17.338C512.276,511.502,513.244,512.06,513.652,511.465L513.652,511.465z"/>
		</g>
	</g>
	<g display="inline">
		<g>
			<path fill="#E8E8E8" d="M528.609,491.858c-0.148,7.738,0.409,15.439,1.6,23.066c0.111,0.707,1.191,0.409,1.079-0.297
				c-1.19-7.553-1.712-15.143-1.563-22.77C529.762,491.114,528.646,491.114,528.609,491.858L528.609,491.858z"/>
		</g>
	</g>
	<g display="inline">
		<g>
			<path fill="#E8E8E8" d="M539.398,496.694c3.051-3.088,6.027-6.324,8.855-9.636c0.446-0.559-0.335-1.34-0.781-0.781
				c-2.828,3.312-5.768,6.511-8.855,9.636C538.096,496.434,538.877,497.216,539.398,496.694L539.398,496.694z"/>
		</g>
	</g>
	<g display="inline">
		<g>
			<path fill="#E8E8E8" d="M98.072,531.816c-8.11-5.767-13.729-14.51-15.626-24.295c-0.112,0.223-0.26,0.446-0.372,0.67
				c0.893-0.261,1.711-0.037,2.381,0.632c0.483,0.484,1.116-0.111,0.893-0.669c-4.948-11.162-7.552-23.254-7.59-35.457
				c-0.148,0.187-0.26,0.372-0.409,0.521c0.372,0.186,0.781,0.409,1.153,0.595c0.261,0.446,1.079,0.298,1.042-0.298
				c-0.261-3.236-0.521-6.474-0.781-9.71c-0.224-2.865-0.558-5.879,1.302-8.297c-0.26,0.074-0.521,0.148-0.781,0.186
				c2.604,1.86,4.13,4.874,5.655,7.59c1.488,2.68,2.902,5.433,4.241,8.186c2.791,5.804,5.172,11.794,7.144,17.933
				c3.907,11.98,6.25,24.406,7.032,36.982c0.037,0.706,1.153,0.706,1.116,0c-0.818-13.097-3.311-26.081-7.478-38.545
				c-2.046-6.102-4.465-12.055-7.292-17.821c-1.451-2.977-2.976-5.878-4.613-8.743c-1.414-2.492-2.865-4.874-5.246-6.585
				c-0.26-0.187-0.595-0.037-0.781,0.186c-1.674,2.195-1.711,4.948-1.563,7.627c0.26,3.646,0.595,7.293,0.893,10.976
				c0.334-0.111,0.707-0.186,1.042-0.297c-0.558-0.968-1.339-1.266-2.418-1.116c-0.223,0.037-0.409,0.297-0.409,0.521
				c0.075,12.427,2.716,24.667,7.739,36.015c0.298-0.224,0.595-0.446,0.893-0.67c-0.967-1.005-2.158-1.302-3.46-0.93
				c-0.298,0.074-0.447,0.372-0.372,0.669c1.972,10.083,7.775,19.012,16.109,24.965C98.11,533.192,98.667,532.225,98.072,531.816
				L98.072,531.816z"/>
		</g>
	</g>
	<g display="inline">
		<g>
			<path fill="#E8E8E8" d="M94.724,480.92c-0.335-2.121-0.595-4.241-0.707-6.362c-0.112-1.972-0.67-4.911,0.818-6.474
				c0.856-0.855,1.265-1.265,1.451-2.567c0.26-2.083,0.26-4.204,0.483-6.287c0.447-4.354,1.079-8.632,1.972-12.91
				c0.149-0.707,0.223-2.047,0.595-2.679c0.893-1.451,2.27,0.074,2.977,0.781c1.265,1.265,2.27,2.753,3.125,4.315
				c3.572,6.548,4.539,14.622,5.506,21.914c1.079,8.11,1.525,16.296,1.302,24.48c-0.223,9.302-1.488,18.565-4.688,27.346
				c-0.26,0.67,0.819,0.968,1.079,0.298c6.213-17.151,5.655-36.609,3.088-54.394c-1.079-7.553-2.232-16.147-6.809-22.547
				c-1.004-1.376-4.055-5.767-6.027-3.795c-1.042,1.005-1.116,3.349-1.377,4.651c-0.483,2.455-0.93,4.911-1.265,7.403
				c-0.335,2.419-0.595,4.837-0.819,7.255c-0.111,1.303,0,2.791-0.297,4.056c-0.298,1.228-1.19,1.6-1.786,2.567
				c-0.967,1.488-0.595,3.832-0.521,5.506c0.111,2.567,0.409,5.135,0.818,7.701C93.757,481.924,94.835,481.627,94.724,480.92
				L94.724,480.92z"/>
		</g>
	</g>
	<g display="inline">
		<g>
			<path fill="#E8E8E8" d="M99.226,442.859c5.99,23.216,7.665,47.361,4.948,71.173c-0.074,0.707,1.042,0.707,1.116,0
				c2.716-23.923,1.005-48.181-4.985-71.471C100.119,441.891,99.04,442.189,99.226,442.859L99.226,442.859z"/>
		</g>
	</g>
	<g display="inline">
		<g>
			<path fill="#E8E8E8" d="M78.502,455.471c8.743,22.36,15.552,45.427,20.426,68.94c0.149,0.707,1.228,0.409,1.079-0.297
				c-4.837-23.514-11.683-46.581-20.426-68.941C79.284,454.504,78.205,454.802,78.502,455.471L78.502,455.471z"/>
		</g>
	</g>
	<g display="inline">
		<g>
			<path fill="#E8E8E8" d="M78.688,489.7c6.102,1.711,11.162,5.729,14.25,11.273c0.335,0.632,1.302,0.074,0.967-0.559
				c-3.237-5.767-8.594-9.971-14.919-11.757C78.279,488.435,77.982,489.513,78.688,489.7L78.688,489.7z"/>
		</g>
	</g>
	<g display="inline">
		<g>
			<path fill="#E8E8E8" d="M91.041,475.264c-0.669,5.767-0.781,11.533-0.334,17.3c0.037,0.707,1.153,0.707,1.116,0
				c-0.446-5.767-0.334-11.533,0.335-17.3C92.231,474.557,91.115,474.557,91.041,475.264L91.041,475.264z"/>
		</g>
	</g>
	<g display="inline">
		<g>
			<path fill="#E8E8E8" d="M94.984,467.823c5.06,6.586,8.594,14.176,10.38,22.286c0.148,0.707,1.228,0.409,1.079-0.298
				c-1.823-8.185-5.357-15.887-10.492-22.546C95.542,466.67,94.575,467.228,94.984,467.823L94.984,467.823z"/>
		</g>
	</g>
	<g display="inline">
		<g>
			<path fill="#E8E8E8" d="M107.932,454.429c-1.86,4.315-3.162,8.78-3.869,13.431c-0.112,0.707,0.967,1.005,1.079,0.298
				c0.669-4.539,1.935-8.929,3.757-13.17C109.197,454.355,108.229,453.76,107.932,454.429L107.932,454.429z"/>
		</g>
	</g>
	<g display="inline">
		<g>
			<path fill="#E8E8E8" d="M59.082,558.418c20.165-7.106,41.669-1.451,61.909,2.158c21.616,3.832,43.456,6.361,65.332,7.515
				c12.389,0.67,24.778,0.894,37.205,0.67c0.707,0,0.707-1.116,0-1.116c-22.36,0.372-44.758-0.67-67.006-3.088
				c-11.31-1.228-22.583-2.827-33.782-4.8c-10.008-1.748-19.979-3.906-30.062-5.097c-11.348-1.303-22.993-1.153-33.894,2.679
				C58.114,557.599,58.412,558.678,59.082,558.418L59.082,558.418z"/>
		</g>
	</g>
	<g display="inline">
		<g>
			<path fill="#E8E8E8" d="M175.942,557.487c33.373,8.186,67.937,6.027,101.793,2.902c17.412-1.6,34.787-3.497,52.236-4.428
				c17.412-0.93,34.786-0.632,52.161,1.079c20.203,2.009,40.182,5.692,60.049,9.859c0.707,0.149,1.005-0.93,0.299-1.079
				c-34.527-7.255-69.389-12.575-104.732-11.31c-34.602,1.228-68.904,6.92-103.542,7.552c-19.458,0.372-38.991-1.004-57.928-5.654
				C175.533,556.222,175.236,557.302,175.942,557.487L175.942,557.487z"/>
		</g>
	</g>
	<g display="inline">
		<g>
			<path fill="#E8E8E8" d="M321.75,581.113c27.383-5.655,55.249-0.298,82.52,3.311c27.123,3.572,54.432,4.167,81.592,0.707
				c15.03-1.897,29.875-4.948,44.422-9.041c0.707-0.186,0.41-1.265-0.297-1.078c-26.379,7.44-53.725,11.31-81.145,11.422
				c-13.617,0.037-27.16-0.894-40.665-2.604c-13.804-1.749-27.532-4.019-41.372-5.32c-15.143-1.414-30.434-1.563-45.391,1.563
				C320.745,580.182,321.042,581.261,321.75,581.113L321.75,581.113z"/>
		</g>
	</g>
	<g display="inline">
		<g>
			<path fill="#E8E8E8" d="M444.563,552.614c13.915,5.171,28.871,2.12,42.823-1.229c15.439-3.683,30.805-6.733,46.691-7.627
				c8.818-0.483,17.673-0.409,26.49,0.149c0.707,0.037,0.707-1.079,0-1.116c-15.328-1.005-30.693-0.409-45.911,1.785
				c-7.59,1.116-15.104,2.679-22.546,4.502c-7.404,1.786-14.845,3.684-22.435,4.613c-8.371,1.042-16.854,0.781-24.815-2.194
				C444.191,551.311,443.893,552.39,444.563,552.614L444.563,552.614z"/>
		</g>
	</g>
	<g display="inline">
		<g>
			<path fill="#E8E8E8" d="M433.29,433.483c-1.079,3.349-2.194,6.66-3.274,10.008c-0.26,0.856-0.521,1.675-0.26,2.567
				c0.372,1.19,1.637,1.897,1.674,3.237c0.224-0.187,0.484-0.372,0.707-0.521c-4.391-1.302-4.241,5.692-4.093,8.148
				c0.261,4.874,1.823,9.562,4.428,13.654c0.372,0.595,1.339,0.037,0.968-0.559c-1.861-2.901-3.163-6.102-3.832-9.487
				c-0.373-1.823-1.675-11.868,2.231-10.715c0.335,0.111,0.707-0.186,0.707-0.521c0-0.894-0.335-1.488-0.855-2.195
				c-0.968-1.377-0.894-2.381-0.372-3.981c1.004-3.125,2.046-6.213,3.051-9.338C434.591,433.074,433.513,432.776,433.29,433.483
				L433.29,433.483z"/>
		</g>
	</g>
	<g display="inline">
		<g>
			<path fill="#E8E8E8" d="M433.662,433.632c4.204,4.279,5.246,11.236,5.581,16.966c0.372,6.176-0.521,12.353-2.493,18.193
				c-0.223,0.67,0.855,0.967,1.079,0.298c2.158-6.362,3.051-13.134,2.456-19.831c-0.484-5.692-1.675-12.203-5.805-16.444
				C433.922,432.33,433.14,433.111,433.662,433.632L433.662,433.632z"/>
		</g>
	</g>
	<g display="inline">
		<g>
			<path fill="#E8E8E8" d="M440.322,450.188c0.744-4.985,2.009-9.822,3.758-14.547c-0.261,0.111-0.559,0.223-0.818,0.335
				c0.781,0.521,1.563,1.078,2.344,1.6c0.371,0.26,0.818-0.074,0.855-0.484c0.334-8.296,6.809-14.658,8.557-22.546
				c-0.371,0-0.707,0-1.078,0c2.977,17.933-0.781,36.61-10.455,52.013c-0.372,0.596,0.596,1.153,0.967,0.559
				c9.822-15.664,13.58-34.639,10.566-52.869c-0.074-0.558-0.967-0.521-1.078,0c-1.786,8.036-8.26,14.398-8.595,22.844
				c0.298-0.148,0.558-0.334,0.855-0.483c-0.781-0.521-1.563-1.079-2.344-1.6c-0.335-0.224-0.707,0.037-0.818,0.335
				c-1.749,4.725-3.014,9.562-3.758,14.547C439.13,450.597,440.21,450.895,440.322,450.188L440.322,450.188z"/>
		</g>
	</g>
	<g display="inline">
		<g>
			<path fill="#E8E8E8" d="M453.827,416.852c-1.19,13.729-4.911,27.123-10.976,39.475c-0.297,0.633,0.633,1.19,0.968,0.559
				c6.139-12.576,9.934-26.118,11.124-40.033C454.98,416.108,453.864,416.145,453.827,416.852L453.827,416.852z"/>
		</g>
	</g>
	<g display="inline">
		<g>
			<path fill="#E8E8E8" d="M433.14,434.525c1.525,11.087,2.977,22.397,0.633,33.447c-0.148,0.707,0.931,1.004,1.079,0.298
				c2.419-11.273,0.931-22.77-0.632-34.043C434.146,433.52,433.066,433.818,433.14,434.525L433.14,434.525z"/>
		</g>
	</g>
	<g display="inline">
		<g>
			<path fill="#E8E8E8" d="M379.082,471.804c5.73-0.446,11.496-0.037,17.078,1.339c4.725,1.153,9.412,3.535,14.36,2.791
				c5.097-0.781,9.376-4.167,14.622-4.354c5.06-0.186,10.045,1.563,15.03,0.112c0.707-0.187,0.409-1.266-0.298-1.079
				c-5.209,1.488-10.454-0.559-15.7-0.075c-4.763,0.447-8.743,3.312-13.356,4.242c-5.32,1.041-10.604-1.86-15.738-2.977
				c-5.283-1.153-10.678-1.488-16.035-1.042C378.375,470.725,378.375,471.842,379.082,471.804L379.082,471.804z"/>
		</g>
	</g>
	<g display="inline">
		<g>
			<path fill="#E8E8E8" d="M50.896,523.966c10.269,9.599,25.15-0.781,36.945,3.051c0.669,0.224,0.967-0.855,0.297-1.079
				c-6.288-2.046-12.724-0.446-19.049,0.521c-5.916,0.893-12.724,1.041-17.412-3.312C51.157,522.701,50.338,523.482,50.896,523.966
				L50.896,523.966z"/>
		</g>
	</g>
</g>
<g id="mat">
	<path fill="#FFFFFF" stroke="#161616" stroke-width="3" stroke-miterlimit="10" d="M493.599,537.546
		c-60.607,3.832-124.6,6.176-191.718,6.511c-67.602,0.335-132.078-1.414-193.094-4.65c5.99-10.529,12.017-21.021,18.082-31.476
		c4.874-8.445,9.822-16.854,14.771-25.225c52.459,2.976,109.159,4.167,169.543,2.679c56.887-1.414,110.387-5.061,160.056-10.157
		c4.576,6.437,9.859,15.143,14.175,26.118C490.995,515.594,492.929,528.356,493.599,537.546z"/>
	<g>
		<g>
			<path fill="#161616" d="M136.877,531.816c21.132,2.27,42.414,2.977,63.695,2.12c0.707-0.037,0.707-1.153,0-1.116
				c-21.244,0.856-42.525,0.149-63.695-2.12C136.17,530.626,136.17,531.742,136.877,531.816L136.877,531.816z"/>
		</g>
	</g>
	<g>
		<g>
			<path fill="#161616" d="M174.492,526.459c10.306,0.409,20.648,0.148,30.955,0.148c10.455-0.037,20.872-0.037,31.327-0.074
				c0.707,0,0.707-1.116,0-1.116c-10.455,0.037-20.872,0.037-31.327,0.074c-10.306,0.037-20.649,0.261-30.955-0.148
				C173.785,525.305,173.785,526.422,174.492,526.459L174.492,526.459z"/>
		</g>
	</g>
	<g>
		<g>
			<path fill="#161616" d="M312.039,523.743c31.513-2.01,62.988-4.391,94.463-7.144c0.707-0.074,0.707-1.19,0-1.116
				c-31.438,2.753-62.95,5.134-94.463,7.144C311.332,522.664,311.332,523.78,312.039,523.743L312.039,523.743z"/>
		</g>
	</g>
	<g>
		<g>
			<path fill="#161616" d="M394.187,504.619c24.406-0.893,48.775-2.418,73.107-4.688c0.707-0.074,0.707-1.19,0-1.116
				c-24.332,2.232-48.701,3.795-73.107,4.688C393.48,503.503,393.48,504.619,394.187,504.619L394.187,504.619z"/>
		</g>
	</g>
	<g>
		<g>
			<path fill="#161616" d="M415.542,528.505c20.5-0.893,41-1.786,61.5-2.716c0.707-0.037,0.707-1.153,0-1.116
				c-20.5,0.893-41,1.786-61.5,2.716C414.835,527.426,414.835,528.542,415.542,528.505L415.542,528.505z"/>
		</g>
	</g>
	<path fill="#FFFFFF" stroke="#161616" stroke-width="3" stroke-miterlimit="10" d="M145.063,481.366
		c0.93,1.749,1.86,3.497,2.828,5.283c0.855,0.558,3.757,2.27,7.404,1.6c1.525-0.261,2.716-0.855,3.497-1.339
		c1.042-1.823,2.083-3.646,3.125-5.47c-2.046-0.632-5.06-1.376-8.78-1.339C149.75,480.138,146.997,480.77,145.063,481.366z"/>
	<g>
		<g>
			<path fill="#161616" d="M145.695,481.999c3.349,2.083,8.148,1.6,11.906,1.376c0.707-0.037,0.707-1.153,0-1.116
				c-3.535,0.187-8.185,0.744-11.348-1.228C145.658,480.659,145.1,481.627,145.695,481.999L145.695,481.999z"/>
		</g>
	</g>
	<g>
		<g>
			<path fill="#161616" d="M137.026,456.923c3.163,8.185,6.325,16.37,9.45,24.555c0.261,0.67,1.339,0.372,1.079-0.297
				c-3.163-8.186-6.325-16.371-9.45-24.556C137.845,455.955,136.766,456.216,137.026,456.923L137.026,456.923z"/>
		</g>
	</g>
	<g>
		<g>
			<path fill="#161616" d="M141.788,457.108c1.637,8.371,3.572,16.705,5.767,24.965c0.186,0.707,1.265,0.409,1.079-0.298
				c-2.232-8.26-4.167-16.594-5.767-24.965C142.718,456.104,141.64,456.401,141.788,457.108L141.788,457.108z"/>
		</g>
	</g>
	<g>
		<g>
			<path fill="#E8E8E8" d="M137.25,452.756c-0.558-1.786,0.93-3.46,0.521-5.32c-0.483-1.972-2.418-2.791-2.195-5.061
				c0.149-1.563,0.93-3.051,0.669-4.65c-0.186-1.005-0.818-1.6-1.265-2.492c-0.521-1.116-0.298-2.158,0-3.312
				c0.297-1.303,0.781-2.716,0.26-4.056c-0.26-0.707-0.781-1.042-1.228-1.6c-1.042-1.228-0.893-2.493-0.633-3.981
				c0.819-4.613,0.856-9.04-0.335-13.616c-0.186-0.707-1.265-0.409-1.079,0.297c0.669,2.604,1.042,5.246,0.967,7.925
				c-0.075,2.27-0.67,4.391-0.856,6.623c-0.148,1.823,0.447,2.604,1.563,3.906c1.451,1.749,0.223,3.758-0.038,5.729
				c-0.074,0.633-0.074,1.303,0.112,1.935c0.298,1.042,1.228,1.749,1.414,2.865c0.298,1.785-0.818,3.534-0.707,5.32
				c0.149,1.935,2.158,2.938,2.307,4.799c0.149,1.749-1.116,3.163-0.558,4.985C136.394,453.722,137.473,453.425,137.25,452.756
				L137.25,452.756z"/>
		</g>
	</g>
	<g>
		<g>
			<path fill="#E8E8E8" d="M142.644,451.899c-1.153-1.078,0.298-2.194-0.112-3.46c-0.223-0.707-0.967-1.228-1.004-2.009
				c-0.037-0.707,0.446-1.488,0.558-2.195c0.186-1.339-0.521-1.972-0.855-3.199c-0.447-1.675,0.558-3.534,0.855-5.172
				c0.223-1.265,0.112-2.344-0.335-3.534c-0.372-0.968-0.744-1.786-0.669-2.828c0.074-0.855,0.446-1.637,0.632-2.455
				c0.744-2.977-1.897-6.139-0.632-8.892c0.297-0.633-0.67-1.229-0.967-0.559c-1.488,3.162,1.265,6.176,0.446,9.45
				c-0.409,1.637-0.893,2.827-0.335,4.502c0.335,0.93,0.819,1.823,0.856,2.864c0.074,1.042-0.298,2.047-0.558,3.014
				c-0.335,1.266-0.707,2.604-0.372,3.907c0.297,1.078,1.004,1.897,0.744,3.088c-0.149,0.595-0.409,1.153-0.447,1.785
				c-0.037,0.596,0.038,1.042,0.335,1.563c0.149,0.26,0.595,0.669,0.633,0.855c0.074,0.298-0.186,0.893-0.261,1.153
				c-0.26,1.153-0.186,2.009,0.707,2.864C142.384,453.165,143.165,452.384,142.644,451.899L142.644,451.899z"/>
		</g>
	</g>
</g>
<g id="background">
	<g display="none">
		<g display="inline">
			<path fill="#E8E8E8" d="M92.492,283.621c7.367,2.308,15.18,2.158,22.807,2.01c7.292-0.149,14.547-0.633,21.765-1.377
				c14.398-1.525,28.647-4.241,42.637-7.999c28.313-7.59,55.436-19.347,80.772-34.005c14.361-8.297,28.127-17.524,41.335-27.532
				c0.558-0.446,0-1.414-0.558-0.967c-23.105,17.523-48.032,32.703-74.522,44.534c-26.564,11.868-54.766,20.426-83.674,24.146
				c-7.925,1.042-15.924,1.712-23.923,1.973c-8.706,0.297-17.896,0.781-26.304-1.86C92.12,282.356,91.822,283.398,92.492,283.621
				L92.492,283.621z"/>
		</g>
	</g>
	<g display="none">
		<g display="inline">
			<path fill="#E8E8E8" d="M285.176,226.623c9.934,8.595,21.653,14.733,33.708,19.831c12.947,5.469,26.341,10.008,39.958,13.505
				c26.937,6.995,54.878,10.12,82.669,9.265c15.85-0.484,32.406-1.563,47.549-6.623c0.67-0.223,0.372-1.302-0.298-1.079
				c-13.468,4.539-28.015,5.692-42.116,6.399c-13.654,0.67-27.346,0.372-40.926-0.893c-27.494-2.53-54.616-8.967-80.288-19.124
				c-14.026-5.543-27.904-12.129-39.4-22.063C285.4,225.358,284.618,226.139,285.176,226.623L285.176,226.623z"/>
		</g>
	</g>
	<g display="none">
		<g display="inline">
			<path fill="#E8E8E8" d="M135.984,245.635c13.654,7.888,29.913,9.822,45.316,11.46c15.849,1.674,31.847,2.12,47.808,1.413
				c31.476-1.413,62.802-7.366,92.566-17.672c16.78-5.804,33.038-12.984,48.627-21.431c0.633-0.334,0.075-1.302-0.558-0.967
				c-27.42,14.919-57.035,25.746-87.581,32.22c-30.62,6.474-62.207,8.557-93.421,6.027c-8.855-0.707-17.747-1.712-26.49-3.312
				c-8.966-1.637-17.784-4.093-25.708-8.669C135.947,244.333,135.389,245.301,135.984,245.635L135.984,245.635z"/>
		</g>
	</g>
	<g>
		<g>
			<path fill="#161616" d="M181.821,269.781c0,4.613,0,9.264,0,13.878c0,0.706,1.116,0.706,1.116,0c0-4.614,0-9.265,0-13.878
				C182.937,269.037,181.821,269.037,181.821,269.781L181.821,269.781z"/>
		</g>
	</g>
	<g>
		<g>
			<path fill="#161616" d="M182.156,292.811c0,5.432,0,10.826,0,16.258c0,0.707,1.116,0.707,1.116,0c0-5.432,0-10.826,0-16.258
				C183.272,292.104,182.156,292.067,182.156,292.811L182.156,292.811z"/>
		</g>
	</g>
	<g>
		<g>
			<path fill="#161616" d="M201.13,308.065c0,6.771,0,13.542,0,20.313c0,0.707,1.116,0.707,1.116,0c0-6.771,0-13.542,0-20.313
				C202.247,307.321,201.13,307.321,201.13,308.065L201.13,308.065z"/>
		</g>
	</g>
	<g>
		<g>
			<path fill="#161616" d="M200.46,344.637c0,3.274,0,6.548,0,9.822c0,0.707,1.116,0.707,1.116,0c0-3.274,0-6.548,0-9.822
				C201.577,343.93,200.46,343.93,200.46,344.637L200.46,344.637z"/>
		</g>
	</g>
	<g display="none">
		<g display="inline">
			<path fill="#161616" d="M239.08,244.705c0,5.99,0,11.98,0,17.97c0,0.707,1.116,0.707,1.116,0c0-5.989,0-11.979,0-17.97
				C240.196,243.998,239.08,243.998,239.08,244.705L239.08,244.705z"/>
		</g>
	</g>
	<g display="none">
		<g display="inline">
			<path fill="#161616" d="M239.08,269.074c0,4.502,0,9.041,0,13.543c0,0.707,1.116,0.707,1.116,0c0-4.502,0-9.041,0-13.543
				C240.196,268.367,239.08,268.367,239.08,269.074L239.08,269.074z"/>
		</g>
	</g>
	<g>
		<g>
			<path fill="#161616" d="M398.949,251.476c0,7.775,0,15.589,0,23.364c0,0.707,1.117,0.707,1.117,0c0-7.775,0-15.589,0-23.364
				C400.066,250.769,398.949,250.769,398.949,251.476L398.949,251.476z"/>
		</g>
	</g>
	<g>
		<g>
			<path fill="#161616" d="M398.615,283.993c0,4.056,0,8.148,0,12.204c0,0.706,1.116,0.706,1.116,0c0-4.056,0-8.148,0-12.204
				C399.731,283.287,398.615,283.287,398.615,283.993L398.615,283.993z"/>
		</g>
	</g>
	<g>
		<g>
			<path fill="#161616" d="M332.204,237.933c0,4.985,0,9.934,0,14.919c0,0.707,1.116,0.707,1.116,0c0-4.985,0-9.934,0-14.919
				C333.32,237.226,332.204,237.189,332.204,237.933L332.204,237.933z"/>
		</g>
	</g>
	<g>
		<g>
			<path fill="#161616" d="M332.576,267.065c0,4.502,0,9.041,0,13.543c0,0.706,1.116,0.706,1.116,0c0-4.502,0-9.041,0-13.543
				C333.692,266.358,332.576,266.358,332.576,267.065L332.576,267.065z"/>
		</g>
	</g>
	<g>
		<g>
			<path fill="#161616" d="M436.229,291.434c0,4.391,0,8.817,0,13.208c0,0.707,1.116,0.707,1.116,0c0-4.391,0-8.817,0-13.208
				C437.345,290.727,436.229,290.727,436.229,291.434L436.229,291.434z"/>
		</g>
	</g>
	<g>
		<g>
			<path fill="#161616" d="M436.564,313.795c0,3.497,0,6.994,0,10.492c0,0.706,1.115,0.706,1.115,0c0-3.498,0-6.995,0-10.492
				C437.679,313.088,436.564,313.088,436.564,313.795L436.564,313.795z"/>
		</g>
	</g>
	<circle fill="#2B59C3" cx="182.677" cy="288.793" r="6.176"/>
	<circle fill="#2B59C3" cx="201.316" cy="357.436" r="4.241"/>
	<circle display="none" fill="#5222D0" cx="240.121" cy="288.532" r="2.009"/>
	<circle fill="#2B59C3" cx="334.175" cy="293.369" r="2.828"/>
	<circle fill="#2B59C3" cx="333.99" cy="258.508" r="2.604"/>
	<circle cx="200.944" cy="338.945" r="2.902"/>
	<circle display="none" fill="#EC615B" cx="239.266" cy="243.068" r="2.865"/>
	<circle display="none" fill="#EC615B" cx="239.266" cy="268.405" r="2.865"/>
	<circle cx="332.761" cy="284.068" r="1.414"/>
	<circle cx="399.544" cy="302.113" r="5.916"/>
	<circle cx="437.754" cy="332.955" r="2.828"/>
	<circle cx="399.507" cy="258.508" r="2.604"/>
	<circle fill="#2B59C3" cx="399.544" cy="269.781" r="2.009"/>
	<circle fill="#2B59C3" cx="437.122" cy="308.288" r="2.009"/>
	<g display="none">
		<g display="inline">
			<path fill="#E8E8E8" d="M154.959,337.196c-1.749,2.754-3.498,5.47-5.246,8.223c-1.376,2.158-2.753,4.428-3.237,6.995
				c-0.781,4.427,2.195,7.403,4.725,10.603c1.451,1.823,2.791,3.907,2.158,6.288c-0.558,2.158-2.344,4.019-2.083,6.399
				c0.112,1.005,0.633,1.786,1.079,2.642c0.744,1.488,1.265,3.088,1.451,4.725c0.334,3.051-0.372,6.102-1.972,8.706
				c-0.372,0.633,0.595,1.19,0.967,0.559c2.456-4.056,2.939-9.152,1.042-13.543c-0.67-1.563-1.786-2.827-1.302-4.688
				c0.335-1.229,1.042-2.307,1.525-3.46c0.707-1.749,0.781-3.498,0.037-5.246c-1.674-3.944-6.325-6.511-6.623-11.087
				c-0.186-3.089,1.637-5.916,3.2-8.409c1.749-2.753,3.498-5.506,5.246-8.222C156.298,337.159,155.331,336.601,154.959,337.196
				L154.959,337.196z"/>
		</g>
	</g>
	<g display="none">
		<g display="inline">
			<path fill="#E8E8E8" d="M223.677,379.349c-2.753,2.791-4.13,6.697-3.684,10.604c0.223,2.047,1.042,3.758,2.009,5.581
				c1.451,2.753,1.786,4.837,0.669,7.738c-0.669,1.712-1.525,3.461-1.302,5.32c0.224,2.121,1.86,3.237,2.865,4.986
				c2.121,3.795-2.158,7.775-1.153,11.831c0.186,0.707,1.265,0.409,1.079-0.298c-0.93-3.646,2.567-6.883,1.674-10.566
				c-0.446-1.786-1.897-2.902-2.791-4.428c-1.265-2.157-0.074-4.427,0.707-6.548c0.632-1.674,1.079-3.349,0.707-5.134
				c-0.484-2.195-1.972-3.981-2.753-6.064c-1.563-4.204-0.372-9.078,2.753-12.24C224.979,379.61,224.197,378.829,223.677,379.349
				L223.677,379.349z"/>
		</g>
	</g>
	<g display="none">
		<g display="inline">
			<path fill="#E8E8E8" d="M465.211,387.461c-3.72,4.353-7.329,9.971-6.957,15.961c0.187,2.864,1.45,5.171,3.014,7.516
				c1.823,2.716,3.386,5.283,2.493,8.668c-1.191,4.428-5.582,8.855-4.057,13.729c0.931,2.976,3.907,4.613,4.614,7.738
				c0.818,3.721-0.894,7.627-2.419,10.938c-0.297,0.632,0.67,1.228,0.968,0.558c1.265-2.753,2.493-5.618,2.716-8.669
				c0.223-2.901-0.744-5.208-2.529-7.44c-2.121-2.567-3.088-4.763-1.973-7.999c0.855-2.493,2.381-4.726,3.312-7.181
				c0.894-2.307,1.116-4.688,0.149-7.032c-1.006-2.455-2.865-4.353-4.057-6.696c-3.348-6.697,1.154-14.213,5.507-19.272
				C466.476,387.721,465.695,386.939,465.211,387.461L465.211,387.461z"/>
		</g>
	</g>
	<g display="none">
		<g display="inline">
			<path fill="#E8E8E8" d="M475.666,427.084c-1.934,1.823-3.162,4.204-3.496,6.846c-0.41,3.162,0.781,5.357,2.046,8.11
				c1.563,3.386-1.488,6.437-0.67,9.859c0.446,1.86,1.451,3.274,1.414,5.246c-0.075,2.047-0.894,3.907-2.308,5.357
				c-0.482,0.521,0.299,1.303,0.782,0.781c1.897-1.935,2.901-4.576,2.567-7.292c-0.187-1.563-1.042-2.901-1.377-4.427
				c-0.484-2.047,0.633-3.907,1.041-5.842c0.707-3.273-1.525-5.209-2.231-8.185c-0.856-3.535,0.372-7.255,3.013-9.711
				C477.005,427.382,476.224,426.6,475.666,427.084L475.666,427.084z"/>
		</g>
	</g>
	<g display="none">
		<g display="inline">
			<path fill="#E8E8E8" d="M372.199,323.319c-2.121,3.274-4.465,7.144-3.236,11.198c0.596,1.973,2.232,2.791,3.125,4.502
				c0.855,1.712,0.037,3.721-0.559,5.357c-0.855,2.345-2.046,5.209,0.112,7.218c0.855,0.781,1.897,1.229,2.27,2.456
				c0.298,1.005,0.037,2.195-0.149,3.162c-0.371,1.786-0.893,3.572-0.67,5.395c0.075,0.707,1.191,0.707,1.117,0
				c-0.336-3.051,1.896-6.474,0.595-9.412c-0.744-1.712-3.051-2.195-3.274-4.13c-0.186-1.451,0.596-3.051,1.08-4.391
				c0.93-2.567,1.6-5.134-0.41-7.366c-1.859-2.047-2.827-4.019-2.232-6.846c0.484-2.419,1.898-4.576,3.237-6.623
				C373.576,323.245,372.609,322.686,372.199,323.319L372.199,323.319z"/>
		</g>
	</g>
	<g>
		<g>
			<path fill="#2B59C3" d="M219.249,284.031c-2.195,1.525-2.567,4.241-1.042,6.361c1.376,1.86-0.744,2.716-0.335,4.465
				c0.149,0.633,0.67,1.005,0.967,1.563c0.744,1.377-0.112,2.828-0.818,4.056c-0.372,0.633,0.595,1.19,0.967,0.558
				c0.669-1.153,1.414-2.492,1.302-3.869c-0.037-0.633-0.298-1.042-0.558-1.6c-0.186-0.335-0.409-0.446-0.558-0.855
				c-0.186-0.707,0.074-0.856,0.409-1.525c0.484-0.931,0.669-1.712,0.149-2.679c-0.484-0.894-1.265-1.414-1.339-2.53
				c-0.075-1.19,0.483-2.344,1.451-3.014C220.402,284.589,219.844,283.621,219.249,284.031L219.249,284.031z"/>
		</g>
	</g>
	<g>
		<g>
			<path fill="#2B59C3" d="M166.009,311.934c-0.707,0.781-1.153,1.637-1.228,2.679c-0.075,1.19,0.893,2.418,0.372,3.497
				c-0.372,0.781-0.781,1.079-0.707,2.047c0.074,1.004,1.749,3.758,0.223,4.353c-0.67,0.261-0.372,1.34,0.298,1.079
				c1.86-0.707,1.488-2.679,0.967-4.204c-0.41-1.19-0.075-1.786,0.446-2.902c0.112-0.26,0.298-0.446,0.335-0.744
				c0.074-0.595-0.261-0.93-0.484-1.413c-0.595-1.303-0.446-2.567,0.521-3.609C167.274,312.195,166.455,311.377,166.009,311.934
				L166.009,311.934z"/>
		</g>
	</g>
	<g display="none">
		<g display="inline">
			<path fill="#5222D0" d="M450.702,323.505c-1.488-0.111-2.567,1.005-2.79,2.456c-0.336,2.121,1.414,3.608,2.307,5.32
				c0.595,1.19,0.371,2.121,0,3.274c-0.187,0.595-0.41,0.409-0.447,1.078c-0.037,0.559,0.187,0.968,0.559,1.377
				c1.004,1.153,1.823,1.674,1.711,3.386c-0.111,1.525-0.818,2.977-1.488,4.278c-0.334,0.633,0.633,1.19,0.968,0.559
				c0.781-1.488,1.563-3.126,1.638-4.837c0.111-1.674-0.559-2.418-1.451-3.684c-0.298-0.186-0.41-0.483-0.373-0.893
				c-0.297-0.446-0.223-0.818,0.149-1.153c0.074-0.335,0.261-0.596,0.335-0.968c0.148-0.781,0-1.563-0.298-2.344
				c-0.298-0.818-0.818-1.488-1.302-2.195c-0.41-0.595-0.893-1.265-1.079-1.972c-0.298-1.079,0-2.716,1.6-2.604
				C451.409,324.696,451.409,323.58,450.702,323.505L450.702,323.505z"/>
		</g>
	</g>
</g>
<g id="girl_meditating">
	<g id="leg_left">
		<path fill="#2B59C3" d="M335.552,525.863c-7.33,1.116-13.506,1.377-17.784,1.377c-2.344,34.117-2.009,51.417,1.042,51.9
			c2.566,0.409,7.068-11.124,13.468-34.601c8.817-2.195,17.673-4.39,26.49-6.585c0.894-8.632-1.116-11.98-3.126-13.506
			C351.922,521.659,346.713,524.115,335.552,525.863z"/>
		<path d="M299.575,465.405c-6.176,5.618-4.055,20.872,5.134,36.833c2.158-0.261,5.544-0.483,9.6-0.148
			c1.674,0.148,6.92,0.669,20.314,5.543c2.789,1.042,6.659,2.493,11.272,4.465c-3.608,0.967-7.218,1.935-10.864,2.902
			c0.41,4.353,1.154,9.301,2.493,14.584c2.456,9.785,6.102,17.784,9.45,23.774c8.371-2.456,15.217-4.874,20.165-6.66
			c11.868-4.353,18.155-7.479,24.183-11.683c6.438-4.502,9.822-8.297,10.864-13.059c0.596-2.753,0.261-5.135,0.149-5.99
			c-0.744-4.613-3.312-7.738-5.99-10.715c-5.879-6.585-8.818-9.859-13.617-13.506c-10.976-8.296-20.983-12.649-32.107-17.374
			c-8.595-3.646-14.324-6.064-22.658-8.074C314.643,463.21,304.634,460.792,299.575,465.405z"/>
		<g>
			<g>
				<path d="M325.284,466.112c11.198,3.273,22.1,7.44,32.666,12.464c9.264,4.39,18.565,9.264,26.602,15.7
					c3.72,2.977,7.181,6.288,10.194,10.008c3.273,4.056,7.516,9.524,7.44,14.994c-0.074,5.097-4.911,9.747-8.445,12.947
					c-3.758,3.386-8.036,6.064-12.575,8.26c-11.088,5.357-23.365,7.553-34.601,12.575c-0.67,0.298-0.075,1.265,0.558,0.967
					c10.789-4.836,22.547-7.031,33.299-11.979c4.539-2.084,8.893-4.651,12.762-7.888c3.608-3.014,7.701-6.994,9.449-11.459
					c1.898-4.837-0.67-9.822-3.236-13.841c-2.791-4.39-6.176-8.371-10.008-11.905c-7.59-7.031-16.631-12.24-25.82-16.854
					c-12.166-6.139-24.891-11.199-37.986-15.031C324.875,464.847,324.577,465.888,325.284,466.112L325.284,466.112z"/>
			</g>
		</g>
		<g>
			<g>
				<path d="M364.609,506.479c-4.948,1.414-9.934,2.828-14.882,4.241c-4.874,1.377-9.859,2.604-14.622,4.316
					c-0.669,0.26-0.371,1.339,0.299,1.078c4.762-1.748,9.747-2.938,14.621-4.315c4.948-1.414,9.934-2.827,14.882-4.241
					C365.577,507.372,365.279,506.294,364.609,506.479L364.609,506.479z"/>
			</g>
		</g>
		<g>
			<g>
				<path d="M334.66,515.111c1.227,13.505,4.984,26.713,11.459,38.656c0.334,0.632,1.302,0.074,0.967-0.559
					c-6.361-11.757-10.082-24.778-11.311-38.061C335.738,514.404,334.623,514.404,334.66,515.111L334.66,515.111z"/>
			</g>
		</g>
		<g>
			<g>
				<path d="M346.044,512.097c-12.91-7.404-27.569-11.273-42.488-10.678c-0.707,0.037-0.707,1.153,0,1.116
					c14.695-0.633,29.168,3.199,41.893,10.528C346.119,513.399,346.676,512.432,346.044,512.097L346.044,512.097z"/>
			</g>
		</g>
		<path opacity="0.11" fill="#3D3D3D" enable-background="new    " d="M302.812,478.761c3.459,0.781,8.52,2.084,14.51,4.056
			c4.428,1.451,12.799,4.39,32.033,14.101c6.474,3.274,14.994,7.701,24.854,13.245c-12.539,5.543-25.076,11.087-37.615,16.593
			c-0.669-3.832-1.376-7.627-2.046-11.459c3.237-1.041,6.474-2.046,9.71-3.088c-4.947-2.716-11.941-5.915-20.723-7.925
			c-7.255-1.674-13.654-2.083-18.677-2.046C304.151,494.387,303.482,486.575,302.812,478.761z"/>
		<path opacity="0.11" fill="#3D3D3D" enable-background="new    " d="M304.821,502.09c5.915-1.042,15.515-2.01,26.899,0.297
			c9.822,1.973,17.338,5.655,22.211,8.521c-6.139,3.497-12.24,6.957-18.379,10.454c-0.41-2.046-0.781-4.13-1.191-6.176
			c3.274-1.042,6.549-2.046,9.859-3.088c-4.353-2.344-9.896-4.837-16.593-6.771C318.662,502.759,310.736,502.09,304.821,502.09z"/>
	</g>
	<g id="leg_right">
		<path fill="#2B59C3" d="M256.491,537.881c5.544,1.935,11.087,3.869,16.594,5.804c1.153,23.923,2.828,35.94,4.985,36.015
			c2.642,0.111,6.027-17.151,10.194-51.827c-8.818-2.12-17.598-4.278-26.416-6.398C260.1,526.942,258.314,532.411,256.491,537.881z"
			/>
		<path d="M304.784,502.127c-0.335-10.678-1.563-19.533-2.753-26.007c-2.493-13.654-4.651-15.812-6.548-16.705
			c-4.13-1.897-8.334,1.749-18.826,6.548c-8.595,3.944-7.479,2.27-22.211,7.813c-10.79,4.056-23.812,9.636-37.652,17.747
			c-2.976,1.748-9.971,5.952-16.705,13.542c-6.325,7.106-6.771,10.864-6.771,12.688c0,1.86,0.446,6.027,6.548,12.277
			c7.181,7.329,15.292,10.492,38.693,17.97c6.437,2.047,12.315,3.907,17.561,5.507c2.828-5.395,4.986-10.083,6.548-13.729
			c4.39-10.269,5.32-15.105,5.692-17.562c0.409-2.716,0.595-4.985,0.632-6.548c-3.795-1.004-7.627-1.972-11.422-2.977
			c4.316-2.455,9.673-4.985,16.073-6.994C286.218,501.792,297.268,501.568,304.784,502.127z"/>
		<g>
			<g>
				<path d="M258.687,512.99c1.637,0.372,3.311,0.744,4.948,1.116s3.497,0.559,4.874,1.6c0.558,0.447,1.116-0.521,0.558-0.967
					c-1.302-1.005-2.902-1.228-4.465-1.563c-1.86-0.409-3.758-0.856-5.618-1.266C258.277,511.762,257.979,512.842,258.687,512.99
					L258.687,512.99z"/>
			</g>
		</g>
		<g>
			<g>
				<path d="M279.633,465.144c-16.296,4.279-32.145,10.083-47.399,17.264c-8.037,3.795-15.813,8.408-22.844,13.84
					c-7.813,6.027-21.802,18.491-14.287,29.43c3.46,5.022,8.706,8.743,13.915,11.757c4.242,2.492,8.743,4.576,13.319,6.324
					c2.679,1.005,5.469,1.749,8.223,2.604c8.371,2.53,16.742,5.172,25.076,7.851c0.669,0.223,0.967-0.856,0.297-1.079
					c-6.883-2.232-13.766-4.428-20.686-6.511c-3.609-1.116-7.292-2.047-10.864-3.312c-8.78-3.014-17.821-7.553-24.555-13.952
					c-2.195-2.083-4.465-4.539-5.283-7.478c-1.042-3.646,0.261-7.293,2.083-10.418c2.939-5.06,7.292-9.264,11.794-12.947
					c7.218-5.878,15.366-10.752,23.774-14.771c15.329-7.329,31.364-13.17,47.809-17.449
					C280.637,466.038,280.34,464.959,279.633,465.144L279.633,465.144z"/>
			</g>
		</g>
		<g>
			<g>
				<path d="M235.508,507.67c5.543,1.414,11.124,2.828,16.668,4.204c5.469,1.377,11.05,2.567,16.407,4.354
					c0.669,0.223,0.967-0.855,0.298-1.079c-5.358-1.749-10.938-2.939-16.408-4.354c-5.543-1.413-11.124-2.827-16.668-4.204
					C235.099,506.442,234.801,507.521,235.508,507.67L235.508,507.67z"/>
			</g>
		</g>
		<g>
			<g>
				<path d="M268.248,515.26c-1.376,13.469-5.655,26.527-12.687,38.061c-0.372,0.633,0.596,1.191,0.968,0.559
					c7.143-11.757,11.459-25.002,12.835-38.656C269.439,514.515,268.323,514.552,268.248,515.26L268.248,515.26z"/>
			</g>
		</g>
		<g>
			<g>
				<path d="M257.235,513.177c14.547-7.441,30.731-11.125,47.065-10.529c0.707,0.037,0.707-1.079,0-1.116
					c-16.52-0.633-32.927,3.125-47.623,10.678C256.045,512.544,256.603,513.511,257.235,513.177L257.235,513.177z"/>
			</g>
		</g>
		<path opacity="0.13" fill="#3D3D3D" enable-background="new    " d="M297.008,481.812c-15.999,7.776-26.527,13.245-31.252,15.515
			c-12.426,5.878-24.555,11.273-36.349,16.259c9.003-1.005,17.784,3.162,22.36,10.678c5.172,8.482,4.093,19.719-2.79,27.457
			c2.381,0.855,4.762,1.712,7.106,2.53c2.009-3.2,4.018-6.846,5.841-10.938c4.836-10.752,6.809-20.724,7.627-28.462
			c-3.386-1.116-6.771-2.195-10.157-3.312c3.051-1.339,6.362-2.642,9.896-3.795c13.394-4.39,25.708-5.432,35.531-5.283
			c-0.112-2.679-0.261-5.395-0.446-8.185c-0.373-5.32-0.931-10.417-1.563-15.254C301.472,479.654,299.463,480.659,297.008,481.812z"
			/>
		<path opacity="0.15" fill="#3D3D3D" enable-background="new    " d="M303.519,501.494c-0.037-0.483-9.6-1.34-21.17,0.298
			c-13.096,1.86-23.327,6.139-29.987,9.562c3.385,2.53,6.771,5.097,10.157,7.627c-1.823,11.124-3.609,22.249-5.432,33.373
			c3.758-6.176,8-14.808,10.455-25.709c0.967-4.353,1.488-8.371,1.749-12.055c-1.005-0.297-2.046-0.595-3.088-0.893
			c-2.418-0.67-4.762-1.265-7.069-1.749c1.823-0.818,4.39-1.935,7.516-3.088C286.851,501.345,303.519,502.09,303.519,501.494z"/>
		<path fill="#3D3D3D" d="M302.068,506.07"/>
	</g>
	<g id="hand_left">
		<path fill="#FFFFFF" d="M331.943,378.718c1.898-0.633,4.763,2.307,6.475,4.018c2.752,2.791,4.129,5.618,4.539,6.474
			c5.059,10.492,4.166,6.325,8.445,16.073c5.246,12.017,8.817,23.364,8.817,23.364c1.749,5.544,2.827,9.674,6.213,14.771
			c3.832,5.729,6.995,7.255,8.297,7.776c4.315,1.785,8.408,1.004,10.231,0.521c1.972-1.935,3.497-3.609,4.539-4.8
			c2.121-2.418,3.014-3.72,4.688-3.906c0.372-0.037,2.084-0.224,2.977,0.781c0.409,0.446,0.484,0.931,0.893,1.042
			c0.521,0.148,1.042-0.446,1.675-1.042c0.261-0.261,1.972-1.86,3.757-2.604c0.931-0.409,2.717-0.93,3.237-0.26
			c0.521,0.669-0.632,2.083-0.111,2.604c0.521,0.521,1.786-0.669,3.125-0.111c0.744,0.335,1.376,1.153,1.414,1.935
			c0.074,0.968-0.744,1.19-0.894,2.456c-0.148,1.041,0.336,1.228,0.261,2.083c-0.149,1.303-1.339,1.488-2.977,3.386
			c-0.93,1.079-0.669,1.153-2.344,3.646c-0.632,0.93-1.451,2.157-2.083,2.864c-2.456,2.753-6.623,2.977-8.818,3.125
			c-4.241,0.224-7.59-1.041-9.486-1.935c-1.266,0.894-3.2,2.01-5.693,2.865c-6.436,2.12-12.092,0.633-14.398,0
			c-9.189-2.567-14.584-9.524-18.155-14.287c-5.32-7.068-7.255-13.208-10.753-24.369c-1.078-3.386-4.315-14.138-5.58-28.536
			C329.71,390.102,328.855,379.76,331.943,378.718z"/>
		<g>
			<g>
				<path fill="#161616" d="M332.985,380.056c3.274,1.079,5.544,3.721,7.44,6.511c1.973,2.865,3.721,5.879,5.396,8.967
					c3.386,6.325,6.213,12.91,8.854,19.57c2.679,6.696,5.135,13.468,7.627,20.202c2.01,5.357,4.428,11.05,9.078,14.621
					c4.316,3.312,10.455,4.688,15.291,1.675c0.596-0.372,0.037-1.34-0.558-0.968c-5.134,3.2-11.757,0.968-15.737-3.088
					c-4.539-4.688-6.475-11.198-8.67-17.151c-4.65-12.725-9.412-25.672-16.072-37.54c-2.902-5.172-6.324-11.868-12.352-13.878
					C332.613,378.755,332.316,379.834,332.985,380.056L332.985,380.056z"/>
			</g>
		</g>
		<g>
			<g>
				<path fill="#161616" d="M332.613,416.108c3.312,11.459,6.102,23.439,12.91,33.41c5.618,8.26,13.952,14.845,24.184,15.663
					c5.543,0.447,11.161-0.893,15.626-4.241c0.558-0.409,0-1.414-0.558-0.967c-5.209,3.943-11.943,4.948-18.268,3.646
					c-6.251-1.302-11.646-4.911-15.924-9.524c-9.711-10.529-12.947-24.89-16.817-38.246
					C333.505,415.141,332.427,415.438,332.613,416.108L332.613,416.108z"/>
			</g>
		</g>
		<g>
			<g>
				<path fill="#161616" d="M386.783,451.751c1.563-2.195,3.014-4.725,4.912-6.622c1.115-1.116,2.939-2.232,4.539-1.34
					c1.376,0.781,1.488,2.567,0.669,3.758c-0.409,0.596,0.558,1.153,0.968,0.558c1.748-2.492-0.074-5.841-3.125-5.692
					c-1.823,0.112-3.312,1.266-4.428,2.642c-1.6,1.936-2.977,4.093-4.465,6.14C385.407,451.751,386.375,452.309,386.783,451.751
					L386.783,451.751z"/>
			</g>
		</g>
		<g>
			<g>
				<path fill="#161616" d="M391.955,446.877c-0.818,1.638,0.187,3.535,2.01,3.832c2.195,0.335,3.795-1.525,4.166-3.497
					c0.149-0.707-0.93-1.005-1.078-0.298c-0.224,1.19-0.855,2.419-2.158,2.679c-1.229,0.261-2.604-0.818-1.972-2.12
					C393.22,446.802,392.252,446.245,391.955,446.877L391.955,446.877z"/>
			</g>
		</g>
		<g>
			<g>
				<path fill="#161616" d="M384.588,461.275c4.278,0.855,8.334,2.828,12.761,1.897c3.572-0.744,6.623-2.939,8.595-5.953
					c0.409-0.595-0.558-1.153-0.968-0.558c-1.934,2.939-4.984,4.985-8.482,5.544c-4.018,0.632-7.775-1.229-11.645-2.01
					C384.179,460.085,383.881,461.164,384.588,461.275L384.588,461.275z"/>
			</g>
		</g>
		<g>
			<g>
				<path fill="#161616" d="M395.117,449.593c-1.189,0.707-1.041,2.345-0.037,3.2c0.856,0.707,2.01,0.595,3.051,0.595
					c1.786-0.037,3.274,0.261,4.837,1.153c0.633,0.335,1.19-0.595,0.558-0.967c-1.152-0.67-2.381-1.116-3.72-1.266
					c-0.632-0.074-1.265-0.037-1.935-0.037c-0.409,0-0.818,0.037-1.191-0.037c-0.445-0.111-1.896-1.116-1.004-1.637
					C396.271,450.188,395.712,449.22,395.117,449.593L395.117,449.593z"/>
			</g>
		</g>
		<g>
			<g>
				<path fill="#161616" d="M395.861,450.077c2.791-1.601,6.214-1.266,8.595,0.93c0.521,0.483,1.302-0.298,0.781-0.781
					c-2.753-2.53-6.696-2.977-9.934-1.116C394.671,449.481,395.229,450.449,395.861,450.077L395.861,450.077z"/>
			</g>
		</g>
		<g>
			<g>
				<path fill="#161616" d="M398.28,445.538c1.228-0.894,2.419-1.749,3.646-2.642c0.521-0.372,1.005-0.744,1.563-1.079
					c0.373-0.224,0.744-0.446,1.154-0.596c1.748-0.595,2.158,0.261,1.19,2.567c-0.67,0.224-0.372,1.303,0.298,1.079
					c2.009-0.707,2.716-3.423,0.632-4.576c-1.153-0.67-2.53-0.187-3.571,0.409c-1.897,1.079-3.646,2.604-5.432,3.869
					C397.126,445.016,397.685,445.984,398.28,445.538L398.28,445.538z"/>
			</g>
		</g>
		<g>
			<g>
				<path fill="#161616" d="M400.661,448.514c1.488-0.931,2.977-1.897,4.465-2.828c0.669-0.409,1.339-0.893,2.083-1.228
					c0.559-0.298,1.154-0.409,1.786-0.409c1.302,0,1.786,0.781,1.451,2.307c-0.446,0.558,0.335,1.339,0.781,0.781
					c1.414-1.786,0.149-3.981-2.009-4.167c-1.414-0.148-2.68,0.558-3.832,1.265c-1.786,1.079-3.535,2.232-5.283,3.349
					C399.47,447.919,400.029,448.885,400.661,448.514L400.661,448.514z"/>
			</g>
		</g>
		<g>
			<g>
				<path fill="#161616" d="M405.013,450.262c1.005-0.558,2.01-1.079,3.014-1.563c0.336-0.186,1.451-0.855,1.787-0.781
					c0.93,0.186,0.297,1.116,0.074,1.488c-0.373,0.595,0.595,1.19,0.967,0.558c0.596-0.967,1.116-2.864-0.484-3.162
					c-0.855-0.186-1.785,0.409-2.529,0.781c-1.153,0.559-2.307,1.116-3.423,1.749C403.824,449.668,404.418,450.635,405.013,450.262
					L405.013,450.262z"/>
			</g>
		</g>
		<g>
			<g>
				<path fill="#161616" d="M403.451,450.002c2.68,1.488,3.2,4.8,1.08,7.032c-0.484,0.521,0.297,1.302,0.781,0.781
					c2.604-2.716,2.008-6.957-1.303-8.78C403.414,448.7,402.819,449.668,403.451,450.002L403.451,450.002z"/>
			</g>
		</g>
		<g>
			<g>
				<path fill="#161616" d="M410.296,449.593c-1.189,1.525-2.566,2.865-4.092,3.981c-0.559,0.409-0.037,1.376,0.558,0.967
					c1.638-1.19,3.089-2.566,4.353-4.167C411.525,449.816,410.744,449.035,410.296,449.593L410.296,449.593z"/>
			</g>
		</g>
		<g>
			<g>
				<path fill="#161616" d="M392.215,453.946c2.344,0.186,4.539,0.93,6.511,2.232c0.596,0.409,1.153-0.559,0.559-0.968
					c-2.158-1.376-4.502-2.158-7.069-2.381C391.508,452.793,391.508,453.909,392.215,453.946L392.215,453.946z"/>
			</g>
		</g>
		<path opacity="0.09" fill="#3D3D3D" enable-background="new    " d="M328.185,387.721c0.67,4.762,1.749,11.459,3.349,19.495
			c1.042,5.209,1.786,9.041,3.163,14.138c2.083,7.738,3.795,14.25,7.813,21.802c2.642,4.948,4.428,8.334,8.148,11.98
			c2.641,2.567,9.561,9.339,19.979,9.487c6.362,0.074,11.385-2.344,14.324-4.167c1.748,0.968,4.762,2.27,8.668,2.344
			c1.824,0.037,5.246,0.074,8.483-2.158c1.116-0.781,4.093-2.79,4.315-6.176c0.037-0.521,0.187-3.349-1.822-4.837
			c-2.232-1.637-5.879-0.669-6.176,0.484c-0.262,1.079,2.418,1.972,2.344,3.497c-0.112,1.935-4.502,3.125-5.32,3.349
			c-26.193,7.068-40.293-4.65-40.293-4.65c-4.279-3.572-6.549-7.441-11.832-20.649C338.975,420.797,333.505,405.951,328.185,387.721
			z"/>
	</g>
	<g id="hand_right">
		<path fill="#FFFFFF" d="M221.891,459.08c1.711,1.266,6.25,4.204,12.464,4.167c5.804-0.037,9.896-2.679,12.203-4.167
			c3.832-2.455,6.027-5.171,8.036-7.775c6.25-7.925,8.743-16.185,10.529-22.174c1.6-5.358,0.967-5.061,2.493-9.711
			c2.865-8.706,5.32-10.678,7.776-16.892c4.055-10.269,4.316-22.509,1.116-23.848c-1.488-0.596-3.684,1.153-8.037,4.725
			c-1.302,1.079-3.609,2.977-6.027,5.916c-1.935,2.381-5.32,7.068-9.078,18.268c-3.051,9.152-2.381,10.641-5.99,20.76
			c-2.232,6.288-3.646,8.855-5.357,11.199c-1.935,2.604-5.134,6.846-10.938,9.078c-4.428,1.711-8.409,1.488-10.604,1.19
			c-0.298-1.488-1.302-5.581-4.762-7.59c-0.856-0.521-2.939-1.712-4.428-0.818c-0.855,0.521-1.153,1.488-1.265,2.009
			c-1.637-2.307-3.423-3.312-4.428-3.758c-0.967-0.409-2.939-1.302-3.757-0.483c-0.744,0.744-0.075,2.455,0,2.679
			c-1.042-0.558-2.232-0.483-3.088,0.148c-0.632,0.484-1.339,1.451-1.079,2.493c0.186,0.707,0.744,1.153,0.93,1.265
			c-0.224,0.633-0.41,1.601-0.075,2.604c0.186,0.521,0.409,0.855,1.749,2.344c1.711,1.935,1.749,1.86,2.083,2.344
			c0.93,1.377,0.744,2.121,1.339,3.349c1.042,2.27,3.274,3.349,4.018,3.684c2.381,1.153,4.577,0.855,8.186,0.335
			C218.208,460.159,220.216,459.638,221.891,459.08z"/>
		<g>
			<g>
				<path fill="#161616" d="M276.396,377.676c-5.692,2.865-10.827,6.809-14.808,11.831s-6.734,10.827-8.817,16.854
					c-2.083,6.102-3.572,12.389-5.171,18.603c-1.525,6.026-4.093,12.277-8.111,17.076c-4.688,5.618-11.98,7.776-19.086,6.958
					c-0.707-0.074-0.707,1.042,0,1.116c5.618,0.632,11.459-0.446,16.11-3.758c4.911-3.497,7.999-9.339,10.194-14.845
					c2.344-5.842,3.386-12.203,5.097-18.23c1.823-6.511,4.055-12.984,7.627-18.752c4.241-6.883,10.306-12.24,17.523-15.849
					C277.624,378.308,277.028,377.341,276.396,377.676L276.396,377.676z"/>
			</g>
		</g>
		<g>
			<g>
				<path fill="#161616" d="M268.397,414.211c-3.386,12.873-6.139,26.751-14.622,37.429c-3.683,4.613-8.483,8.557-14.287,10.119
					c-6.027,1.638-12.538,0.707-17.412-3.311c-0.558-0.447-1.339,0.335-0.781,0.781c7.404,6.102,17.97,5.469,25.708,0.26
					c8.483-5.692,13.505-15.291,16.78-24.704c2.307-6.622,3.906-13.505,5.692-20.276
					C269.662,413.802,268.583,413.504,268.397,414.211L268.397,414.211z"/>
			</g>
		</g>
		<g>
			<g>
				<path fill="#161616" d="M220.998,449.555c-1.302-2.009-2.53-4.13-3.98-6.027c-1.005-1.339-2.344-2.604-4.13-2.753
					c-3.088-0.186-4.428,3.349-2.939,5.692c0.372,0.596,1.339,0.037,0.967-0.558c-0.707-1.116-0.669-2.977,0.595-3.758
					c1.786-1.116,3.609,0.707,4.577,1.972c1.451,1.897,2.641,3.98,3.943,5.99C220.402,450.709,221.37,450.151,220.998,449.555
					L220.998,449.555z"/>
			</g>
		</g>
		<g>
			<g>
				<path fill="#161616" d="M214.45,445.835c0.595,1.266-0.632,2.53-1.935,2.084c-1.079-0.372-1.563-1.6-1.749-2.642
					c-0.112-0.707-1.191-0.409-1.079,0.298c0.335,1.86,1.674,3.795,3.795,3.534c1.823-0.223,2.642-2.27,1.935-3.832
					C215.12,444.607,214.152,445.166,214.45,445.835L214.45,445.835z"/>
			</g>
		</g>
		<g>
			<g>
				<path fill="#161616" d="M221.779,458.596c-3.423,0.744-6.771,2.567-10.343,2.009c-3.386-0.521-6.213-2.679-7.925-5.543
					c-0.372-0.633-1.339-0.037-0.967,0.558c1.749,2.939,4.502,5.172,7.888,5.953c4.092,0.93,7.739-1.042,11.645-1.897
					C222.784,459.527,222.486,458.448,221.779,458.596L221.779,458.596z"/>
			</g>
		</g>
		<g>
			<g>
				<path fill="#161616" d="M211.957,448.924c0.26,0.186,0.297,0.558,0.186,0.818c-0.223,0.744-1.042,0.818-1.711,0.893
					c-0.707,0.037-1.414-0.074-2.158,0c-1.265,0.149-2.418,0.596-3.498,1.265c-0.595,0.372-0.037,1.34,0.558,0.968
					c1.376-0.855,2.753-1.19,4.39-1.153c0.967,0.037,1.972,0.111,2.753-0.558c1.004-0.819,1.116-2.493,0-3.2
					C211.92,447.584,211.362,448.552,211.957,448.924L211.957,448.924z"/>
			</g>
		</g>
		<g>
			<g>
				<path fill="#161616" d="M212.366,447.51c-2.939-1.897-6.66-1.377-9.115,1.116c-0.521,0.521,0.298,1.302,0.781,0.781
					c2.121-2.121,5.209-2.567,7.776-0.931C212.403,448.848,212.961,447.882,212.366,447.51L212.366,447.51z"/>
			</g>
		</g>
		<g>
			<g>
				<path fill="#161616" d="M210.283,443.045c-1.525-1.228-3.014-2.53-4.613-3.646c-0.967-0.67-2.195-1.34-3.386-0.894
					c-2.344,0.855-1.86,3.981,0.186,4.763c0.669,0.26,0.967-0.818,0.297-1.079c-1.376-1.637-1.265-2.381,0.335-2.232
					c0.595-0.298,1.116-0.261,1.563,0.111c0.632,0.298,1.228,0.931,1.786,1.34c1.004,0.818,2.046,1.637,3.051,2.455
					C210.022,444.272,210.841,443.491,210.283,443.045L210.283,443.045z"/>
			</g>
		</g>
		<g>
			<g>
				<path fill="#161616" d="M207.976,445.947c-1.6-1.116-3.2-2.27-4.799-3.349c-1.042-0.707-2.195-1.377-3.46-1.265
					c-2.009,0.186-3.237,2.381-2.009,4.092c0.409,0.559,1.376,0,0.967-0.558c-0.818-1.488-0.149-2.27,1.935-2.344
					c0.484,0.148,0.93,0.335,1.339,0.595c0.521,0.298,1.004,0.67,1.488,1.005c1.339,0.93,2.679,1.86,4.018,2.79
					C208.013,447.323,208.571,446.356,207.976,445.947L207.976,445.947z"/>
			</g>
		</g>
		<g>
			<g>
				<path fill="#161616" d="M203.995,447.695c-1.004-0.632-2.046-1.228-3.125-1.748c-0.707-0.372-1.674-1.042-2.53-0.744
					c-1.339,0.483-0.818,2.27-0.297,3.162c0.334,0.633,1.302,0.074,0.967-0.558c-0.112-0.224-0.521-0.894-0.409-1.153
					c0.148-0.372,0.744-0.149,1.004-0.075c0.297,0.075,0.595,0.298,0.893,0.447c1.004,0.521,1.972,1.078,2.939,1.674
					C204.032,449.035,204.627,448.067,203.995,447.695L203.995,447.695z"/>
			</g>
		</g>
		<g>
			<g>
				<path fill="#161616" d="M204.367,447.435c-3.125,1.935-3.535,6.064-1.19,8.78c0.483,0.558,1.265-0.261,0.781-0.781
					c-1.86-2.158-1.525-5.507,0.967-7.032C205.521,448.03,204.962,447.063,204.367,447.435L204.367,447.435z"/>
			</g>
		</g>
		<g>
			<g>
				<path fill="#161616" d="M197.819,448.663c1.116,1.563,2.418,2.977,3.944,4.204c0.558,0.446,1.339-0.335,0.781-0.781
					c-1.451-1.153-2.679-2.456-3.757-3.981C198.34,447.51,197.373,448.067,197.819,448.663L197.819,448.663z"/>
			</g>
		</g>
		<g>
			<g>
				<path fill="#161616" d="M215.12,451.23c-2.344,0.223-4.539,1.004-6.474,2.381c-0.595,0.409-0.037,1.377,0.558,0.967
					c1.786-1.265,3.721-2.046,5.916-2.231C215.863,452.271,215.863,451.155,215.12,451.23L215.12,451.23z"/>
			</g>
		</g>
		<path opacity="0.17" fill="#3D3D3D" enable-background="new    " d="M274.536,392.483c-4.65,11.311-8.222,20.426-10.492,26.378
			c-5.32,13.841-6.809,18.678-11.831,25.039c-4.279,5.396-9.338,12.129-17.896,13.432c-5.358,0.818-9.896-0.818-12.538-2.01
			c-0.67,0.521-5.767,4.167-10.715,2.232c-2.753-1.079-5.469-3.869-4.911-5.58c0.558-1.749,4.279-1.638,4.242-2.456
			c-0.037-0.67-2.604-1.6-4.911-0.893c-0.335,0.111-2.604,0.855-3.349,2.901c-0.967,2.717,1.563,5.507,2.232,6.251
			c3.423,3.795,8.669,3.608,9.599,3.571c3.757-0.111,6.511-1.785,7.813-2.679c1.674,1.414,4.613,3.497,8.706,4.241
			c7.553,1.414,13.654-2.827,17.003-4.911c9.562-6.063,13.17-15.737,16.11-23.029c1.414-3.534,2.046-5.842,5.506-19.942
			C271.262,406.1,273.122,398.436,274.536,392.483z"/>
		<path opacity="0.17" fill="#3D3D3D" enable-background="new    " d="M199.419,442.115c1.265-0.224,2.902,3.125,4.018,5.804
			c-0.558,2.865-1.265,3.497-1.786,3.571c-1.488,0.261-4.018-3.386-3.572-6.696C198.117,444.533,198.415,442.301,199.419,442.115z"
			/>
	</g>
	<g id="torso">
		<path fill="#FFFFFF" stroke="#161616" stroke-width="3" stroke-miterlimit="10" d="M275.987,377.936
			c-7.032,8.073-7.181,18.044-7.218,35.53c-0.037,21.17,3.758,38.991,7.813,52.273c6.102,1.823,14.957,3.758,25.708,3.758
			c10.604,0,19.347-1.935,25.411-3.758c1.376-5.692,3.2-14.063,4.613-24.258c4.874-34.563,8.073-57.296-4.613-68.457
			C314.904,361.789,288.004,364.133,275.987,377.936z"/>
		<path opacity="0.1" fill="#3D3D3D" enable-background="new    " d="M310.848,366.589c1.6,3.273,3.72,8.334,5.06,14.771
			c1.229,5.878,3.125,18.938-7.627,51.454c-3.051,9.265-7.664,21.69-14.547,35.978c2.939,0.298,6.102,0.483,9.45,0.446
			c9.563-0.037,17.859-1.6,24.444-3.46c2.827-13.84,4.837-25.634,6.214-34.601c1.711-11.013,2.901-20.314,2.529-32.071
			c-0.446-14.882-2.977-19.197-4.391-21.206C325.916,369.044,314.978,367.109,310.848,366.589z"/>
		<path opacity="0.13" fill="#3D3D3D" enable-background="new    " d="M335.775,388.725c-1.674,5.06-4.092,12.873-6.473,22.621
			c-2.977,12.166-3.424,17.263-5.061,23.773c-2.195,8.483-6.771,20.463-17.523,34.154c3.534,0.111,8.26-0.148,13.617-1.6
			c2.827-0.781,5.32-1.786,7.366-2.753c1.897-10.344,3.571-20.054,5.06-29.058c2.643-15.774,3.572-22.285,3.684-30.917
			C336.556,398.138,336.148,392.557,335.775,388.725z"/>
	</g>
	<g id="head">
		<path fill="#FFFFFF" stroke="#161616" stroke-width="3" stroke-miterlimit="10" d="M294.329,357.808
			c-1.228,1.674-0.633,3.199-0.893,9.45c-0.186,4.092-0.595,7.366-0.893,9.45c1.265,0.893,4.837,3.162,9.896,3.162
			c5.953,0,9.935-3.125,11.014-4.056c-0.484-1.339-1.08-3.349-1.563-5.841c-1.377-7.106,0.037-9.302-1.563-11.72
			C307.462,353.976,297.268,353.79,294.329,357.808z"/>
		<path fill="#FFFFFF" stroke="#161616" stroke-width="3" stroke-miterlimit="10" d="M279.261,337.755
			c-0.149,5.283,1.042,9.227,2.009,12.39c1.451,4.65,3.051,9.859,7.664,14.621c4.018,4.167,8.706,6.325,12.39,7.441
			c2.827-1.153,7.479-3.498,11.719-8.111c4.613-5.022,6.363-10.119,7.664-13.951c1.117-3.312,3.014-9.302,2.232-17.114
			c-0.558-5.47-1.152-11.385-5.841-15.961c-6.92-6.734-17.04-4.986-18.454-4.726c-9.821,1.823-14.77,9.599-15.96,11.72
			C279.484,329.495,279.335,334.815,279.261,337.755z"/>
		<g>
			<g>
				<path fill="#161616" d="M298.793,341.81c-0.224,4.762,0.224,9.487,1.376,14.101c0.112,0.372,0.67,0.558,0.931,0.26
					c0.856-1.004,1.414-2.083,1.675-3.385c0.148-0.707-0.931-1.005-1.08-0.298c-0.223,1.153-0.632,2.009-1.376,2.901
					c0.298,0.075,0.632,0.149,0.931,0.261c-1.117-4.539-1.525-9.152-1.34-13.803C299.91,341.103,298.793,341.103,298.793,341.81
					L298.793,341.81z"/>
			</g>
		</g>
		<g>
			<g>
				<path fill="#161616" d="M306.607,343.447c2.641,2.79,7.961,3.571,9.375-0.93c0.224-0.67-0.855-0.968-1.078-0.298
					c-1.154,3.683-5.47,2.529-7.479,0.409C306.867,342.145,306.085,342.927,306.607,343.447L306.607,343.447z"/>
			</g>
		</g>
		<g>
			<g>
				<path fill="#161616" d="M287.967,350.665c0-0.111-0.037,0.037-0.074,0.037c-0.038,0.037-0.112,0.037-0.186,0.037
					c-0.112-0.223-0.261-0.446-0.372-0.67c0.037-0.037,0.037-0.074,0.074-0.111c-0.297,0.074-0.483,0.372-0.372,0.67
					c0.075,0.298,0.409,0.483,0.67,0.372c0.334-0.111,0.558-0.335,0.707-0.67c0.112-0.261-0.111-0.633-0.372-0.67
					c-0.483-0.111-1.042,0.149-1.153,0.67c-0.037,0.298,0.075,0.633,0.372,0.67C287.558,351.148,287.93,351,287.967,350.665
					L287.967,350.665z"/>
			</g>
		</g>
		<g>
			<g>
				<path fill="#161616" d="M293.473,349.214c-0.074,0.559-0.223,0.596-0.446,0.111c-0.409-0.334-0.335-0.483,0.223-0.409
					c-0.261-0.148-0.595-0.074-0.781,0.187c-0.149,0.261-0.075,0.633,0.186,0.781c0.632,0.372,1.414-0.446,0.93-1.042
					c-0.484-0.595-1.451-0.074-1.265,0.633c0.074,0.298,0.409,0.483,0.669,0.372C293.399,349.846,293.547,349.511,293.473,349.214
					L293.473,349.214z"/>
			</g>
		</g>
		<g>
			<g>
				<path fill="#161616" d="M291.464,353.083c0,0.075-0.038,0.149-0.112,0.224c0.074-0.074-0.075,0.037-0.037,0
					c0.037-0.037-0.112,0.037,0,0c-0.075,0-0.112,0-0.075,0s0.037,0-0.074,0c-0.037,0-0.037-0.037-0.074-0.037
					c0.037,0.037,0.037,0-0.038-0.037c-0.148-0.149-0.148-0.372-0.037-0.521c0.149-0.148,0.409-0.074,0.484,0.075
					c-0.149-0.261-0.484-0.335-0.781-0.187c-0.261,0.148-0.372,0.521-0.186,0.781c0.223,0.372,0.707,0.483,1.079,0.261
					c0.372-0.187,0.521-0.67,0.298-1.042c-0.446-0.707-1.637-0.298-1.637,0.483c0,0.298,0.261,0.559,0.558,0.559
					C291.204,353.641,291.464,353.418,291.464,353.083L291.464,353.083z"/>
			</g>
		</g>
		<g>
			<g>
				<path fill="#161616" d="M310.402,348.358c0.26,0.037,0.408,0.186,0.446,0.372c0.037,0.223-0.112,0.372-0.446,0.483
					c-0.111-0.037-0.187-0.037-0.298-0.074c-0.187-0.111-0.224-0.261-0.112-0.446c0.187-0.298,0.744-0.187,0.633,0.223
					c0.074-0.297-0.074-0.632-0.372-0.669c-0.298-0.075-0.595,0.074-0.669,0.372c-0.149,0.521,0.297,1.078,0.855,1.004
					c0.483-0.074,0.781-0.558,0.633-1.042c-0.075-0.26-0.336-0.483-0.633-0.483c-0.224,0-0.447,0.149-0.559,0.335
					c-0.223,0.409,0.074,1.079,0.596,1.042c0.297-0.037,0.558-0.224,0.558-0.559C310.959,348.656,310.736,348.321,310.402,348.358
					L310.402,348.358z"/>
			</g>
		</g>
		<g>
			<g>
				<path fill="#161616" d="M314.605,348.767C314.643,348.767,314.643,348.73,314.605,348.767c-0.037,0.037-0.111,0.111-0.186,0.186
					c-0.223-0.074-0.409-0.148-0.633-0.26c0-0.112,0-0.187,0-0.298c0-0.037,0.037-0.037,0.037-0.074
					c0.075-0.074,0.149-0.149,0.187-0.187c0.224,0.074,0.409,0.149,0.633,0.261c0,0.111,0,0.186,0,0.298v-0.037
					c0.074-0.298-0.075-0.633-0.372-0.67c-0.298-0.074-0.596,0.074-0.67,0.372c-0.186,0.744,0.93,1.19,1.266,0.446
					c0.148-0.298,0-0.67-0.299-0.818c-0.334-0.187-0.707-0.074-0.893,0.223c-0.186,0.261-0.037,0.633,0.186,0.782
					C314.123,349.139,314.457,348.991,314.605,348.767L314.605,348.767z"/>
			</g>
		</g>
		<g>
			<g>
				<path fill="#161616" d="M312.559,352.451c-0.037-0.112,0,0-0.037,0.037c0,0.037-0.111,0.111,0,0.037
					c-0.298-0.037-0.595-0.074-0.893-0.111c-0.224-0.335,0.187-0.633,0.483-0.484c-0.26-0.148-0.596-0.074-0.781,0.187
					c-0.148,0.26-0.074,0.632,0.186,0.781c0.299,0.148,0.67,0.111,0.894-0.149c0.224-0.223,0.298-0.632,0.111-0.93
					s-0.632-0.372-0.893-0.111c-0.261,0.26-0.372,0.669-0.261,1.004c0.111,0.298,0.372,0.484,0.67,0.372
					C312.448,353.083,312.671,352.748,312.559,352.451L312.559,352.451z"/>
			</g>
		</g>
		<g>
			<g>
				<path fill="#161616" d="M296.338,358.999c2.642,2.753,6.845,2.679,9.338-0.261c0.446-0.558-0.335-1.339-0.781-0.781
					c-2.083,2.456-5.507,2.604-7.776,0.261C296.636,357.696,295.854,358.478,296.338,358.999L296.338,358.999z"/>
			</g>
		</g>
		<g>
			<g>
				<path fill="#161616" d="M289.492,336.453c1.116-1.229,2.679-1.749,4.316-1.414c0.707,0.148,1.004-0.931,0.297-1.079
					c-2.009-0.409-4.018,0.186-5.395,1.711C288.227,336.192,289.009,336.973,289.492,336.453L289.492,336.453z"/>
			</g>
		</g>
		<g>
			<g>
				<path fill="#161616" d="M306.978,334.183c1.712-0.187,3.274,0.223,4.651,1.228c0.595,0.409,1.153-0.559,0.558-0.968
					c-1.525-1.116-3.348-1.6-5.209-1.376C306.271,333.141,306.271,334.258,306.978,334.183L306.978,334.183z"/>
			</g>
		</g>
		<g>
			<g>
				<path fill="#161616" d="M287.483,343.782c2.642,2.79,7.962,3.571,9.376-0.931c0.223-0.669-0.856-0.967-1.079-0.297
					c-1.153,3.683-5.469,2.529-7.478,0.409C287.781,342.442,286.962,343.26,287.483,343.782L287.483,343.782z"/>
			</g>
		</g>
		<path fill="#2B59C3" d="M298.761,320.417c2.418,2.902,5.32,6.027,8.817,9.19c4.763,4.315,9.413,7.664,13.468,10.193
			c-0.223,3.349-0.93,8.483-3.46,14.25c-2.493,5.729-5.804,9.71-8.073,12.129c-0.223,1.785-0.298,4.837,1.153,7.888
			c3.386,7.105,13.134,10.306,20.611,7.887c0.894-0.297,7.181-2.418,9.228-8.073c0.558-1.563,0.855-3.46,0-8.482
			c-1.229-7.255-3.387-12.575-4.019-14.213c-1.786-4.539-4.093-11.087-6.177-19.644c-0.669-2.977-3.422-13.654-13.096-19.831
			c-2.529-1.637-7.962-5.097-14.808-4.055c-2.976,0.446-5.283,1.6-6.734,2.492c-3.125,0.261-8.706,1.153-14.063,5.023
			c-12.129,8.705-11.794,24.406-11.757,26.006c-0.372,1.972-1.004,4.948-2.121,8.482c-2.753,8.632-5.06,9.711-5.581,15.031
			c-0.148,1.339-0.818,8.11,3.646,13.654c0.93,1.153,3.795,4.613,8.668,5.581c6.474,1.302,13.431-2.345,16.296-8.074
			c1.6-3.199,1.563-6.287,1.414-7.925c-1.079-0.967-11.013-9.971-9.822-23.997C283.693,327.969,298.091,320.752,298.761,320.417z"/>
		<path display="none" opacity="0.11" fill="#3D3D3D" enable-background="new    " d="M313.527,333.923
			c0.67,2.53,1.414,6.362,1.004,10.976c-0.521,5.878-2.604,10.008-4.762,14.249c-1.711,3.349-4.391,7.925-8.632,12.725
			c0.67-0.112,1.451-0.335,2.232-0.633c1.823-0.67,3.2-1.6,4.13-2.381c-0.298,3.497-0.596,6.994-0.855,10.491
			c2.121-0.93,4.241-1.822,6.361-2.753c-0.446-3.721-0.93-7.403-1.376-11.124c0.893-1.116,2.157-2.753,3.497-4.874
			c1.86-2.939,4.502-7.181,5.879-13.096c0.445-1.897,0.893-4.688,0.855-8.111C319.107,337.606,316.317,335.746,313.527,333.923z"/>
		<path display="none" opacity="0.16" fill="#3D3D3D" enable-background="new    " d="M321.898,340.061
			c-0.298-0.074-1.116,3.758-3.609,9.487c0,0-1.859,4.241-3.98,7.851c-1.973,3.349-5.879,8.966-13.245,14.845
			c0.818,0.372,1.675,0.744,2.493,1.116c2.418-0.261,4.836-0.484,7.254-0.744c-0.111-2.047-0.26-4.093-0.371-6.102
			c2.902-2.977,6.883-7.851,9.375-14.845C321.824,345.828,322.27,340.135,321.898,340.061z"/>
		<path display="none" opacity="0.29" fill="#3D3D3D" enable-background="new    " d="M266.202,356.543
			c-0.074,1.229,0,3.349,1.005,5.618c1.451,3.237,4.836,6.771,8.482,6.734c4.428-0.037,9.339-5.395,9.115-12.984
			c0.707,1.785,1.786,3.943,3.386,6.25c1.823,2.642,3.795,4.613,5.357,5.99c0.038,1.228-0.074,3.125-0.744,5.246
			c-0.372,1.19-1.302,3.608-3.385,5.878c-0.893,0.968-3.795,4.093-8.483,4.874c-6.809,1.116-11.943-3.608-12.873-4.502
			c-6.102-5.841-5.06-14.101-4.874-15.365C263.709,360.673,265.197,358.031,266.202,356.543z"/>
		<path display="none" opacity="0.12" fill="#3D3D3D" enable-background="new    " d="M322.158,339.913
			c0.299,1.822,0.707,4.725,1.005,8.371c0.633,7.813,0,9.896,1.265,13.877c0.187,0.633,3.051,9.413,7.256,9.487
			c3.273,0.074,6.92-5.06,8.371-12.612c1.152,3.758,1.637,6.957,1.859,9.227c0.373,3.684,0.037,4.911-0.111,5.507
			c-1.041,3.386-3.795,5.246-5.246,6.25c-5.134,3.497-10.678,2.977-11.496,2.865c-1.302-0.149-7.329-0.931-11.348-5.99
			c-0.633-0.781-2.641-3.423-3.236-7.366c-0.186-1.303-0.186-2.456-0.111-3.237c2.27-2.232,5.283-5.767,7.738-10.752
			C321.154,349.214,321.935,343.447,322.158,339.913z"/>
	</g>
</g>
<g>
	<g>
		<path fill="#161616" d="M233.354,220.664c-2.024,2.297-3.775,4.814-5.251,7.549c-0.492,0.929,0.93,1.75,1.422,0.82
			c1.422-2.571,3.063-4.978,5.032-7.221C235.215,221.048,234.065,219.844,233.354,220.664L233.354,220.664z"/>
	</g>
</g>
<g>
	<g>
		<path fill="#161616" d="M233.3,221.321c1.641,2.297,3.282,4.54,4.923,6.837c0.602,0.875,2.024,0.056,1.422-0.82
			c-1.641-2.297-3.282-4.54-4.923-6.837C234.065,219.625,232.643,220.446,233.3,221.321L233.3,221.321z"/>
	</g>
</g>
<g>
	<g>
		<path fill="#161616" d="M233.19,224.548c0.493,19.311,0.931,38.619,1.422,57.984c0,1.04,1.641,1.04,1.641,0
			c-0.492-19.31-0.93-38.619-1.422-57.984C234.777,223.509,233.136,223.454,233.19,224.548L233.19,224.548z"/>
	</g>
</g>
<g>
	<g>
		<path fill="#161616" d="M236.418,284.064c24.288,0,48.576,0,72.863,0c1.038,0,1.038-1.641,0-1.641c-24.287,0-48.575,0-72.863,0
			C235.378,282.423,235.378,284.064,236.418,284.064L236.418,284.064z"/>
	</g>
</g>
<g>
	<g>
		<path fill="#161616" d="M307.372,282.948c1.153,0.446,2.27,0.893,3.423,1.339c-0.148-0.409-0.334-0.818-0.483-1.228
			c-0.558,1.005-1.339,1.786-2.307,2.381c-0.931,0.559-0.075,2.01,0.855,1.451c1.228-0.707,2.232-1.749,2.939-2.977
			c0.298-0.521,0-1.042-0.483-1.228c-1.154-0.446-2.27-0.893-3.424-1.34C306.814,280.938,306.367,282.539,307.372,282.948
			L307.372,282.948z"/>
	</g>
</g>
<g>
	<g>
		<path fill="#2B59C3" d="M252.773,280.946c7.713-15.481,8.916-32.93,13.457-49.395c1.148-4.212,2.297-9.136,5.47-12.308
			c4.649-4.651,10.556-1.368,12.472,4.102c1.421,4.157,1.476,8.971,1.75,13.347c0.274,4.704,0.492,9.409,0.765,14.113
			c0.603,10.065,1.643,20.185,5.034,29.757c0.327,0.985,1.914,0.547,1.585-0.437c-3.555-10.065-4.54-20.733-5.087-31.345
			c-0.274-5.196-0.493-10.447-0.875-15.645c-0.329-4.157-0.494-8.697-2.462-12.472c-1.532-2.954-4.486-5.36-7.932-5.36
			c-3.557,0-6.509,2.461-8.315,5.305c-2.352,3.775-3.446,8.533-4.54,12.8c-1.203,4.758-2.188,9.573-3.172,14.387
			c-2.188,11.049-4.431,22.153-9.519,32.329C250.859,281.054,252.282,281.876,252.773,280.946L252.773,280.946z"/>
	</g>
</g>
<g>
	<g>
		<path fill="#2B59C3" d="M260.268,213.116c-1.094-1.586,1.148-3.72,2.461-1.97c1.259,1.641-1.094,3.282-2.407,2.024
			c-0.766-0.712-1.914,0.437-1.149,1.149c1.149,1.094,3.009,1.203,4.322,0.272c1.477-1.04,1.641-3.008,0.547-4.431
			c-1.094-1.421-3.118-1.805-4.486-0.602c-1.204,1.094-1.586,3.009-0.657,4.376C259.447,214.812,260.869,213.99,260.268,213.116
			L260.268,213.116z"/>
	</g>
</g>
<g>
	<g>
		<path fill="#2B59C3" d="M272.357,205.841c-0.875-1.259,1.038-2.408,1.859-1.094c0.876,1.421-1.586,3.008-2.406,1.421
			c-0.493-0.93-1.86-0.109-1.423,0.821c0.71,1.476,2.626,1.859,3.993,1.038c1.423-0.82,2.079-2.679,1.203-4.157
			c-0.766-1.258-2.57-1.914-3.883-1.094c-1.258,0.821-1.696,2.571-0.875,3.829C271.537,207.537,272.958,206.716,272.357,205.841
			L272.357,205.841z"/>
	</g>
</g>
<g>
	<g>
		<path fill="#2B59C3" d="M267.597,193.806c-0.437-1.258,0.931-2.572,2.025-1.532c1.094,1.04-0.165,2.517-1.422,2.079
			c-0.985-0.329-1.422,1.258-0.438,1.587c2.845,0.929,5.251-2.681,3.009-4.814c-0.985-0.985-2.516-1.149-3.665-0.328
			c-1.04,0.766-1.586,2.188-1.094,3.446C266.394,195.229,267.981,194.845,267.597,193.806L267.597,193.806z"/>
	</g>
</g>
<g>
	<g>
		<path fill="#2B59C3" d="M288.494,208.411c-0.164-0.109,0.055,0.055,0.109,0.164c0,0.056,0,0.11,0,0.165c0,0.054,0,0.054,0-0.055
			v0.055c0.109-0.055,0,0,0,0c-0.055,0,0.164,0,0.218,0c0.164,0,0.329,0.054,0.492,0.109c-0.22-0.274-0.383-0.547-0.602-0.765
			c0,0.437,0,0.875,0,1.313c0.218-0.274,0.382-0.547,0.602-0.766c-0.438,0.164-0.875,0.218-1.312,0.109
			c-0.985-0.329-1.423,1.258-0.438,1.586c0.712,0.218,1.53,0.218,2.188-0.111c0.328-0.164,0.602-0.382,0.602-0.765
			c0-0.438,0-0.875,0-1.312c0-0.384-0.274-0.712-0.602-0.767c-0.876-0.218-1.916-0.327-2.461,0.547
			c-0.439,0.656-0.383,1.695,0.437,2.024c0.383,0.218,0.876,0.109,1.148-0.274C289.04,209.177,288.931,208.631,288.494,208.411
			L288.494,208.411z"/>
	</g>
</g>
</svg>
