<?xml version="1.0" encoding="utf-8"?>
<!-- Generator: Adobe Illustrator 16.0.0, SVG Export Plug-In . SVG Version: 6.00 Build 0)  -->
<!DOCTYPE svg PUBLIC "-//W3C//DTD SVG 1.1//EN" "http://www.w3.org/Graphics/SVG/1.1/DTD/svg11.dtd">
<svg version="1.1" id="Layer_1" xmlns="http://www.w3.org/2000/svg" xmlns:xlink="http://www.w3.org/1999/xlink" x="0px" y="0px"
	 width="595.281px" height="425px" viewBox="0 226.446 595.281 425" enable-background="new 0 226.446 595.281 425"
	 xml:space="preserve">
<g id="background">
	<g display="none">
		<g display="inline">
			<path fill="#E8E8E8" d="M319.107,505.587c-2.455-2.232-4.539-4.8-6.176-7.702c-0.855-1.525-1.563-3.088-2.121-4.725
				c-0.261-0.744-0.521-1.525-0.706-2.308c-0.188-0.707-0.225-1.414-0.075-2.121c0.521-1.189,1.266-1.449,2.27-0.78
				c0.41,0.446,1.229-0.148,0.895-0.669c-2.716-3.833-4.727-8.074-5.878-12.65c-0.261-1.041-0.484-2.083-0.67-3.162
				c-0.148-1.005-0.111-2.195-0.373-3.199c-0.559-2.01-2.045-4.056-2.938-5.953c-4.24-8.816-7.813-18.453-6.325-28.388
				c-0.335,0.037-0.67,0.074-1.005,0.149c7.33,9.599,13.06,20.275,16.966,31.697c0.224,0.671,1.266,0.409,1.078-0.298
				c-0.408-1.637-0.595-3.199-0.521-4.874c-0.224,0.188-0.484,0.372-0.707,0.521c1.153,0.186,1.823,0.854,2.009,2.009
				c0.112,0.633,1.079,0.446,1.079-0.148c0.037-1.973,0.111-3.98,0.148-5.952c-0.334,0.11-0.707,0.186-1.041,0.298
				c6.102,9.375,10.899,19.495,14.287,30.136c0.186,0.559,0.893,0.521,1.077,0c0.299-0.855,0.597-1.749,0.931-2.604
				c-0.261,0.112-0.559,0.225-0.818,0.336c3.572,2.566,5.507,6.696,5.283,11.05c-0.037,0.707,1.079,0.707,1.117,0
				c0.223-4.799-1.974-9.228-5.843-12.018c-0.298-0.224-0.706,0.037-0.817,0.334c-0.298,0.856-0.596,1.749-0.93,2.604
				c0.37,0,0.705,0,1.077,0c-3.385-10.752-8.223-20.983-14.397-30.396c-0.297-0.445-1.041-0.297-1.041,0.298
				c-0.037,1.973-0.111,3.981-0.149,5.953c0.372-0.037,0.744-0.111,1.079-0.148c-0.26-1.488-1.303-2.566-2.791-2.79
				c-0.371-0.074-0.706,0.147-0.706,0.521c-0.074,1.786,0.111,3.461,0.559,5.172c0.372-0.11,0.707-0.186,1.079-0.298
				c-3.943-11.496-9.71-22.285-17.077-31.959c-0.26-0.335-0.931-0.409-1.004,0.149c-1.451,9.673,1.674,19.012,5.691,27.68
				c1.042,2.271,2.419,4.465,3.313,6.734c0.818,2.046,0.744,4.649,1.302,6.809c1.191,4.65,3.237,9.004,5.99,12.91
				c0.298-0.224,0.596-0.446,0.894-0.67c-0.968-1.079-2.604-0.893-3.534,0.149c-1.487,1.637-0.446,4.353,0.148,6.139
				c1.748,4.948,4.725,9.376,8.594,12.91C318.847,506.851,319.628,506.07,319.107,505.587L319.107,505.587z"/>
		</g>
	</g>
	<g display="none">
		<g display="inline">
			<path fill="#E8E8E8" d="M212.292,491.374c-1.822-1.376-3.46-2.977-4.8-4.836c-0.521-0.707-1.004-1.488-1.451-2.232
				c-0.223-0.446-0.483-0.855-0.67-1.303c-0.186-0.372-1.786-4.688,0.409-3.72c0.484,0.223,1.042-0.225,0.781-0.782
				c-0.483-0.894-4.613-7.292-2.455-7.813c0.372-0.073,0.482-0.521,0.334-0.817c-3.423-6.214-5.841-12.873-7.292-19.83
				c-0.112,0.223-0.26,0.445-0.372,0.669c2.938-0.521,4.39,4.093,5.356,6.139c1.19,2.53,2.382,5.062,3.609,7.553
				c2.456,5.173,4.874,10.307,7.33,15.479c0.297,0.596,1.153,0.147,1.004-0.446c-0.26-1.189-0.223-2.231,0.112-3.423
				c-0.298,0.074-0.633,0.148-0.931,0.261c1.897,1.525,3.424,3.273,4.688,5.396c0.261,0.445,0.856,0.298,1.005-0.149
				c1.19-0.297,1.972-0.037,2.381,0.819c0.187,0.334,0.372,0.706,0.559,1.041c0.446,0.817,0.855,1.638,1.302,2.419
				c0.855,1.637,1.711,3.236,2.566,4.873c0.335,0.633,1.303,0.075,0.968-0.559c-0.856-1.637-1.711-3.236-2.567-4.874
				c-0.744-1.413-1.414-3.161-2.493-4.39c-1.116-1.266-3.088-1.414-3.795,0.334c0.335-0.037,0.67-0.074,1.004-0.147
				c-1.302-2.158-2.901-4.019-4.874-5.618c-0.335-0.261-0.818-0.187-0.93,0.261c-0.372,1.377-0.409,2.642-0.112,4.019
				c0.335-0.148,0.67-0.298,1.005-0.446c-2.938-6.25-5.916-12.538-8.892-18.788c-1.339-2.79-2.456-5.953-4.204-8.521
				c-1.079-1.563-2.456-2.754-4.465-2.382c-0.298,0.037-0.446,0.409-0.372,0.67c1.451,7.032,3.944,13.804,7.404,20.091
				c0.111-0.261,0.223-0.559,0.335-0.817c-3.981,1.004,0.967,7.925,1.786,9.45c0.261-0.262,0.521-0.521,0.78-0.781
				c-0.967-0.41-1.972-0.188-2.566,0.744c-0.856,1.339-0.075,3.013,0.521,4.241c1.674,3.607,4.278,6.658,7.441,9.077
				C212.292,492.788,212.85,491.822,212.292,491.374L212.292,491.374z"/>
		</g>
	</g>
	<g display="none">
		<g display="inline">
			<path fill="#E8E8E8" d="M61.016,332.732c4.428-5.061,11.385-1.749,16.333,0.446c4.539,2.009,9.748,3.608,14.287,0.707
				c4.315-2.791,6.733-7.627,12.055-8.817c6.398-1.45,12.501,1.785,17.709,5.098c0.595,0.372,1.153-0.597,0.558-0.968
				c-5.06-3.199-10.752-6.177-16.928-5.507c-2.53,0.299-4.874,1.19-6.883,2.753c-2.009,1.563-3.646,3.609-5.581,5.283
				c-5.878,5.061-12.24,1.377-18.305-1.116c-4.539-1.896-10.417-2.826-14.063,1.341C59.751,332.509,60.533,333.29,61.016,332.732
				L61.016,332.732z"/>
		</g>
	</g>
	<g display="none">
		<g display="inline">
			<path fill="#E8E8E8" d="M45.353,401.71c2.344-2.492,5.841,0.261,7.627,2.01c1.563,1.525,3.349,3.348,5.655,3.571
				c2.046,0.224,3.683-0.894,5.097-2.271c2.009-1.935,3.833-3.646,6.623-4.428c2.791-0.744,5.878-0.558,8.52,0.744
				c2.083,1.042,3.981,3.051,6.475,2.828c2.194-0.188,3.498-2.121,4.874-3.572c2.231-2.381,5.506-3.608,8.779-3.199
				c5.47,0.67,10.27,5.396,15.998,3.685c0.67-0.188,0.41-1.267-0.297-1.079c-5.469,1.6-10.269-3.088-15.552-3.722
				c-2.456-0.298-4.985,0.225-7.106,1.451c-1.042,0.596-1.972,1.376-2.791,2.271c-0.967,1.042-1.896,2.455-3.273,2.938
				c-2.716,0.931-5.692-2.382-8.148-3.2c-2.231-0.743-4.65-0.854-6.958-0.371c-2.231,0.445-4.277,1.487-5.989,2.977
				c-2.345,2.121-4.503,5.172-8,3.162c-3.237-1.822-8.147-9.078-12.314-4.576C44.051,401.45,44.832,402.268,45.353,401.71
				L45.353,401.71z"/>
		</g>
	</g>
	<g display="none">
		<g display="inline">
			<path fill="#E8E8E8" d="M87.022,391.887c2.046-1.637,4.427-3.423,7.105-3.646c2.456-0.188,4.428,1.152,6.325,2.529
				c2.604,1.859,6.25,4.129,9.375,1.973c0.967-0.67,1.674-1.86,2.828-2.195c1.637-0.483,3.237,0.67,4.465,1.563
				c1.376,1.042,2.716,2.195,4.464,2.493c2.195,0.372,4.576-0.521,6.734-1.005c2.641-0.596,5.283-1.189,7.924-1.786
				c0.707-0.147,0.409-1.228-0.297-1.079c-2.753,0.634-5.543,1.267-8.297,1.897c-2.865,0.633-5.543,1.601-8.186-0.187
				c-1.785-1.189-3.386-2.901-5.654-3.088c-1.749-0.148-2.717,0.781-3.906,1.86c-4.354,3.906-8.743-2.307-12.724-3.684
				c-4.057-1.451-7.889,1.078-10.938,3.533C85.683,391.553,86.464,392.335,87.022,391.887L87.022,391.887z"/>
		</g>
	</g>
	<g display="none">
		<g display="inline">
			<path fill="#E8E8E8" d="M498.622,362.868c1.005-3.236,4.948-2.232,7.106-1.042c2.046,1.115,3.979,2.679,6.397,2.938
				c2.011,0.225,3.646-0.67,5.357-1.637c2.643-1.525,5.582-2.158,8.558-1.229c1.936,0.596,3.571,2.194,5.655,2.345
				c2.01,0.186,3.497-1.153,5.098-2.158c4.203-2.643,8.742,1.042,13.244-0.074c0.707-0.187,0.41-1.265-0.297-1.079
				c-4.651,1.153-9.004-2.642-13.506,0.187c-1.004,0.633-1.972,1.487-3.125,1.859c-1.749,0.56-3.199-0.521-4.688-1.302
				c-2.047-1.042-4.241-1.563-6.549-1.302c-2.418,0.26-4.167,1.45-6.287,2.528c-3.534,1.786-6.251-0.408-9.265-2.046
				c-2.864-1.563-7.515-2.231-8.743,1.711C497.357,363.24,498.435,363.538,498.622,362.868L498.622,362.868z"/>
		</g>
	</g>
	<g display="none">
		<g display="inline">
			<path fill="#E8E8E8" d="M517.41,358.218c1.675-1.563,3.498-3.237,5.693-3.981c2.046-0.706,4.092-0.297,6.063,0.409
				c3.125,1.153,6.213,3.163,9.71,2.643c3.2-0.483,6.475-3.98,9.785-3.052c1.712,0.484,2.753,1.86,4.65,2.048
				c1.972,0.186,3.907-0.446,5.729-1.079c0.67-0.225,0.372-1.304-0.297-1.079c-2.345,0.817-4.986,1.749-7.33,0.409
				c-1.414-0.818-2.492-1.675-4.241-1.488c-3.832,0.372-6.622,3.795-10.716,3.163c-3.533-0.56-6.51-3.015-10.119-3.386
				c-3.942-0.409-6.994,2.156-9.711,4.649C516.108,357.92,516.889,358.701,517.41,358.218L517.41,358.218z"/>
		</g>
	</g>
	<g display="none">
		<g display="inline">
			<path fill="#E8E8E8" d="M156.224,244.668c0.818-2.978,4.688-2.493,6.883-1.563c2.195,0.968,4.277,2.381,6.771,2.418
				c4.688,0.111,8.334-4.762,13.022-3.942c2.195,0.372,3.98,2.009,6.213,2.27c2.493,0.298,3.943-1.524,5.841-2.791
				c2.232-1.487,5.023-2.046,7.702-1.748c1.376,0.148,2.716,0.559,3.906,1.19c1.116,0.558,2.046,1.451,3.2,1.972
				c2.27,1.005,3.758-0.372,5.58-1.563c3.572-2.308,7.441,0.67,10.12,3.014c0.521,0.483,1.339-0.298,0.781-0.781
				c-2.009-1.786-4.315-3.608-7.032-4.093c-2.679-0.483-4.092,0.931-6.25,2.158c-1.935,1.116-3.311-0.111-4.911-1.116
				c-1.042-0.67-2.157-1.153-3.348-1.488c-2.27-0.633-4.725-0.633-6.995,0c-1.189,0.335-2.307,0.818-3.349,1.488
				c-1.265,0.818-2.381,2.195-3.906,2.567c-2.716,0.669-5.246-2.011-7.925-2.271c-5.396-0.483-9.338,5.469-14.845,3.571
				c-2.717-0.93-5.098-2.939-8.148-2.753c-2.009,0.11-3.869,1.079-4.39,3.125C154.959,245.077,156,245.375,156.224,244.668
				L156.224,244.668z"/>
		</g>
	</g>
	<g display="none">
		<g display="inline">
			<path fill="#E8E8E8" d="M208.162,233.916c1.936-1.675,4.502-2.345,6.995-1.786c2.158,0.483,3.423,2.046,5.283,3.051
				c2.938,1.563,5.432-0.372,7.813-2.009c1.749-1.19,3.497-2.084,5.543-1.116c1.675,0.781,3.015,1.785,4.948,1.711
				c4.278-0.147,8.817-5.469,13.021-2.528c0.596,0.408,1.153-0.56,0.558-0.969c-3.981-2.79-8.148,1.005-11.942,2.083
				c-1.674,0.484-3.014,0.298-4.576-0.482c-0.931-0.483-1.749-1.042-2.79-1.266c-1.488-0.335-2.902,0.148-4.204,0.894
				c-1.563,0.894-2.939,2.27-4.651,2.901c-2.716,1.006-4.278-1.303-6.362-2.456c-3.349-1.896-7.553-1.265-10.38,1.191
				C206.823,233.581,207.604,234.363,208.162,233.916L208.162,233.916z"/>
		</g>
	</g>
	<circle display="none" fill="none" stroke="#E8E8E8" stroke-miterlimit="10" cx="269.587" cy="357.176" r="5.841"/>
	<circle display="none" fill="none" stroke="#E8E8E8" stroke-miterlimit="10" cx="84.642" cy="456.624" r="4.762"/>
	<circle display="none" fill="none" stroke="#E8E8E8" stroke-miterlimit="10" cx="361.112" cy="224.428" r="3.981"/>
	<circle fill="#2B59C3" cx="170.288" cy="280.533" r="2.307"/>
	<circle fill="#2B59C3" cx="269.885" cy="419.457" r="5.06"/>
	<circle display="none" fill="#5222D0" cx="491.255" cy="257.578" r="3.906"/>
	<circle display="none" fill="#5222D0" cx="94.277" cy="453.202" r="3.125"/>
	<circle fill="#2B59C3" cx="356.126" cy="403.421" r="1.674"/>
	<circle cx="300.021" cy="321.533" r="3.944"/>
	<circle cx="323.423" cy="248.053" r="3.051"/>
	<g>
		<g>
			<path d="M316.019,289.5c1.042-1.116,2.529-1.414,3.869-0.67c0.707,0.372,1.266,0.968,2.047,1.228
				c1.189,0.409,2.344-0.037,3.423-0.595c2.083-1.079,3.46-2.121,5.767-0.818c1.229,0.707,2.492,1.413,3.943,0.894
				c1.936-0.707,2.977-2.271,5.209-2.455c1.266-0.112,2.53,0.147,3.646,0.744c0.707,0.372,1.341,0.93,2.121,1.152
				c1.303,0.409,2.157-0.148,3.162-0.931c2.121-1.637,4.688-1.935,7.031-0.558c0.633,0.372,1.191-0.597,0.559-0.969
				c-1.524-0.893-3.198-1.265-4.948-0.967c-0.894,0.148-1.785,0.483-2.566,1.004c-1.153,0.744-1.786,1.86-3.497,1.116
				c-1.749-0.781-2.977-1.711-4.985-1.711c-2.12,0-3.534,0.893-5.245,2.009c-2.493,1.601-3.832-0.931-6.177-1.153
				c-1.563-0.148-2.864,0.744-4.168,1.488c-1.265,0.707-2.344,1.079-3.683,0.335c-0.781-0.445-1.414-1.042-2.308-1.229
				c-1.487-0.297-2.938,0.261-3.98,1.34C314.717,289.202,315.499,290.02,316.019,289.5L316.019,289.5z"/>
		</g>
	</g>
	<g>
		<g>
			<path d="M336.185,283.063c1.339-1.005,2.977-1.487,4.649-1.079c1.115,0.262,1.896,1.042,2.978,1.451
				c1.858,0.67,3.199-0.482,4.725-1.414c1.601-0.967,2.492-0.78,4.093,0.074c0.931,0.521,1.749,0.782,2.864,0.707
				c2.084-0.148,6.139-2.79,7.441,0.112c0.297,0.669,1.265,0.073,0.967-0.56c-0.818-1.786-2.939-2.083-4.688-1.711
				c-2.157,0.483-3.795,1.638-6.026,0.483c-1.078-0.56-1.936-1.229-3.199-0.968c-1.042,0.187-1.897,0.855-2.754,1.414
				c-0.595,0.371-1.228,0.893-1.935,0.931c-1.043,0.074-1.823-0.633-2.717-1.079c-2.231-1.116-4.91-0.781-6.883,0.669
				C335.068,282.543,335.626,283.51,336.185,283.063L336.185,283.063z"/>
		</g>
	</g>
	<g>
		<g>
			<path d="M82.372,308.4c2.418-1.524,5.171-0.855,7.59,0.372c1.749,0.894,3.349,2.604,5.246,3.088
				c3.907,1.005,4.502-4.649,7.702-5.617c3.72-1.116,6.362,3.758,9.859,1.152c1.972-1.451,3.571-2.344,6.102-2.194
				c2.344,0.148,4.576,0.931,6.734,1.749c0.67,0.261,0.967-0.818,0.298-1.079c-3.535-1.339-7.851-2.753-11.497-1.005
				c-0.93,0.446-1.563,1.115-2.381,1.675c-1.525,1.042-2.567,0.445-4.019-0.372c-1.563-0.895-3.088-1.488-4.91-1.116
				c-1.638,0.335-2.939,1.302-3.87,2.642c-0.559,0.781-0.968,1.786-1.674,2.492c-1.563,1.451-3.125,0.112-4.466-0.817
				c-3.273-2.232-7.59-4.278-11.348-1.936C81.219,307.842,81.777,308.809,82.372,308.4L82.372,308.4z"/>
		</g>
	</g>
</g>
<g id="paper">
	<path fill="#FFFFFF" stroke="#000000" stroke-width="3" stroke-miterlimit="10" d="M88.66,564.594
		c2.604,3.274,6.92,8.334,12.835,13.803c13.952,12.985,32.369,24.185,104.249,46.283c6.399,1.972,15.18,4.613,25.709,7.664
		c6.622-4.836,17.002-12.166,30.21-20.276c20.946-12.873,29.913-16.108,41.669-23.773c11.571-7.552,27.31-20.388,42.45-42.936
		c-24.964-5.319-51.975-12.5-80.437-22.211c-13.841-4.726-27.012-9.711-39.476-14.808
		C180.146,527.091,134.422,545.843,88.66,564.594z"/>
	<g>
		<g>
			<path d="M205.521,579.253c2.046-3.609,5.097-6.325,8.892-8.036c0.669-0.298,0.074-1.266-0.558-0.968
				c-3.944,1.749-7.145,4.649-9.301,8.408C204.181,579.327,205.148,579.885,205.521,579.253L205.521,579.253z"/>
		</g>
	</g>
	<g>
		<g>
			<path d="M204.925,579.588c1.266,1.45,3.2,0.93,4.465-0.224c1.078-0.969,1.896-2.232,2.864-3.274
				c1.153-1.229,2.418-2.344,3.759-3.423c0.558-0.446-0.224-1.229-0.781-0.781c-1.488,1.19-2.902,2.456-4.167,3.87
				c-1.116,1.228-3.497,5.06-5.32,3.013C205.223,578.248,204.441,579.066,204.925,579.588L204.925,579.588z"/>
		</g>
	</g>
	<g>
		<g>
			<path d="M214.264,571.141c0.445,0.372,0.93,0.781,1.376,1.153c0.223,0.187,0.558,0.224,0.78,0c0.187-0.187,0.225-0.595,0-0.781
				c-0.445-0.372-0.93-0.781-1.376-1.153c-0.223-0.186-0.558-0.223-0.78,0C214.078,570.547,214.041,570.956,214.264,571.141
				L214.264,571.141z"/>
		</g>
	</g>
	<g>
		<g>
			<path d="M206.302,575.643c-0.633-0.633-0.633-1.189,0-1.637c0.298-0.298,0.632-0.56,0.967-0.781
				c0.446-0.335,0.893-0.67,1.302-1.005c0.67-0.483,2.828-2.492,3.349-0.967c0.224,0.669,1.303,0.372,1.079-0.298
				c-1.079-3.088-4.501-0.037-5.878,1.004c-0.967,0.744-2.418,1.563-2.53,2.938c-0.073,0.932,0.484,1.712,1.376,1.897
				C206.711,576.834,207.009,575.755,206.302,575.643L206.302,575.643z"/>
		</g>
	</g>
	<g>
		<g>
			<path d="M208.646,580.145c2.456,2.271,3.498,5.47,5.469,8.073c1.6,2.121,3.758,3.795,6.213,4.837
				c5.469,2.344,11.72,1.116,16.147-2.827c0.521-0.483-0.261-1.266-0.781-0.781c-4.539,4.019-11.125,4.873-16.407,1.822
				c-2.418-1.376-4.167-3.386-5.581-5.804c-1.265-2.195-2.344-4.428-4.241-6.139C208.906,578.881,208.125,579.662,208.646,580.145
				L208.646,580.145z"/>
		</g>
	</g>
	<g>
		<g>
			<path d="M215.529,573.56c2.716,0.074,5.432,0.148,8.148,0.224c2.864,0.073,5.654,0.335,8.109,1.972
				c4.316,2.902,7.702,9.041,3.907,13.729c-0.446,0.559,0.335,1.34,0.781,0.781c3.608-4.428,1.711-10.306-2.121-13.915
				c-5.098-4.725-12.353-3.758-18.789-3.906C214.785,572.444,214.822,573.56,215.529,573.56L215.529,573.56z"/>
		</g>
	</g>
	<g>
		<g>
			<path d="M211.845,576.313c2.529,1.339,5.022,2.753,7.403,4.315c2.567,1.675,3.387,4.763,4.576,7.44
				c0.298,0.67,1.265,0.074,0.967-0.559c-1.042-2.307-1.822-5.469-3.905-7.105c-2.53-2.01-5.618-3.571-8.483-5.061
				C211.771,575.01,211.213,575.978,211.845,576.313L211.845,576.313z"/>
		</g>
	</g>
	<g>
		<g>
			<path d="M221.221,581.261c2.566-0.261,5.134-0.521,7.7-0.781c0.707-0.073,0.707-1.189,0-1.116
				c-2.566,0.262-5.134,0.521-7.7,0.781C220.514,580.219,220.514,581.336,221.221,581.261L221.221,581.261z"/>
		</g>
	</g>
	<g>
		<g>
			<path d="M221.333,581.819c2.121,0.634,4.167,1.488,6.103,2.53c0.633,0.335,1.19-0.633,0.558-0.967
				c-2.009-1.116-4.129-2.01-6.362-2.642C220.96,580.554,220.663,581.634,221.333,581.819L221.333,581.819z"/>
		</g>
	</g>
	<path fill="#2B59C3" d="M152.392,568.909c2.828,1.785,7.105,4.13,12.687,5.617c5.543,1.488,18.044,4.801,27.197-2.381
		c7.181-5.618,8.632-14.882,8.26-15.067c-0.298-0.148-1.786,5.916-7.105,9.151c-5.098,3.126-10.27,1.488-17.709,0.895
		C170.176,566.677,162.251,566.677,152.392,568.909z"/>
	<g>
		<g>
			<path d="M284.618,562.77c3.2-2.381,6.362-4.762,9.563-7.181c0.558-0.409,0-1.413-0.559-0.967c-3.2,2.381-6.361,4.762-9.562,7.181
				C283.465,562.213,284.023,563.179,284.618,562.77L284.618,562.77z"/>
		</g>
	</g>
	<g>
		<g>
			<path d="M286.665,571.291c8.93-7.33,17.896-14.696,26.825-22.025c0.558-0.446-0.224-1.229-0.781-0.781
				c-8.93,7.329-17.896,14.695-26.825,22.025C285.325,570.956,286.144,571.737,286.665,571.291L286.665,571.291z"/>
		</g>
	</g>
	<g>
		<g>
			<path d="M305.119,565.077c2.678-2.864,5.543-5.47,8.668-7.851c0.56-0.445,0-1.414-0.558-0.968c-3.2,2.419-6.14,5.098-8.893,8.036
				C303.816,564.817,304.597,565.598,305.119,565.077L305.119,565.077z"/>
		</g>
	</g>
	<g>
		<g>
			<path d="M232.308,551.832c11.013-6.475,21.652-13.542,31.811-21.206c0.559-0.409,0-1.414-0.558-0.968
				c-10.194,7.663-20.835,14.771-31.812,21.207C231.118,551.237,231.676,552.204,232.308,551.832L232.308,551.832z"/>
		</g>
	</g>
	<g>
		<g>
			<path d="M227.323,548.558c4.464-2.381,8.557-5.395,12.129-9.004c0.521-0.521-0.298-1.302-0.781-0.781
				c-3.534,3.534-7.516,6.475-11.905,8.817C226.132,547.926,226.69,548.893,227.323,548.558L227.323,548.558z"/>
		</g>
	</g>
	<g>
		<g>
			<path d="M214.896,543.796c7.44-5.915,15.067-11.607,22.844-17.077c0.595-0.409,0.037-1.376-0.558-0.967
				c-7.852,5.506-15.553,11.272-23.067,17.263C213.52,543.461,214.338,544.243,214.896,543.796L214.896,543.796z"/>
		</g>
	</g>
</g>
<g id="girl">
	<g id="leg_right_1_">
		<path fill="#FFFFFF" d="M149.453,454.95c-10.604,3.014-19.719,6.549-27.16,9.858c-9.338,4.167-22.918,10.308-37.54,22.212
			c-5.953,4.837-10.38,10.082-19.197,20.537c-3.312,3.906-6.697,8.147-6.995,14.138c-0.074,1.601-0.297,6.288,2.679,9.785
			c4.986,5.841,15.217,4.02,20.24,3.162c5.319-0.93,9.115-2.679,10.715-3.386c22.36-10.119,18.491-6.474,37.168-15.7
			c14.659-7.218,21.988-10.864,25.746-14.584c3.497-3.498,17.784-17.71,12.798-31.438
			C164.148,459.341,152.057,455.694,149.453,454.95z"/>
		<path opacity="0.22" fill="#969696" enable-background="new    " d="M159.014,458.559c-2.158,2.493-5.729,6.399-10.566,10.752
			c-23.849,21.432-42.339,20.835-59.9,37.54c-5.543,5.246-12.873,14.063-18.342,28.648c2.567,0.037,6.548-0.075,11.311-0.856
			c9.896-1.637,16.778-5.208,20.537-7.104c26.08-13.098,32.07-10.864,48.031-22.771c7.33-5.47,11.051-8.297,13.469-13.804
			C169.432,477.534,161.396,462.689,159.014,458.559z"/>
		<g>
			<g>
				<path d="M149.304,454.429c-14.659,4.948-29.393,9.934-43.047,17.301c-12.5,6.733-23.811,15.515-33.335,26.043
					c-4.688,5.172-9.523,10.827-12.612,17.151c-2.53,5.135-4.315,12.575,0.558,16.929c4.949,4.428,12.39,4.837,18.64,3.795
					c7.775-1.34,15.365-4.649,22.695-7.516c16.556-6.511,32.666-14.138,48.181-22.844c0.633-0.335,0.074-1.303-0.558-0.969
					c-12.985,7.257-26.378,13.805-40.145,19.57c-6.884,2.902-13.877,5.618-20.946,8.073c-6.957,2.419-14.622,4.428-21.876,2.009
					c-17.821-5.915-1.079-26.489,5.99-34.451c8.967-10.083,19.532-18.64,31.252-25.3c14.323-8.11,29.949-13.431,45.502-18.677
					C150.271,455.285,149.974,454.207,149.304,454.429L149.304,454.429z"/>
			</g>
		</g>
	</g>
	<g id="leg_left_1_">
		<path d="M169.134,511.242c1.042-1.006,2.68-2.456,4.949-3.795c3.312-1.974,5.022-2.011,11.57-4.242
			c5.618-1.936,7.962-3.162,9.971-4.501c1.674-1.116,4.836-3.237,4.427-4.429c-0.482-1.414-5.878-0.743-11.83,0
			c-4.948,0.597-5.135,0.969-9.413,1.414c-6.325,0.632-6.771-0.111-9.078,0.818c-4.02,1.6-8.706,6.176-7.441,10.119
			C163.404,510.126,168.65,511.13,169.134,511.242z"/>
		<path fill="#FFFFFF" d="M155.108,456.513c-3.014,1.563-5.581,3.46-5.581,3.46c-4.613,3.386-7.627,7.068-9.413,9.563
			c0.26,1.524,0.483,3.088,0.744,4.612c-8.929,4.315-16.073,8.261-20.947,11.051c-13.505,7.737-21.354,13.915-37.056,26.267
			c-5.098,3.98-10.678,8.558-12.612,16.11c-0.483,1.935-1.6,6.437,0.446,11.31c2.344,5.618,7.255,8.037,8.743,8.706
			c3.236,1.451,6.324,1.563,11.272,1.079c10.827-1.042,19.123-3.869,22.249-4.948c11.013-3.906,19.012-7.85,20.946-8.817
			c9.003-4.502,21.244-11.272,35.308-21.133c0.074-0.409,0.521-2.753-1.004-4.836c-1.302-1.786-3.572-2.717-5.841-2.382
			c2.381-1.189,5.692-3.088,9.115-6.063c6.398-5.58,9.45-11.646,11.385-15.59c1.116-2.27,4.241-9.04,5.469-18.526
			c0.744-5.879,0.521-10.827,0.112-14.398C187.067,451.937,166.121,450.822,155.108,456.513z"/>
		<path opacity="0.21" fill="#9E9E9E" enable-background="new    " d="M180.407,459.08c-4.018,10.23-8.892,17.04-12.017,20.872
			c-18.863,23.253-46.098,28.016-77.76,54.58c-3.683,3.088-7.44,6.474-6.659,7.999c1.822,3.608,28.127-6.14,42.078-11.98
			c18.491-7.738,32.777-15.998,42.116-21.913c-1.6-1.042-3.236-2.084-4.836-3.088c2.53-1.19,6.14-3.2,9.71-6.511
			c4.726-4.354,7.032-8.706,9.189-12.948c2.529-4.948,6.026-11.868,6.213-21.281c0.075-3.942-0.446-7.18-0.894-9.301
			C185.207,456.662,182.826,457.852,180.407,459.08z"/>
		<g>
			<g>
				<path d="M188.443,456.29c-0.149,17.003-5.841,34.303-19.235,45.465c-6.92,5.729-15.626,8.743-23.773,12.24
					c-8.818,3.795-17.636,7.553-26.453,11.348c-9.935,4.278-19.904,8.521-29.838,12.798c-0.669,0.298-0.074,1.229,0.558,0.968
					c18.305-7.851,36.61-15.699,54.915-23.551c8.334-3.571,17.263-6.585,24.444-12.24c6.063-4.8,10.9-11.087,14.25-18.045
					c4.315-9.003,6.176-18.975,6.25-28.944C189.56,455.583,188.443,455.583,188.443,456.29L188.443,456.29z"/>
			</g>
		</g>
		<g>
			<g>
				<path d="M139.556,469.573c0,1.674,0.223,3.198,0.743,4.762c0.074-0.224,0.187-0.409,0.261-0.632
					c-13.245,6.511-26.268,13.58-38.471,21.95c-5.878,4.019-11.569,8.371-16.965,13.021c-5.06,4.39-10.565,9.115-13.84,15.068
					c-2.753,4.984-3.386,10.715-0.93,15.961c2.53,5.432,7.59,8.892,13.468,9.599c6.995,0.855,14.51-0.931,21.244-2.642
					c6.883-1.749,13.58-4.167,20.091-7.032c15.329-6.659,29.503-15.626,43.567-24.519c0.595-0.372,0.038-1.34-0.559-0.968
					c-22.993,14.585-47.063,29.766-74.559,33.671c-6.995,1.005-14.547,1.005-19.646-4.612c-4.501-4.985-5.208-11.868-2.307-17.858
					c2.828-5.805,7.999-10.343,12.762-14.585c5.246-4.688,10.826-9.003,16.594-13.021c12.648-8.854,26.229-16.26,40.069-23.067
					c0.224-0.111,0.335-0.409,0.26-0.632c-0.482-1.488-0.707-2.939-0.707-4.465C140.672,468.865,139.556,468.865,139.556,469.573
					L139.556,469.573z"/>
			</g>
		</g>
		<g>
			<g>
				<path d="M163.441,506.888c3.608,0.074,6.063,3.313,5.172,6.771c-0.187,0.707,0.893,1.005,1.079,0.298
					c1.079-4.204-1.897-8.111-6.25-8.187C162.735,505.772,162.735,506.888,163.441,506.888L163.441,506.888z"/>
			</g>
		</g>
		<g>
			<g>
				<path d="M169.878,511.093c2.195-1.6,4.094-3.125,6.697-3.98c2.604-0.854,5.208-1.785,7.776-2.827
					c4.947-1.973,9.821-4.204,14.547-6.659c0.632-0.335,0.075-1.303-0.559-0.968c-5.06,2.642-10.23,5.021-15.552,7.068
					c-2.566,0.967-5.171,1.786-7.738,2.716c-2.157,0.781-3.906,2.345-5.729,3.685C168.762,510.535,169.32,511.502,169.878,511.093
					L169.878,511.093z"/>
			</g>
		</g>
		<g>
			<g>
				<path d="M176.352,495.913c4.019,0.707,7.888-0.148,11.794-1.079c2.231-0.521,4.464-1.078,6.733-1.266
					c1.042-0.073,2.308-0.261,3.312,0c2.716,0.707,0.633,2.902-0.744,3.832c-0.595,0.409-0.037,1.377,0.558,0.969
					c1.488-1.006,3.424-2.643,2.418-4.688c-0.854-1.711-3.683-1.376-5.245-1.265c-6.25,0.445-12.204,3.534-18.528,2.418
					C175.942,494.722,175.645,495.802,176.352,495.913L176.352,495.913z"/>
			</g>
		</g>
	</g>
	<g id="hand_left_1_">
		<path fill="#FFFFFF" d="M203.437,375.22c-0.894,0.894-2.158,2.307-3.274,4.278c-1.6,2.79-2.566,6.213-1.972,17.598
			c0.447,8.408,1.451,15.031,2.231,19.57c0.67,3.795,1.34,6.883,1.823,9.04c4.427,19.347,12.761,42.303,15.85,50.637
			c2.307,6.25,5.506,14.695,9.562,24.704c-1.786,1.563-4.205,3.979-6.288,7.516c-1.116,1.86-2.753,4.65-2.046,5.396
			c0.595,0.595,2.865-0.037,10.455-5.433c4.353,1.711,7.701,3.46,9.971,4.8c3.274,1.896,6.064,3.868,10.455,4.465
			c1.229,0.186,2.271,0.186,2.978,0.186c-0.67-1.339-1.86-3.385-3.944-5.356c-2.493-2.345-5.32-3.236-5.246-3.423
			c0.074-0.148,2.381,0.894,5.506,1.859c2.753,0.855,5.768,1.042,11.832,1.414c0.855,0.037,2.121,0.111,2.679-0.633
			c0.633-0.894-0.074-2.418-0.335-3.051c-1.859-4.019-8.631-6.512-11.087-7.366c0.967,0.446,3.423,1.339,6.548,0.854
			c2.865-0.445,4.838-1.822,5.655-2.529c-1.637-0.334-3.349-0.669-5.097-0.931c-8.706-1.377-16.742-1.524-23.886-1.005
			c-1.079-2.753-2.604-7.181-3.832-12.798c-1.34-6.027-1.042-7.59-2.53-16.481c-1.19-7.145-1.936-11.349-3.758-16.632
			c-1.711-4.873-3.646-8.668-5.135-11.234c-5.432-24.146-7.553-35.196-8.334-40.555c-0.558-3.868-1.265-6.585-2.642-12.055
			c-0.595-2.344-1.228-4.613-2.604-7.366C205.781,378.271,204.441,376.448,203.437,375.22z"/>
		<path opacity="0.11" fill="#686868" enable-background="new    " d="M203.437,375.22c1.265,0.074,1.563,6.809,2.344,15.328
			c0,0,1.079,11.794,6.288,40.367c5.469,30.099,17.152,61.687,21.282,72.476c6.288,4.837,12.611,9.711,18.899,14.547
			c-1.563,0.037-4.055-0.037-6.883-0.967c-2.642-0.855-4.056-1.972-8.074-4.315c-1.563-0.931-3.98-2.271-7.031-3.832
			c-6.438,4.315-10.083,6.026-10.938,5.135c-0.967-1.042,1.86-5.618,8.52-13.691c-1.115-2.382-2.641-5.767-4.39-9.858
			c-3.051-7.069-10.492-25.076-18.64-55.139c-6.697-24.704-6.883-31.922-6.585-37.577
			C198.824,386.828,201.726,375.072,203.437,375.22z"/>
		<g>
			<g>
				<path d="M203.028,375.593c2.158,1.748,3.237,4.315,4.204,6.846c0.967,2.566,1.711,5.208,2.381,7.888
					c1.376,5.654,2.418,11.385,3.609,17.076c2.381,11.608,4.762,23.18,7.143,34.787c0.149,0.707,1.228,0.409,1.079-0.298
					c-2.493-12.055-4.985-24.146-7.441-36.2c-1.19-5.767-2.231-11.607-3.721-17.301c-1.19-4.539-2.567-10.491-6.437-13.542
					C203.288,374.365,202.47,375.145,203.028,375.593L203.028,375.593z"/>
			</g>
		</g>
		<g>
			<g>
				<path d="M199.754,417.931c6.809,28.275,15.998,55.919,27.457,82.67c0.298,0.669,1.229,0.074,0.968-0.559
					c-11.423-26.64-20.574-54.208-27.347-82.409C200.646,416.964,199.605,417.261,199.754,417.931L199.754,417.931z"/>
			</g>
		</g>
		<g>
			<g>
				<path d="M220.588,441.594c9.748,17.077,8.148,37.651,14.176,55.957c0.223,0.669,1.302,0.372,1.078-0.298
					c-6.063-18.417-4.465-39.028-14.286-56.217C221.184,440.403,220.216,440.962,220.588,441.594L220.588,441.594z"/>
			</g>
		</g>
		<g>
			<g>
				<path d="M227.286,500.638c-2.121,2.529-4.353,5.022-6.398,7.664c-1.042,1.339-2.68,3.349-2.308,5.209
					c0.372,1.748,1.749,1.265,2.865,0.595c2.865-1.674,5.729-3.423,8.594-5.134c0.632-0.372,0.074-1.34-0.558-0.968
					c-1.749,1.042-3.497,2.084-5.208,3.125c-0.931,0.559-1.86,1.079-2.753,1.638c-0.187,0.111-1.042,0.781-1.229,0.744
					c-0.186-0.335-0.372-0.707-0.521-1.042c0.148-0.409,0.335-0.818,0.521-1.228c0.894-1.713,2.271-3.163,3.497-4.651
					c1.451-1.711,2.865-3.423,4.316-5.134C228.55,500.861,227.732,500.08,227.286,500.638L227.286,500.638z"/>
			</g>
		</g>
		<g>
			<g>
				<path d="M235.619,498.108c4.949,0.148,9.897,0.335,14.809,0.597c2.418,0.147,4.8,0.297,7.218,0.445
					c2.381,0.187,4.762,0.262,7.032,1.116c0.67,0.26,0.968-0.817,0.298-1.079c-2.01-0.78-4.094-0.931-6.213-1.079
					c-2.53-0.186-5.061-0.335-7.591-0.482c-5.171-0.298-10.343-0.521-15.552-0.633C234.913,496.992,234.913,498.108,235.619,498.108
					L235.619,498.108z"/>
			</g>
		</g>
		<g>
			<g>
				<path d="M230.113,509.344c8.074,2.232,14.324,9.412,23.104,9.152c0.372,0,0.633-0.335,0.521-0.707
					c-1.228-4.8-6.288-6.512-9.375-9.859c-0.484-0.521-1.265,0.261-0.782,0.781c2.939,3.162,7.925,4.837,9.078,9.376
					c0.187-0.225,0.372-0.484,0.521-0.707c-8.595,0.26-14.883-6.92-22.808-9.115C229.704,508.079,229.406,509.158,230.113,509.344
					L230.113,509.344z"/>
			</g>
		</g>
		<g>
			<g>
				<path d="M243.842,508.972c3.944,1.637,8.073,2.864,12.277,3.571c1.823,0.298,3.721,0.559,5.581,0.409
					c1.079-0.074,2.456-0.187,3.088-1.229c1.414-2.344-1.972-4.613-3.46-5.767c-3.088-2.345-6.548-4.093-10.23-5.246
					c-0.67-0.225-0.968,0.854-0.299,1.079c2.791,0.893,5.433,2.083,7.889,3.683c1.189,0.782,2.344,1.638,3.46,2.567
					c0.483,0.445,1.152,0.931,1.487,1.524c0.931,1.639-0.595,2.195-1.896,2.271c-5.804,0.482-12.278-1.785-17.598-3.98
					C243.47,507.633,243.209,508.712,243.842,508.972L243.842,508.972z"/>
			</g>
		</g>
		<g>
			<g>
				<path d="M250.911,501.94c4.279,0.521,10.417,2.419,13.84-1.152c0.483-0.521-0.298-1.303-0.78-0.781
					c-1.712,1.786-4.057,1.823-6.362,1.6c-2.232-0.223-4.464-0.521-6.697-0.78C250.204,500.75,250.204,501.866,250.911,501.94
					L250.911,501.94z"/>
			</g>
		</g>
		<g>
			<g>
				<path d="M246.26,505.102c2.567,1.304,5.357,1.937,8.147,2.643c3.274,0.818,6.288,1.936,9.041,3.87
					c0.595,0.408,1.153-0.56,0.558-0.969c-2.492-1.749-5.171-2.901-8.11-3.684c-3.088-0.818-6.213-1.376-9.078-2.827
					C246.186,503.801,245.627,504.768,246.26,505.102L246.26,505.102z"/>
			</g>
		</g>
	</g>
	<g id="torso_1_">
		<path d="M156.856,373.248c9.375-3.46,17.3-4.167,22.509-4.204c8.929-0.111,19.124-0.224,24.37,6.325
			c2.009,2.529,2.604,6.92,3.757,15.699c1.191,8.968,1.749,13.433,0.484,18.753c-1.525,6.36-3.498,5.395-7.739,14.992
			c-3.125,7.069-2.753,9.228-6.809,20.649c-1.786,5.021-3.386,9.003-4.465,11.496c-2.231,0.744-4.65,1.376-7.255,1.859
			c-13.653,2.566-25.522-0.446-33.075-3.273C151.387,428.126,154.14,400.706,156.856,373.248z"/>
	</g>
	<g id="hand_right_1_">
		<path fill="#FFFFFF" d="M159.349,372.727c-1.601,0.67-3.907,1.86-6.177,3.981c-1.896,1.748-3.348,3.683-4.725,6.25
			c-3.348,6.176-4.278,12.166-4.65,14.51c-2.529,16.557-3.273,23.29-3.273,23.29c-1.563,14.436-2.083,20.091-1.936,27.644
			c0.074,4.392,0.372,7.702,1.266,11.571c1.079,4.576,2.679,8.11,5.691,13.729c4.316,8.146,7.999,13.877,10.492,17.857
			c2.978,4.726,7.182,11.607,12.092,20.202c0.894,2.493,1.86,5.097,2.865,7.852c7.032,19.086,3.498,7.663,4.428,10.453
			c0.334,1.042,1.042,3.313,3.125,4.576c0.521,0.335,1.34,0.818,1.823,0.597c0.967-0.483,0.818-4.094-3.535-17.04
			c-0.111-0.372,1.823,4.874,6.438,9.004c1.6,1.413,3.162,2.381,4.353,2.976c0.632,2.939,1.229,5.99,1.786,9.153
			c0.707,4.055,1.302,7.999,1.786,11.794c-0.298,1.004-0.67,2.565-0.558,4.501c0.073,1.153,0.147,2.679,1.078,4.354
			c0.484,0.855,1.675,3.015,3.535,3.199c1.004,0.112,1.86-0.482,3.572-1.6c2.271-1.488,2.716-2.418,3.832-2.381
			c0.595,0,1.451,0.298,2.456,1.637c-0.037-2.567-0.744-3.46-1.376-3.869c-1.042-0.633-1.972,0.187-4.391-0.147
			c-0.931-0.112-2.455-0.336-3.46-1.341c-1.451-1.45-1.116-3.905-1.079-4.539c0.297-3.125-0.856-11.311-5.47-29.986
			c0.372,1.303,1.638,2.121,2.902,1.935c1.339-0.186,2.381-1.413,2.27-2.827c-2.344-2.194-4.688-4.391-7.068-6.586
			c-0.298-2.23-0.595-4.501-0.93-6.808c-1.19-7.999-2.68-15.627-4.316-22.882c-1.004,0.298-2.009,0.596-3.014,0.855
			c0.67,4.799,1.339,9.6,2.009,14.397c-2.493-0.297-4.985-0.632-7.479-0.931c-1.004-1.711-2.27-4.019-3.608-6.809
			c-1.042-2.158-3.162-6.585-5.061-12.277c-2.418-7.33-3.87-11.646-3.98-17.448c-0.075-2.567,0.11-6.251-1.749-10.679
			c-0.707-1.638-1.451-2.901-2.009-3.721c0.817-4.874,1.524-9.041,2.046-12.39c3.533-22.285,1.711-15.961,4.575-37.094
			c0.521-3.943,1.042-7.403,0.298-12.092C163.404,379.982,161.098,375.517,159.349,372.727z"/>
		<path opacity="0.17" fill="#8E8E8E" enable-background="new    " d="M156.856,373.248c-1.451,2.977-3.386,7.403-5.061,12.984
			c-3.051,10.23-3.423,18.564-3.571,24.443c-0.669,24.667-1.042,37.019,1.339,47.957c6.139,28.313,21.244,47.362,27.346,54.915
			c5.134,6.324,9.971,11.161,13.543,14.51c-0.484,0.744-1.451,1.972-2.828,2.12c-1.563,0.149-2.828-1.265-4.353-2.976
			c-1.823-2.084-4.13-4.874-6.734-8.261c1.005,2.643,2.308,6.325,3.313,10.938c1.079,4.911,0.669,5.283,0.521,5.356
			c-0.968,0.446-4.242-4.726-5.804-7.479c-2.083-3.608-4.613-8.893-6.399-16.035c-4.984-8.706-9.227-15.626-12.091-20.202
			c-8.297-13.318-11.162-16.778-13.915-24.815c-0.93-2.79-2.976-9.338-3.571-17.934c-0.224-3.46-0.111-5.469,1.34-20.61
			c1.45-15.068,1.935-19.385,2.864-25.301c1.823-11.606,3.125-15.104,4.799-18.268C150.494,379.164,154.215,375.48,156.856,373.248z
			"/>
		<g>
			<g>
				<path d="M159.2,372.17c-8.147,3.236-12.463,11.198-14.622,19.271c-2.642,9.822-3.758,20.165-4.725,30.285
					c-1.004,10.417-2.53,21.17-1.601,31.624c0.894,10.083,5.506,18.565,10.566,27.123c6.213,10.491,12.427,20.946,18.603,31.438
					c0.372,0.633,1.341,0.074,0.969-0.559c-5.209-8.816-10.417-17.598-15.626-26.416c-4.985-8.408-10.716-16.815-12.688-26.525
					c-1.935-9.675-0.595-19.757,0.224-29.504c0.855-10.231,1.897-20.5,3.832-30.62c1.897-9.71,5.208-21.021,15.329-25.039
					C160.167,372.989,159.87,371.909,159.2,372.17L159.2,372.17z"/>
			</g>
		</g>
		<g>
			<g>
				<path d="M159.349,373.732c7.218,9.338,4.315,22.62,2.977,33.373c-1.674,13.505-3.349,26.975-5.022,40.479
					c-0.074,0.707,1.042,0.707,1.115,0c1.749-14.212,3.535-28.462,5.283-42.674c1.302-10.566,3.46-22.882-3.572-31.959
					C159.684,372.392,158.903,373.174,159.349,373.732L159.349,373.732z"/>
			</g>
		</g>
		<g>
			<g>
				<path d="M154.512,445.501c3.833,2.679,4.725,7.59,5.432,11.868c0.818,4.799,1.637,9.562,2.716,14.286
					c2.121,9.339,5.134,18.49,10.231,26.677c0.372,0.595,1.339,0.037,0.967-0.56c-5.506-8.816-8.558-18.824-10.678-28.944
					c-1.005-4.8-1.638-9.637-2.643-14.437c-0.781-3.795-2.158-7.553-5.469-9.858C154.475,444.124,153.917,445.092,154.512,445.501
					L154.512,445.501z"/>
			</g>
		</g>
		<g>
			<g>
				<path d="M173.896,499.001c2.344,0,4.65,0.038,6.883,0.781c0.669,0.224,0.967-0.855,0.297-1.078
					c-2.344-0.781-4.762-0.819-7.181-0.819C173.189,497.885,173.189,499.001,173.896,499.001L173.896,499.001z"/>
			</g>
		</g>
		<g>
			<g>
				<path d="M181.523,504.843c-0.149,3.125,1.972,5.432,4.018,7.516c2.753,2.827,5.655,5.543,8.631,8.147
					c0.521,0.482,1.34-0.298,0.781-0.781c-2.456-2.158-4.836-4.353-7.143-6.66c-2.232-2.23-5.357-4.762-5.172-8.222
					C182.677,504.135,181.561,504.135,181.523,504.843L181.523,504.843z"/>
			</g>
		</g>
		<g>
			<g>
				<path d="M167.608,511.874c1.451,4.13,2.901,8.26,4.65,12.277c0.894,2.01,1.823,4.019,2.865,5.952
					c0.931,1.712,1.897,3.87,3.274,5.246c0.595,0.596,1.414,1.005,2.195,0.409c0.93-0.744,0.632-2.195,0.408-3.199
					c-0.893-4.688-2.27-9.302-3.906-13.804c-0.261-0.669-1.34-0.372-1.079,0.298c1.189,3.2,2.194,6.474,3.014,9.785
					c0.223,0.893,0.409,1.786,0.632,2.679c0.149,0.633,0.855,2.53,0.409,3.051c-0.781,0.855-3.051-3.423-3.311-3.905
					c-3.461-6.027-5.768-12.612-8.074-19.124C168.464,510.907,167.385,511.205,167.608,511.874L167.608,511.874z"/>
			</g>
		</g>
		<g>
			<g>
				<path d="M176.5,518.943c1.973,2.978,3.944,6.14,6.475,8.706c1.487,1.525,4.502,3.98,6.809,2.901
					c2.418-1.078,0.744-4.018-0.186-5.469c-2.382-3.685-4.8-7.366-7.182-11.087c-0.372-0.597-1.339-0.037-0.967,0.558
					c1.6,2.456,3.2,4.911,4.8,7.367c0.744,1.116,1.451,2.27,2.195,3.386c0.781,1.19,2.938,4.278-0.112,4.204
					c-2.381-0.037-4.501-2.53-5.878-4.204c-1.823-2.231-3.386-4.613-4.985-7.032C177.059,517.79,176.091,518.347,176.5,518.943
					L176.5,518.943z"/>
			</g>
		</g>
		<g>
			<g>
				<path d="M181.523,514.33c2.381,3.235,5.319,6.213,8.743,8.334c1.115,0.707,2.604,1.302,3.795,0.409
					c0.854-0.671,1.042-1.639,0.595-2.567c-0.335-0.633-1.302-0.074-0.967,0.558c-0.633,1.229-1.339,1.563-2.121,1.005
					c-0.261-0.11-0.484-0.223-0.707-0.372c-0.447-0.261-0.856-0.558-1.265-0.854c-0.931-0.67-1.86-1.414-2.717-2.232
					c-1.637-1.487-3.088-3.125-4.39-4.874C182.044,513.177,181.077,513.734,181.523,514.33L181.523,514.33z"/>
			</g>
		</g>
		<g>
			<g>
				<path d="M178.435,516.19c2.493,5.245,6.026,9.859,10.492,13.579c0.558,0.447,1.339-0.334,0.78-0.781
					c-4.39-3.683-7.888-8.185-10.343-13.355C179.105,515,178.138,515.557,178.435,516.19L178.435,516.19z"/>
			</g>
		</g>
		<g>
			<g>
				<path d="M178.584,485.757c1.079,6.733,2.158,13.431,3.237,20.165c0.112,0.707,1.191,0.409,1.079-0.298
					c-1.079-6.734-2.158-13.432-3.237-20.165C179.551,484.752,178.473,485.087,178.584,485.757L178.584,485.757z"/>
			</g>
		</g>
		<g>
			<g>
				<path d="M179.663,485.757c0.483-0.744,1.897-2.01,2.791-0.856c0.187,0.262,0.187,1.116,0.224,1.451
					c0.186,1.304,0.408,2.643,0.595,3.944c0.372,2.492,0.781,5.021,1.152,7.515c0.781,5.023,1.563,10.046,2.345,15.068
					c0.111,0.707,1.19,0.409,1.079-0.298c-1.079-7.068-2.195-14.102-3.274-21.17c-0.261-1.785-0.558-3.571-0.819-5.396
					c-0.11-0.744-0.073-1.896-0.707-2.418c-1.414-1.152-3.608,0.372-4.353,1.563C178.324,485.794,179.291,486.351,179.663,485.757
					L179.663,485.757z"/>
			</g>
		</g>
		<g>
			<g>
				<path d="M189.15,521.883c2.009,10.231,3.683,20.5,5.06,30.843c0.112,0.707,1.229,0.707,1.116,0
					c-1.376-10.418-3.088-20.798-5.134-31.141C190.081,520.878,189.001,521.176,189.15,521.883L189.15,521.883z"/>
			</g>
		</g>
		<g>
			<g>
				<path d="M187.216,530.328c1.34,6.957,2.493,13.952,3.46,20.982c0.111,0.707,1.19,0.409,1.079-0.298
					c-0.968-7.031-2.121-14.026-3.46-20.982C188.146,529.323,187.067,529.621,187.216,530.328L187.216,530.328z"/>
			</g>
		</g>
		<g>
			<g>
				<path d="M190.825,551.311c0.632,1.563,2.158,2.604,3.869,2.418c0.707-0.073,0.707-1.189,0-1.114
					c-1.153,0.147-2.344-0.447-2.791-1.602C191.643,550.344,190.564,550.641,190.825,551.311L190.825,551.311z"/>
			</g>
		</g>
		<g>
			<g>
				<path d="M190.899,551.013c-1.414,3.721-1.079,8.855,2.083,11.646c1.189,1.078,2.716,1.414,4.204,0.78
					c1.822-0.744,5.134-5.691,7.105-2.938c0.41,0.596,1.377,0.037,0.968-0.559c-2.009-2.864-4.985-0.372-6.809,1.266
					c-1.377,1.228-3.014,2.084-4.688,0.67c-0.931-0.781-1.563-2.009-1.973-3.125c-0.855-2.456-0.744-5.023,0.187-7.441
					C192.238,550.641,191.159,550.344,190.899,551.013L190.899,551.013z"/>
			</g>
		</g>
		<g>
			<g>
				<path d="M194.582,552.688c0.298,1.897,1.339,3.869,3.2,4.613c2.381,0.93,7.851-1.229,6.846,3.386
					c-0.147,0.707,0.931,1.004,1.079,0.298c0.446-1.973-0.298-4.056-2.418-4.539c-1.524-0.372-3.051,0.335-4.576,0
					c-1.859-0.446-2.753-2.27-3.051-4.019C195.512,551.683,194.471,552.018,194.582,552.688L194.582,552.688z"/>
			</g>
		</g>
	</g>
	<g id="head_1_">
		<path fill="#FFFFFF" d="M174.194,373.732c0.558,1.339,1.265,2.345,2.231,3.052c1.488,1.152,3.2,1.376,4.354,1.376
			c1.228-1.413,2.456-2.827,3.683-4.241c0.894,0.854,3.237,2.901,6.585,3.014c1.488,0.037,3.015-0.298,5.208-1.451
			c5.729-3.014,9.19-7.887,10.864-10.527c3.125-5.099,4.205-9.638,4.8-12.391c0.931-4.24,2.418-11.422-0.446-19.495
			c-1.042-2.901-1.525-4.354-2.79-5.581c-7.182-6.993-32.221-1.785-39.438,14.139C169.32,341.661,164.967,351.298,174.194,373.732z"
			/>
		<path opacity="0.18" fill="#8E8E8E" enable-background="new    " d="M204.776,331.392c0.558,2.271-8.557,3.46-15.738,13.691
			c-5.06,7.255-5.841,14.287-5.99,15.85c-0.521,5.655,0.559,10.27,1.451,13.021c-1.711-1.041-3.423-2.12-5.097-3.162
			c-1.674,1.153-3.313,2.27-4.986,3.423c-2.158-2.493-7.181-9.004-8.109-18.64c-0.299-3.2-1.079-11.087,3.423-17.562
			C179.105,324.547,203.883,327.784,204.776,331.392z"/>
		<path fill="#2B59C3" d="M178.398,346.126c3.943-0.894,7.105-2.121,9.301-3.125c4.502-2.047,7.627-4.316,10.604-6.475
			c2.716-1.972,4.91-3.795,6.474-5.172c1.823,0.818,5.32,2.68,6.623,6.362c0.335,1.005,0.521,2.046,0.409,5.506
			c-0.149,3.87-0.224,6.586-0.968,10.083c-1.524,7.479-4.91,13.319-6.958,16.444c2.567-1.19,6.475-3.46,9.674-7.664
			c4.241-5.544,4.91-11.273,5.432-16.52c0.893-9.041,1.749-17.523-3.646-23.477c-5.507-6.102-14.511-6.177-21.914-6.214
			c-4.13-0.037-9.339-0.074-15.105,2.27c-9.673,3.981-9.859,10.194-23.402,24.594c-9.934,10.528-12.984,10.528-15.515,17.04
			c-2.493,6.361-4.353,18.677,3.349,25.337c7.701,6.622,20.352,3.72,27.384-2.346c1.637-1.413,7.329-6.732,7.7-15.438
			c0.335-7.776-3.758-13.171-4.874-14.547c-3.349-3.944-3.571-8.261-1.822-9.822c1.152-1.042,3.683-1.303,5.432,0
			C178.026,344.08,178.324,345.717,178.398,346.126z"/>
		<g>
			<g>
				<path d="M177.468,367.779c1.936,2.232,4.131,4.241,6.512,5.99c1.972,1.451,4.612,3.497,7.143,3.795
					c2.567,0.298,5.618-1.45,7.702-2.753c2.418-1.487,4.539-3.423,6.325-5.618c3.758-4.763,5.432-10.753,6.398-16.668
					c1.079-6.548,1.229-13.244-0.67-19.645c-0.186-0.67-1.265-0.409-1.079,0.298c1.749,5.878,1.749,12.019,0.855,18.007
					c-0.818,5.544-2.158,11.199-5.32,15.888c-2.753,4.13-7.775,8.481-12.836,9.265c-2.753,0.409-5.767-2.01-7.887-3.535
					c-2.307-1.674-4.39-3.646-6.288-5.804C177.766,366.439,176.984,367.221,177.468,367.779L177.468,367.779z"/>
			</g>
		</g>
		<g>
			<g>
				<path d="M201.316,348.953c-0.67,2.642-1.339,5.319-2.009,7.962c-0.335,1.266-0.633,2.529-0.968,3.795
					c-0.223,0.819-0.408,3.312-1.152,3.832c0.26,0.112,0.558,0.224,0.817,0.335c-0.595-1.488-1.265-2.901-2.157-4.278
					c-0.372-0.595-1.34-0.037-0.968,0.56c0.818,1.265,1.488,2.604,2.046,4.018c0.111,0.298,0.483,0.559,0.818,0.335
					c0.856-0.596,0.894-1.414,1.153-2.418c0.372-1.488,0.744-3.014,1.116-4.502c0.78-3.125,1.563-6.251,2.344-9.376
					C202.544,348.581,201.502,348.284,201.316,348.953L201.316,348.953z"/>
			</g>
		</g>
		<g>
			<g>
				<path d="M187.699,361.305c0.409,3.274,3.274,5.804,6.623,5.618c0.707-0.037,0.707-1.153,0-1.116
					c-2.679,0.148-5.171-1.823-5.506-4.502C188.704,360.598,187.588,360.598,187.699,361.305L187.699,361.305z"/>
			</g>
		</g>
		<ellipse transform="matrix(-0.3475 0.9377 -0.9377 -0.3475 591.243 289.4031)" cx="194.929" cy="350.413" rx="3.125" ry="1.265"/>
		<ellipse transform="matrix(-0.3474 0.9377 -0.9377 -0.3474 607.2444 281.554)" cx="205.646" cy="352.089" rx="3.125" ry="1.265"/>
		<g>
			<g>
				<path d="M194.21,342.145c1.154-1.303,3.015-1.079,3.795,0.483c0.335,0.632,1.266,0.074,0.969-0.56
					c-1.079-2.156-3.944-2.528-5.544-0.707C192.945,341.885,193.727,342.666,194.21,342.145L194.21,342.145z"/>
			</g>
		</g>
		<g>
			<g>
				<path d="M205.297,343.521c1.042-1.079,3.312-1.786,3.981,0.149c0.223,0.669,1.302,0.372,1.079-0.298
					c-0.93-2.716-4.129-2.382-5.841-0.633C204.032,343.223,204.813,344.043,205.297,343.521L205.297,343.521z"/>
			</g>
		</g>
		<g>
			<g>
				<path d="M174.083,352.562c-2.679-1.005-3.721-5.135-2.865-7.627c0.447-1.303,1.749-2.529,3.2-2.529
					c2.046,0,3.163,2.157,3.46,3.906c0.112,0.706,1.191,0.409,1.079-0.298c-0.669-3.907-5.097-6.586-7.999-2.902
					c-2.418,3.125-0.893,9.152,2.828,10.529C174.454,353.865,174.752,352.786,174.083,352.562L174.083,352.562z"/>
			</g>
		</g>
		<g>
			<g>
				<path d="M190.639,353.529c-0.038,0-0.075,0-0.112,0c-0.297,0-0.558,0.262-0.558,0.56s0.261,0.558,0.558,0.558
					c0.037,0,0.074,0,0.112,0c0.297,0,0.558-0.26,0.558-0.558S190.936,353.529,190.639,353.529L190.639,353.529z"/>
			</g>
		</g>
		<g>
			<g>
				<path d="M193.243,355.687c0.707,0,0.707-1.115,0-1.115S192.536,355.687,193.243,355.687L193.243,355.687z"/>
			</g>
		</g>
		<g>
			<g>
				<path d="M190.899,357.51c0.707,0,0.707-1.116,0-1.116S190.192,357.51,190.899,357.51L190.899,357.51z"/>
			</g>
		</g>
		<g>
			<g>
				<path d="M203.511,357.883c0.706,0,0.706-1.116,0-1.116C202.805,356.766,202.805,357.883,203.511,357.883L203.511,357.883z"/>
			</g>
		</g>
		<g>
			<g>
				<path d="M206.786,357.622c0.707,0,0.707-1.116,0-1.116C206.042,356.506,206.042,357.622,206.786,357.622L206.786,357.622z"/>
			</g>
		</g>
		<g>
			<g>
				<path d="M204.032,360.748c0.707,0,0.707-1.116,0-1.116S203.325,360.748,204.032,360.748L204.032,360.748z"/>
			</g>
		</g>
		<g>
			<g>
				<path d="M184.09,373.546c-1.228,1.414-2.456,2.828-3.683,4.241c-0.484,0.559,0.335,1.34,0.781,0.78
					c1.228-1.412,2.456-2.826,3.683-4.24C185.355,373.806,184.574,373.025,184.09,373.546L184.09,373.546z"/>
			</g>
		</g>
		<g>
			<g>
				<path d="M173.71,374.029c1.116,2.643,3.534,4.576,6.362,5.099c0.707,0.147,1.004-0.932,0.298-1.079
					c-2.604-0.483-4.65-2.158-5.691-4.576C174.417,372.802,173.45,373.36,173.71,374.029L173.71,374.029z"/>
			</g>
		</g>
	</g>
</g>
<g id="guy">
	<g id="leg_right">
		<path d="M422.835,521.398c1.896,1.153,4.056,2.271,6.398,3.35c5.356,2.419,10.344,3.721,14.473,4.428
			c0.744,1.339,1.824,3.273,3.088,5.581c3.425,6.25,6.064,11.198,6.771,12.463c5.692,10.678,13.654,27.197,14.846,29.69
			c-0.931,0.482-2.493,1.077-4.391,0.854c-2.232-0.261-3.722-1.6-4.911-2.754c-5.841-5.432-7.553-7.701-7.553-7.701
			c-3.943-5.208-7.776-9.858-15.479-19.086c-1.972-2.344-3.571-4.204-4.539-5.32c-4.166-0.372-8.334-0.743-12.463-1.152
			C420.342,534.978,421.607,528.17,422.835,521.398z"/>
		<path fill="#FFFFFF" d="M451.707,473.256c-8.037,0.297-14.397,0.297-17.041,0.26c-3.496-0.037-8.52-0.11-30.582-1.265
			c-10.528-0.559-12.352-0.67-17.338-0.818c-8.371-0.261-16.072-0.261-25.188,1.525c-5.953,1.152-8.893,2.344-11.57,4.465
			c-1.229,0.967-5.209,4.241-6.474,9.821c-0.188,0.894-0.634,3.089,0.073,7.44c1.116,7.032,3.944,12.428,5.878,15.626
			c2.755,4.539,6.325,8.817,12.24,13.915c3.387,2.901,11.088,9.189,27.012,16.928c7.701,3.759,18.156,8.261,31.104,12.203
			c-0.298-1.858-0.633-4.538-0.744-7.737c-0.261-7.329,0.818-12.91,1.785-18.008c0.744-3.758,1.898-8.705,3.832-14.397
			c-2.641-1.488-5.246-3.014-7.887-4.502c7.553,1.339,14.138,1.935,19.346,2.158c11.46,0.558,19.682-0.335,29.43-1.414
			c7.738-0.855,11.684-1.303,13.767-2.567c10.863-6.622,14.397-27.234,7.182-33.968
			C482.586,469.163,477.935,472.251,451.707,473.256z"/>
		<path opacity="0.13" fill="#898989" enable-background="new    " d="M420.677,528.765c-4.429-2.01-10.679-5.246-17.562-10.157
			c-14.957-10.715-28.238-26.304-25.969-29.242c1.227-1.563,6.324,1.34,14.249,4.277c19.979,7.367,37.205,7.145,49.259,6.958
			c11.348-0.148,28.537-1.712,48.664-8.817c-0.445,2.642-1.711,7.738-5.952,11.72c-2.716,2.566-5.618,3.646-7.59,4.279
			c-13.022,4.277-28.462,3.795-33.075,3.607c-7.069-0.298-16.185-0.854-26.75-2.009c3.125,1.041,6.25,2.083,9.375,3.125
			C423.802,517.901,422.24,523.333,420.677,528.765z"/>
		<g>
			<g>
				<path d="M447.353,472.586c-16.146,0.817-32.183-0.298-48.292-1.229c-8.073-0.446-16.147-0.78-24.222-0.446
					c-6.993,0.298-14.322,0.894-20.798,3.646c-5.356,2.271-9.896,6.251-11.012,12.166c-1.154,6.176,0.632,12.873,3.162,18.528
					c5.654,12.575,16.668,21.542,28.201,28.573c14.101,8.558,29.316,15.774,45.315,20.054c0.706,0.186,1.004-0.894,0.297-1.079
					c-13.729-3.646-26.713-9.562-39.063-16.481c-11.795-6.586-23.514-14.397-30.808-26.044c-3.423-5.432-5.841-11.683-6.25-18.155
					c-0.224-3.571,0.261-7.219,2.308-10.231c1.711-2.529,4.314-4.39,7.031-5.729c6.288-3.088,13.69-3.759,20.573-4.093
					c7.441-0.372,14.92-0.148,22.323,0.224c17.114,0.893,34.08,2.231,51.231,1.377C448.06,473.665,448.097,472.549,447.353,472.586
					L447.353,472.586z"/>
			</g>
		</g>
		<g>
			<g>
				<path d="M376.923,489.848c15.219,9.45,31.402,17.228,48.257,23.179c0.67,0.225,0.967-0.854,0.297-1.078
					c-16.779-5.952-32.89-13.691-47.994-23.066C376.849,488.51,376.292,489.476,376.923,489.848L376.923,489.848z"/>
			</g>
		</g>
		<g>
			<g>
				<path d="M424.918,512.135c-4.837,12.984-6.732,26.899-5.618,40.702c0.074,0.707,1.191,0.707,1.116,0
					c-1.152-13.729,0.744-27.494,5.581-40.404C426.257,511.762,425.179,511.465,424.918,512.135L424.918,512.135z"/>
			</g>
		</g>
		<g>
			<g>
				<path d="M422.462,521.77c2.308,2.271,6.251,3.423,9.266,4.465c3.795,1.341,7.701,2.345,11.683,3.015
					c0.707,0.11,1.004-0.968,0.297-1.079c-3.534-0.595-7.03-1.414-10.417-2.567c-1.859-0.632-3.72-1.339-5.507-2.12
					c-1.563-0.67-3.311-1.303-4.501-2.529C422.723,520.469,421.942,521.25,422.462,521.77L422.462,521.77z"/>
			</g>
		</g>
		<g>
			<g>
				<path d="M443.261,529.435c8.557,15.402,16.815,30.991,24.776,46.729c0.336,0.632,1.303,0.073,0.968-0.56
					c-7.962-15.736-16.259-31.289-24.777-46.729C443.893,528.244,442.925,528.802,443.261,529.435L443.261,529.435z"/>
			</g>
		</g>
		<g>
			<g>
				<path d="M419.598,541.563c2.977,0.41,5.989,0.782,8.966,1.191c1.266,0.186,2.493,0.26,3.498,1.189
					c0.521,0.483,0.967,1.116,1.377,1.675c0.781,1.042,1.6,2.084,2.381,3.125c3.385,4.502,6.771,8.967,10.38,13.318
					c3.646,4.354,7.479,8.521,11.757,12.241c2.865,2.492,7.145,6.25,10.9,3.051c0.559-0.483-0.26-1.266-0.781-0.78
					c-2.789,2.381-6.139-0.372-8.333-2.195c-2.084-1.749-4.056-3.609-5.953-5.581c-3.758-3.832-7.181-7.925-10.491-12.129
					c-3.273-4.167-6.324-8.594-9.711-12.688c-1.377-1.675-2.901-2.047-4.984-2.307c-2.978-0.409-5.99-0.781-8.967-1.19
					C418.891,540.373,418.891,541.49,419.598,541.563L419.598,541.563z"/>
			</g>
		</g>
		<g>
			<g>
				<path d="M417.626,509.717c20.276,2.901,40.927,2.27,60.979-1.935c0.707-0.149,0.41-1.229-0.297-1.079
					c-19.83,4.167-40.33,4.799-60.386,1.935C417.217,508.526,416.919,509.604,417.626,509.717L417.626,509.717z"/>
			</g>
		</g>
	</g>
	<g id="hand_right">
		<path fill="#FFFFFF" d="M408.511,351.781c0.147-2.158,0.26-4.911,0.186-8.073c-0.074-3.758-0.297-3.274-0.633-9.152
			c-0.334-5.842-0.26-8.186-1.711-8.893c-0.67-0.335-1.563-0.224-2.158,0.148c-0.408,0.261-0.967,0.818-1.488,4.985
			c-0.297,2.418-0.147,2.716-0.558,3.199c-1.042,1.265-2.643,0.261-4.613,1.6c-1.153,0.781-0.781,1.229-2.419,2.865
			c-1.711,1.711-2.232,1.339-3.348,2.679c-0.187,0.223-2.011,2.455-1.601,5.171c0.074,0.521,0.297,2.121,1.303,2.53
			c0.968,0.409,1.785-0.633,2.455-0.261c0.744,0.372,0.445,1.859,0.335,4.688c-0.111,3.162-0.187,4.837,0.483,6.475
			c0.595,1.487,1.637,2.566,2.566,3.272c0.224,1.266,0.521,3.2,0.78,5.581c0.855,8.26,0.037,12.315,0,17.97
			c0,9.153,2.158,16.26,3.572,20.909c1.936,6.362,4.354,11.385,6.176,14.809c2.158,0.148,5.32,0.111,8.931-0.931
			c4.018-1.189,6.473-3.014,11.422-6.846c9.078-6.994,13.654-10.566,15.514-12.464c7.404-7.553,8.483-11.684,8.818-13.617
			c0.26-1.488,1.151-6.399-1.488-8.408c-2.195-1.674-5.655-0.482-7.105,0c-2.79,0.932-4.241,2.419-6.733,4.502
			c-4.688,3.906-4.912,3.162-9.377,6.734c-2.827,2.27-6.659,5.729-10.678,10.678c-0.261-1.377-0.707-3.534-1.303-6.176
			c-1.152-5.172-2.083-8.371-2.604-10.492c-1.674-6.474-2.307-11.757-3.571-22.286C409.292,360.078,408.883,356.283,408.511,351.781
			z"/>
		<path opacity="0.18" fill="#A5A4A4" enable-background="new    " d="M405.944,325.291c0.261,2.901,0.335,6.733-0.409,11.087
			c-0.967,5.768-2.902,10.269-4.502,13.282c-0.26,0.67-0.893,2.382-0.372,4.502c0.781,3.2,3.497,4.649,3.944,4.874
			c1.188,6.25,2.381,12.464,3.57,18.714c2.047,10.9,4.057,21.84,5.989,32.74c3.461-3.052,6.958-6.103,10.492-9.189
			c8.223-7.105,16.408-14.026,24.52-20.76c-1.749-0.298-3.497-0.633-5.246-0.932c-1.34,0.855-3.2,2.048-5.433,3.572
			c-4.241,2.901-8.854,6.026-13.841,10.678c-2.009,1.86-4.65,4.465-7.479,7.851c-0.334-2.157-0.931-5.32-1.859-9.189
			c-1.229-4.947-1.711-5.543-2.604-9.188c-1.414-5.729-0.408-5.32-2.046-15.181c-1.749-10.604-1.86-11.235-1.86-11.235
			c-0.261-1.488-0.445-2.492-0.559-3.943c-0.372-4.502,0.372-7.888,0.559-8.816C409.292,341.103,409.218,335.596,405.944,325.291z"
			/>
		<g>
			<g>
				<path d="M446.386,377.713c-10.901,6.398-20.91,14.175-29.689,23.29c-0.484,0.521,0.297,1.303,0.781,0.781
					c8.705-9.04,18.639-16.742,29.466-23.104C447.576,378.345,447.018,377.378,446.386,377.713L446.386,377.713z"/>
			</g>
		</g>
		<g>
			<g>
				<path d="M417.031,404.836c1.005-3.35,0.521-6.697-0.371-10.009c-1.043-3.906-2.231-7.775-3.126-11.721
					c-1.86-7.999-3.051-16.108-3.608-24.295c-0.036-0.706-1.153-0.706-1.116,0c0.521,7.554,1.601,15.068,3.199,22.511
					c0.818,3.758,1.786,7.478,2.864,11.16c1.154,3.943,2.382,7.999,1.117,12.093C415.766,405.208,416.845,405.505,417.031,404.836
					L417.031,404.836z"/>
			</g>
		</g>
		<g>
			<g>
				<path d="M409.925,358.255c-0.633-3.051-2.157-10.194-6.771-9.189c-1.525,0.335-3.014,1.748-2.902,3.424
					c0.148,2.307,2.455,1.563,3.685,2.79c0.521,0.521,1.302-0.299,0.78-0.781c-0.633-0.633-1.266-0.633-2.01-0.968
					c-2.864-1.229,0.261-4.391,2.493-3.052c2.382,1.414,3.126,5.581,3.646,8.074C408.995,359.26,410.074,358.962,409.925,358.255
					L409.925,358.255z"/>
			</g>
		</g>
		<g>
			<g>
				<path d="M408.958,353.567c0.707-8.706,0.298-17.523-1.451-26.117c-0.187-0.969-0.371-2.232-1.412-2.68
					c-0.969-0.409-1.974,0.187-2.493,0.967c-0.818,1.267-0.818,3.237-0.969,4.688c-0.223,2.344-0.223,4.725-0.036,7.068
					c0.036,0.707,1.153,0.707,1.115,0c-0.11-1.638-0.187-3.312-0.11-4.948c0.074-1.525-0.075-3.906,0.595-5.246
					c0.037-0.148,0.074-0.334,0.112-0.483c1.265-0.78,1.896-0.707,1.972,0.225c0.298,0.482,0.298,1.487,0.409,2.083
					c0.335,1.786,0.595,3.608,0.817,5.433c0.744,6.324,0.856,12.688,0.335,19.012C407.767,354.273,408.883,354.273,408.958,353.567
					L408.958,353.567z"/>
			</g>
		</g>
		<g>
			<g>
				<path d="M402.632,333.699c-0.854-1.86-3.161,0.596-3.721,1.45c-1.488,2.232-1.524,5.061-0.595,7.517
					c0.558,1.377,1.859,3.235,3.497,2.158c2.158-1.378,1.896-5.88,1.637-7.999c-0.074-0.707-1.188-0.707-1.115,0
					c0.187,1.524,0.187,3.013-0.11,4.537c-0.112,0.521-0.149,1.267-0.484,1.713c-0.893,1.265-1.972,0.261-2.381-0.744
					c-0.596-1.451-0.818-3.088-0.41-4.613c0.188-0.707,0.484-1.377,0.894-1.972c0.188-0.262,1.601-1.897,1.786-1.451
					C401.962,334.927,402.93,334.369,402.632,333.699L402.632,333.699z"/>
			</g>
		</g>
		<g>
			<g>
				<path d="M399.544,334.555c-4.018,0.187-5.767,4.129-5.246,7.701c0.225,1.488,0.744,3.014,2.382,3.386
					c1.601,0.372,2.864-0.781,3.199-2.27c0.149-0.707-0.931-1.005-1.079-0.298c-0.743,3.236-3.125,0.743-3.385-0.818
					c-0.148-0.968-0.187-1.936,0.037-2.902c0.445-2.009,1.971-3.607,4.092-3.684C400.289,335.634,400.289,334.517,399.544,334.555
					L399.544,334.555z"/>
			</g>
		</g>
		<g>
			<g>
				<path d="M394.968,337.94c-2.528,0.782-4.872,3.387-4.24,6.214c0.595,2.754,4.019,3.089,5.395,0.781
					c0.372-0.633-0.595-1.189-0.968-0.559c-0.706,1.153-2.344,1.451-3.125,0.148c-0.445-0.743-0.297-1.785-0.037-2.529
					c0.521-1.488,1.786-2.53,3.274-2.978C395.935,338.797,395.675,337.718,394.968,337.94L394.968,337.94z"/>
			</g>
		</g>
		<g>
			<g>
				<path d="M390.839,342.442c-1.229,1.676-2.01,4.985-0.148,6.586c0.707,0.596,1.675,0.633,2.493,0.187
					c1.078-0.595,1.524-1.823,1.858-2.939c0.225-0.669-0.854-0.967-1.078-0.297c-0.224,0.706-0.409,1.413-0.968,1.936
					c-0.931,0.893-1.896,0.335-2.194-0.781c-0.372-1.451,0.111-2.939,0.968-4.093C392.215,342.406,391.248,341.847,390.839,342.442
					L390.839,342.442z"/>
			</g>
		</g>
		<g>
			<g>
				<path d="M392.922,348.284c2.157,4.688-1.675,12.389,4.501,14.992c0.671,0.262,0.969-0.817,0.3-1.078
					c-3.237-1.376-3.089-5.32-2.939-8.26c0.074-2.194,0.037-4.241-0.893-6.251C393.591,347.055,392.625,347.615,392.922,348.284
					L392.922,348.284z"/>
			</g>
		</g>
		<g>
			<g>
				<path d="M396.754,363.166c1.266,5.097,0.596,10.38,0.559,15.589c-0.037,5.021,0.261,10.045,0.931,14.993
					c1.302,9.6,3.981,18.975,7.852,27.83c0.297,0.669,1.265,0.073,0.967-0.56c-4.056-9.301-6.771-19.196-7.962-29.316
					c-0.559-4.764-0.781-9.563-0.669-14.324c0.11-4.874,0.595-9.71-0.597-14.51C397.685,362.161,396.605,362.459,396.754,363.166
					L396.754,363.166z"/>
			</g>
		</g>
		<g>
			<g>
				<path d="M406.837,422.656c10.565,2.382,19.867-6.14,27.494-12.129c4.502-3.534,8.893-7.181,13.133-11.013
					c3.759-3.423,7.293-7.105,9.785-11.571c0.335-0.633-0.596-1.189-0.967-0.558c-2.344,4.204-5.618,7.701-9.152,10.9
					c-3.832,3.498-7.851,6.846-11.905,10.12c-4.093,3.273-8.224,6.621-12.649,9.412c-4.613,2.938-9.934,5.022-15.44,3.759
					C406.427,421.428,406.13,422.508,406.837,422.656L406.837,422.656z"/>
			</g>
		</g>
	</g>
	<g id="lighting_bolt">
		<path fill="#FFFFFF" d="M409.144,300.736c0.26-0.559,0.521-1.413,0.408-2.382c-0.224-1.711-1.563-2.753-2.529-3.795
			c-1.525-1.6-2.047-3.199-3.313-6.213c-0.669-1.6-2.863-6.846-0.558-12.018c1.711-3.832,5.021-5.58,5.691-5.915
			c1.006-0.521,4.948-2.456,8.78-0.744c3.162,1.451,4.354,4.539,5.357,7.218c0.335,0.893,2.009,5.432,0.707,10.9
			c-0.335,1.414-0.781,3.386-2.195,5.433c-1.004,1.451-1.785,1.935-2.566,3.423c-0.969,1.785-1.153,3.571-1.19,4.726
			c0.707,0,1.414,0.036,2.121,0.036c-0.074,1.006-0.188,1.973-0.261,2.978c-1.601-0.372-2.195-0.187-2.419,0.111
			c-0.371,0.559,0.483,1.45,0.111,2.231c-0.111,0.225-0.445,0.707-2.456,1.005c-1.858,0.262-4.688,0.67-5.506-0.67
			c-0.446-0.744,0.111-1.414-0.446-2.157c-0.521-0.707-1.524-0.818-2.307-0.818c-0.707-1.973-0.596-2.643-0.298-2.827
			c0.26-0.188,0.633,0.037,1.414-0.037C408.326,301.182,408.808,300.959,409.144,300.736z"/>
		<g>
			<g>
				<path d="M413.98,300.475c-0.074-4.019-0.187-7.999-0.26-12.018c0-0.707-1.117-0.707-1.117,0
					c0.075,4.019,0.187,7.999,0.262,12.018C412.865,301.182,413.98,301.182,413.98,300.475L413.98,300.475z"/>
			</g>
		</g>
		<g>
			<g>
				<path d="M408.289,283.919c1.376,1.638,2.864,3.237,4.391,4.763c0.224,0.224,0.595,0.224,0.78,0
					c1.079-1.153,2.157-2.307,3.237-3.46c0.595-0.633,1.6-1.377,1.934-2.231c0.149-0.372-0.223-0.671-0.521-0.707
					c-0.037,0-0.037,0-0.037,0c-0.224-0.037-0.483,0.186-0.521,0.408v0.037c-0.149,0.707,0.93,1.005,1.077,0.298v-0.036
					c-0.186,0.147-0.37,0.261-0.521,0.408h0.037c-0.188-0.224-0.372-0.482-0.521-0.707c-0.298,0.781-1.786,1.897-2.381,2.53
					c-0.817,0.894-1.638,1.785-2.493,2.643c0.262,0,0.521,0,0.781,0c-1.525-1.525-2.977-3.126-4.39-4.764
					C408.623,282.58,407.804,283.361,408.289,283.919L408.289,283.919z"/>
			</g>
		</g>
		<g>
			<g>
				<path d="M413.571,287.826c0.149-2.828,0.224-5.655,0.298-8.483c0-0.707-1.116-0.707-1.116,0
					c-0.073,2.828-0.148,5.655-0.298,8.483C412.417,288.532,413.534,288.532,413.571,287.826L413.571,287.826z"/>
			</g>
		</g>
		<g>
			<g>
				<path d="M385.816,272.497c3.423,0.894,6.623,3.014,9.748,4.612c0.633,0.335,1.189-0.632,0.558-0.967
					c-3.236-1.675-6.474-3.832-10.008-4.726C385.444,271.232,385.146,272.311,385.816,272.497L385.816,272.497z"/>
			</g>
		</g>
		<g>
			<g>
				<path d="M402.967,270.005c-1.486-1.749-2.938-3.46-4.427-5.209c-0.483-0.56-1.266,0.261-0.781,0.781
					c1.488,1.749,2.939,3.46,4.428,5.209C402.669,271.344,403.451,270.525,402.967,270.005L402.967,270.005z"/>
			</g>
		</g>
		<g>
			<g>
				<path d="M415.766,264.535c0.224-3.608,0.707-7.182,1.413-10.715c0.148-0.707-0.931-1.006-1.078-0.299
					c-0.707,3.646-1.191,7.292-1.451,11.014C414.576,265.242,415.692,265.242,415.766,264.535L415.766,264.535z"/>
			</g>
		</g>
		<g>
			<g>
				<path d="M428.676,271.195c2.456-2.194,4.985-4.315,7.516-6.361c0.559-0.446-0.223-1.229-0.781-0.781
					c-2.529,2.083-5.059,4.204-7.515,6.362C427.375,270.897,428.156,271.678,428.676,271.195L428.676,271.195z"/>
			</g>
		</g>
		<g>
			<g>
				<path d="M433.476,282.134c3.051-1.079,6.063-2.195,9.078-3.386c0.669-0.261,0.37-1.34-0.3-1.079
					c-3.013,1.189-6.025,2.307-9.076,3.386C432.508,281.277,432.769,282.356,433.476,282.134L433.476,282.134z"/>
			</g>
		</g>
		<g>
			<g>
				<path d="M389.759,289.723c1.898-0.633,3.832-1.266,5.73-1.896c0.67-0.225,0.371-1.304-0.298-1.079
					c-1.897,0.632-3.833,1.265-5.729,1.896C388.755,288.867,389.052,289.947,389.759,289.723L389.759,289.723z"/>
			</g>
		</g>
		<g>
			<g>
				<path d="M405.794,301.592c0.67,0.93-0.26,2.195,0.56,3.162c0.521,0.633,1.34,0.744,2.084,0.781
					c3.646,0.187,7.479-0.372,11.161-0.521c0.707-0.037,0.707-1.153,0-1.116c-2.978,0.148-5.952,0.299-8.93,0.446
					c-1.377,0.074-3.312,0.633-3.608-1.228c-0.148-0.855,0.26-1.267-0.298-2.048C406.353,300.438,405.386,300.996,405.794,301.592
					L405.794,301.592z"/>
			</g>
		</g>
		<g>
			<g>
				<path d="M407.171,301.777c4.242,0.074,8.445,0.149,12.688,0.225c-0.188-0.188-0.372-0.372-0.56-0.56
					c0.074,0.781,0.074,1.377-0.073,2.195c-0.148,0.707,0.93,1.005,1.079,0.298c0.187-0.854,0.224-1.637,0.11-2.493
					c-0.037-0.297-0.224-0.558-0.558-0.558c-4.242-0.074-8.445-0.148-12.688-0.224C406.464,300.661,406.464,301.777,407.171,301.777
					L407.171,301.777z"/>
			</g>
		</g>
		<g>
			<g>
				<path d="M408.697,304.865c-0.595,0.818-0.446,1.896,0.224,2.642c1.042,1.116,2.864,0.931,4.241,0.894
					c1.303-0.036,3.088,0.074,4.167-0.855c0.781-0.669,0.968-1.785,0.409-2.643c-0.409-0.595-1.377-0.036-0.967,0.56
					c1.188,1.786-3.051,1.786-3.609,1.823c-0.854,0.037-4.911,0.147-3.497-1.86C410.074,304.865,409.107,304.307,408.697,304.865
					L408.697,304.865z"/>
			</g>
		</g>
		<g>
			<g>
				<path d="M409.665,300.885c0.669-3.051-1.563-5.469-3.014-7.925c-1.786-3.014-3.386-6.287-3.795-9.822
					c-0.372-3.088,0.224-6.437,2.083-9.003c2.194-3.014,6.026-4.205,9.637-4.242c7.404-0.11,8.817,9.004,8.78,14.733
					c0,3.98-1.302,6.995-3.722,10.083c-1.637,2.083-2.976,4.314-2.418,7.031c0.148,0.707,1.229,0.408,1.079-0.299
					c-0.743-3.57,2.492-5.951,4.166-8.705c1.34-2.157,1.898-4.688,2.011-7.219c0.186-4.501-0.484-10.306-3.424-13.914
					c-3.051-3.795-8.669-3.349-12.724-1.524c-4.502,1.972-6.697,6.659-6.697,11.422c0,2.864,0.855,5.691,2.046,8.297
					c0.707,1.563,1.563,3.088,2.493,4.576c1.152,1.859,2.902,3.906,2.418,6.25C408.437,301.294,409.515,301.592,409.665,300.885
					L409.665,300.885z"/>
			</g>
		</g>
	</g>
	<g id="torso">
		<path d="M444.191,378.345c4.576-3.163,14.77-9.302,29.094-10.343c18.826-1.414,32.555,6.846,36.945,9.747
			c0.521,5.209,1.115,13.171,0.93,22.919c-0.372,18.081-3.125,26.378-4.092,42.339c-0.484,8.036-0.633,19.719,1.264,34.117
			c-6.324,2.12-17.225,4.874-30.805,3.832c-12.055-0.932-21.431-4.465-27.197-7.182c-0.298-5.432-0.854-13.653-2.047-23.625
			c-1.413-11.757-2.864-19.494-3.608-23.849C442.962,415.736,441.661,399.962,444.191,378.345z"/>
	</g>
	<g id="leg_left">
		<path d="M426.779,531.333c-2.828,1.115-5.172,1.896-6.809,2.418c-7.068,2.231-9.972,2.307-13.245,4.984
			c-0.744,0.597-1.749,1.563-3.684,4.392c-2.901,4.314-4.875,8.481-7.775,16.108c-2.68,7.069-4.801,12.725-6.771,20.836
			c-0.931,3.795-1.563,7.03-1.972,9.449c1.637-0.744,4.241-2.047,7.067-4.204c7.852-5.952,9.896-12.537,18.009-24.443
			c1.674-2.455,4.24-6.103,7.737-10.38c1.823-1.304,4.911-3.162,9.078-4.167c2.791-0.634,5.209-0.707,7.032-0.634
			c-0.298-1.265-0.633-2.528-0.931-3.795C431.951,538.365,429.383,534.867,426.779,531.333z"/>
		<path fill="#FFFFFF" d="M420.9,524.412c0.483,0.261,1.229,0.633,2.047,1.189c3.534,2.456,5.135,5.655,6.287,7.852
			c5.246,10.046,6.288,9.227,9.6,17.113c1.377,3.274,2.308,6.064,2.902,7.999c2.307-0.893,5.691-2.27,9.747-4.167
			c9.45-4.427,16.259-8.742,37.242-23.735c17.561-12.575,3.088-2.604,30.136-23.03c0.968-0.707,7.701-5.804,13.989-14.398
			c4.167-5.654,5.433-9.151,5.804-12.464c0.261-2.12,0.931-7.552-2.566-12.054c-2.307-2.977-5.319-4.167-6.586-4.613
			c-3.088-1.153-7.292-1.601-14.547,0.669c-7.403,2.345-12.575,5.843-21.951,12.836c-7.255,5.433-11.682,8.968-15.438,11.868
			c-12.277,9.563-22.621,17.637-35.903,25.076C436.824,517.194,429.83,520.841,420.9,524.412z"/>
		<path opacity="0.18" fill="#969696" enable-background="new    " d="M536.236,468.865c-1.637,3.795-4.315,9.412-8.408,15.774
			c-15.217,23.736-35.828,35.567-48.813,42.822c-9.563,5.356-24.109,12.241-43.195,16.929c1.004,1.86,2.009,3.906,2.977,6.176
			c1.229,2.828,2.158,5.544,2.902,7.999c4.277-1.748,10.416-4.427,17.486-8.185c10.229-5.47,13.393-8.371,36.386-24.928
			c0,0,13.804-9.896,30.136-24.071c0.932-0.818,6.14-5.396,10.12-12.873c2.567-4.837,2.939-7.701,3.014-9.45
			C539.064,474.372,537.278,470.688,536.236,468.865z"/>
		<g>
			<g>
				<path d="M421.905,524.71c16.444-7.44,31.959-16.742,46.357-27.606c7.144-5.356,14.063-11.013,21.243-16.295
					c6.92-5.098,14.102-10.193,21.876-13.952c7.367-3.533,18.009-5.47,23.962,1.748c5.952,7.219,2.157,17.152-2.604,23.813
					c-5.06,7.105-11.683,12.873-18.491,18.192c-7.255,5.692-14.694,11.198-22.1,16.742c-15.775,11.868-31.959,23.625-50.563,30.657
					c-0.67,0.26-0.372,1.339,0.298,1.079c17.227-6.512,32.442-17.04,47.14-27.979c7.813-5.841,15.626-11.72,23.365-17.673
					c6.957-5.319,13.84-10.938,19.309-17.819c4.874-6.104,9.227-13.842,7.293-21.951c-1.824-7.554-8.93-11.422-16.371-11.125
					c-8.743,0.335-16.815,5.729-23.885,10.381c-7.665,5.06-14.92,10.715-22.175,16.37c-8.596,6.696-17.264,13.245-26.527,19.049
					c-9.227,5.804-18.825,10.938-28.759,15.403C420.677,524.04,421.236,525.008,421.905,524.71L421.905,524.71z"/>
			</g>
		</g>
		<g>
			<g>
				<path d="M420.64,524.896c3.088,1.303,5.097,4.613,6.993,7.255c1.86,2.566,3.572,5.208,5.173,7.888
					c3.348,5.654,6.139,11.607,8.371,17.784c0.26,0.67,1.34,0.371,1.077-0.299c-2.344-6.474-5.281-12.724-8.815-18.64
					c-1.786-2.976-3.722-5.878-5.806-8.668c-1.784-2.382-3.57-5.135-6.397-6.325C420.529,523.668,419.97,524.598,420.64,524.896
					L420.64,524.896z"/>
			</g>
		</g>
		<g>
			<g>
				<path d="M426.63,530.774c-3.387,1.19-6.733,2.381-10.119,3.609c-3.052,1.078-6.362,1.972-9.266,3.423
					c-2.418,1.19-3.758,3.312-5.021,5.617c-1.639,2.938-3.126,5.916-4.577,8.93c-5.507,11.757-9.413,24.222-11.684,36.981
					c-0.073,0.372,0.262,0.854,0.67,0.67c5.023-1.749,8.855-5.396,12.093-9.487c3.942-4.984,7.44-10.343,10.9-15.663
					c3.162-4.837,5.915-10.492,10.38-14.324c2.232-1.896,4.801-2.938,7.664-3.533c2.643-0.56,5.246-1.005,7.479-2.643
					c0.596-0.409,0.037-1.377-0.56-0.968c-2.381,1.712-5.245,2.047-8.034,2.716c-2.383,0.56-4.539,1.488-6.476,2.978
					c-4.129,3.163-6.733,7.888-9.449,12.202c-3.497,5.508-7.145,10.977-11.014,16.26c-3.497,4.763-7.516,9.413-13.244,11.385
					c0.224,0.224,0.445,0.446,0.67,0.67c2.194-12.24,5.841-24.184,11.013-35.493c1.266-2.754,2.604-5.433,4.019-8.111
					c1.451-2.753,2.827-5.841,5.729-7.292c3.051-1.487,6.511-2.418,9.674-3.533c3.125-1.116,6.287-2.232,9.412-3.35
					C427.597,531.63,427.337,530.551,426.63,530.774L426.63,530.774z"/>
			</g>
		</g>
	</g>
	<g id="folder">
		<path fill="#FFFFFF" stroke="#000000" stroke-width="3" stroke-miterlimit="10" d="M399.917,422.173
			c4.764,23.997,9.563,47.995,14.324,71.992c18.862,1.004,37.688,2.009,56.552,3.014c-3.758-25.076-7.479-50.152-11.235-75.19
			C439.689,422.061,419.822,422.098,399.917,422.173z"/>
		<path opacity="0.22" fill="#898989" enable-background="new    " d="M442.554,422.024c1.151,6.771,2.046,14.102,2.528,21.988
			c1.229,19.867-0.559,37.391-3.199,51.641c9.637,0.521,19.271,1.041,28.945,1.525c-3.758-25.076-7.479-50.152-11.236-75.191
			C453.902,422.024,448.208,422.024,442.554,422.024z"/>
	</g>
	<g id="hand_left">
		<path fill="#FFFFFF" d="M498.882,379.499c-1.45,1.414-1.749,3.312-1.936,6.437c-0.408,7.962,0.707,14.063,0.707,14.063
			c1.34,7.181,1.712,14.51,2.643,21.728c1.078,8.26,1.563,12.464-0.559,16.147c-1.748,3.051-4.613,5.208-5.469,5.841
			c-3.088,2.27-5.953,3.162-8.408,3.832c-4.465,1.265-10.678,2.902-18.529,4.428c-2.083-2.754-4.276-4.391-5.729-5.283
			c-2.047-1.266-5.357-3.386-7.367-2.12c-0.93,0.596-1.563,1.972-1.265,2.901c0.408,1.229,2.156,1.042,3.199,2.529
			c0.669,0.968,0.669,2.158,0.596,2.902c-1.451,0.298-3.646,0.67-6.362,0.854c-5.135,0.335-6.548-0.335-10.863,0
			s-9.858,1.563-9.896,2.902c0,0.968,2.9,1.711,3.721,1.935c2.27,0.596,3.459,0.298,6.584,0.483
			c2.493,0.148,5.396,0.559,5.396,0.855c0,0.669-14.475-0.335-15.218,3.125c-0.224,1.004,0.743,2.009,1.413,2.716
			c0.744,0.818,2.382,2.195,9.638,2.902c1.487,0.148,3.533,0.297,5.952,0.297c-2.157,1.079-4.278,2.158-6.438,3.237
			c0,0.261,0,0.633,0.224,1.005c1.229,2.157,7.403,0.744,10.27,0.111c3.721-0.855,9.115-2.493,15.401-6.064
			c5.619-0.224,10.232-0.67,13.433-1.042c13.395-1.6,20.24-4.167,24.442-6.063c4.613-2.083,6.921-3.832,8.633-6.213
			c0.521-0.744,1.822-2.717,3.236-8.743c1.414-6.064,1.674-10.864,1.748-12.354c0.148-2.9,0.261-7.85-0.596-19.384
			c-1.302-17.263-1.935-11.013-2.938-22.435c-0.111-1.34-0.445-5.396-3.089-9.228c-0.78-1.153-1.785-2.566-3.646-3.46
			C504.947,377.043,501.041,377.341,498.882,379.499z"/>
		<path opacity="0.24" fill="#898989" enable-background="new    " d="M505.988,377.787c0.744,2.642,1.749,6.511,2.643,11.235
			c0.559,2.978,2.157,12.277,1.601,36.351c-0.373,15.18-1.154,17.263-2.381,19.271c-3.313,5.357-8.707,7.665-19.459,12.315
			c-8.931,3.832-14.846,6.398-23.439,7.738c-3.943,0.633-10.008,1.228-17.783,4.354c-1.153,0.446-7.182,2.901-6.92,4.055
			c0.224,0.895,4.166,0.707,7.627,0.521c4.019-0.225,6.103-0.335,8.779-1.116c2.158-0.633,5.916-2.084,9.785-5.544
			c6.026,0.037,11.051-0.372,14.771-0.818c5.953-0.707,12.688-1.524,20.575-4.8c5.021-2.083,8.558-3.607,11.311-7.366
			c0.743-1.005,2.157-3.236,3.57-10.343c1.08-5.396,1.525-10.716,1.525-17.338c0-3.349-0.483-9.041-1.413-20.426
			c-0.781-9.265-0.038,1.042-2.604-16.705c-0.261-1.822-0.67-4.688-2.791-7.366C509.671,379.573,507.476,378.383,505.988,377.787z"
			/>
		<g>
			<g>
				<path d="M498.212,381.805c1.414-4.391,6.884-4.763,10.156-2.344c3.685,2.679,4.838,7.329,5.545,11.57
					c1.525,9.227,2.789,18.564,3.422,27.866c0.634,9.449,0.41,19.086-2.083,28.275c-1.228,4.539-3.089,8.146-7.218,10.604
					c-3.721,2.195-7.851,3.759-11.979,4.985c-9.6,2.827-19.646,3.534-29.615,3.646c-0.707,0-0.707,1.115,0,1.115
					c9.934-0.148,20.017-0.855,29.615-3.608c4.575-1.303,9.302-3.051,13.319-5.655c3.757-2.418,5.58-5.915,6.771-10.119
					c2.865-10.157,3.014-20.872,2.158-31.327c-0.409-5.209-1.079-10.38-1.786-15.552c-0.707-5.134-1.041-10.566-2.643-15.515
					c-1.302-3.943-4.093-7.925-8.408-8.78c-3.496-0.707-7.218,1.153-8.334,4.576C496.91,382.177,497.99,382.475,498.212,381.805
					L498.212,381.805z"/>
			</g>
		</g>
		<g>
			<g>
				<path d="M497.468,380.317c-1.822,5.692-1.152,11.905-0.559,17.747c0.633,6.14,1.602,12.203,2.307,18.343
					c0.373,3.051,0.671,6.102,0.818,9.188c0.188,3.163,0.41,6.548-0.111,9.711c-1.041,5.952-6.658,8.706-11.719,10.789
					c-6.549,2.679-13.469,4.428-20.5,5.283c-0.707,0.074-0.707,1.189,0,1.116c6.213-0.744,12.353-2.158,18.23-4.315
					c4.649-1.712,10.045-3.721,13.096-7.888c3.349-4.576,2.381-11.533,1.972-16.816c-0.482-6.733-1.563-13.395-2.381-20.091
					c-0.931-7.292-2.419-15.589-0.112-22.77C498.734,379.945,497.654,379.647,497.468,380.317L497.468,380.317z"/>
			</g>
		</g>
		<g>
			<g>
				<path d="M467.742,451.639c-3.423-3.684-7.664-8.036-13.171-7.59c-1.488,0.111-3.2,0.893-2.679,2.679
					c0.26,0.894,1.004,1.451,1.748,1.936c1.563,1.005,2.68,2.046,3.163,3.905c0.187,0.707,1.265,0.409,1.078-0.298
					c-0.371-1.376-1.042-2.642-2.157-3.57c-0.483-0.409-2.121-1.079-2.308-1.563c0.148-0.633,0.335-1.265,0.484-1.896
					c0.334-0.037,0.632-0.074,0.967-0.111c0.56-0.037,1.153,0.037,1.711,0.111c4.354,0.707,7.517,4.093,10.381,7.181
					C467.444,452.941,468.225,452.16,467.742,451.639L467.742,451.639z"/>
			</g>
		</g>
		<g>
			<g>
				<path d="M456.654,452.384c-4.613,1.637-9.747,0.483-14.547,0.669c-2.195,0.075-4.392,0.298-6.585,0.633
					c-1.712,0.262-4.204,0.298-5.618,1.488c-2.195,1.823,0.559,3.684,2.381,3.906c4.875,0.67,9.935,0.559,14.846,0.817
					c0.707,0.038,0.707-1.078,0-1.114c-3.608-0.188-7.256-0.372-10.863-0.56c-0.969-0.037-1.936-0.074-2.901-0.147
					c-0.484-0.037-4.465-0.372-2.568-2.158c0.521-0.483,1.861-0.559,2.53-0.707c0.819-0.148,1.638-0.298,2.456-0.446
					c3.721-0.559,7.516-0.744,11.273-0.596c3.311,0.148,6.622,0.409,9.82-0.706C457.622,453.24,457.324,452.16,456.654,452.384
					L456.654,452.384z"/>
			</g>
		</g>
		<g>
			<g>
				<path d="M446.907,459.303c-3.721,0.223-7.702,0.074-11.348,0.93c-1.675,0.409-3.313,1.079-4.837,1.897
					c-0.707,0.372-1.748,0.819-1.563,1.786c0.372,2.231,5.655,2.194,7.256,2.231c4.019,0.037,7.961-0.707,11.979-0.408
					c0.706,0.036,0.706-1.079,0-1.116c-2.79-0.188-5.544,0.074-8.334,0.261c-2.567,0.186-6.288,0.669-8.669-0.559
					c-1.601-0.818-0.744-0.931,0.147-1.376c0.707-0.372,1.414-0.707,2.158-0.969c1.377-0.521,2.791-0.854,4.242-1.005
					c2.938-0.297,5.952-0.372,8.891-0.558C447.614,460.383,447.614,459.266,446.907,459.303L446.907,459.303z"/>
			</g>
		</g>
		<g>
			<g>
				<path d="M431.281,466.26c4.836,2.493,10.193,3.535,15.589,2.939c0.706-0.074,0.706-1.19,0-1.116
					c-5.209,0.559-10.38-0.372-15.031-2.79C431.207,464.996,430.648,465.926,431.281,466.26L431.281,466.26z"/>
			</g>
		</g>
		<g>
			<g>
				<path d="M447.018,468.493c-2.79,0.633-5.878,1.563-7.255,4.314c-0.111,0.261-0.074,0.633,0.186,0.782
					c1.973,0.893,3.981,0.781,6.102,0.706c2.755-0.148,5.546-0.297,8.298-0.744c4.688-0.744,9.188-2.455,12.649-5.804
					c0.521-0.483-0.261-1.302-0.781-0.781c-3.125,3.051-7.218,4.613-11.459,5.396c-2.419,0.445-4.837,0.633-7.256,0.743
					c-2.27,0.112-4.799,0.484-6.957-0.482c0.074,0.261,0.148,0.521,0.187,0.781c1.229-2.493,4.057-3.236,6.586-3.796
					C447.986,469.385,447.688,468.307,447.018,468.493L447.018,468.493z"/>
			</g>
		</g>
	</g>
	<g id="head">
		<path fill="#FFFFFF" d="M445.344,330.24c-1.116,2.642-1.266,5.245-1.488,8.407c-0.112,1.602-0.335,6.623,1.339,12.947
			c1.042,3.944,2.158,8.223,5.618,12.501c3.014,3.721,6.474,5.805,8.669,6.883c1.524-0.445,3.162-0.967,4.911-1.674
			c1.712-0.67,3.273-1.414,4.688-2.121c0.075,1.377,0.335,3.833,1.749,6.475c1.19,2.27,2.716,3.758,3.685,4.576
			c1.114-0.483,2.381-1.115,3.721-2.084c3.162-2.27,4.91-5.06,5.84-6.809c-0.52-2.158-1.004-4.613-1.301-7.329
			c-0.521-4.837-0.373-9.115,0-12.612c0.817,0,2.12-0.111,3.459-0.78c3.014-1.525,4.019-4.688,4.465-6.178
			c1.079-3.497,0.484-6.474,0.074-8.371c-0.371-1.674-1.637-7.516-6.659-11.867c-6.288-5.396-14.138-4.726-17.524-4.466
			C459.371,318.371,448.841,321.942,445.344,330.24z"/>
		<path opacity="0.29" fill="#898989" enable-background="new    " d="M477.08,324.287c0.484,2.269,0.932,5.319,1.005,8.892
			c0,1.042,0.074,7.106-1.822,13.989c-3.162,11.385-10.193,19.31-13.507,22.731c2.271-0.855,5.283-2.231,8.446-4.575
			c3.906-2.902,6.399-6.141,7.925-8.371c0.521,5.653,1.041,11.271,1.563,16.928c1.116-1.265,2.231-2.53,3.348-3.795
			c-0.669-3.35-1.264-7.329-1.376-11.868c-0.112-3.423,0.074-6.548,0.372-9.302c0.559,0.148,1.563,0.298,2.716-0.074
			c0.298-0.074,1.414-0.446,2.716-1.935c2.084-2.345,2.53-5.098,2.718-6.25c0.186-1.229,0.334-3.052-0.188-5.843
			c-0.817-4.502-1.896-10.38-6.063-11.941C481.842,321.794,478.642,323.356,477.08,324.287z"/>
		<path fill="#2B59C3" d="M443.93,335.559c-1.079-2.455-2.157-5.915-1.34-9.673c1.229-5.544,5.767-8.446,10.381-12.315
			c4.314-3.57,10.046-9.077,15.886-17.373c-0.559,3.161-1.152,6.286-1.711,9.448c2.381-2.12,5.022-4.314,7.888-6.511
			c1.86-1.413,3.72-2.716,5.507-3.943c-0.521,0.707-1.824,2.68-1.897,5.507c-0.074,3.126,1.34,5.282,1.823,5.989
			c0.521-0.707,1.376-1.748,2.455-3.051c1.525-1.786,1.973-2.158,2.753-3.272c1.601-2.271,1.823-3.759,2.12-3.722
			c0.484,0.074,0.67,3.423-0.223,16.779c1.748-1.972,3.497-3.981,5.209-5.953c0.297,4.354,0.633,8.706,0.93,13.06
			c0.372,2.083,0.67,5.135,0.224,8.706c-0.521,3.98-1.748,7.068-2.752,9.115c-0.781-0.707-1.937-1.524-3.425-1.601
			c-1.784-0.074-2.381,0.931-3.533,0.855c-2.493-0.187-2.864-5.135-5.952-9.041c-3.015-3.832-7.367-5.061-10.12-5.842
			c-2.567-0.706-10.417-2.901-17.188,1.823C445.828,328.119,444.339,333.736,443.93,335.559z"/>
		<g>
			<g>
				<path d="M444.861,329.941c-1.861,3.609-1.638,7.776-1.488,11.721c0.187,4.428,0.781,8.893,2.12,13.134
					c2.232,7.031,6.734,13.468,13.543,16.631c0.632,0.297,1.229-0.67,0.559-0.968c-6.549-3.051-10.9-9.189-13.021-15.961
					c-1.228-3.832-1.785-7.852-2.01-11.831c-0.224-4.02-0.632-8.521,1.266-12.203C446.163,329.867,445.195,329.309,444.861,329.941
					L444.861,329.941z"/>
			</g>
		</g>
		<g>
			<g>
				<path d="M459.63,371.5c10.978-2.865,19.979-11.236,23.662-21.914c0.226-0.67-0.854-0.967-1.078-0.298
					c-3.571,10.344-12.313,18.417-22.881,21.133C458.626,370.606,458.923,371.685,459.63,371.5L459.63,371.5z"/>
			</g>
		</g>
		<g>
			<g>
				<path d="M482.511,349.66c2.604-0.037,5.022-0.372,6.512-2.717c1.377-2.157,3.199-5.432,2.901-8.072
					c-0.224-2.01-2.27-3.052-4.094-3.125c-2.157-0.075-4.129,1.079-5.208,2.9c-0.372,0.634,0.595,1.19,0.968,0.56
					c0.894-1.488,2.492-2.419,4.24-2.345c0.67,0.037,1.488,0.224,2.047,0.633c1.525,1.152,0.855,2.977,0.409,4.354
					c-0.521,1.525-1.302,3.162-2.231,4.539c-1.34,1.972-3.387,2.12-5.545,2.157C481.767,348.544,481.767,349.66,482.511,349.66
					L482.511,349.66z"/>
			</g>
		</g>
		<g>
			<g>
				<path d="M482.4,348.916c-0.446,6.883-0.781,13.841,1.117,20.575c0.186,0.706,1.264,0.408,1.078-0.299
					c-1.86-6.623-1.488-13.469-1.078-20.276C483.554,348.209,482.437,348.209,482.4,348.916L482.4,348.916z"/>
			</g>
		</g>
		<g>
			<g>
				<path d="M468.523,367.333c0.334,2.566,1.041,5.06,2.158,7.402c0.595,1.304,1.6,4.167,3.348,4.167
					c1.898,0,4.019-1.822,5.357-3.014c1.973-1.822,3.684-3.942,5.47-5.989c0.482-0.521-0.298-1.34-0.781-0.78
					c-1.302,1.486-2.604,3.013-3.98,4.501c-1.378,1.45-3.162,3.386-5.173,3.906c-1.264,0.335-1.637-0.371-2.23-1.377
					c-0.483-0.817-0.931-1.674-1.302-2.529c-0.932-2.083-1.488-4.315-1.787-6.585C469.49,366.328,468.412,366.626,468.523,367.333
					L468.523,367.333z"/>
			</g>
		</g>
		<g>
			<g>
				<path d="M455.539,328.304c-0.559,7.441-0.744,14.919-0.483,22.36c0,0.521,0.78,0.817,1.042,0.298
					c1.042-2.195,2.083-4.391,3.126-6.586c0.297-0.632-0.67-1.229-0.969-0.559c-1.042,2.195-2.083,4.391-3.126,6.585
					c0.336,0.112,0.707,0.188,1.043,0.299c-0.262-7.479-0.111-14.919,0.482-22.36C456.729,327.597,455.613,327.597,455.539,328.304
					L455.539,328.304z"/>
			</g>
		</g>
		<g>
			<g>
				<path d="M458.96,357.027c-0.893-0.559-1.413-1.749-0.893-2.754c0.372-0.669,1.116-1.078,1.749-1.486
					c0.669-0.447,1.302-0.856,1.823-1.451c0.633-0.707,0.967-1.601,1.414-2.419c0.854-1.637,2.604-3.758,4.501-1.973
					c2.27,2.158,0.261,7.032-1.601,8.894c-1.896,1.859-4.8,2.27-7.144,1.116c-0.634-0.298-1.229,0.632-0.559,0.967
					c2.977,1.451,6.696,0.893,8.893-1.711c2.157-2.567,4.13-8.111,0.707-10.492c-1.304-0.893-2.791-0.744-4.019,0.224
					c-1.638,1.34-1.897,3.646-3.387,5.061c-1.302,1.228-3.348,1.711-3.646,3.721c-0.224,1.376,0.483,2.566,1.601,3.312
					C458.998,358.366,459.556,357.399,458.96,357.027L458.96,357.027z"/>
			</g>
		</g>
		<ellipse cx="450.776" cy="335.411" rx="0.818" ry="2.642"/>
		<ellipse cx="464.058" cy="333.699" rx="0.817" ry="2.642"/>
	</g>
</g>
</svg>
