<svg xmlns="http://www.w3.org/2000/svg" width="279.562" height="382.957" viewBox="0 0 279.562 382.957">
  <g id="Group_41" data-name="Group 41" transform="translate(-267.439 -135)">
    <path id="Path_262" data-name="Path 262" d="M682.077,474.037c.356,4.549.532,8.865.473,12.77l78.009,12.329,1.958-12.366Z" transform="translate(-242.482 -199.484)" fill="#f3f3f3" fill-rule="evenodd"/>
    <path id="Path_263" data-name="Path 263" d="M380.112,435.351l-62.658-9.918L315.495,437.8l64.59,10.221C379.941,443.9,379.941,439.645,380.112,435.351Z" transform="translate(-26.791 -170.887)" fill="#f3f3f3" fill-rule="evenodd"/>
    <path id="Path_264" data-name="Path 264" d="M681.01,550.131l40.311,6.385" transform="translate(-241.855 -244.257)" fill="none" stroke="#f3f3f3" stroke-linecap="round" stroke-linejoin="round" stroke-width="4.41"/>
    <path id="Path_265" data-name="Path 265" d="M275.766,497.761l66.255,10.487" transform="translate(-3.415 -213.443)" fill="none" stroke="#f3f3f3" stroke-linecap="round" stroke-linejoin="round" stroke-width="4.41"/>
    <path id="Path_266" data-name="Path 266" d="M269.962,543.376l75.471,11.945" transform="translate(0 -240.282)" fill="none" stroke="#f3f3f3" stroke-linecap="round" stroke-linejoin="round" stroke-width="4.41"/>
    <path id="Path_267" data-name="Path 267" d="M642.619,638.065l54.1,8.567" transform="translate(-219.266 -295.996)" fill="none" stroke="#f3f3f3" stroke-linecap="round" stroke-linejoin="round" stroke-width="4.41"/>
    <path id="Path_268" data-name="Path 268" d="M279.561,586.293l73.428,11.621" transform="translate(-5.648 -265.534)" fill="none" stroke="#f3f3f3" stroke-linecap="round" stroke-linejoin="round" stroke-width="4.41"/>
    <path id="Path_269" data-name="Path 269" d="M508.821,555.65c-.21,0-.342,6.528-.412,17.1.317,3.4.539,5.734.539,6.005a.211.211,0,0,1-.091.144,14.18,14.18,0,0,1,1.531,6.557,13.76,13.76,0,0,1-2.058,7.446c-.07,53.1.49,144.217.49,144.217h12.653l35.288-165.609C543.1,568.9,520.688,560.647,508.821,555.65Z" transform="translate(-140.249 -247.504)"/>
    <path id="Path_270" data-name="Path 270" d="M503.5,514.324c-.72,5.569,2.544,36.831,2.544,37.869a.211.211,0,0,1-.091.144,14.179,14.179,0,0,1,1.531,6.557,14.7,14.7,0,0,1-.934,5.232l13.089-.98L515.706,510.5l-11.624.869C503.786,512.657,503.584,513.674,503.5,514.324Z" transform="translate(-137.35 -220.939)" fill="#dfdfdf"/>
    <path id="Path_271" data-name="Path 271" d="M452.532,561.841a14.057,14.057,0,0,1,1.667-6.8c-.124-2.058-3.807-14.378-5.19-36.012q-.111-1.741-.156-3.515l-12.122.91,3.935,52.646,13.238-.988A14.321,14.321,0,0,1,452.532,561.841Z" transform="translate(-98.124 -223.887)" fill="#dfdfdf"/>
    <path id="Path_272" data-name="Path 272" d="M623.764,593.842c.276,5.429,13.11,162.946,13.11,162.946h-13.11L589.74,638.494s8.862-47.336,9.467-47.225C602.1,592.031,618.133,594.863,623.764,593.842Z" transform="translate(-188.153 -268.462)"/>
    <path id="Path_273" data-name="Path 273" d="M686.5,347.6c4.091,3.153,11.015,9.278,14.407,13.7,3.388-2.511,41.915-34.51,42.668-36.267,1.5-.877,4.766,4.017,0,8.031,3.26-.123,22.462-.626,22.462,0s4.141,2.387-24.1,6.9c-3.762,4.528-37.646,44.421-43.166,44.421-3.77,0-15.436-10.171-22.762-17.864" transform="translate(-238.913 -111.752)" fill="none" stroke="#000" stroke-linecap="round" stroke-linejoin="round" stroke-width="2.5"/>
    <path id="Path_274" data-name="Path 274" d="M652.938,361.727c5.6-3.523,11.562-9.677,13.349-14.493,1.058-2.857-16.378-16.053-27.167-17.934" transform="translate(-217.207 -114.323)" fill="none" stroke="#000" stroke-linecap="round" stroke-linejoin="round" stroke-width="2.5"/>
    <path id="Path_275" data-name="Path 275" d="M505.32,407.758c9.508,7.36,64.142,23.05,68.773,18.272s12.921-107.584-27.661-119.969" transform="translate(-138.481 -100.649)" fill="none" stroke="#000" stroke-linecap="round" stroke-linejoin="round" stroke-width="2.5"/>
    <path id="Path_276" data-name="Path 276" d="M542.016,304.53c-8.2,1.564-14.374,6.174-19,12.608" transform="translate(-148.896 -99.749)" fill="none" stroke="#000" stroke-linecap="round" stroke-linejoin="round" stroke-width="2.5"/>
    <path id="Path_277" data-name="Path 277" d="M587.18,302.553c3.7,0,7.409-.7,7.409-2.058V283.66" transform="translate(-186.646 -87.469)" fill="none" stroke="#000" stroke-linecap="round" stroke-linejoin="round" stroke-width="2.5"/>
    <path id="Path_278" data-name="Path 278" d="M569.17,284.25V292.6" transform="translate(-176.05 -87.817)" fill="none" stroke="#000" stroke-linecap="round" stroke-linejoin="round" stroke-width="2.5"/>
    <ellipse id="Ellipse_18" data-name="Ellipse 18" cx="16.88" cy="28.299" rx="16.88" ry="28.299" transform="translate(383.509 142.586)" fill="none" stroke="#000" stroke-miterlimit="10" stroke-width="2.5"/>
    <path id="Path_279" data-name="Path 279" d="M462.911,136.235c-8.5,0-19.807,4.116-27.99,4.116-7.388,0-20.885-5.351-27.99-5.351C402.4,135,381,137.107,381,154.346c0,7.78,8.232,15.23,9.879,17.288s4.664,13.583,12.348,13.583c10.735,0,18.148-7.821,27.99-7.821,6.779,0,8.545,1.646,11.937,1.646a21.9,21.9,0,0,0,6.174-1.235c0-1.26-.251-11.937,1.235-13.67,2.058-2.47,28.257,1.206,28.257-7.5,1.832,1.646,3.577,8.644,3.577,10.072,1.185-1.251,5.623-6.6,5.623-12.365C488.02,149.135,484.315,136.235,462.911,136.235Z" transform="translate(-65.333)"/>
    <path id="Path_280" data-name="Path 280" d="M506.046,557.67a.211.211,0,0,1-.091.144,14.179,14.179,0,0,1,1.531,6.557c0,4.116-1.6,7.693-3.964,9.6l20.256-1.515-3.935-52.646-16.427,1.235C503.152,528.944,506.046,556.695,506.046,557.67Z" transform="translate(-137.351 -226.417)" fill="#80d970"/>
    <path id="Path_281" data-name="Path 281" d="M458.445,567.743a14.057,14.057,0,0,1,1.667-6.8c-.124-2.058-3.737-14.147-5.149-35.4l-8.183.6,3.935,52.646,12.435-.93C460.38,576.156,458.445,572.266,458.445,567.743Z" transform="translate(-104.037 -229.788)" fill="#80d970"/>
    <path id="Path_282" data-name="Path 282" d="M471.637,410.84c-2.173,8.113-6.5,28.6-5.351,46.6,1.383,21.634,5.067,33.946,5.19,36.012a14.057,14.057,0,0,0-1.667,6.8c0,6.1,3.519,11.056,7.862,11.056s7.866-4.939,7.866-11.056a14.179,14.179,0,0,0-1.531-6.557.211.211,0,0,0,.091-.144c0-1.037-3.264-32.3-2.544-37.869.609-4.742,7.545-28.776,9.418-38.235" transform="translate(-115.401 -162.3)" fill="none" stroke="#000" stroke-linecap="round" stroke-linejoin="round" stroke-width="2.5"/>
    <path id="Path_283" data-name="Path 283" d="M498.035,341.3c-.914-3-2.33-5.19-4.388-5.849-11.233-3.6-24.54,22.067-23.277,26.487,1.194,4.178,10.171,8.6,17.926,10.08" transform="translate(-117.868 -117.738)" fill="none" stroke="#000" stroke-linecap="round" stroke-linejoin="round" stroke-width="2.5"/>
    <path id="Path_284" data-name="Path 284" d="M520.047,515.233a2.539,2.539,0,0,1-2.338,2.717h0A2.54,2.54,0,0,1,515,515.612l-.626-8.364a2.544,2.544,0,0,1,2.338-2.717h0a2.544,2.544,0,0,1,2.713,2.338l.333,4.433" transform="translate(-143.803 -217.423)" fill="none" stroke="#000" stroke-linecap="round" stroke-linejoin="round" stroke-width="2.5"/>
    <path id="Path_285" data-name="Path 285" d="M506.509,995.365v15.65L484.8,1022.453l12.628-13.933V994.55" transform="translate(-126.408 -505.747)" fill="none" stroke="#000" stroke-linecap="round" stroke-linejoin="round" stroke-width="2.5"/>
    <path id="Path_286" data-name="Path 286" d="M675.43,992.19v16.942h29.883l-19.922-9.743V991.35" transform="translate(-238.571 -503.864)" fill="none" stroke="#000" stroke-linecap="round" stroke-linejoin="round" stroke-width="2.5"/>
    <g id="Group_40" data-name="Group 40" transform="translate(489.141 151.919)">
      <path id="Path_287" data-name="Path 287" d="M860.115,201.557a29.124,29.124,0,0,0-24.9-25.2,29.01,29.01,0,0,0-32.686,30.982c1.1,14.426,14.609,26.6,29.46,26.6a11.273,11.273,0,0,0,9.8-5.661,10.856,10.856,0,0,0,.061-10.956c-.243-.426-.548-.852-.791-1.278a24.24,24.24,0,0,0-9.617-8.644,1.232,1.232,0,1,1,.852-2.313,24.508,24.508,0,0,1,10.774,9.556.569.569,0,0,0,.974,0c3.165-5.722-1.218-12.965-8.522-16.739-5.417-2.861-7.913-5.782-9.009-7.852a1.633,1.633,0,0,0-2.861,0c-9.617,16.921,5.174,33.174,14.426,29.7a6.393,6.393,0,0,1-.183,6.27,6.774,6.774,0,0,1-5.9,3.409c-12.6,0-24.043-10.287-25.017-22.521a24.471,24.471,0,1,1,41.452,15.643,2.408,2.408,0,0,0-.426,2.983,2.275,2.275,0,0,0,3.409.365A29.008,29.008,0,0,0,860.115,201.557Z" transform="translate(-802.448 -176.105)" fill="#80d970"/>
    </g>
  </g>
</svg>
