<svg xmlns="http://www.w3.org/2000/svg" width="297.5" height="340.015" viewBox="0 0 297.5 340.015">
  <g id="Group_60" data-name="Group 60" transform="translate(-267.183 -330.807)">
    <path id="Path_245" data-name="Path 245" d="M564.651,456.55c-1.031-35.024-23.863-70.584-54.776-83.55-30.968-12.9-69.937-3.229-108.648-2.906-4.9.042-9.788-.069-14.649-.262l-3.279,2.406-5.161,3.464-.77-5.819.177-.5-.608-.035c2.271,6.774-.554,16.812-.554,20.653a3.262,3.262,0,0,1-.735,2.005l.589-.385.289-1.948.731-5.315.462-2.756,3.587,2.506,6.435,9.172,1.1,2.271c9.237,6.031,17.32,20.968,17.32,23.409a4.856,4.856,0,0,1-1.486,2.448,109.977,109.977,0,0,1,6.374,9.68c1.466-1.251,48.557-40.728,49.33-41.263a2.8,2.8,0,0,1,2.636-.139,2.073,2.073,0,0,1,.72,2.66c-.416.77-6.27,5.919-6.27,5.919.477.593,2.921,6.789-.208,9.7-2.128,1.982-4.542,2.64-6.862,1.416-1.54,1.663-38.342,42.337-44.762,42.337-1.189,0-3.545-1.682-6.227-4.2l1.674,2.04c.6,7.532.462,12.928-.385,14.071-4.846,6.458-39.516,11.658-53.884,1.362-1.112-.793-2.032-4.669-2.525-10.342-7.2-3.726-11.408-7.147-11.931-13.278-.331-4.026,4.053-14.241,4.749-15.261h0a6.579,6.579,0,0,1-1.9-1.667c-1.6-2.713,6.651-17.528,16.384-25.048l-.273,1.2a57.812,57.812,0,0,1,3.768-7.671c-3.31-2.078-5.388-4.884-5.388-9.025,0-3.31,1.813-9.318,2.975-15.984-20.541-.989-39.092-.493-53.114,7.544-24.59,14.056-35.3,51.217-31.687,83.089,3.549,31.945,21.353,58.714,37.676,85.748,16.326,27.1,31.038,54.515,55.488,69.668,24.517,15.226,58.71,18.259,87.484,7.355,28.712-10.9,52.067-35.744,74.132-65.43C544.782,526.164,565.62,491.648,564.651,456.55Z" transform="translate(0 0)" fill="#f2f2f2"/>
    <path id="Path_246" data-name="Path 246" d="M344.317,429.928l.269.146c.007-.152.021-.3.042-.454l-.085.408Z" transform="translate(0 0)" fill="#f2f2f2"/>
    <path id="Path_247" data-name="Path 247" d="M359.081,394.784l6.543.635,5.188-.835,1.155-.793a19.364,19.364,0,0,1-6.886,1.37,18.967,18.967,0,0,1-10.134-2.509l.431.523Z" transform="translate(0 0)" fill="#f2f2f2"/>
    <path id="Path_248" data-name="Path 248" d="M346.822,464.221c.25,5.046,0,196.178,0,196.178h13.336l20.4-125.606" transform="translate(0 0)"/>
    <path id="Path_249" data-name="Path 249" d="M337.135,425.876c-.7,1.012-5.08,11.239-4.749,15.264.508,6.158,4.734,9.564,11.962,13.3" transform="translate(0 0)" fill="none" stroke="#000" stroke-linecap="round" stroke-linejoin="round" stroke-width="2.5"/>
    <path id="Path_250" data-name="Path 250" d="M351.631,399.169c-9.734,7.521-17.989,22.323-16.388,25.048.77,1.274,4.784,3.545,9.36,5.608" transform="translate(0 0)" fill="none" stroke="#000" stroke-linecap="round" stroke-miterlimit="10" stroke-width="2.5"/>
    <path id="Path_251" data-name="Path 251" d="M388.663,340.355c3.241,4.83,4.438,11.708,2.721,18.732-1.986,8.121-7.344,14.279-13.517,16.469" transform="translate(0 0)" fill="none" stroke="#000" stroke-linecap="round" stroke-miterlimit="10" stroke-width="2.5"/>
    <path id="Path_252" data-name="Path 252" d="M401.122,448.787c.6,7.532.462,12.928-.385,14.071-4.842,6.458-39.512,11.658-53.884,1.362-4.164-2.979-5.665-49.084,8.136-71.588" transform="translate(0 0)" fill="none" stroke="#000" stroke-linecap="round" stroke-miterlimit="10" stroke-width="2.5"/>
    <path id="Path_253" data-name="Path 253" d="M377.421,381.26c4.411,1.863,8.206,7.024,11.4,13.9" transform="translate(0 0)" fill="none" stroke="#000" stroke-linecap="round" stroke-miterlimit="10" stroke-width="2.5"/>
    <path id="Path_254" data-name="Path 254" d="M346.822,660.4v9.172h31.326v-5.18L360.159,660.4" transform="translate(0 0.001)" fill="none" stroke="#000" stroke-linecap="round" stroke-miterlimit="10" stroke-width="2.5"/>
    <path id="Path_255" data-name="Path 255" d="M378.148,658.764v10.807h32.807v-4.2L391,658.771" transform="translate(0 0.001)" fill="none" stroke="#000" stroke-linecap="round" stroke-miterlimit="10" stroke-width="2.5"/>
    <path id="Path_256" data-name="Path 256" d="M404.478,420.911a108.2,108.2,0,0,1,6.6,9.965c1.466-1.251,48.557-40.732,49.33-41.267a2.8,2.8,0,0,1,2.636-.135,2.071,2.071,0,0,1,.72,2.656c-.416.77-6.27,5.919-6.27,5.919.477.6,2.917,6.793-.208,9.7-2.132,1.982-4.542,2.64-6.866,1.413-1.54,1.667-38.338,42.337-44.758,42.337-2.971,0-13.167-10.457-17.758-18.336" transform="translate(0 0)" fill="none" stroke="#000" stroke-linecap="round" stroke-linejoin="round" stroke-width="2.5"/>
    <path id="Path_257" data-name="Path 257" d="M371.94,403.584c0,12.7,10.007,30.406,13.471,30.406s20.784-12.7,20.784-15.78-13.471-25.787-25.017-25.787C376.56,392.422,371.94,397.425,371.94,403.584Z" transform="translate(0 0)" fill="none" stroke="#000" stroke-linecap="round" stroke-miterlimit="10" stroke-width="2.5"/>
    <path id="Path_258" data-name="Path 258" d="M370.791,352.783c6.635.05,18.682-12.967,18.682-13.471,0-1.155-2.048-7.255-13.929-7.255-8.487,0-21.842,5.943-21.842,25.46,0,10.049-3.93,20.784-3.93,25.633,0,7.37,5.943,12.016,15.322,12.016,4.53,0,11.342-2.232,11.342-5.9,0-5.358,5.5-22.766-5-26.557" transform="translate(0)" fill="none" stroke="#000" stroke-linecap="round" stroke-miterlimit="10" stroke-width="2.5"/>
    <path id="Path_259" data-name="Path 259" d="M372.641,362.176a3.873,3.873,0,0,1-2.109.631c-2.4,0-4.341-2.248-4.341-5.023s1.944-5,4.341-5a3.832,3.832,0,0,1,1.312.231" transform="translate(0 0)" fill="none" stroke="#000" stroke-linecap="round" stroke-miterlimit="10" stroke-width="2.5"/>
    <path id="Path_260" data-name="Path 260" d="M346.822,464.221a33.438,33.438,0,0,1,3.4,1.986l4.715,2.263.654,2.471,26.711,61.55L380.57,534.8" transform="translate(0 0)"/>
    <path id="Path_261" data-name="Path 261" d="M400.737,462.859c-4.365,5.819-32.954,10.615-49.088,3.972l37.44,87.953-10.938,103.98H391s25.017-90.193,25.017-94.165S400.737,462.859,400.737,462.859Z" transform="translate(0 0)"/>
    <g id="Group_59" data-name="Group 59" transform="translate(476.514 335.751)">
      <path id="Path_315" data-name="Path 315" d="M544.632,347.6A32.716,32.716,0,0,1,519.4,335.751a32.8,32.8,0,0,1-42.886,6.691v49.631c0,25.843,35.762,48.355,42.886,52.583,7.119-4.228,42.886-26.766,42.886-52.583V342.447A32.793,32.793,0,0,1,544.632,347.6Zm-8.3,31.125-20.2,20.182a2.539,2.539,0,0,1-1.781.736h0a2.549,2.549,0,0,1-1.786-.736l-10.076-10.091a2.526,2.526,0,0,1,3.572-3.572l8.295,8.3,18.41-18.4a2.522,2.522,0,1,1,3.562,3.572Z" transform="translate(-476.514 -335.751)" fill="#80d970"/>
    </g>
  </g>
</svg>
