<svg xmlns="http://www.w3.org/2000/svg" width="398.395" height="334.827" viewBox="0 0 398.395 334.827">
  <g id="Group_58" data-name="Group 58" transform="translate(-127.98 -214.94)">
    <path id="Path_297" data-name="Path 297" d="M546.37,411.028v65.9H767.564V214.94H546.387V374.428c13.494-16.332,19.757-28.822,30.252-28.531,6.643,0,12.549.928,12.549,6.154s-6.158,9.28-15.978,9.28C571.944,366.312,559.29,396.341,546.37,411.028Z" transform="translate(-241.189 0)" fill="#f3f3f3"/>
    <path id="Path_298" data-name="Path 298" d="M972.332,539.217H900.52V485.99h71.812" transform="translate(-445.958 -156.72)" fill="none" stroke="#80d970" stroke-miterlimit="10" stroke-width="6" stroke-dasharray="18"/>
    <path id="Path_299" data-name="Path 299" d="M372.947,877.493c3.463,6.293,27.084,23.975,27.084,23.975h59.55c0-9.28-54.586-78.249-61.048-78.249C398.534,823.22,369.484,871.2,372.947,877.493Z" transform="translate(-140.751 -351.706)"/>
    <path id="Path_300" data-name="Path 300" d="M402.19,544.82c8.407,3.509,14.084,10.646,17.766,19.749" transform="translate(-157.825 -190.736)" fill="none" stroke="#000" stroke-miterlimit="10" stroke-width="2.5"/>
    <path id="Path_301" data-name="Path 301" d="M355.927,603.134c-.245,28.43-7.386,56.534-10.212,58.745-5.8,4.543-59.626-7.614-63.612-13.595-3.628-5.441,4.433-89.675,30.441-104.114" transform="translate(-87.915 -190.36)" fill="none" stroke="#000" stroke-miterlimit="10" stroke-width="2.5"/>
    <path id="Path_302" data-name="Path 302" d="M393.863,586.28c9.79,2.472,18.838,6.9,19.681,10.064,1.708,6.323-16.235,28.366-21.36,28.539-4.02.135-18.72-18.652-22.415-29.813" transform="translate(-139.08 -214.708)" fill="none" stroke="#000" stroke-linecap="round" stroke-linejoin="round" stroke-width="2.5"/>
    <path id="Path_303" data-name="Path 303" d="M373.662,499.172v13.789c0,3.573-20.622,2.345-20.622.468,2.552-5.724,3.142-23.389,3.244-27.949" transform="translate(-129.406 -156.425)" fill="none" stroke="#000" stroke-miterlimit="10" stroke-width="2.5"/>
    <path id="Path_304" data-name="Path 304" d="M410.028,422.15a34.88,34.88,0,0,1,3.168,14.885c0,14.1-7.555,25.519-16.872,25.519a11.338,11.338,0,0,1-3.244-.472" transform="translate(-152.557 -119.808)" fill="none" stroke="#000" stroke-linecap="round" stroke-linejoin="round" stroke-width="2.5"/>
    <path id="Path_305" data-name="Path 305" d="M343.656,424.6c-6.4-1.624-12.456-9.735-12.456-19.529,0-7.592,9.7-24.886,26.574-24.886,10.545,0,22.777,7.171,22.777,19.4,0,6.749-1.991,8.837-3.256,10.1-.481-4.834-2.3-10.629-3.071-11.789a17.169,17.169,0,0,1-4.615,4.64" transform="translate(-116.778 -95.541)" fill="none" stroke="#000" stroke-linecap="round" stroke-linejoin="round" stroke-width="2.5"/>
    <path id="Path_306" data-name="Path 306" d="M375.03,449.22a38.857,38.857,0,0,0-6.61,2.906" transform="translate(-138.299 -135.46)" fill="none" stroke="#000" stroke-linecap="round" stroke-linejoin="round" stroke-width="2.5"/>
    <path id="Path_307" data-name="Path 307" d="M363.289,465.557a4.539,4.539,0,1,1,3.653-7.213" transform="translate(-132.7 -139.657)" fill="none" stroke="#000" stroke-linecap="round" stroke-linejoin="round" stroke-width="2.5"/>
    <path id="Path_308" data-name="Path 308" d="M220.183,362.714c-1.966-1.27-6.019-1.772-7.542-1.772-17.572,0-28.872,27.443-48.41,27.443-12.118,0-15.13-7.314-18.526-9.031-8.714-4.421-16.476-9.976-16.476-20,0-14.388,16.944-22.613,24.089-22.613,3.64,0,14.89,1.362,20.571,1.362s27.274-7.272,30-7.272c13.54,0,19.854,16.024,21.28,26.687" transform="translate(0 -67.007)" fill="none" stroke="#000" stroke-miterlimit="10" stroke-width="2.5"/>
    <rect id="Rectangle_61" data-name="Rectangle 61" width="221.194" height="21.833" transform="translate(305.181 214.94)" fill="#dfdfdf"/>
    <path id="Path_309" data-name="Path 309" d="M430.78,420.735c.5-.574,2.147-3.113,2.337-3.425" transform="translate(-174.355 -117.01)" fill="none" stroke="#000" stroke-linecap="round" stroke-linejoin="round" stroke-width="2.5"/>
    <path id="Path_310" data-name="Path 310" d="M247.74,882.843H296.8s27.092-53.944,29.526-78.249c-5.8,4.543-59.626-7.614-63.612-13.595C261.938,796.062,247.74,882.843,247.74,882.843Z" transform="translate(-68.522 -333.076)"/>
    <path id="Path_311" data-name="Path 311" d="M432.05,587.684c9.478,4.551,27.784,10.937,35.689,10.937,15.733,0,37.718-51.123,39.354-57.745,9.82,0,15.978-4.058,15.978-9.28s-5.922-6.154-12.549-6.154c-14.025-.392-20.5,22.052-46.757,45.977a92.414,92.414,0,0,0-14.582-6.7" transform="translate(-175.09 -179.529)" fill="none" stroke="#000" stroke-linecap="round" stroke-linejoin="round" stroke-width="2.5"/>
    <g id="Group_57" data-name="Group 57" transform="translate(356.403 319.889)">
      <path id="Path_312" data-name="Path 312" d="M667.807,522.12l9.18,15.9h18.361l9.18-15.9-9.18-15.9H676.987Z" transform="translate(-667.807 -488.306)" fill="#80d970"/>
      <path id="Path_313" data-name="Path 313" d="M752.081,548.075l-9.18,15.9,9.18,15.9h18.361l9.18-15.9-9.18-15.9Z" transform="translate(-711.226 -512.506)" fill="#80d970"/>
      <path id="Path_314" data-name="Path 314" d="M770.442,495.55l9.18-15.9-9.18-15.9H752.081l-9.18,15.9,9.18,15.9Z" transform="translate(-711.226 -463.75)" fill="#80d970"/>
    </g>
  </g>
</svg>
