<svg xmlns="http://www.w3.org/2000/svg" width="222" height="398.845" viewBox="0 0 222 398.845">
  <g id="Group_61" data-name="Group 61" transform="translate(-359.431 -216.277)">
    <path id="Path_182" data-name="Path 182" d="M400.777,450.951a15.7,15.7,0,0,1,1.309,6.979c-.485,4.593-1.881,7.442-4.6,8.784-2.3-2.173-9.115-8.93-9.539-10.132-.1-.3-.185-4.044-.251-9.517l-20.111-5.979-8.154,27.492,47.9,14.226,8.154-27.5Z" transform="translate(0 23.341)" fill="#80d970"/>
    <path id="Path_184" data-name="Path 184" d="M478.71,364.586a313.718,313.718,0,0,1,1.631,46.527c-11.959,9.529-22.057,9.337-37.481,9.337s-31.755-3.366-37.419-8.2c-.669-53.042,7.381-99.151,36.417-99.151a28.357,28.357,0,0,1,22.829,10.529" transform="translate(4.773 10.051)" fill="none" stroke="#000" stroke-linecap="round" stroke-linejoin="round" stroke-width="1.75"/>
    <path id="Path_185" data-name="Path 185" d="M451.267,323.645c12.854-4.446,37.325,8.413,42.623,11.859,1.511,7.322-8.349,27.292-14.768,29.95a35.638,35.638,0,0,1-5.115-2.083" transform="translate(9.535 11.052)" fill="none" stroke="#000" stroke-linecap="round" stroke-linejoin="round" stroke-width="1.75"/>
    <path id="Path_186" data-name="Path 186" d="M473.676,360.755a90.018,90.018,0,0,1-19.243-12.888" transform="translate(9.864 13.662)" fill="none" stroke="#000" stroke-linecap="round" stroke-linejoin="round" stroke-width="1.75"/>
    <path id="Path_187" data-name="Path 187" d="M408.9,365.5c-8.229-2.935-17.465-8.6-19.242-12.817a35.956,35.956,0,0,1,2.059-5.132" transform="translate(3.138 13.63)" fill="none" stroke="#000" stroke-linecap="round" stroke-linejoin="round" stroke-width="1.75"/>
    <path id="Path_188" data-name="Path 188" d="M391.524,350.393c5.91-12.366,21.459-34.042,33.31-29.6" transform="translate(3.332 10.79)" fill="none" stroke="#000" stroke-linecap="round" stroke-linejoin="round" stroke-width="1.75"/>
    <path id="Path_189" data-name="Path 189" d="M407.546,402.112c-.647.892-4.648,6.578-4.925,7.066s-6.431,42.4-6.164,45.361,3.495,7.69,3.011,12.284-1.875,7.413-4.594,8.74c-2.3-2.175-9.116-8.931-9.539-10.132s-.456-57-.49-59.118,8.235-49.225,8.66-50.421" transform="translate(2.639 14.496)" fill="none" stroke="#000" stroke-linecap="round" stroke-linejoin="round" stroke-width="1.75"/>
    <path id="Path_190" data-name="Path 190" d="M430.233,323.823c.054-2.348-.119-14.377-.06-15.866-2.234-.06-16.133-11.231-16.154-26.863-.044-32.254,35.782-30.715,47.251-48.827" transform="translate(5.668 1.66)" fill="none" stroke="#000" stroke-linecap="round" stroke-linejoin="round" stroke-width="1.75"/>
    <path id="Path_191" data-name="Path 191" d="M459.463,238.279a124.908,124.908,0,0,1-10.186,16.48" transform="translate(9.328 2.284)" fill="none" stroke="#000" stroke-linecap="round" stroke-linejoin="round" stroke-width="1.75"/>
    <path id="Path_192" data-name="Path 192" d="M462.116,242.666a115.279,115.279,0,0,1-8.615,18.48" transform="translate(9.767 2.74)" fill="none" stroke="#000" stroke-linecap="round" stroke-linejoin="round" stroke-width="1.75"/>
    <path id="Path_193" data-name="Path 193" d="M444.915,305.614c9.441-5.18,12.718-14.258,12.893-22.253,1.974-1.849,3.528-2.485,3.377-3.924-.169-1.576-7.279-4.528-8.29-11.567" transform="translate(8.875 5.357)" fill="none" stroke="#000" stroke-linecap="round" stroke-linejoin="round" stroke-width="1.75"/>
    <path id="Path_194" data-name="Path 194" d="M490.641,345.233a21,21,0,0,0,1.994.9c.642-1.337,24.808-47.865,25.347-49.328-.385-1.788-1.353-5.751-.87-7.55s12.7-14.9,14.98-12.926-3.431,8.859-5.435,10.794c2.136.082,5.979-1.326,7.924,3.9.087.245.176.479.262.706,1.739,4.7,2.126,6.523,1.186,7.567s-5.931,4.647-6.665,6.462-22.283,59.584-27.3,66.462c-3.154,3.175-14.79-1.353-21.515-5.132" transform="translate(12.575 6.214)" fill="none" stroke="#000" stroke-linecap="round" stroke-linejoin="round" stroke-width="1.75"/>
    <path id="Path_195" data-name="Path 195" d="M412.27,568.64v8.7l-26.851.326,16.121-6.447.065-2.5" transform="translate(2.698 36.584)" fill="none" stroke="#000" stroke-linecap="round" stroke-linejoin="round" stroke-width="1.75"/>
    <path id="Path_196" data-name="Path 196" d="M460.185,568.206h12.361v9.2H460.185Z" transform="translate(10.461 36.539)" fill="none" stroke="#000" stroke-linecap="round" stroke-linejoin="round" stroke-width="1.75"/>
    <g id="Pants" transform="translate(401.488 421.294)">
      <path id="Path_198" data-name="Path 198" d="M397.532,586.608c.093-1.974,8.344-182.634,8.475-183.446,33.581,14.541,65.676,8,75.494-1.152.2,4.6-.093,184.472-.093,184.472l-15.425.249L439.806,478.815,412.882,586.549S399.332,586.6,397.532,586.608Z" transform="translate(-397.532 -402.01)"/>
    </g>
    <path id="Path_316" data-name="Path 316" d="M507.081,244.311a32.337,32.337,0,0,1,16.107-28,28.033,28.033,0,1,0,0,56A32.334,32.334,0,0,1,507.081,244.311Z" transform="translate(13.952)" fill="#80d970"/>
    <path id="Path_317" data-name="Path 317" d="M537.791,216.279a28.032,28.032,0,1,0,28.033,28.032A28.064,28.064,0,0,0,537.791,216.279Zm2.167,42.611v3.19a2.167,2.167,0,0,1-4.334,0v-3.19a10.9,10.9,0,0,1-7.209-1.809,2.167,2.167,0,0,1,2.47-3.561,5.545,5.545,0,0,0,3.09,1.036h7.273a4.039,4.039,0,0,0,0-8.079h-6.911a8.382,8.382,0,0,1-8.372-8.372c0-4.147,2.811-8.374,9.661-8.374V226.54a2.167,2.167,0,0,1,4.334,0v3.191a10.775,10.775,0,0,1,4.575.7h0a10.057,10.057,0,0,1,3.632,2.495h0a2.167,2.167,0,0,1-3.192,2.93A5.55,5.55,0,0,0,541,234.065h-6.669a4.039,4.039,0,0,0,0,8.079h6.911a8.381,8.381,0,0,1,8.371,8.372c0,4.437-3.1,8.374-9.661,8.374Z" transform="translate(15.608 0)" fill="#80d970"/>
  </g>
</svg>
