<svg xmlns="http://www.w3.org/2000/svg" width="260.231" height="263.004" viewBox="0 0 260.231 263.004">
  <g id="Group_35" data-name="Group 35" transform="translate(-424.21 -317.86)">
    <path id="Path_156" data-name="Path 156" d="M479.04,528.44V704.662h91.5V600.309c-10.591,1.462-23.129,3.039-26.437,3.454a10.165,10.165,0,0,1-6.14,1.919c-4.72,0-8.558-2.84-8.558-6.343s3.83-6.347,8.554-6.347a10.743,10.743,0,0,1,4.774,1.075c9.74-1.566,20.239-4.743,27.8-7.2V528.44Z" transform="translate(-33.789 -128.537)" fill="#f3f3f3"/>
    <path id="Path_157" data-name="Path 157" d="M647.45,721.111h19.283V718.39c-8.35,1.105-16.317,2.107-18.854,2.425C647.742,720.927,647.6,721.015,647.45,721.111Z" transform="translate(-137.572 -245.594)" fill="#dfdfdf"/>
    <path id="Path_158" data-name="Path 158" d="M498.78,687.13v14.717h45.628a5.767,5.767,0,0,1-2.836-4.716c0-3.5,3.83-6.347,8.554-6.347a10.743,10.743,0,0,1,4.774,1.074,163.089,163.089,0,0,0,19.855-4.728Z" transform="translate(-45.954 -226.33)" fill="#dfdfdf"/>
    <rect id="Rectangle_52" data-name="Rectangle 52" width="21.283" height="176.222" transform="translate(424.21 399.906)" fill="#dfdfdf"/>
    <rect id="Rectangle_53" data-name="Rectangle 53" width="76.339" height="14.717" transform="translate(452.826 411.05)" fill="#dfdfdf"/>
    <circle id="Ellipse_10" data-name="Ellipse 10" cx="2.583" cy="2.583" r="2.583" transform="translate(521.095 413.982)" fill="#f3f3f3"/>
    <line id="Line_21" data-name="Line 21" x1="39.741" transform="translate(479.186 416.565)" fill="none" stroke="#f3f3f3" stroke-linecap="round" stroke-linejoin="round" stroke-width="4"/>
    <rect id="Rectangle_54" data-name="Rectangle 54" width="76.339" height="14.717" transform="translate(452.826 435.925)" fill="#dfdfdf"/>
    <circle id="Ellipse_11" data-name="Ellipse 11" cx="2.583" cy="2.583" r="2.583" transform="translate(521.095 438.857)" fill="#f3f3f3"/>
    <line id="Line_22" data-name="Line 22" x1="39.741" transform="translate(479.186 441.44)" fill="none" stroke="#f3f3f3" stroke-linecap="round" stroke-linejoin="round" stroke-width="4"/>
    <line id="Line_23" data-name="Line 23" x1="18.957" transform="translate(479.186 466.31)" fill="none" stroke="#f3f3f3" stroke-linecap="round" stroke-linejoin="round" stroke-width="4"/>
    <rect id="Rectangle_55" data-name="Rectangle 55" width="76.339" height="14.717" transform="translate(452.826 485.674)" fill="#dfdfdf"/>
    <circle id="Ellipse_12" data-name="Ellipse 12" cx="2.583" cy="2.583" r="2.583" transform="translate(521.095 488.602)" fill="#f3f3f3"/>
    <line id="Line_24" data-name="Line 24" x1="39.741" transform="translate(479.186 491.185)" fill="none" stroke="#f3f3f3" stroke-linecap="round" stroke-linejoin="round" stroke-width="4"/>
    <rect id="Rectangle_56" data-name="Rectangle 56" width="76.339" height="14.717" transform="translate(452.826 510.549)" fill="#dfdfdf"/>
    <circle id="Ellipse_13" data-name="Ellipse 13" cx="2.583" cy="2.583" r="2.583" transform="translate(521.095 513.477)" fill="#f3f3f3"/>
    <line id="Line_25" data-name="Line 25" x1="39.741" transform="translate(479.186 516.06)" fill="none" stroke="#f3f3f3" stroke-linecap="round" stroke-linejoin="round" stroke-width="4"/>
    <line id="Line_26" data-name="Line 26" x1="11.451" transform="translate(429.13 421.638)" fill="none" stroke="#f3f3f3" stroke-linecap="round" stroke-linejoin="round" stroke-width="2"/>
    <line id="Line_27" data-name="Line 27" x1="11.451" transform="translate(429.13 424.604)" fill="none" stroke="#f3f3f3" stroke-linecap="round" stroke-linejoin="round" stroke-width="2"/>
    <line id="Line_28" data-name="Line 28" x1="11.451" transform="translate(429.13 441.804)" fill="none" stroke="#f3f3f3" stroke-linecap="round" stroke-linejoin="round" stroke-width="2"/>
    <line id="Line_29" data-name="Line 29" x1="11.451" transform="translate(429.13 444.767)" fill="none" stroke="#f3f3f3" stroke-linecap="round" stroke-linejoin="round" stroke-width="2"/>
    <line id="Line_30" data-name="Line 30" x1="11.451" transform="translate(429.13 466.31)" fill="none" stroke="#f3f3f3" stroke-linecap="round" stroke-linejoin="round" stroke-width="2"/>
    <line id="Line_31" data-name="Line 31" x1="11.451" transform="translate(429.13 469.277)" fill="none" stroke="#f3f3f3" stroke-linecap="round" stroke-linejoin="round" stroke-width="2"/>
    <line id="Line_32" data-name="Line 32" x1="11.451" transform="translate(429.13 490.022)" fill="none" stroke="#f3f3f3" stroke-linecap="round" stroke-linejoin="round" stroke-width="2"/>
    <line id="Line_33" data-name="Line 33" x1="11.451" transform="translate(429.13 492.985)" fill="none" stroke="#f3f3f3" stroke-linecap="round" stroke-linejoin="round" stroke-width="2"/>
    <path id="Path_159" data-name="Path 159" d="M674.533,641.13c-4.052,3.235-10.288,8.358-13.408,12.015-4.141,1.12-21.82,7.832-37.527,10.361a10.743,10.743,0,0,0-4.774-1.075c-4.716,0-8.554,2.844-8.554,6.347s3.834,6.343,8.558,6.343a10.166,10.166,0,0,0,6.14-1.919c5.614-.7,37.765-4.751,41.967-5.9,4.029-1.105,18.266-9.582,24.406-14.441" transform="translate(-114.66 -197.983)" fill="none" stroke="#000" stroke-linecap="round" stroke-linejoin="round" stroke-width="2.5"/>
    <path id="Path_160" data-name="Path 160" d="M946.32,648.439c4.375,4.244,9.836,8.746,11.785,8.746,4.555,0,18.9-17.986,29.741-34.184" transform="translate(-321.75 -186.81)" fill="none" stroke="#000" stroke-linecap="round" stroke-linejoin="round" stroke-width="2.5"/>
    <path id="Path_161" data-name="Path 161" d="M1009.362,566.976c4.555-4.8,8.212-5.065,8.212-10.1a1.754,1.754,0,0,0-1.723-1.616c-.971,0-42.424,38.114-44.9,40.267a54.259,54.259,0,0,0-4.133-5.553" transform="translate(-334.384 -145.065)" fill="none" stroke="#000" stroke-linecap="round" stroke-linejoin="round" stroke-width="2.5"/>
    <path id="Path_162" data-name="Path 162" d="M922.992,614.181c5.806-3.024,11.831-8.216,12.034-10.519.307-3.5-14.46-24.123-24.076-19.272" transform="translate(-299.954 -162.564)" fill="none" stroke="#000" stroke-linecap="round" stroke-linejoin="round" stroke-width="2.5"/>
    <path id="Path_163" data-name="Path 163" d="M838.57,568.99c28.367,5.115,26.747,79.4,24.56,82.084-2.26,2.771-42.984,7.46-49.258,2.387-2.491-2-4.2-22.488-1.919-42.826" transform="translate(-238.288 -153.526)" fill="none" stroke="#000" stroke-linecap="round" stroke-linejoin="round" stroke-width="2.5"/>
    <path id="Path_164" data-name="Path 164" d="M840.13,577.386c2.429-3.469,5.315-5.994,8.769-7.176" transform="translate(-256.311 -154.278)" fill="none" stroke="#000" stroke-linecap="round" stroke-linejoin="round" stroke-width="2.5"/>
    <path id="Path_165" data-name="Path 165" d="M802.039,613.1c-1.65,3.646-3.515,6.244-4.72,6.478-5.891,1.147-19.966-9.195-20.266-12.744s14.966-24.806,24.56-19.007a7.76,7.76,0,0,1,2.963,3.289" transform="translate(-217.437 -164.523)" fill="none" stroke="#000" stroke-linecap="round" stroke-linejoin="round" stroke-width="2.5"/>
    <path id="Path_166" data-name="Path 166" d="M1054.53,600.069a8.535,8.535,0,0,0,8.88-14.279" transform="translate(-388.435 -163.879)" fill="none" stroke="#000" stroke-linecap="round" stroke-linejoin="round" stroke-width="2.5"/>
    <path id="Path_167" data-name="Path 167" d="M727.02,492.5c0,3.722,4.363,14.732,15.791,14.732,4.732,0,10.841-1.942,13.581-7.218" transform="translate(-186.607 -106.389)" fill="none" stroke="#dfdfdf" stroke-linecap="round" stroke-linejoin="round" stroke-width="4"/>
    <path id="Path_168" data-name="Path 168" d="M798.67,405.525c-1.316-6.3-3.07-13.5-3.07-24.011a31.467,31.467,0,0,1,3.776-14.314" transform="translate(-228.869 -29.173)" fill="none" stroke="#dfdfdf" stroke-linecap="round" stroke-linejoin="round" stroke-width="4"/>
    <path id="Path_169" data-name="Path 169" d="M831.87,326.257a34.714,34.714,0,0,1,20.749-6.4c10.35,0,19.045,4.8,26.782,11.259" transform="translate(-251.221)" fill="none" stroke="#dfdfdf" stroke-linecap="round" stroke-linejoin="round" stroke-width="4"/>
    <path id="Path_170" data-name="Path 170" d="M1003.16,396.75c7.932,8.393,15.35,15.3,23.459,15.3" transform="translate(-356.778 -47.383)" fill="none" stroke="#dfdfdf" stroke-linecap="round" stroke-linejoin="round" stroke-width="4"/>
    <rect id="Rectangle_57" data-name="Rectangle 57" width="11.428" height="11.428" transform="translate(632.214 333.472)" fill="#80d970"/>
    <circle id="Ellipse_14" data-name="Ellipse 14" cx="5.019" cy="5.019" r="5.019" transform="translate(570.503 326.257)" fill="#80d970"/>
    <path id="Path_171" data-name="Path 171" d="M794.12,484.568,793.4,471.24l-11.182,7.284Z" transform="translate(-220.624 -93.288)" fill="#80d970"/>
    <path id="Path_172" data-name="Path 172" d="M870.67,558.573c-3.262.265-7.418-.4-7.418-1.566.031-1.923-.272-15.507-.272-15.507" transform="translate(-270.392 -136.586)" fill="none" stroke="#000" stroke-linecap="round" stroke-linejoin="round" stroke-width="2.5"/>
    <path id="Path_173" data-name="Path 173" d="M892.719,494.68a19.6,19.6,0,0,1,2.548,9.552c.15,8.6-4.743,15.657-10.925,15.764a7.915,7.915,0,0,1-1.481-.107" transform="translate(-282.643 -107.733)" fill="none" stroke="#000" stroke-linecap="round" stroke-linejoin="round" stroke-width="2.5"/>
    <path id="Path_174" data-name="Path 174" d="M856.457,520.384a3.6,3.6,0,1,1-2.214-6.524" transform="translate(-262.852 -119.553)" fill="none" stroke="#000" stroke-linecap="round" stroke-linejoin="round" stroke-width="2.5"/>
    <path id="Path_175" data-name="Path 175" d="M872.634,451.88c-6.217,7.844-19.172,8.423-23.846,11.493-4.8,3.154-4.505,12.863-2.586,14.264" transform="translate(-259.25 -81.357)" fill="none" stroke="#000" stroke-linecap="round" stroke-linejoin="round" stroke-width="2.5"/>
    <path id="Path_176" data-name="Path 176" d="M916.007,458.47c-.741,1.566-5.1,7.307-6.5,8.281" transform="translate(-299.066 -85.418)" fill="none" stroke="#000" stroke-linecap="round" stroke-linejoin="round" stroke-width="2.5"/>
    <path id="Path_177" data-name="Path 177" d="M923.5,469.96a15.332,15.332,0,0,1-3.128,6.213" transform="translate(-305.759 -92.499)" fill="none" stroke="#000" stroke-linecap="round" stroke-linejoin="round" stroke-width="2.5"/>
    <ellipse id="Ellipse_15" data-name="Ellipse 15" cx="0.982" cy="0.852" rx="0.982" ry="0.852" transform="translate(603.017 395.652) rotate(-80.39)"/>
    <path id="Path_178" data-name="Path 178" d="M904.082,518.854a20.833,20.833,0,0,1-1.712-6.574" transform="translate(-294.666 -118.579)" fill="none" stroke="#000" stroke-linecap="round" stroke-linejoin="round" stroke-width="2.5"/>
    <path id="Path_179" data-name="Path 179" d="M891.48,536.05a2.685,2.685,0,0,0,1.888,1.734" transform="translate(-287.955 -133.227)" fill="none" stroke="#000" stroke-linecap="round" stroke-linejoin="round" stroke-width="2.5"/>
    <path id="Path_180" data-name="Path 180" d="M823.24,786.186v80.02h47.493V782.89C868.63,785.465,833.168,789.709,823.24,786.186Z" transform="translate(-245.902 -285.342)"/>
    <path id="Path_181" data-name="Path 181" d="M648.57,715.232c5.614-.7,37.765-4.751,41.967-5.9" transform="translate(-138.262 -240.011)" fill="none" stroke="#000" stroke-linecap="round" stroke-linejoin="round" stroke-width="2.5"/>
  </g>
</svg>
