<?xml version="1.0" encoding="utf-8"?>
<!-- Generator: Adobe Illustrator 24.3.0, SVG Export Plug-In . SVG Version: 6.00 Build 0)  -->
<svg version="1.1" id="Layer_1" xmlns="http://www.w3.org/2000/svg" xmlns:xlink="http://www.w3.org/1999/xlink" x="0px" y="0px"
	 viewBox="0 0 385 285" style="enable-background:new 0 0 385 285;" xml:space="preserve">
<style type="text/css">
	.st0{fill:#EFCDF9;}
	.st1{fill:#F5DEFF;}
	.st2{fill:#EACCF8;}
	.st3{fill:#E8DFFC;}
	.st4{fill:#EAD6FB;}
	.st5{fill:#F5E6FF;}
	.st6{fill:#F3DAFC;}
	.st7{fill:#EDCDF8;}
	.st8{fill:#F4DBFC;}
	.st9{fill:#F2DAFC;}
	.st10{fill:#57CA3B;}
	.st11{fill:#7FDA70;}
	.st12{fill:#FFFFFF;stroke:#000000;stroke-miterlimit:10;}
	.st13{fill:none;stroke:#000000;stroke-linecap:round;stroke-linejoin:round;stroke-miterlimit:10;}
	.st14{fill:#D6E8FF;}
	.st15{fill:#FFFFFF;}
	.st16{fill:none;stroke:#000000;stroke-miterlimit:10;}
	.st17{fill:none;stroke:#000000;stroke-width:3;stroke-linecap:round;stroke-linejoin:round;stroke-miterlimit:10;}
	.st18{fill:none;stroke:#000000;stroke-width:0.5;stroke-linecap:round;stroke-linejoin:round;stroke-miterlimit:10;}
	.st19{fill:none;stroke:#000000;stroke-width:0.75;stroke-linecap:round;stroke-linejoin:round;stroke-miterlimit:10;}
	.st20{fill:none;}
	.st21{fill:#FFFFFF;stroke:#000000;stroke-width:0.5;stroke-miterlimit:10;}
	.st22{fill:#1A1818;}
	.st23{fill:#2AA238;}
</style>
<rect x="127.1" y="36.7" class="st0" width="108.4" height="236"/>
<polygon class="st1" points="127.1,97.7 118.1,97.7 118.1,143.7 93.6,143.7 93.6,87.7 61.2,87.7 61.2,165.7 15.4,165.7 15.4,272.7 
	127.1,270.7 "/>
<polygon class="st2" points="19.9,173.7 127.1,173.7 127.1,271.7 19.9,272.7 "/>
<rect x="30.1" y="182.7" class="st3" width="78" height="4"/>
<rect x="30.1" y="192.7" class="st3" width="78" height="4"/>
<rect x="30.1" y="203.7" class="st3" width="78" height="4"/>
<rect x="30.1" y="214.7" class="st3" width="78" height="4"/>
<rect x="30.1" y="225.7" class="st3" width="78" height="4"/>
<rect x="30.1" y="249.7" class="st3" width="78" height="4"/>
<rect x="30.1" y="260.7" class="st3" width="78" height="4"/>
<rect x="30.1" y="237.7" class="st3" width="78" height="4"/>
<rect x="127.1" y="27.3" class="st4" width="108.4" height="9.4"/>
<polygon class="st5" points="55.1,78.7 35.1,107.7 75,107.7 "/>
<rect x="137" y="44.2" transform="matrix(1 -5.457893e-03 5.457893e-03 1 -0.8548 0.7707)" class="st6" width="7.5" height="225.6"/>
<rect x="151" y="44.2" transform="matrix(1 -5.457893e-03 5.457893e-03 1 -0.8546 0.8471)" class="st6" width="7.5" height="225.6"/>
<rect x="165" y="44.2" transform="matrix(1 -5.457893e-03 5.457893e-03 1 -0.8544 0.9235)" class="st6" width="7.5" height="225.6"/>
<rect x="178" y="44.2" transform="matrix(1 -5.457893e-03 5.457893e-03 1 -0.8542 0.9945)" class="st6" width="7.5" height="225.6"/>
<rect x="192" y="44.2" transform="matrix(1 -5.457893e-03 5.457893e-03 1 -0.854 1.0709)" class="st6" width="7.5" height="225.6"/>
<rect x="206" y="44.2" transform="matrix(1 -5.457893e-03 5.457893e-03 1 -0.8538 1.1473)" class="st6" width="7.5" height="225.6"/>
<rect x="219" y="44.2" transform="matrix(1 -5.457893e-03 5.457893e-03 1 -0.8536 1.2183)" class="st6" width="7.5" height="225.6"/>
<polygon class="st7" points="35.1,107.7 75,107.7 75,173.7 35.1,174 "/>
<rect x="56.5" y="159.7" transform="matrix(1.479392e-02 -0.9999 0.9999 1.479392e-02 -93.2501 227.7871)" class="st8" width="25" height="3"/>
<rect x="49.5" y="159.7" transform="matrix(1.479392e-02 -0.9999 0.9999 1.479392e-02 -100.1465 220.7878)" class="st8" width="25" height="3"/>
<rect x="42.5" y="159.7" transform="matrix(1.479392e-02 -0.9999 0.9999 1.479392e-02 -107.043 213.7886)" class="st8" width="25" height="3"/>
<rect x="35.5" y="159.7" transform="matrix(1.479392e-02 -0.9999 0.9999 1.479392e-02 -113.9394 206.7894)" class="st8" width="25" height="3"/>
<rect x="28.5" y="159.7" transform="matrix(1.479392e-02 -0.9999 0.9999 1.479392e-02 -120.8359 199.7901)" class="st8" width="25" height="3"/>
<circle class="st9" cx="55.1" cy="128.7" r="12"/>
<g>
	<path class="st10" d="M297.9,259.7c0,0,1.7-1.7,6.7-3.4c0,0,5-1.7,2.5,3.4c0,0-0.8,1.7-9.2,3.8V259.7z"/>
	<path class="st10" d="M297.9,265.5c0,0,1.7-1.6,6.7-0.8c0,0,3.4,0,2.5,2.5c0,0,0,0.8-1.7,1.7h-7.5V265.5z"/>
	<path class="st10" d="M290.4,257.2c0,0,0.8,3.4,0.8,5.9c0,0-0.8,2.5-2.5,2.5c0,0-2.5-0.8-3.4-1.7l1.7-1.7c0,0-0.8-0.5,1.3,0.6
		c0,0,1.3,1.1,0.4-0.6c0,0,0,0-0.8-1.7l1.6-3.4H290.4z"/>
	<path class="st10" d="M283.7,264.8c0,0,1.7,1.7,1.7,2.5l-3.4,1.7h-4.5l2.6-2.2L283.7,264.8z"/>
</g>
<path class="st10" d="M76,269.4h-3.8c0,0-1.3-2.2,1.9-3.4c0,0,3.1-2.9,10.7-1.2c0,0,4.2,0.8,5.9,0.8c0,0,3-0.2,1.5-1.4
	c0,0,0.2-1.3-9.9-4.2c0,0-10.9-2.8-12.6-5.4c0,0-4.2-3.4,0-5.5c0,0,4.2-1.2,13.4,3c0,0,5.3,3.2,8.9,7c0,0,2.5,2.5,0.6-1.9
	c0,0-0.3-3.5-7.8-12.7c0,0-5.9-5.9-6.7-8.4c0,0-1.7-5.9,7.5-0.8c0,0,3.4,2.5,5.9,6.7l9.2,15.9c0,0,0,0.8,0.8,0h4.2l0.8,3.4
	c0,0-2.5,0.8-5,3.4c0,0-0.8,0.8,0.8,0c0,0,3.4-0.8,6.7-2.5l11.5,7.1H76z"/>
<path class="st11" d="M116.6,268.9c0,0-12.6-1.7-15.9-12.6h114.4l0.6,12.6H116.6z"/>
<path class="st10" d="M130.9,268.9h27c0,0,3.2-3.4-1-4.2c0,0-4.2-1.7-11.7,1.7c0,0-0.1-0.8,2.5-2.1c0,0,3.4-2.1,9.3-2.9
	c0,0,5-1.7,2.5-5h-4.2c0,0-1.7,0.8-5.9,3.4c0,0-1.7,0.8-2.5,1.7c0,0-2.6,2.3-1.3-0.5c0,0,2-2,1.7-4.5h-3.3c0,0-0.4,1.7-0.4,2.5
	c0,0,0,1.7-0.8,0.8c0,0,0-1.7-0.8-2.5l-1.7,3.4l0.8,1.7c0,0,0.8,2.5-0.8,0.8c0,0,0,0-0.8-1.7l-1.7,2.5c0,0,0.8,0.8,2.5,1.7
	c0,0,1.7,0.8-0.8,0.8c0,0-3.4-0.8-5-0.8l-3.4,1.7l-0.8,0.8L130.9,268.9z"/>
<path d="M167.5,257.6c0,0,2.7,9.6,12.4,12.2h13.6c0,0,8.7-1.7,12-13.4c0,0,1.1,10.1,12.3,13.4h13.6c0,0,8.8-2.1,11.6-12.3
	l-31.6-10.3l-6.1-15.6l-16.5-7l-16.8,7.5l-5,12.6L167.5,257.6z"/>
<path class="st12" d="M135.1,213.2c0,0,31.9-16,44.7-22c1.4-0.7,3-1,4.5-1l78.8,0c1,0,2.1,0,3.1,0.1l10.9,0.9
	c5.3,0.4,10.2,2.7,13.9,6.5l16.2,16.4"/>
<path d="M317.3,232.9c0,0,1.6-0.9,1.8-3.4v-4.1c0-0.9-0.3-1.9-1-2.5c-0.2-0.2-0.5-0.4-0.8-0.5V232.9z"/>
<line class="st13" x1="362.1" y1="269.8" x2="75.8" y2="269.8"/>
<path class="st14" d="M140.1,212l59.8,0l15.4-16.3c1.1-1.1,0.3-3-1.3-3h-34.7L140.1,212z"/>
<path class="st14" d="M209.1,211c-0.4-0.8-0.8-2.1-0.3-3.5l11.7-13.2c0,0,1.7-2.3,5-2.3h21.6v19.9h-36.7
	C209.9,211.7,209.4,211.4,209.1,211z"/>
<path class="st14" d="M250.1,192.7l0.4,19h45.4c2,0,3-2.3,1.7-3.8c-0.7-0.8-1.4-1.6-2.1-2.5c-0.8-0.9-1.5-1.9-2.1-3
	c-0.4-0.7-0.9-1.5-1.2-1.7c-1-1-2.7-3.2-6.4-5.2c-3.6-1.9-10.1-2.9-17.6-2.9L250.1,192.7z"/>
<path d="M271.2,256.8c0,0,3.4,9.2,10.1,12.6h15.8c0,0,8-2.1,11.4-12.6c0,0,2.6-16.3-5-25.6c0,0-5-5-17.6-2.5l-0.8-4.2l-10.1,8.4"/>
<path class="st15" d="M281.7,241.3c0,0,2.5-5.9,9.2-6.7c0,0,8.4-0.8,10.9,10.1c0,0,1.7,10.9-5,15.9c0,0-6.7,5.9-13.4-1.7
	C283.4,258.9,277.5,252.2,281.7,241.3z"/>
<g>
	<path class="st15" d="M95.1,257.1c-0.1,0-4.4-0.8-4.4-4.5v-10.3c0-2.3,0.3-4.5,1-6.6c1.4-4.5,2.8-7.6,3.9-8.7l0.1-0.1l0-0.1
		c0.1-0.1,5.6-10.1,20.1-12.9c0.8-0.1,1.6-0.2,2.5-0.2h184.7c0.1,0,12.1,0.1,13.7,8.8l0,28.3c0,0.2-0.5,4.8-7.8,5
		c0.2-3.7,0.7-23.6-10.4-26.8c-0.1,0-3.7-1.3-8.3-1.3c-4.7,0-8.5,1.3-11.5,3.9c-0.2,0.2-5.2,4.4-6,11.2l0,13.2
		c-0.2,0.2-0.6,0.5-1.1,1.1l-63.6-0.4l-1.3-0.6v-9.7c0-3.9-1-7.6-2.9-10.6c-1.4-2.2-3-3.9-4.9-4.9c-0.4-0.4-3.3-2.8-10-3
		c-0.2,0-0.4,0-0.6,0c-5.3,0-10.3,2.1-13.7,5.7c-2.7,3-4.1,6.4-4.1,10.2l-0.4,13.3H95.1z"/>
	<path d="M303.1,214.2L303.1,214.2c0.1,0,11.6,0.1,13.2,8.3v28.3c0,0.4-0.7,4.1-6.7,4.5c0.2-4.8,0.2-23.6-10.8-26.7
		c-0.4-0.1-4-1.3-8.4-1.3c-4.8,0-8.8,1.4-11.8,4c-0.2,0.2-5.3,4.5-6.2,11.5l0,0.1v0.1v12.9c-0.2,0.2-0.5,0.4-0.8,0.8l-63.3-0.4
		l-0.9-0.5v-9.4c0-4-1-7.7-3-10.9c-1.4-2.3-3.1-4-5-5.1c-0.6-0.5-3.6-2.9-10.3-3.1c-0.2,0-0.4,0-0.6,0c-5.4,0-10.5,2.2-14,5.9
		c-2.8,3-4.3,6.6-4.3,10.5l-0.4,12.9H95.2c-0.6-0.1-4-1-4-4v-10.3c0-2.2,0.3-4.4,1-6.5c1.4-4.4,2.7-7.5,3.8-8.5l0.1-0.1l0.1-0.1
		c0.1-0.1,5.5-9.9,19.8-12.7c0.7-0.1,1.5-0.2,2.4-0.2H303.1 M303.1,213.2H118.4c-0.9,0-1.8,0.1-2.6,0.2
		c-14.9,2.9-20.5,13.2-20.5,13.2c-1.5,1.5-3,5.8-4,8.9c-0.7,2.2-1,4.5-1,6.8v10.3c0,4.2,4.9,5,4.9,5h75.5l0.4-13.8
		c0-4.3,1.8-7.5,4-9.9c3.4-3.7,8.3-5.6,13.3-5.6c0.2,0,0.4,0,0.6,0c7.1,0.2,9.8,2.9,9.8,2.9c2.1,1.2,3.6,3,4.7,4.8
		c1.9,3.1,2.8,6.7,2.8,10.3v10l1.7,0.8l64,0.4c1.1-1.3,1.4-1.3,1.4-1.3V243c0.8-6.7,5.9-10.9,5.9-10.9c3.4-3,7.5-3.8,11.1-3.8
		c4.5,0,8.1,1.3,8.1,1.3c11.7,3.4,10.1,26.8,10.1,26.8c8.4,0,8.8-5.5,8.8-5.5v-28.4C315.7,213.2,303.1,213.2,303.1,213.2
		L303.1,213.2z"/>
</g>
<path d="M96.8,224.4c0,0,2.2,1,19,1l53.2-3.3c0.5,0,0.9,0.6,0.6,1l-7.4,10.4c-0.1,0.2-0.3,0.3-0.5,0.3h-29.4c-0.2,0-0.3,0.1-0.4,0.2
	l-3.2,3c-0.1,0.1-0.3,0.2-0.4,0.2H96.2c-0.2,0-0.4-0.1-0.6-0.3l-1.5-2.8c-0.1-0.1-0.2-0.2-0.3-0.3c-0.4-0.2-1.1-0.4-2,0.2
	C91.8,233.8,92.9,227.6,96.8,224.4z"/>
<path class="st15" d="M180.3,241.3c0,0,2.5-5.9,9.2-6.7c0,0,8.4-0.8,10.9,10.1c0,0,1.7,10.9-5,15.9c0,0-6.7,5.9-13.4-1.7
	C182,258.9,176.1,252.2,180.3,241.3z"/>
<line class="st16" x1="248.6" y1="213.2" x2="248.6" y2="257.5"/>
<line class="st17" x1="224.3" y1="222" x2="231" y2="222"/>
<line class="st17" x1="262" y1="222" x2="268.9" y2="222"/>
<path d="M108.1,257.6h37.2c0,0-2.7,9.6-12.7,12.2h-12.7C119.9,269.8,109.6,265.6,108.1,257.6z"/>
<path d="M192.9,190.2l1.6-4.1c0.4-1.1,1.5-1.8,2.7-1.8h12.9c1.3,0,2.4,0.9,2.8,2.1l1,3.7H192.9z"/>
<g>
	<circle cx="347.4" cy="155.9" r="3.2"/>
	<circle class="st18" cx="342.1" cy="162.6" r="5.7"/>
	<path d="M347.6,163.8c0,0-2.7-1.2-3.4-3.3c0,0-2,1.8-7.7,3c0,0-0.9-5.6,5.1-6.6c0,0,3.4-0.4,5.5,3
		C347.1,160,348.2,161.4,347.6,163.8z"/>
	<path d="M341.1,168.2c0,0,2.7,0.5,4.5-1.2c0,0-1.1,3-4.6,2.7C341.1,169.8,341.5,169.3,341.1,168.2z"/>
	<line class="st13" x1="345.6" y1="167.1" x2="346.3" y2="172.1"/>
	<path class="st13" d="M341.1,168.2v3.6c0,0-2.1,0.8-3.6,1.5c-0.9,0.4-1.7,1.1-2.3,1.9c-1,1.4-2.3,3.9-2.5,7.2c0,0-0.6,7.5-1.7,10.1
		c0,0,1.2,1.2,4.3,1.2"/>
	<path class="st13" d="M334.3,182.6c0,0-0.9,6.9,1.4,10.4l-0.9,2.9c0,0,3.5,2.9,8.1,3.8c0,0,3.8,0.9,6.4-0.3"/>
	<path class="st13" d="M346.1,170.9c0,0,2.3,0.6,3.2,0.7c0.3,0,0.5,0.1,0.8,0.1c0.6,0.1,1.3,0.2,1.9,0.4c0.8,0.2,1.5,0.5,2.2,1
		c0.9,0.7,2.4,1.9,3.6,3.8c0.1,0.2,0.2,0.4,0.3,0.6c0.4,0.7,1.2,2.6,1.8,6.9c0,0,0.6,3.8-1.4,10.4c0,0-5.8,1.4-8.7-1.7
		c0,0,1.2-9.5,0.9-11.3"/>
	<path d="M356.4,195c0,0-2.3,2.2-6.4-0.2l0.3-1.4C350.3,193.4,352.7,195.5,356.4,195z"/>
	<path class="st19" d="M357.3,195l-2.3,10.3c-0.9,4.3-1.4,6.9-1.4,6.9c-0.3,1.2-1.2,4.9-1.2,4.9c-0.3,1.2-0.9,3.8-0.9,3.8
		c-0.3,0.9-0.9,2.9-0.9,2.9c-0.3,0.6-0.6,0.3-0.6,0.3c0.3-1.7,0.3-2.3,0.3-2.3c-0.3,0.8-1.2,3.8-1.2,3.8c-0.9,1.2-0.6-0.3-0.6-0.3
		c0.3-0.9,0.6-3.2,0.6-3.2c-0.3,1.4-1.4,4.3-1.4,4.3c-0.6,0.6-0.6,0-0.6,0c0.3-1.2,0.3-1.2,0.3-1.2c0.3-0.9,0.6-3.8,0.6-3.8
		c-0.3,1.7-1.2,3.5-1.2,3.5c-0.9,0.9-0.6-0.3-0.6-0.3c0.3-0.6,0.8-3.3,0.8-3.3c0.2-1.6-1.1-0.2-1.1-0.2c-1.2,0.6-0.6-0.6-0.6-0.6
		c0-0.3,1.2-2.6,1.2-2.6l0.3-1.4l3.3-21.8"/>
	<path class="st13" d="M334.9,197.6c0,0,6.6,5.9,14.4,2.9"/>
	<line class="st13" x1="331.3" y1="192.8" x2="330.8" y2="195.1"/>
	<path class="st13" d="M332.1,195.8l-12.2-5.4c-0.2-0.1-0.3-0.2-0.4-0.3c-0.4-0.5-1.7-1.5-2.9-2c0,0-0.4,0.4,0.4,1.3
		c0,0,0.8,0.9-0.5,0.7"/>
	<path class="st13" d="M311.5,188.7c0,0-1.4,0,0,0.9"/>
	<path class="st13" d="M311.5,191c0,0-1.2-0.9,0.1-0.7"/>
	<path d="M311.1,184.1l0.5,8.1c0,0.4,0.4,0.7,0.8,0.7l4-0.2c0.4,0,0.7-0.4,0.7-0.8l-0.7-8.1c0-0.4-0.4-0.7-0.8-0.7l-3.8,0.2
		C311.3,183.3,311,183.7,311.1,184.1z"/>
	<circle class="st15" cx="311.9" cy="184.2" r="0.3"/>
	<line class="st13" x1="337.6" y1="201.8" x2="338.5" y2="205.3"/>
	<line class="st13" x1="337" y1="205" x2="340.8" y2="205.9"/>
	<path class="st13" d="M341.5,215.5v-3.2c0-0.2,0-0.5,0-0.7c-0.3-3-0.8-5.8-0.8-5.8"/>
	<path class="st13" d="M338,245.3"/>
	<path class="st13" d="M335.1,196.1c0,0-0.4,2.1-0.5,3.2c0,0-0.5,4.3-0.6,6.6c0,0-0.4,7.5-0.4,9.5c0,0-0.3,3.2-0.6,4.6
		c0,0-0.9,6.1-1.4,8.1c0,0-2.2,10.8-2.7,12.9c0,0-3.2,13.6-3.5,14.2l8.7,2.6l3.6-10.7"/>
	<path class="st20" d="M312.8,192.8"/>
	<path class="st13" d="M312.8,192.8c0,0,1.5,1.1,2.4,1.5c0.1,0,0.2,0.1,0.3,0.1l15.2,8c0,0,2.4,0.9,3.6-0.7"/>
	<path class="st16" d="M338.7,172.8c0,0-0.1,1.5-0.2,2.5c-0.1,0.9,0.1,1.7,0.4,2.5c0,0,0,0.1,0,0.1c0.6,1.5,2.2,2.4,3.8,2.3
		c1.3-0.1,2.8-0.5,4-1.7c0,0,3.2-3.1,4.4-6.7"/>
	<line class="st16" x1="353.1" y1="214.1" x2="354.8" y2="226.6"/>
	<polyline class="st13" points="356.1,247.2 356.3,249.9 356.7,255.3 347.7,255.3 346.9,249.9 346.3,247.1 	"/>
	<path d="M348.9,255.3l0.2,1.7c0,0,3.9,0,5.3-1.7H348.9z"/>
	<path class="st13" d="M349.2,257c0,0,0.9,6.9,0.6,7.8c0,0-0.3,0.7-0.6,0.9c0,0,1,1.2,3.3,1.2c0,0,2,0.3,3.5-0.4l0.2,2.6l-0.8-13.9"
		/>
	<path d="M349.2,265.7c-0.3,0.4-1.2,0.5-1.2,0.5c-0.9,0.3-3.5,0.6-3.5,0.6c-2.6,0.6-1.9,2.3-1.9,2.3s3.3,0.6,6.2,0.6
		c0,0,3.2,0.5,7.2,0.4l-0.2-3.6"/>
	<path d="M326.4,255.4l-0.4,1.5c0,0,3.6,1.6,5.9,0.1L326.4,255.4z"/>
	<path class="st13" d="M323.2,263.6l1-1c0.1-0.1,0.2-0.2,0.2-0.3c0.4-1.1,1.6-5.3,1.6-5.3"/>
	<line class="st13" x1="332.7" y1="257.3" x2="328.4" y2="268.8"/>
	<path d="M329.3,266.4c0,0-2.4,0.1-4.1-1c0,0-1.2-0.9-1.7-1.7l-0.3-0.5c0,0-0.3,0.8-2.5,0.1c0,0-1.7-0.4-3.2-0.1
		c0,0-1.5,0.3-1.4,1.3l0.9,0.6l7,4.8h4.7C328.6,269.7,329.4,266.8,329.3,266.4z"/>
	<path d="M343.5,226.6"/>
	<path d="M343.4,226.6l-0.4-1.7c-0.3,0.6-0.5,1.7-0.5,1.7h-0.8l-0.3-5.7l-0.4-5.6l0.9,0.3c0,0,0.4,4.2,0.8,7.1"/>
	<g>
		<path class="st21" d="M360.4,226.6c0.7,0,1.3,0.6,1.3,1.3v17.7c0,0.7-0.6,1.3-1.3,1.3H336c-0.7,0-1.3-0.6-1.3-1.3v-17.7
			c0-0.7,0.6-1.3,1.3-1.3H360.4 M360.4,226.4H336c-0.8,0-1.5,0.7-1.5,1.5v17.7c0,0.8,0.7,1.5,1.5,1.5h24.4c0.8,0,1.5-0.7,1.5-1.5
			v-17.7C361.9,227.1,361.3,226.4,360.4,226.4L360.4,226.4z"/>
		<g>
			<path class="st15" d="M336,247.2c-0.8,0-1.5-0.7-1.5-1.5v-17.7c0-0.8,0.7-1.5,1.5-1.5h24.4c0.8,0,1.5,0.7,1.5,1.5v17.7
				c0,0.8-0.7,1.5-1.5,1.5H336z M336,226.6c-0.7,0-1.3,0.6-1.3,1.3v17.7c0,0.7,0.6,1.3,1.3,1.3h24.4c0.7,0,1.3-0.6,1.3-1.3v-17.7
				c0-0.7-0.6-1.3-1.3-1.3H336z"/>
			<path d="M360.4,226.2H336c-1,0-1.7,0.8-1.7,1.7v17.7c0,1,0.8,1.7,1.7,1.7h24.4c1,0,1.7-0.8,1.7-1.7v-17.7
				C362.2,226.9,361.4,226.2,360.4,226.2L360.4,226.2z M336,246.7c-0.6,0-1.1-0.5-1.1-1.1v-17.7c0-0.6,0.5-1.1,1.1-1.1h24.4
				c0.6,0,1.1,0.5,1.1,1.1v17.7c0,0.6-0.5,1.1-1.1,1.1H336L336,246.7z"/>
		</g>
	</g>
	<g>
		<path d="M352.2,223.1c0.4,0,0.7,0.3,0.7,0.7v2.6h-9.3v-2.6c0-0.4,0.3-0.7,0.7-0.7H352.2 M352.2,222.9h-7.9c-0.5,0-0.9,0.4-0.9,0.9
			v2.8h9.7v-2.8C353.1,223.3,352.7,222.9,352.2,222.9L352.2,222.9z"/>
		<path d="M353.3,226.8h-10.2v-3c0-0.6,0.5-1.1,1.1-1.1h7.9c0.6,0,1.1,0.5,1.1,1.1V226.8z M343.8,226.2h8.9v-2.4
			c0-0.3-0.2-0.5-0.5-0.5h-7.9c-0.3,0-0.5,0.2-0.5,0.5V226.2z"/>
	</g>
	<g>
		<path d="M350.6,225c0.2,0,0.4,0.2,0.4,0.4v0.9h-5.5v-0.9c0-0.2,0.2-0.4,0.4-0.4H350.6 M350.6,224.7h-4.7c-0.4,0-0.7,0.3-0.7,0.7
			v1.1h6v-1.1C351.3,225,351,224.7,350.6,224.7L350.6,224.7z"/>
		<path d="M351.5,226.7h-6.4v-1.3c0-0.5,0.4-0.9,0.9-0.9h4.7c0.5,0,0.9,0.4,0.9,0.9V226.7z M345.7,226h5.1v-0.7
			c0-0.1-0.1-0.2-0.2-0.2h-4.7c-0.1,0-0.2,0.1-0.2,0.2V226z"/>
	</g>
	<g>
		<g>
			<g>
				<path class="st15" d="M345.3,240.1h-3.4c-0.1,0-0.1,0-0.2,0c-3-0.4-4-3-4-3c-0.6-1.4-3.1-6.8-3.2-6.9l0.2-0.1
					c0,0.1,2.6,5.5,3.2,6.9c0,0,0.9,2.5,3.8,2.9c0.1,0,0.1,0,0.2,0h13.1c0,0,0.2,0,0.5-0.1c1.4-0.3,2.6-1.3,3.2-2.7
					c0.7-1.6,2.5-5.5,3-6.4l0.2,0.1c-0.6,0.9-2.3,4.7-3,6.4c-0.6,1.4-1.9,2.5-3.4,2.8c-0.3,0.1-0.6,0.1-0.6,0.1L345.3,240.1z"/>
				<path d="M334.7,230.1l-0.2,0.1c0,0.1,2.6,5.5,3.2,6.9c0,0,1,2.6,4,3c0.1,0,0.1,0,0.2,0h3.4l9.7,0c0,0,0.2,0,0.6-0.1
					c1.5-0.3,2.8-1.4,3.4-2.8c0.7-1.6,2.5-5.5,3-6.4l-0.2-0.1c-0.6,0.9-2.3,4.8-3,6.4c-0.6,1.4-1.8,2.4-3.2,2.7
					c-0.3,0.1-0.5,0.1-0.5,0.1h-13.1c-0.1,0-0.1,0-0.2,0c-2.9-0.4-3.8-2.8-3.8-2.9C337.3,235.6,334.7,230.2,334.7,230.1L334.7,230.1
					z"/>
			</g>
			<g>
				<path class="st15" d="M345.3,240.3h-3.4c-0.1,0-0.2,0-0.2,0c-3.1-0.4-4.1-3.1-4.2-3.1c-0.6-1.4-3.1-6.8-3.2-6.9l-0.1-0.2
					l0.6-0.3l0.1,0.3c0.8,1.7,2.6,5.6,3.1,6.8c0,0,0.9,2.4,3.6,2.7c0,0,0.1,0,0.2,0h13.1c0,0,0.2,0,0.5-0.1c1.4-0.3,2.5-1.3,3.1-2.6
					c0.9-2,2.5-5.5,3-6.4l0.1-0.2l0.6,0.3l-0.1,0.2c-0.5,0.9-2.3,4.7-3,6.3c-0.7,1.5-2,2.6-3.5,2.9c-0.4,0.1-0.6,0.1-0.6,0.1
					L345.3,240.3z"/>
				<path d="M334.8,229.8l-0.6,0.3l0.1,0.2c0,0,2.6,5.5,3.2,6.9c0,0,1,2.7,4.2,3.1c0.1,0,0.2,0,0.2,0h3.4l9.7,0c0,0,0.2,0,0.6-0.1
					c1.6-0.3,2.9-1.4,3.5-2.9c0.7-1.6,2.5-5.4,3-6.3l0.1-0.2l-0.6-0.3l-0.1,0.2c-0.5,0.9-2.1,4.4-3,6.4c-0.6,1.3-1.7,2.2-3.1,2.6
					c-0.3,0.1-0.4,0.1-0.5,0.1h-13.1c-0.1,0-0.1,0-0.2,0c-2.7-0.4-3.6-2.7-3.6-2.7c-0.5-1.2-2.4-5.2-3.1-6.8L334.8,229.8
					L334.8,229.8z"/>
			</g>
		</g>
	</g>
	<g>
		<g>
			<path class="st15" d="M345.6,240.7c-0.1,0-0.2-0.1-0.2-0.2v-1.4c0-0.1,0.1-0.2,0.2-0.2h5.4c0.1,0,0.2,0.1,0.2,0.2v1.4
				c0,0.1-0.1,0.2-0.2,0.2H345.6z"/>
			<path d="M350.9,240.9h-5.3c-0.2,0-0.4-0.2-0.4-0.4v-1.4c0-0.2,0.2-0.4,0.4-0.4h5.4c0.2,0,0.4,0.2,0.4,0.4v1.4
				C351.4,240.7,351.2,240.9,350.9,240.9z M345.6,239.1l0,1.3h5.3l0-1.3H345.6z"/>
		</g>
		<g>
			<path d="M351,239.1C351,239.1,351,239.1,351,239.1l0,1.4c0,0.1,0,0.1-0.1,0.1h-5.3c-0.1,0-0.1,0-0.1-0.1v-1.4c0,0,0,0,0,0H351
				 M351,238.8h-5.4c-0.2,0-0.3,0.1-0.3,0.3v1.4c0,0.2,0.1,0.3,0.3,0.3h5.3c0.2,0,0.3-0.1,0.3-0.3v-1.4
				C351.3,238.9,351.1,238.8,351,238.8L351,238.8z"/>
			<path d="M350.9,241h-5.3c-0.3,0-0.5-0.2-0.5-0.5v-1.4c0-0.3,0.2-0.5,0.5-0.5h5.4c0.3,0,0.5,0.2,0.5,0.5v1.4
				C351.5,240.8,351.2,241,350.9,241z M345.7,240.4h5.1v-1.1h-5.1V240.4z"/>
		</g>
	</g>
</g>
<g id="Group_78" transform="translate(-399 -209.5)">
	<g id="Group_47" transform="translate(399 209.53)">
		<path id="Path_289" class="st22" d="M217.2,239v5.6h-2.1v-13.9h2.4c0.9,0,1.8,0.1,2.7,0.2c0.6,0.2,1.2,0.5,1.6,0.9
			c0.8,0.8,1.2,1.8,1.2,2.9c0.1,1.2-0.4,2.3-1.3,3c-1,0.8-2.2,1.2-3.5,1.1L217.2,239z M217.2,237h0.8c2,0,2.9-0.7,2.9-2.2
			c0-1.4-1-2.1-3-2.1h-0.7L217.2,237z"/>
	</g>
	<path id="Path_290" class="st22" d="M626.5,447.6l-4-7.3h2.4l2.7,5.1l2.5-5.1h2.3l-7,13.8H623L626.5,447.6z"/>
	<path id="Path_318" class="st22" d="M639.8,440.2h2.2l-7,13.9h-2.3L639.8,440.2z"/>
	<path id="Path_319" class="st23" d="M634.6,440.3l-2.2,0.1l7.4,13.8l2.3-0.1L634.6,440.3z"/>
</g>
</svg>
