<svg xmlns="http://www.w3.org/2000/svg" width="73.545" height="36.5" viewBox="0 0 73.545 36.5">
  <g id="Group_97" data-name="Group 97" transform="translate(-646.467 -366.004)">
    <g id="Group_47" data-name="Group 47">
      <path id="Path_289" data-name="Path 289" d="M652.058,387.675v14.787h-5.591V366.048H652.8a29.107,29.107,0,0,1,7.034.637,9.486,9.486,0,0,1,4.224,2.407,10.272,10.272,0,0,1,3.192,7.739,9.9,9.9,0,0,1-3.413,7.924,13.643,13.643,0,0,1-9.188,2.925Zm0-5.1h2.088q7.7,0,7.7-5.826,0-5.635-7.945-5.636h-1.848Z" fill="#fff"/>
    </g>
    <path id="Path_290" data-name="Path 290" d="M679.042,385.329l-10.4-19.152h6.2L681.92,379.7l6.6-13.525h6.034L676.121,402.5h-6.1Z" fill="#fff"/>
    <path id="Path_318" data-name="Path 318" d="M714.094,366h5.878L701.7,402.4h-6.1Z" fill="#fff"/>
    <path id="Path_319" data-name="Path 319" d="M700.4,366.019l-5.872.183,19.383,36.213,6.1-.19Z" fill="#2aa238"/>
  </g>
</svg>
