<svg xmlns="http://www.w3.org/2000/svg" width="73.546" height="36.5" viewBox="0 0 73.546 36.5"><g transform="translate(-399 -209.5)"><g transform="translate(399 209.53)"><path d="M404.591,231.38v14.787H399V209.753h6.336a29.088,29.088,0,0,1,7.034.637,9.472,9.472,0,0,1,4.224,2.407,10.271,10.271,0,0,1,3.192,7.739,9.9,9.9,0,0,1-3.413,7.924,13.645,13.645,0,0,1-9.188,2.925Zm0-5.095h2.088q7.7,0,7.7-5.826,0-5.636-7.945-5.636h-1.848Z" transform="translate(-399 -209.739)" fill="#1a1818"/></g><path d="M583.6,230.008l-10.4-19.152h6.2l7.078,13.525,6.6-13.525h6.034l-18.433,36.327h-6.1Z" transform="translate(-152.025 -1.183)" fill="#1a1818"/><path d="M803.522,209.5H809.4l-18.274,36.4h-6.1Z" transform="translate(-336.895)" fill="#1a1818"/><path d="M782.545,209.616l-5.872.183,19.383,36.213,6.1-.19Z" transform="translate(-329.611 -0.101)" fill="#2aa238"/></g></svg>