<?xml version="1.0" encoding="utf-8"?>
<!-- Generator: Adobe Illustrator 16.0.0, SVG Export Plug-In . SVG Version: 6.00 Build 0)  -->
<!DOCTYPE svg PUBLIC "-//W3C//DTD SVG 1.1//EN" "http://www.w3.org/Graphics/SVG/1.1/DTD/svg11.dtd">
<svg version="1.1" id="Layer_1" xmlns="http://www.w3.org/2000/svg" xmlns:xlink="http://www.w3.org/1999/xlink" x="0px" y="0px"
	 width="595.281px" height="841.891px" viewBox="0 0 595.281 841.891" enable-background="new 0 0 595.281 841.891"
	 xml:space="preserve">
<g id="coins_ground">
	<g>
		<g>
			<path fill="#161616" d="M212.366,611.806c6.623,0,13.245,0,19.868,0c0.707,0,0.707-1.116,0-1.116c-6.623,0-13.245,0-19.868,0
				C211.659,610.69,211.659,611.806,212.366,611.806L212.366,611.806z"/>
		</g>
	</g>
	<g>
		<g>
			<path fill="#161616" d="M299.687,611.137c4.91,0,9.821,0,14.732,0c0.707,0,0.707-1.116,0-1.116c-4.911,0-9.822,0-14.732,0
				C298.943,610.021,298.943,611.137,299.687,611.137L299.687,611.137z"/>
		</g>
	</g>
	<g>
		<g>
			<path fill="#161616" d="M321.563,610.468c2.864,0,5.692,0,8.558,0c0.707,0,0.707-1.116,0-1.116c-2.865,0-5.693,0-8.558,0
				C320.856,609.351,320.856,610.468,321.563,610.468L321.563,610.468z"/>
		</g>
	</g>
	<path fill="none" stroke="#161616" stroke-width="2" stroke-miterlimit="10" d="M286.516,565.858h-70.652
		c-2.455,0-4.464-2.009-4.464-4.464v-2.307c0-2.456,2.009-4.465,4.464-4.465h70.652c2.456,0,4.465,2.009,4.465,4.465v2.307
		C290.98,563.849,288.971,565.858,286.516,565.858z"/>
	<path fill="none" stroke="#161616" stroke-width="2" stroke-miterlimit="10" d="M293.436,577.69h-70.652
		c-2.456,0-4.465-2.01-4.465-4.465v-2.307c0-2.456,2.009-4.465,4.465-4.465h70.652c2.456,0,4.464,2.009,4.464,4.465v2.307
		C297.9,575.68,295.892,577.69,293.436,577.69z"/>
	<path fill="none" stroke="#161616" stroke-width="2" stroke-miterlimit="10" d="M277.14,589.223h-70.652
		c-2.456,0-4.464-2.009-4.464-4.465v-2.307c0-2.455,2.009-4.465,4.464-4.465h70.652c2.456,0,4.465,2.01,4.465,4.465v2.307
		C281.605,587.215,279.596,589.223,277.14,589.223z"/>
	<path fill="none" stroke="#161616" stroke-width="2" stroke-miterlimit="10" d="M285.772,600.088h-70.615
		c-2.456,0-4.465-2.01-4.465-4.465v-2.307c0-2.456,2.009-4.465,4.465-4.465h70.652c2.456,0,4.464,2.009,4.464,4.465v2.307
		C290.236,598.078,288.227,600.088,285.772,600.088z"/>
	<path fill="none" stroke="#161616" stroke-width="2" stroke-miterlimit="10" d="M293.436,611.323h-70.652
		c-2.456,0-4.465-2.009-4.465-4.465v-2.307c0-2.455,2.009-4.464,4.465-4.464h70.652c2.456,0,4.464,2.009,4.464,4.464v2.307
		C297.9,609.314,295.892,611.323,293.436,611.323z"/>
	<g>
		<g>
			<path fill="#161616" d="M265.867,559.46c0,1.525,0,3.088,0,4.613c0,0.521,0.855,0.558,0.855,0c0-1.525,0-3.088,0-4.613
				C266.686,558.901,265.867,558.901,265.867,559.46L265.867,559.46z"/>
		</g>
	</g>
	<g>
		<g>
			<path fill="#161616" d="M268.36,560.278c0,1.413,0,2.79,0,4.204c0,0.521,0.855,0.558,0.855,0c0-1.414,0-2.791,0-4.204
				C269.215,559.757,268.36,559.757,268.36,560.278L268.36,560.278z"/>
		</g>
	</g>
	<g>
		<g>
			<path fill="#161616" d="M276.768,557.971c0,1.972,0,3.906,0,5.878c0,0.521,0.856,0.559,0.856,0c0-1.972,0-3.906,0-5.878
				C277.624,557.45,276.768,557.45,276.768,557.971L276.768,557.971z"/>
		</g>
	</g>
	<g>
		<g>
			<path fill="#161616" d="M278.442,561.319c0,0.782,0,1.525,0,2.308c0,0.521,0.855,0.558,0.855,0c0-0.782,0-1.525,0-2.308
				C279.298,560.799,278.442,560.799,278.442,561.319L278.442,561.319z"/>
		</g>
	</g>
	<g>
		<g>
			<path fill="#161616" d="M220.7,557.822c0,2.158,0,4.316,0,6.511c0,0.521,0.855,0.559,0.855,0c0-2.157,0-4.315,0-6.511
				C221.519,557.264,220.7,557.264,220.7,557.822L220.7,557.822z"/>
		</g>
	</g>
	<g>
		<g>
			<path fill="#161616" d="M217.24,559.46c0,1.265,0,2.566,0,3.832c0,0.521,0.855,0.558,0.855,0c0-1.266,0-2.567,0-3.832
				C218.096,558.938,217.24,558.938,217.24,559.46L217.24,559.46z"/>
		</g>
	</g>
	<g>
		<g>
			<path fill="#161616" d="M231.155,558.083c0,1.749,0,3.497,0,5.209c0,0.521,0.855,0.558,0.855,0c0-1.749,0-3.498,0-5.209
				C231.973,557.524,231.155,557.524,231.155,558.083L231.155,558.083z"/>
		</g>
	</g>
	<g>
		<g>
			<path fill="#161616" d="M227.323,561.134c0,1.153,0,2.307,0,3.46c0,0.521,0.855,0.559,0.855,0c0-1.153,0-2.307,0-3.46
				C228.141,560.576,227.323,560.576,227.323,561.134L227.323,561.134z"/>
		</g>
	</g>
	<g>
		<g>
			<path fill="#161616" d="M246.818,558.194c0,2.27,0,4.502,0,6.771c0,0.521,0.856,0.559,0.856,0c0-2.27,0-4.502,0-6.771
				C247.674,557.674,246.818,557.674,246.818,558.194L246.818,558.194z"/>
		</g>
	</g>
	<g>
		<g>
			<path fill="#161616" d="M249.385,560.761c0,1.153,0,2.307,0,3.46c0,0.521,0.855,0.559,0.855,0c0-1.153,0-2.307,0-3.46
				C250.204,560.204,249.385,560.204,249.385,560.761L249.385,560.761z"/>
		</g>
	</g>
	<g>
		<g>
			<path fill="#161616" d="M253.18,557.674c0,2.27,0,4.502,0,6.771c0,0.521,0.855,0.558,0.855,0c0-2.27,0-4.502,0-6.771
				C254.036,557.152,253.18,557.152,253.18,557.674L253.18,557.674z"/>
		</g>
	</g>
	<g>
		<g>
			<path fill="#161616" d="M228.327,569.021c0,2.679,0,5.357,0,8.036c0,0.521,0.856,0.558,0.856,0c0-2.679,0-5.357,0-8.036
				C229.183,568.5,228.327,568.5,228.327,569.021L228.327,569.021z"/>
		</g>
	</g>
	<g>
		<g>
			<path fill="#161616" d="M232.94,571.7c0,1.897,0,3.832,0,5.729c0,0.521,0.856,0.558,0.856,0c0-1.897,0-3.832,0-5.729
				C233.759,571.178,232.94,571.178,232.94,571.7L232.94,571.7z"/>
		</g>
	</g>
	<g>
		<g>
			<path fill="#161616" d="M247.86,570.175c0,1.897,0,3.832,0,5.729c0,0.521,0.855,0.558,0.855,0c0-1.897,0-3.832,0-5.729
				C248.678,569.653,247.86,569.653,247.86,570.175L247.86,570.175z"/>
		</g>
	</g>
	<g>
		<g>
			<path fill="#161616" d="M257.533,568.128c0,3.089,0,6.214,0,9.302c0,0.521,0.855,0.558,0.855,0c0-3.088,0-6.213,0-9.302
				C258.352,567.607,257.533,567.607,257.533,568.128L257.533,568.128z"/>
		</g>
	</g>
	<g>
		<g>
			<path fill="#161616" d="M266.313,571.848c0,1.005,0,2.047,0,3.051c0,0.521,0.856,0.559,0.856,0c0-1.004,0-2.046,0-3.051
				C267.169,571.291,266.313,571.291,266.313,571.848L266.313,571.848z"/>
		</g>
	</g>
	<g>
		<g>
			<path fill="#161616" d="M210.729,581.15c0,2.455,0,4.911,0,7.403c0,0.521,0.856,0.559,0.856,0c0-2.455,0-4.911,0-7.403
				C211.585,580.592,210.729,580.592,210.729,581.15L210.729,581.15z"/>
		</g>
	</g>
	<g>
		<g>
			<path fill="#161616" d="M230.374,581.41c0,2.567,0,5.098,0,7.665c0,0.521,0.855,0.558,0.855,0c0-2.567,0-5.098,0-7.665
				C231.229,580.852,230.374,580.852,230.374,581.41L230.374,581.41z"/>
		</g>
	</g>
	<g>
		<g>
			<path fill="#161616" d="M222.226,582.043c0,1.712,0,3.386,0,5.097c0,0.521,0.855,0.559,0.855,0c0-1.711,0-3.385,0-5.097
				C223.044,581.485,222.226,581.485,222.226,582.043L222.226,582.043z"/>
		</g>
	</g>
	<g>
		<g>
			<path fill="#161616" d="M225.016,580.369c0,1.413,0,2.79,0,4.204c0,0.521,0.855,0.558,0.855,0c0-1.414,0-2.791,0-4.204
				C225.872,579.847,225.016,579.847,225.016,580.369L225.016,580.369z"/>
		</g>
	</g>
	<g>
		<g>
			<path fill="#161616" d="M252.064,580.517c0,2.604,0,5.172,0,7.775c0,0.521,0.856,0.559,0.856,0c0-2.604,0-5.171,0-7.775
				C252.882,579.96,252.064,579.96,252.064,580.517L252.064,580.517z"/>
		</g>
	</g>
	<g>
		<g>
			<path fill="#161616" d="M245.032,580.369c0,0.632,0,1.265,0,1.897c0,0.521,0.856,0.558,0.856,0c0-0.633,0-1.266,0-1.897
				C245.888,579.847,245.032,579.847,245.032,580.369L245.032,580.369z"/>
		</g>
	</g>
	<g>
		<g>
			<path fill="#161616" d="M268.732,578.099c0,2.455,0,4.911,0,7.403c0,0.521,0.855,0.559,0.855,0c0-2.455,0-4.911,0-7.403
				C269.587,577.541,268.732,577.541,268.732,578.099L268.732,578.099z"/>
		</g>
	</g>
	<g>
		<g>
			<path fill="#161616" d="M272.452,583.42c0,1.488,0,2.976,0,4.464c0,0.521,0.856,0.559,0.856,0c0-1.488,0-2.976,0-4.464
				C273.271,582.898,272.452,582.898,272.452,583.42L272.452,583.42z"/>
		</g>
	</g>
	<g>
		<g>
			<path fill="#161616" d="M259.059,580.369c0,2.157,0,4.315,0,6.511c0,0.521,0.855,0.558,0.855,0c0-2.158,0-4.316,0-6.511
				C259.914,579.847,259.059,579.847,259.059,580.369L259.059,580.369z"/>
		</g>
	</g>
	<g>
		<g>
			<path fill="#161616" d="M217.873,590.079c0,2.753,0,5.507,0,8.297c0,0.521,0.855,0.558,0.855,0c0-2.753,0-5.506,0-8.297
				C218.729,589.521,217.873,589.521,217.873,590.079L217.873,590.079z"/>
		</g>
	</g>
	<g>
		<g>
			<path fill="#161616" d="M224.346,599.864c0-2.753,0-5.507,0-8.297c0-0.521-0.855-0.558-0.855,0c0,2.753,0,5.507,0,8.297
				C223.491,600.422,224.346,600.422,224.346,599.864L224.346,599.864z"/>
		</g>
	</g>
	<g>
		<g>
			<path fill="#161616" d="M227.025,599.64c0-1.078,0-2.12,0-3.199c0-0.521-0.855-0.559-0.855,0c0,1.079,0,2.121,0,3.199
				C226.169,600.162,227.025,600.162,227.025,599.64L227.025,599.64z"/>
		</g>
	</g>
	<g>
		<g>
			<path fill="#161616" d="M232.94,589.447c0,2.901,0,5.767,0,8.668c0,0.521,0.856,0.559,0.856,0c0-2.901,0-5.767,0-8.668
				C233.759,588.888,232.94,588.888,232.94,589.447L232.94,589.447z"/>
		</g>
	</g>
	<g>
		<g>
			<path fill="#161616" d="M235.099,593.502c0,1.377,0,2.716,0,4.093c0,0.521,0.855,0.558,0.855,0c0-1.377,0-2.716,0-4.093
				C235.917,592.981,235.099,592.981,235.099,593.502L235.099,593.502z"/>
		</g>
	</g>
	<g>
		<g>
			<path fill="#161616" d="M238.038,591.976c0,1.488,0,2.977,0,4.465c0,0.521,0.856,0.558,0.856,0c0-1.488,0-2.977,0-4.465
				C238.856,591.456,238.038,591.456,238.038,591.976L238.038,591.976z"/>
		</g>
	</g>
	<g>
		<g>
			<path fill="#161616" d="M247.6,589.447c0,3.013,0,6.026,0,9.04c0,0.521,0.855,0.559,0.855,0c0-3.014,0-6.027,0-9.04
				C248.418,588.888,247.6,588.888,247.6,589.447L247.6,589.447z"/>
		</g>
	</g>
	<g>
		<g>
			<path fill="#161616" d="M257.273,592.758c0,1.675,0,3.312,0,4.985c0,0.521,0.855,0.559,0.855,0c0-1.674,0-3.311,0-4.985
				C258.128,592.2,257.273,592.2,257.273,592.758L257.273,592.758z"/>
		</g>
	</g>
	<g>
		<g>
			<path fill="#161616" d="M270.518,589.186c0,3.199,0,6.362,0,9.562c0,0.521,0.856,0.558,0.856,0c0-3.199,0-6.362,0-9.562
				C271.374,588.628,270.518,588.628,270.518,589.186L270.518,589.186z"/>
		</g>
	</g>
	<g>
		<g>
			<path fill="#161616" d="M274.61,593.874c0,1.525,0,3.051,0,4.576c0,0.521,0.855,0.559,0.855,0c0-1.525,0-3.051,0-4.576
				C275.466,593.353,274.61,593.353,274.61,593.874L274.61,593.874z"/>
		</g>
	</g>
	<g>
		<g>
			<path fill="#161616" d="M281.642,589.67c0,2.381,0,4.763,0,7.144c0,0.521,0.855,0.558,0.855,0c0-2.381,0-4.763,0-7.144
				C282.46,589.149,281.642,589.149,281.642,589.67L281.642,589.67z"/>
		</g>
	</g>
	<g>
		<g>
			<path fill="#161616" d="M228.29,610.988c0-2.753,0-5.506,0-8.297c0-0.521-0.856-0.558-0.856,0c0,2.754,0,5.507,0,8.297
				C227.434,611.51,228.29,611.51,228.29,610.988L228.29,610.988z"/>
		</g>
	</g>
	<g>
		<g>
			<path fill="#161616" d="M231.341,610.84c0-1.414,0-2.791,0-4.204c0-0.521-0.856-0.559-0.856,0c0,1.413,0,2.79,0,4.204
				C230.522,611.397,231.341,611.397,231.341,610.84L231.341,610.84z"/>
		</g>
	</g>
	<g>
		<g>
			<path fill="#161616" d="M239.935,601.166c0,3.2,0,6.362,0,9.563c0,0.521,0.856,0.558,0.856,0c0-3.2,0-6.362,0-9.563
				C240.791,600.608,239.935,600.608,239.935,601.166L239.935,601.166z"/>
		</g>
	</g>
	<g>
		<g>
			<path fill="#161616" d="M247.6,602.691c0,1.973,0,3.907,0,5.879c0,0.521,0.855,0.558,0.855,0c0-1.972,0-3.906,0-5.879
				C248.418,602.134,247.6,602.134,247.6,602.691L247.6,602.691z"/>
		</g>
	</g>
	<g>
		<g>
			<path fill="#161616" d="M244.92,603.844c0,0.781,0,1.525,0,2.307c0,0.521,0.856,0.559,0.856,0c0-0.781,0-1.525,0-2.307
				C245.739,603.287,244.92,603.287,244.92,603.844L244.92,603.844z"/>
		</g>
	</g>
	<g>
		<g>
			<path fill="#161616" d="M261.477,600.273c0,3.312,0,6.622,0,9.934c0,0.521,0.855,0.559,0.855,0c0-3.312,0-6.622,0-9.934
				C262.333,599.716,261.477,599.716,261.477,600.273L261.477,600.273z"/>
		</g>
	</g>
	<g>
		<g>
			<path fill="#161616" d="M264.676,604.589c0,1.488,0,2.977,0,4.465c0,0.521,0.856,0.559,0.856,0c0-1.488,0-2.977,0-4.465
				C265.495,604.068,264.676,604.068,264.676,604.589L264.676,604.589z"/>
		</g>
	</g>
	<g>
		<g>
			<path fill="#161616" d="M272.824,600.757c0,3.088,0,6.214,0,9.302c0,0.521,0.856,0.558,0.856,0c0-3.088,0-6.214,0-9.302
				C273.68,600.236,272.824,600.236,272.824,600.757L272.824,600.757z"/>
		</g>
	</g>
	<g>
		<g>
			<path fill="#161616" d="M287.632,601.538c0,2.679,0,5.357,0,8.036c0,0.521,0.856,0.559,0.856,0c0-2.679,0-5.357,0-8.036
				C288.451,601.017,287.632,601.017,287.632,601.538L287.632,601.538z"/>
		</g>
	</g>
	<g>
		<g>
			<path fill="#161616" d="M289.901,604.998c0,1.266,0,2.567,0,3.833c0,0.521,0.856,0.558,0.856,0c0-1.266,0-2.567,0-3.833
				C290.757,604.44,289.901,604.44,289.901,604.998L289.901,604.998z"/>
		</g>
	</g>
	<g>
		<g>
			<path fill="#161616" d="M280.377,576.834c0-1.972,0-3.98,0-5.952c0-0.521-0.855-0.559-0.855,0c0,1.972,0,3.98,0,5.952
				C279.559,577.355,280.377,577.392,280.377,576.834L280.377,576.834z"/>
		</g>
	</g>
	<g>
		<g>
			<path fill="#161616" d="M285.511,568.463c0,2.679,0,5.32,0,7.999c0,0.521,0.856,0.559,0.856,0c0-2.679,0-5.32,0-7.999
				C286.33,567.942,285.511,567.905,285.511,568.463L285.511,568.463z"/>
		</g>
	</g>
	<g>
		<g>
			<path fill="#161616" d="M289.38,552.539c2.046,1.19,3.163,3.423,2.977,5.768c-0.037,0.521,0.781,0.521,0.856,0
				c0.223-2.642-1.079-5.135-3.386-6.475C289.343,551.535,288.897,552.242,289.38,552.539L289.38,552.539z"/>
		</g>
	</g>
	<g>
		<g>
			<path fill="#161616" d="M204.181,580.182c-1.004,1.637-1.19,3.572-0.521,5.357c0.186,0.484,1.004,0.298,0.819-0.223
				c-0.596-1.601-0.447-3.237,0.446-4.726C205.186,580.145,204.479,579.699,204.181,580.182L204.181,580.182z"/>
		</g>
	</g>
	<g>
		<g>
			<path fill="#161616" d="M199.977,575.978c-2.158,2.716-3.237,5.953-3.163,9.413c0,0.521,0.856,0.558,0.856,0
				c-0.075-3.237,0.93-6.288,2.939-8.854C200.907,576.165,200.312,575.569,199.977,575.978L199.977,575.978z"/>
		</g>
	</g>
	<g>
		<g>
			<path fill="#161616" d="M289.009,587.846c1.488,0.781,2.418,2.27,2.418,3.981c0,0.521,0.856,0.558,0.856,0
				c0-1.972-1.079-3.795-2.828-4.688C288.971,586.88,288.525,587.587,289.009,587.846L289.009,587.846z"/>
		</g>
	</g>
	<path opacity="0.15" fill="#3D3D3D" enable-background="new    " d="M250.427,555.515c2.27-0.298,7.59-0.67,12.65,2.381
		c1.451,0.856,2.567,1.823,3.497,2.754c-0.111,1.711-0.26,3.423-0.372,5.134c-5.469,0.224-10.901,0.446-16.37,0.633
		c0.744,0.037,6.697,0.372,9.934,5.209c1.414,2.12,1.749,4.241,1.823,5.506c-0.186,1.34-0.781,4.204-2.939,6.957
		c-2.604,3.312-5.878,4.539-7.144,4.948c0.595,0.298,3.423,1.897,4.39,5.32c0.558,2.01,0.223,3.758,0,4.577
		c-3.609,3.906-7.218,7.813-10.827,11.756c16.556,0.187,33.15,0.372,49.706,0.559c0.632-0.335,1.823-1.116,2.567-2.567
		c1.228-2.381,0.633-5.246-0.744-6.957c-2.604-3.312-8.52-2.158-9.19-2.009c0.186-0.112,3.2-2.382,2.939-6.064
		c-0.186-2.642-2.009-4.242-2.381-4.576c-2.642-0.187-5.246-0.372-7.887-0.559c0.26-0.261,2.232-2.418,1.823-5.506
		c-0.335-2.382-1.935-4.391-4.204-5.32c3.535-0.038,6.585-0.112,9.003-0.187c7.032-0.186,8.632-0.298,9.897-1.637
		c1.711-1.86,2.269-5.47,0.558-7.702c-0.93-1.19-2.195-1.637-2.939-1.822c-2.753-0.112-5.506-0.261-8.26-0.372
		c0.41,0,2.381,0.037,3.87-1.451c1.451-1.488,1.339-3.46,1.302-4.391c-0.037-0.595-0.261-3.051-2.009-4.576
		c-1.823-1.6-4.167-1.153-8.445-0.93c-3.349,0.186-6.734-0.149-10.083,0C263.598,554.921,256.529,555.256,250.427,555.515z"/>
</g>
<g id="ground" display="none">
	<g display="inline">
		<g>
			<path fill="#E8E8E8" d="M302.031,601.427c25.634,0,51.305,0,76.939,0c7.292,0,14.621,0,21.914,0c0.707,0,0.707-1.116,0-1.116
				c-25.635,0-51.307,0-76.94,0c-7.292,0-14.621,0-21.913,0C301.324,600.31,301.324,601.427,302.031,601.427L302.031,601.427z"/>
		</g>
	</g>
	<g display="inline">
		<g>
			<path fill="#E8E8E8" d="M411.264,602.356c17.188-1.339,34.341-1.711,51.566-0.26c0.706,0.074,0.706-1.042,0-1.116
				c-17.226-1.451-34.341-1.079-51.566,0.261C410.557,601.278,410.557,602.394,411.264,602.356L411.264,602.356z"/>
		</g>
	</g>
	<g display="inline">
		<g>
			<path fill="#E8E8E8" d="M457.845,608.235c9.264,0.818,18.453-1.488,27.68-2.084c9.488-0.595,19.012,0,28.389,1.675
				c0.706,0.111,1.004-0.968,0.297-1.079c-9.227-1.637-18.603-2.27-27.979-1.749c-9.449,0.521-18.9,2.977-28.387,2.121
				C457.138,607.045,457.138,608.161,457.845,608.235L457.845,608.235z"/>
		</g>
	</g>
	<g display="inline">
		<g>
			<path fill="#E8E8E8" d="M463.649,600.719c-3.869-2.977-7.478-6.324-10.678-10.008c-0.707-0.818-1.376-1.638-2.046-2.456
				c-0.484-0.595-1.005-1.228-1.34-1.897c-0.446-0.893-0.26-1.525-0.26-2.529c0-1.749-1.006-1.675-2.158-2.865
				c-1.749-1.823-2.01-4.465-2.53-6.809c-0.483-2.195-1.376-4.13-2.382-6.102c-2.344-4.725-3.422-10.119-4.836-15.18
				c-0.111,0.224-0.261,0.446-0.372,0.67c4.911-0.67,10.231,3.014,14.138,5.692c2.01,1.377,3.906,2.865,5.729,4.465
				c1.823,1.637,4.614,3.943,3.609,6.696c-0.149,0.372,0.224,0.707,0.521,0.707c3.051,0.112,5.357,3.163,6.994,5.433
				c1.601,2.157,2.902,4.538,3.87,7.031c1.935,5.022,2.53,10.492,1.674,15.813c-0.111,0.707,0.968,1.004,1.079,0.297
				c0.967-5.952,0.223-12.054-2.195-17.635c-1.19-2.716-2.753-5.283-4.65-7.59c-1.748-2.121-3.869-4.391-6.809-4.502
				c0.186,0.224,0.372,0.483,0.521,0.707c0.855-2.307-0.484-4.428-2.047-6.064c-2.01-2.12-4.354-3.943-6.734-5.618
				c-4.391-3.125-10.38-7.329-16.072-6.511c-0.298,0.037-0.446,0.409-0.372,0.67c1.451,5.172,2.53,10.604,4.948,15.44
				c1.229,2.492,2.047,4.836,2.642,7.552c0.409,2.01,1.005,4.093,2.493,5.618c0.632,0.67,1.748,1.042,1.859,2.01
				c0.074,0.893-0.223,1.525,0.112,2.492c0.706,1.972,2.53,3.758,3.869,5.283c3.274,3.758,6.958,7.144,10.901,10.194
				C463.649,602.096,464.207,601.129,463.649,600.719L463.649,600.719z"/>
		</g>
	</g>
	<g display="inline">
		<g>
			<path fill="#E8E8E8" d="M470.011,576.202c1.302-4.8,5.172-8.967,8.223-12.762c0.818-1.005,1.6-1.972,2.418-2.939
				c0.67-0.818,1.525-2.344,2.679-2.529c0.483-0.075,0.706,0.223,1.228-0.112c0.559-0.335,0.781-1.004,1.079-1.525
				c2.232-4.055,5.804-6.994,9.562-9.636c2.939-2.083,5.842-4.167,7.292-7.59c-0.372-0.111-0.706-0.187-1.079-0.298
				c-1.525,5.655-1.525,11.273-0.558,17.04c1.005,5.99,1.228,11.794-0.409,17.747c-3.125,11.348-11.72,18.975-20.463,26.192
				c-0.559,0.446,0.223,1.228,0.781,0.781c8.557-7.069,17.003-14.548,20.389-25.485c1.6-5.209,2.046-10.716,1.302-16.11
				c-0.446-3.199-1.153-6.324-1.265-9.599c-0.111-3.497,0.334-6.957,1.265-10.306c0.187-0.707-0.818-0.931-1.079-0.298
				c-1.711,4.093-5.916,6.176-9.264,8.743c-1.711,1.303-3.312,2.753-4.762,4.354c-0.633,0.706-1.229,1.487-1.749,2.27
				c-0.409,0.632-1.042,2.344-1.712,2.566c-0.446,0.149-0.93-0.111-1.451,0.112c-0.744,0.297-1.228,1.19-1.711,1.748
				c-1.637,1.972-3.273,3.906-4.837,5.916c-2.716,3.423-5.804,7.068-6.994,11.348C468.746,576.611,469.826,576.909,470.011,576.202
				L470.011,576.202z"/>
		</g>
	</g>
	<g display="inline">
		<g>
			<path fill="#E8E8E8" d="M441.661,559.273c3.349,2.381,5.878,5.581,8.371,8.817c2.642,3.349,5.246,6.734,7.702,10.231
				c4.725,6.697,8.854,13.878,11.049,21.84c0.187,0.707,1.266,0.409,1.08-0.298c-2.27-8.26-6.586-15.7-11.534-22.621
				c-2.419-3.386-4.948-6.659-7.516-9.934c-2.567-3.312-5.171-6.548-8.632-8.966C441.624,557.896,441.066,558.864,441.661,559.273
				L441.661,559.273z"/>
		</g>
	</g>
	<g display="inline">
		<g>
			<path fill="#E8E8E8" d="M497.468,548.447c-5.916,15.552-19.57,27.159-23.477,43.604c-0.148,0.707,0.893,1.005,1.079,0.298
				c3.869-16.444,17.562-28.053,23.477-43.604C498.808,548.075,497.728,547.777,497.468,548.447L497.468,548.447z"/>
		</g>
	</g>
	<g display="inline">
		<g>
			<path fill="#E8E8E8" d="M488.316,551.089c0.559,5.171,0.223,10.306-1.004,15.328c-0.187,0.707,0.893,1.005,1.078,0.298
				c1.229-5.135,1.6-10.381,1.042-15.626C489.357,550.382,488.242,550.382,488.316,551.089L488.316,551.089z"/>
		</g>
	</g>
	<g display="inline">
		<g>
			<path fill="#E8E8E8" d="M491.702,561.617c3.497-2.195,6.809-4.65,9.934-7.366c0.558-0.483-0.261-1.265-0.781-0.781
				c-3.051,2.642-6.288,5.06-9.71,7.181C490.511,561.059,491.069,562.026,491.702,561.617L491.702,561.617z"/>
		</g>
	</g>
	<g display="inline">
		<g>
			<path fill="#E8E8E8" d="M442.07,569.058c2.567-0.074,6.176-0.818,8.52,0.409c0.633,0.335,1.191-0.633,0.559-0.968
				c-2.642-1.413-6.213-0.669-9.078-0.558C441.326,567.979,441.326,569.095,442.07,569.058L442.07,569.058z"/>
		</g>
	</g>
	<g display="inline">
		<g>
			<path fill="#E8E8E8" d="M456.133,563.403c-0.446,3.608-0.372,7.144,0.149,10.752c0.111,0.707,1.189,0.409,1.078-0.298
				c-0.521-3.497-0.521-6.957-0.111-10.454C457.361,562.696,456.246,562.696,456.133,563.403L456.133,563.403z"/>
		</g>
	</g>
	<g display="inline">
		<g>
			<path fill="#E8E8E8" d="M433.252,614.076c6.027,0.335,11.979-1.004,18.007-0.893c5.768,0.111,11.385,1.637,17.152,0.707
				c0.707-0.111,0.408-1.19-0.299-1.079c-5.878,0.968-11.682-0.744-17.561-0.744c-5.766,0-11.496,1.228-17.3,0.893
				C432.545,612.885,432.545,614.002,433.252,614.076L433.252,614.076z"/>
		</g>
	</g>
	<g display="inline">
		<g>
			<path fill="#E8E8E8" d="M502.974,600.088c4.316-0.596,8.67-0.782,13.022-0.596c4.278,0.186,8.52,0.707,12.835,0.335
				c4.205-0.335,8.371-1.005,12.613-0.968c4.278,0.037,8.52,0.521,12.762,1.079c0.706,0.074,0.706-1.042,0-1.116
				c-4.242-0.521-8.483-1.042-12.762-1.079c-4.465-0.037-8.855,0.707-13.32,1.005c-4.277,0.298-8.52-0.261-12.798-0.409
				c-4.241-0.148-8.445,0.111-12.612,0.67C501.97,599.12,502.267,600.199,502.974,600.088L502.974,600.088z"/>
		</g>
	</g>
	<g display="inline">
		<g>
			<path fill="#E8E8E8" d="M116.936,607.23c11.533,1.601,22.956-0.967,34.452-1.748c6.102-0.409,12.092,0.037,18.193,0.595
				c6.102,0.559,12.203,0.818,18.342,0.856c6.995,0.037,14.026-0.149,21.021-0.372c0.707-0.038,0.707-1.153,0-1.116
				c-7.85,0.223-15.738,0.446-23.588,0.335c-7.702-0.112-15.292-0.968-22.956-1.451c-15.105-1.005-30.099,3.906-45.167,1.822
				C116.526,606.077,116.229,607.119,116.936,607.23L116.936,607.23z"/>
		</g>
	</g>
	<g display="inline">
		<g>
			<path fill="#E8E8E8" d="M182.082,613.518c4.353,0,8.668-1.042,12.984-1.377c4.39-0.335,8.78-0.409,13.17-0.223
				c0.707,0.037,0.707-1.079,0-1.116c-4.39-0.187-8.78-0.149-13.17,0.223c-4.316,0.335-8.669,1.377-12.984,1.377
				C181.375,612.402,181.375,613.518,182.082,613.518L182.082,613.518z"/>
		</g>
	</g>
</g>
<g id="buildings" display="none">
	<g display="inline">
		<g>
			<path fill="#E8E8E8" d="M158.456,372.579c0,29.02,0,58.039,0,87.022c0,28.982,0,58.039,0,87.022c0,16.37,0,32.74,0,49.11
				c0,0.707,1.116,0.707,1.116,0c0-29.02,0-58.04,0-87.022s0-58.04,0-87.022c0-16.37,0-32.74,0-49.11
				C159.572,371.872,158.456,371.872,158.456,372.579L158.456,372.579z"/>
		</g>
	</g>
	<g display="inline">
		<g>
			<path fill="#E8E8E8" d="M252.138,358.962c0,24.89,0,49.78,0,74.67c0,24.891,0,49.78,0,74.671c0,14.101,0,28.238,0,42.339
				c0,0.707,1.116,0.707,1.116,0c0-24.89,0-49.78,0-74.67c0-24.891,0-49.78,0-74.671c0-14.101,0-28.238,0-42.339
				C253.254,358.255,252.138,358.255,252.138,358.962L252.138,358.962z"/>
		</g>
	</g>
	<g display="inline">
		<g>
			<path fill="#E8E8E8" d="M254.371,465.257c21.095,8.78,42.228,17.486,63.435,26.043c0.67,0.261,0.968-0.818,0.298-1.079
				c-21.207-8.557-42.339-17.263-63.435-26.043C253.999,463.917,253.738,464.996,254.371,465.257L254.371,465.257z"/>
		</g>
	</g>
	<g display="inline">
		<g>
			<path fill="#E8E8E8" d="M313.453,490.555c0,27.979,0,55.994,0,83.972c0,7.925,0,15.85,0,23.774c0,0.707,1.115,0.707,1.115,0
				c0-27.979,0-55.994,0-83.972c0-7.925,0-15.85,0-23.774C314.568,489.848,313.453,489.848,313.453,490.555L313.453,490.555z"/>
		</g>
	</g>
	<g display="inline">
		<g>
			<path fill="#E8E8E8" d="M415.096,597.892c0-23.439,0-46.842,0-70.28c0-0.707-1.116-0.707-1.116,0c0,23.438,0,46.841,0,70.28
				C413.98,598.599,415.096,598.599,415.096,597.892L415.096,597.892z"/>
		</g>
	</g>
	<g display="inline">
		<g>
			<path fill="#E8E8E8" d="M404.716,530.141c22.732-9.784,45.539-19.606,67.154-31.735c6.177-3.46,12.278-7.144,18.23-11.05
				c0.596-0.409,0.037-1.377-0.558-0.968c-20.761,13.58-43.157,24.295-65.778,34.266c-6.511,2.865-13.059,5.692-19.57,8.483
				C403.488,529.472,404.083,530.402,404.716,530.141L404.716,530.141z"/>
		</g>
	</g>
	<g display="inline">
		<g>
			<path fill="#E8E8E8" d="M433.402,515.706c0-30.062,0-60.16,0-90.222c0-8.558,0-17.077,0-25.635c0-0.706-1.117-0.706-1.117,0
				c0,30.063,0,60.161,0,90.223c0,8.557,0,17.077,0,25.634C432.285,516.413,433.402,516.413,433.402,515.706L433.402,515.706z"/>
		</g>
	</g>
	<g display="inline">
		<g>
			<path fill="#E8E8E8" d="M426.89,402.119c27.718,0,55.436,0,83.153,0c7.925,0,15.85,0,23.737,0c0.707,0,0.707-1.116,0-1.116
				c-27.719,0-55.436,0-83.153,0c-7.925,0-15.85,0-23.737,0C426.146,401.003,426.146,402.119,426.89,402.119L426.89,402.119z"/>
		</g>
	</g>
	<g display="inline">
		<g>
			<path fill="#E8E8E8" d="M523.437,405.802c0,48.553,0,97.105,0,145.658c0,13.616,0,27.233,0,40.888c0,0.707,1.117,0.707,1.117,0
				c0-48.553,0-97.104,0-145.657c0-13.617,0-27.234,0-40.889C524.554,405.095,523.437,405.095,523.437,405.802L523.437,405.802z"/>
		</g>
	</g>
	<g display="inline">
		<g>
			<path fill="#E8E8E8" d="M153.694,373.806c26.006-8.371,53.761-10.194,80.735-13.282c7.888-0.893,15.775-1.786,23.663-2.716
				c0.707-0.074,0.707-1.19,0-1.116c-14.063,1.6-28.165,3.236-42.228,4.837c-13.356,1.525-26.788,2.976-39.995,5.543
				c-7.59,1.451-15.105,3.312-22.472,5.655C152.727,372.951,153.024,374.029,153.694,373.806L153.694,373.806z"/>
		</g>
	</g>
	<g display="inline">
		<g>
			<path fill="#E8E8E8" d="M166.455,400.891c0-6.213,0-12.427,0-18.603c0-0.707-1.116-0.707-1.116,0c0,6.214,0,12.427,0,18.603
				C165.339,401.598,166.455,401.598,166.455,400.891L166.455,400.891z"/>
		</g>
	</g>
	<g display="inline">
		<g>
			<path fill="#E8E8E8" d="M165.563,382.215c3.646,0,7.292,0,10.938,0c0.707,0,0.707-1.116,0-1.116c-3.646,0-7.292,0-10.938,0
				C164.855,381.098,164.855,382.215,165.563,382.215L165.563,382.215z"/>
		</g>
	</g>
	<g display="inline">
		<g>
			<path fill="#E8E8E8" d="M175.979,381.954c0,6.474,0,12.947,0,19.384c0,0.707,1.116,0.707,1.116,0c0-6.474,0-12.947,0-19.384
				C177.096,381.247,175.979,381.247,175.979,381.954L175.979,381.954z"/>
		</g>
	</g>
	<g display="inline">
		<g>
			<path fill="#E8E8E8" d="M166.046,402.082c3.237,0,6.474,0,9.71,0c0.707,0,0.707-1.116,0-1.116c-3.237,0-6.474,0-9.71,0
				C165.339,400.966,165.302,402.082,166.046,402.082L166.046,402.082z"/>
		</g>
	</g>
	<g display="inline">
		<g>
			<path fill="#E8E8E8" d="M197.856,400.743c0-6.214,0-12.427,0-18.603c0-0.707-1.116-0.707-1.116,0c0,6.213,0,12.427,0,18.603
				C196.74,401.45,197.856,401.45,197.856,400.743L197.856,400.743z"/>
		</g>
	</g>
	<g display="inline">
		<g>
			<path fill="#E8E8E8" d="M197,382.029c3.646,0,7.292,0,10.938,0c0.707,0,0.707-1.116,0-1.116c-3.646,0-7.292,0-10.938,0
				C196.256,380.913,196.256,382.029,197,382.029L197,382.029z"/>
		</g>
	</g>
	<g display="inline">
		<g>
			<path fill="#E8E8E8" d="M207.381,381.805c0,6.474,0,12.947,0,19.384c0,0.707,1.116,0.707,1.116,0c0-6.474,0-12.947,0-19.384
				C208.497,381.098,207.381,381.098,207.381,381.805L207.381,381.805z"/>
		</g>
	</g>
	<g display="inline">
		<g>
			<path fill="#E8E8E8" d="M197.447,401.896c3.237,0,6.474,0,9.711,0c0.707,0,0.707-1.116,0-1.116c-3.237,0-6.474,0-9.711,0
				C196.74,400.78,196.74,401.896,197.447,401.896L197.447,401.896z"/>
		</g>
	</g>
	<g display="inline">
		<g>
			<path fill="#E8E8E8" d="M230.113,400.036c0-6.213,0-12.427,0-18.603c0-0.707-1.116-0.707-1.116,0c0,6.213,0,12.427,0,18.603
				C228.997,400.743,230.113,400.743,230.113,400.036L230.113,400.036z"/>
		</g>
	</g>
	<g display="inline">
		<g>
			<path fill="#E8E8E8" d="M229.22,381.322c3.646,0,7.292,0,10.938,0c0.707,0,0.707-1.116,0-1.116c-3.646,0-7.292,0-10.938,0
				C228.513,380.206,228.513,381.322,229.22,381.322L229.22,381.322z"/>
		</g>
	</g>
	<g display="inline">
		<g>
			<path fill="#E8E8E8" d="M239.638,381.098c0,6.474,0,12.947,0,19.384c0,0.707,1.116,0.707,1.116,0c0-6.474,0-12.947,0-19.384
				C240.753,380.354,239.638,380.354,239.638,381.098L239.638,381.098z"/>
		</g>
	</g>
	<g display="inline">
		<g>
			<path fill="#E8E8E8" d="M229.704,401.189c3.237,0,6.474,0,9.71,0c0.707,0,0.707-1.116,0-1.116c-3.237,0-6.474,0-9.71,0
				C228.997,400.073,228.997,401.189,229.704,401.189L229.704,401.189z"/>
		</g>
	</g>
	<g display="inline">
		<g>
			<path fill="#E8E8E8" d="M155.07,453.202c0,24.518,0,48.999,0,73.517c0,0.707,1.116,0.707,1.116,0c0-24.518,0-48.999,0-73.517
				C156.187,452.458,155.07,452.458,155.07,453.202L155.07,453.202z"/>
		</g>
	</g>
	<g display="inline">
		<g>
			<path fill="#E8E8E8" d="M162.884,531.407c0,11.385,0,22.732,0,34.117c0,0.706,1.116,0.706,1.116,0c0-11.385,0-22.732,0-34.117
				C164,530.7,162.884,530.7,162.884,531.407L162.884,531.407z"/>
		</g>
	</g>
	<g display="inline">
		<g>
			<path fill="#E8E8E8" d="M150.16,370.606c11.98-4.167,24.146-7.59,36.535-10.23c0.707-0.149,0.409-1.229-0.298-1.079
				c-12.389,2.642-24.592,6.064-36.535,10.231C149.192,369.751,149.49,370.83,150.16,370.606L150.16,370.606z"/>
		</g>
	</g>
	<g display="inline">
		<g>
			<path fill="#E8E8E8" d="M255.264,470.577c12.575,4.725,24.816,10.343,37.019,15.961c0.632,0.297,1.228-0.67,0.558-0.968
				c-12.315-5.655-24.63-11.311-37.28-16.072C254.892,469.237,254.594,470.316,255.264,470.577L255.264,470.577z"/>
		</g>
	</g>
	<g display="inline">
		<g>
			<path fill="#E8E8E8" d="M262.556,509.902c0-6.213,0-12.427,0-18.603c0-0.707-1.116-0.707-1.116,0c0,6.213,0,12.427,0,18.603
				C261.439,510.646,262.556,510.646,262.556,509.902L262.556,509.902z"/>
		</g>
	</g>
	<g display="inline">
		<g>
			<path fill="#E8E8E8" d="M261.7,491.225c3.646,0,7.292,0,10.938,0c0.707,0,0.707-1.116,0-1.116c-3.646,0-7.292,0-10.938,0
				C260.956,490.109,260.956,491.225,261.7,491.225L261.7,491.225z"/>
		</g>
	</g>
	<g display="inline">
		<g>
			<path fill="#E8E8E8" d="M272.08,491.002c0,6.474,0,12.947,0,19.384c0,0.707,1.116,0.707,1.116,0c0-6.474,0-12.947,0-19.384
				C273.196,490.258,272.08,490.258,272.08,491.002L272.08,491.002z"/>
		</g>
	</g>
	<g display="inline">
		<g>
			<path fill="#E8E8E8" d="M262.146,511.093c3.237,0,6.474,0,9.71,0c0.707,0,0.707-1.116,0-1.116c-3.237,0-6.474,0-9.71,0
				C261.439,509.976,261.439,511.093,262.146,511.093L262.146,511.093z"/>
		</g>
	</g>
	<g display="inline">
		<g>
			<path fill="#E8E8E8" d="M420.044,528.84c24.295-9.115,47.586-20.724,69.499-34.601c0.595-0.372,0.037-1.34-0.558-0.968
				c-21.84,13.841-45.056,25.411-69.238,34.489C419.078,528.021,419.375,529.1,420.044,528.84L420.044,528.84z"/>
		</g>
	</g>
	<g display="inline">
		<g>
			<path fill="#E8E8E8" d="M526.861,408.444c0.037,28.797,0.074,57.557,0.074,86.353c0,0.707,1.115,0.707,1.115,0
				c-0.037-28.796-0.074-57.556-0.074-86.353C527.976,407.737,526.861,407.737,526.861,408.444L526.861,408.444z"/>
		</g>
	</g>
	<g display="inline">
		<g>
			<path fill="#E8E8E8" d="M446.274,398.362c29.317,0,58.599,0,87.915,0c0.707,0,0.707-1.116,0-1.116c-29.316,0-58.598,0-87.915,0
				C445.568,397.246,445.568,398.362,446.274,398.362L446.274,398.362z"/>
		</g>
	</g>
	<g display="inline">
		<g>
			<path fill="#E8E8E8" d="M444.191,435.344c0-6.213,0-12.427,0-18.603c0-0.707-1.116-0.707-1.116,0c0,6.213,0,12.427,0,18.603
				C443.075,436.088,444.191,436.088,444.191,435.344L444.191,435.344z"/>
		</g>
	</g>
	<g display="inline">
		<g>
			<path fill="#E8E8E8" d="M443.335,416.667c3.646,0,7.291,0,10.938,0c0.707,0,0.707-1.116,0-1.116c-3.646,0-7.292,0-10.938,0
				C442.628,415.551,442.628,416.667,443.335,416.667L443.335,416.667z"/>
		</g>
	</g>
	<g display="inline">
		<g>
			<path fill="#E8E8E8" d="M453.715,416.443c0,6.474,0,12.947,0,19.384c0,0.707,1.116,0.707,1.116,0c0-6.474,0-12.947,0-19.384
				C454.832,415.699,453.715,415.699,453.715,416.443L453.715,416.443z"/>
		</g>
	</g>
	<g display="inline">
		<g>
			<path fill="#E8E8E8" d="M443.819,436.534c3.237,0,6.474,0,9.71,0c0.707,0,0.707-1.116,0-1.116c-3.236,0-6.473,0-9.71,0
				C443.075,435.418,443.075,436.534,443.819,436.534L443.819,436.534z"/>
		</g>
	</g>
	<g display="inline">
		<g>
			<path fill="#E8E8E8" d="M495.869,435.344c0-6.213,0-12.427,0-18.603c0-0.707-1.116-0.707-1.116,0c0,6.213,0,12.427,0,18.603
				C494.752,436.088,495.869,436.088,495.869,435.344L495.869,435.344z"/>
		</g>
	</g>
	<g display="inline">
		<g>
			<path fill="#E8E8E8" d="M494.976,416.667c3.646,0,7.291,0,10.938,0c0.707,0,0.707-1.116,0-1.116c-3.646,0-7.292,0-10.938,0
				C494.269,415.551,494.269,416.667,494.976,416.667L494.976,416.667z"/>
		</g>
	</g>
	<g display="inline">
		<g>
			<path fill="#E8E8E8" d="M505.393,416.443c0,6.474,0,12.947,0,19.384c0,0.707,1.116,0.707,1.116,0c0-6.474,0-12.947,0-19.384
				C506.509,415.699,505.393,415.699,505.393,416.443L505.393,416.443z"/>
		</g>
	</g>
	<g display="inline">
		<g>
			<path fill="#E8E8E8" d="M495.458,436.534c3.237,0,6.475,0,9.711,0c0.707,0,0.707-1.116,0-1.116c-3.236,0-6.474,0-9.711,0
				C494.752,435.418,494.752,436.534,495.458,436.534L495.458,436.534z"/>
		</g>
	</g>
	
		<ellipse display="inline" fill="none" stroke="#E8E8E8" stroke-width="3" stroke-miterlimit="10" cx="473.173" cy="267.363" rx="22.286" ry="22.658"/>
	<g display="inline">
		<g>
			<path fill="#E8E8E8" d="M447.464,354.906c6.176-4.204,13.691-1.563,20.091,0.596c3.014,1.004,6.064,1.935,9.228,2.232
				c3.422,0.334,6.846-0.038,10.193-0.707c13.283-2.754,27.644-12.129,41.298-5.767c0.633,0.297,1.228-0.67,0.558-0.968
				c-10.045-4.688-21.095-1.005-30.917,2.344c-5.729,1.972-11.646,3.944-17.784,4.093c-6.287,0.148-11.793-2.418-17.709-4.056
				c-5.135-1.451-10.938-1.86-15.552,1.266C446.312,354.348,446.87,355.315,447.464,354.906L447.464,354.906z"/>
		</g>
	</g>
	<g display="inline">
		<g>
			<path fill="#E8E8E8" d="M169.32,334.63c10.752,3.088,21.319-1.972,31.401-5.135c5.506-1.711,11.31-3.088,17.114-2.344
				c5.916,0.781,11.31,3.609,16.742,5.953c5.506,2.381,11.236,4.353,17.337,3.386c0.707-0.112,0.409-1.19-0.297-1.079
				c-11.646,1.86-21.393-7.255-32.406-9.189c-10.752-1.897-20.983,3.236-31.029,6.213c-6.064,1.786-12.352,2.865-18.565,1.079
				C168.911,333.327,168.613,334.406,169.32,334.63L169.32,334.63z"/>
		</g>
	</g>
	<g display="inline">
		<g>
			<path fill="#E8E8E8" d="M265.606,350.776c3.981-0.111,7.479-1.897,11.013-3.497c2.158-0.968,4.39-1.897,6.771-2.083
				c2.642-0.224,4.948,0.706,7.218,1.972c4.167,2.307,8.036,4.427,12.836,5.171c4.538,0.744,9.152,0.409,13.579-0.93
				c0.67-0.224,0.409-1.303-0.298-1.079c-4.91,1.488-10.119,1.674-15.143,0.483c-2.381-0.558-4.688-1.45-6.845-2.604
				c-2.046-1.115-3.981-2.455-6.139-3.311c-8.296-3.312-14.956,4.502-22.993,4.725C264.9,349.697,264.9,350.813,265.606,350.776
				L265.606,350.776z"/>
		</g>
	</g>
	<g display="inline">
		<g>
			<path fill="#E8E8E8" d="M379.789,316.101c10.715,4.985,22.732,4.763,34.117,2.567c12.873-2.493,25.002-8.186,38.321-7.962
				c7.515,0.148,14.956,1.785,21.876,4.762c0.67,0.298,1.229-0.669,0.559-0.967c-11.162-4.837-23.588-6.139-35.494-3.646
				c-6.51,1.377-12.798,3.646-19.234,5.32c-6.102,1.563-12.352,2.679-18.64,2.902c-7.181,0.223-14.361-0.855-20.909-3.906
				C379.714,314.837,379.156,315.803,379.789,316.101L379.789,316.101z"/>
		</g>
	</g>
</g>
<g id="leg_r">
	<path fill="#161616" stroke="#161616" stroke-width="3" stroke-miterlimit="10" d="M251.432,520.617
		c1.153,6.064,2.27,12.166,3.423,18.23c-19.198,6.958-28.537,11.757-27.941,14.436c0.707,3.237,15.775,3.349,45.241,0.372
		c-1.265-12.649-2.53-25.299-3.795-37.986C262.705,517.344,257.049,518.98,251.432,520.617z"/>
	<path fill="#FFFFFF" stroke="#161616" stroke-width="3" stroke-miterlimit="10" d="M341.282,444.607
		c-8.036,3.312-11.422,2.493-21.579,5.283c-18.714,5.135-32.257,14.733-40.702,21.988c0.409,13.84,0.818,27.681,1.228,41.521
		c-0.855,1.005-10.231,11.646-24.443,10.194c-9.785-1.005-15.887-7.181-17.524-8.966c-0.26-12.762-0.037-26.379,0.819-40.703
		c0.521-8.296,1.19-16.333,2.046-24.034c1.265-1.786,3.2-4.353,5.692-7.329c19.57-23.29,43.009-33.634,55.771-39.065
		c12.724-5.432,20.687-8.817,32.554-9.785c3.163-0.26,34.787-2.492,39.885,10.194C379.751,415.476,361.112,436.46,341.282,444.607z"
		/>
	<path opacity="0.16" fill="#3D3D3D" enable-background="new    " d="M372.98,399.999c-7.068-4.874-22.658,15.887-53.687,35.456
		c-29.838,18.789-45.464,18.491-54.468,36.759c-2.753,5.544-5.618,14.324-7.367,23.253c-2.158,11.236-2.158,20.835-1.674,27.644
		c2.418-0.111,5.283-0.446,8.371-1.265c7.478-1.973,12.798-5.73,15.924-8.371c-0.41-14.102-0.856-28.202-1.265-42.266
		c5.208-4.241,13.505-10.306,24.705-15.477c20.945-9.711,28.797-5.544,46.059-15.478c3.981-2.27,26.49-15.254,25.97-32.22
		C375.398,405.319,375.361,401.635,372.98,399.999z"/>
	<path opacity="0.25" fill="#3D3D3D" enable-background="new    " d="M375.882,406.695c-1.563-1.265-7.627,7.218-22.174,17.599
		c-18.082,12.873-26.788,12.724-46.693,24.704c-7.18,4.315-17.56,11.235-29.057,21.765c2.232-0.967,5.841-2.604,10.045-5.022
		c8.557-4.985,10.64-8.036,17.152-11.311c2.344-1.153,6.734-2.344,15.477-4.613c15.292-3.981,17.486-3.795,23.03-6.288
		c7.329-3.273,12.129-7.403,14.659-9.636C370.451,423.252,377.854,408.259,375.882,406.695z"/>
	<path opacity="0.2" fill="#3D3D3D" enable-background="new    " d="M278.368,471.172c-4.762,17.151-9.487,34.341-14.25,51.492
		c2.121-0.559,4.725-1.451,7.552-2.939c4.056-2.158,6.92-4.725,8.781-6.697C279.745,499.076,279.075,485.124,278.368,471.172z"/>
</g>
<g id="leg_l">
	<path fill="#161616" stroke="#161616" stroke-width="3" stroke-miterlimit="10" d="M372.459,578.731
		c1.153,6.064,2.27,12.166,3.423,18.23c-17.375,8.743-25.635,14.176-24.891,16.296c0.931,2.567,14.957,0.335,42.042-6.659
		c-1.228-10.938-2.419-21.877-3.646-32.815C383.732,575.458,378.115,577.094,372.459,578.731z"/>
	<path fill="#FFFFFF" stroke="#161616" stroke-width="3" stroke-miterlimit="10" d="M387.341,389.656
		c1.303,10.045,2.977,25.188,3.795,43.679c1.229,28.536-0.559,44.423-0.855,65.518c-0.261,18.491,0.596,45.019,5.879,77.722
		c-2.865,1.897-9.34,5.655-18.492,6.287c-8.705,0.596-15.365-1.935-18.49-3.349c-0.818-15.849-2.27-32.703-4.613-50.412
		c-4.316-32.629-10.826-62.021-18.045-87.767c-4.465-6.177-8.967-12.315-13.431-18.491c16.259-11.496,32.479-22.955,48.738-34.452
		C376.961,388.837,382.132,389.247,387.341,389.656z"/>
	<g>
		<g>
			<path fill="#FFFFFF" d="M329.227,426.042c-1.153-1.6-2.27-3.236-3.423-4.836c-0.335,1.265-0.67,2.529-1.004,3.832
				c5.506-3.423,10.9-7.032,16.072-10.976c4.315-3.274,8.334-6.883,12.687-10.083c2.753-2.046,5.581-3.98,8.409-5.915
				c2.715-1.823,5.469-4.13,8.445-5.581c1.6-0.781,3.497-0.67,5.208-0.67c3.274,0,6.511,0.112,9.748,0.298
				c3.571,0.187,3.571-5.395,0-5.581c-3.237-0.148-6.511-0.297-9.748-0.297c-2.083,0-4.241,0-6.213,0.632
				c-3.088,1.005-5.878,3.423-8.521,5.246c-3.051,2.046-6.064,4.093-9.041,6.251c-4.613,3.348-8.854,7.105-13.355,10.565
				c-5.283,4.056-10.827,7.776-16.482,11.273c-1.19,0.744-1.897,2.567-1.004,3.832c1.152,1.6,2.27,3.237,3.422,4.837
				C326.474,431.771,331.31,428.981,329.227,426.042L329.227,426.042z"/>
		</g>
	</g>
	<path opacity="0.14" fill="#3D3D3D" enable-background="new    " d="M350.36,394.12c5.655,16.705,10.901,35.308,15.067,55.659
		c10.381,50.934,10.566,96.249,7.553,131.854c1.786,0.633,4.056,1.19,6.697,1.265c8.371,0.224,14.398-4.613,16.333-6.287
		c-1.638-8.223-3.758-20.537-5.022-35.568c-2.754-32.555,0.707-51.008,1.265-78.688c0.335-16.816-0.298-40.702-5.022-69.908
		C374.916,393.004,362.637,393.562,350.36,394.12z"/>
	<path opacity="0.2" fill="#3D3D3D" enable-background="new    " d="M388.458,409.635c-1.042,36.647-2.827,74.336-5.432,113.029
		c-1.34,19.979-2.902,39.66-4.614,59.007c1.712,0.298,4.763,0.596,8.371-0.409c4.688-1.34,7.59-4.13,8.781-5.432
		c-4.167-24.184-5.209-43.791-5.432-56.924c-0.41-24.854,1.934-37.54,1.265-66.56C390.951,433.892,389.537,418.936,388.458,409.635z
		"/>
</g>
<g id="hand_r">
	<path fill="#FFFFFF" stroke="#161616" stroke-width="3" stroke-miterlimit="10" d="M236.289,258.47
		c0.484-1.116-4.279-3.423-3.795-4.725c0.484-1.34,6.399-1.675,10.38,1.265c4.167,3.051,3.906,7.516,6.288,13.245
		c2.716,6.437,6.995,9.934,13.505,15.291c3.906,3.237,19.161,15.366,41.148,14.696c9.971-0.298,18.305-3.162,24.48-6.176
		c-0.855,10.678-1.748,21.393-2.604,32.07c-5.061,1.153-12.018,2.158-20.165,1.451c-29.615-2.567-48.627-25.411-54.505-32.442
		c-3.572-4.279-8.446-10.864-12.91-19.831c-3.498,1.042-8.929,2.232-15.44,1.563c-4.613-0.446-10.12-1.859-10.083-3.162
		c0.037-1.711,9.524-2.864,9.45-3.46c-0.074-0.521-7.553,1.525-9.45-1.265c-1.488-2.195,0.595-7.144,4.093-9.152
		c1.079-0.596,2.307-0.968,5.357-0.931C230.299,256.908,235.843,259.475,236.289,258.47z"/>
	<g>
		<g>
			<path fill="#161616" d="M212.478,264.87c1.897-0.446,4.092,0.483,6.027,0.559c1.711,0.074,3.423-0.075,5.097-0.409
				c0.707-0.149,0.409-1.229-0.297-1.079c-2.121,0.409-4.242,0.521-6.399,0.223c-1.637-0.223-3.088-0.744-4.725-0.372
				C211.473,263.94,211.771,265.019,212.478,264.87L212.478,264.87z"/>
		</g>
	</g>
	<g>
		<g>
			<path fill="#161616" d="M214.041,261.186c2.232-0.446,4.204,0.484,6.362,0.596c1.897,0.111,3.795-0.261,5.655-0.744
				c0.707-0.186,0.409-1.265-0.297-1.079c-2.418,0.633-4.763,0.931-7.255,0.409c-1.674-0.335-3.088-0.632-4.799-0.298
				C213.036,260.257,213.333,261.336,214.041,261.186L214.041,261.186z"/>
		</g>
	</g>
	<g>
		<g>
			<path fill="#161616" d="M234.615,262.302c1.897,2.01,4.465,3.051,7.218,2.977c0.707-0.037,0.707-1.153,0-1.116
				c-2.493,0.112-4.725-0.818-6.399-2.642C234.913,261.001,234.131,261.782,234.615,262.302L234.615,262.302z"/>
		</g>
	</g>
	<path opacity="0.18" fill="#3D3D3D" enable-background="new    " d="M212.589,266.693c0.112-1.005,8.223-1.265,15.664-0.187
		c4.018,0.559,7.924,1.116,11.608,2.865c8.036,3.758,10.678,10.938,14.845,17.523c0,0,9.338,14.622,26.043,22.807
		c16.593,8.11,35.531,2.679,46.208-1.637c-0.409,5.357-0.818,10.715-1.228,16.072c-9.859,2.009-17.747,1.525-22.807,0.818
		c-28.164-3.98-45.837-25.634-52.869-34.229c-5.692-6.957-9.487-13.356-11.794-17.709c-3.683,1.339-9.152,2.716-15.663,2.046
		c-4.502-0.483-9.822-1.972-9.785-3.274c0.075-1.674,9.041-2.679,8.967-3.051c-0.038-0.186-2.567,0.372-5.692-0.409
		C214.859,268.032,212.552,267.251,212.589,266.693z"/>
	<path opacity="0.24" fill="#3D3D3D" enable-background="new    " d="M297.082,318.594c13.283,0.186,23.55-5.023,28.908-8.334
		c-0.186,4.762-0.408,9.487-0.595,14.249c-7.366,1.228-20.276,2.27-35.01-2.455c-26.676-8.521-39.772-29.728-43.158-35.643
		C248.306,288.346,265.83,318.184,297.082,318.594z"/>
	<path opacity="0.19" fill="#3D3D3D" enable-background="new    " d="M225.239,272.795c7.962,0.037,13.319-1.153,13.431-0.596
		c0.074,0.447-3.237,1.786-6.734,2.456c-10.157,1.935-19.458-2.27-19.347-2.865C212.701,271.381,216.868,272.758,225.239,272.795z"
		/>
</g>
<g id="coin">
	<ellipse fill="#2B59C3" cx="233.945" cy="231.795" rx="10.492" ry="10.492"/>
	
		<ellipse fill="none" stroke="#161616" stroke-width="2" stroke-miterlimit="10" cx="231.824" cy="231.013" rx="11.906" ry="11.942"/>
	<g>
		<g>
			<path fill="#161616" d="M233.461,224.466c-2.344-0.149-8.371,2.12-6.139,5.506c1.302,1.972,3.832,0.67,5.655,1.153
				c2.344,0.633,2.083,3.46,0.632,4.837c-1.525,1.414-3.683,1.19-5.134-0.111c-0.521-0.484-1.339,0.297-0.781,0.781
				c2.939,2.679,8.185,1.153,8.185-3.2c0-1.972-1.339-3.236-3.2-3.46c-1.376-0.186-5.246,0.855-4.353-1.972
				c0.595-1.935,3.46-2.53,5.171-2.418C234.206,225.619,234.206,224.503,233.461,224.466L233.461,224.466z"/>
		</g>
	</g>
	<g>
		<g>
			<path fill="#161616" d="M232.196,224.986c0.112-1.228,0.224-2.418,0.335-3.646c0.075-0.707-1.042-0.707-1.116,0
				c-0.111,1.228-0.223,2.418-0.334,3.646C231.006,225.693,232.122,225.693,232.196,224.986L232.196,224.986z"/>
		</g>
	</g>
	<g>
		<g>
			<path fill="#161616" d="M231.453,238.305c0.111,0.855,0.223,1.749,0.297,2.604c0.074,0.707,1.19,0.707,1.116,0
				c-0.112-0.855-0.223-1.749-0.298-2.604C232.494,237.598,231.378,237.598,231.453,238.305L231.453,238.305z"/>
		</g>
	</g>
</g>
<g id="torso">
	<path d="M339.533,289.426c-1.228,0.074-5.357,0.26-10.641,1.563c-3.014,0.744-5.395,1.6-6.771,2.158
		c-2.492,5.06-5.691,12.872-6.883,22.769c-1.711,14.102,1.712,23.179,4.056,37.205c1.6,9.637,2.901,23.589,1.116,41.224
		c3.795,3.46,13.691,11.533,28.723,13.617c21.281,2.977,36.906-8.26,40.144-10.678c1.972-12.203,3.833-24.741,5.507-37.577
		c2.865-21.728,5.022-42.749,6.622-62.951c-10.306-9.711-19.235-12.314-25.522-12.836
		C363.791,282.878,352.853,288.681,339.533,289.426z"/>
	<path display="none" opacity="0.17" fill="#3D3D3D" enable-background="new    " d="M356.238,298.801
		c2.307,2.382,5.469,5.99,8.297,10.901c13.58,23.588,5.172,51.12,1.414,63.323c-2.604,8.557-7.553,21.095-17.301,34.638
		c3.721,0.633,8.408,1.005,13.766,0.483c12.725-1.265,21.951-7.031,26.564-10.454c3.498-19.868,6.475-41,8.781-63.323
		c1.339-13.096,2.344-25.857,3.088-38.172c-1.451-1.414-3.684-3.312-6.66-5.209c-4.799-3.088-12.352-7.888-20.872-6.399
		C362.451,286.449,356.945,297.313,356.238,298.801z"/>
	<path display="none" opacity="0.11" fill="#3D3D3D" enable-background="new    " d="M399.173,304.717
		c-1.898,5.32-4.838,13.803-7.814,24.443c-8.854,31.216-8.222,44.609-18.974,60.719c-3.274,4.911-8.78,11.868-18.045,18.752
		c4.577-0.038,11.198-0.596,18.751-3.089c6.846-2.27,12.092-5.32,15.664-7.813c2.902-15.552,5.469-32.331,7.366-50.302
		C397.648,332.471,398.652,318.184,399.173,304.717z"/>
</g>
<g id="hand_l">
	<path fill="#FFFFFF" stroke="#161616" stroke-width="3" stroke-miterlimit="10" d="M381.91,376.337
		c-0.781-1.451,0.037-3.609,1.265-4.763c2.27-2.158,6.399-1.34,8.26,1.005c0.261,0.335,1.525,1.897,1.005,3.236
		C391.322,378.531,383.509,379.238,381.91,376.337z"/>
	<path fill="#FFFFFF" stroke="#161616" stroke-width="3" stroke-miterlimit="10" d="M392.402,290.429
		c5.543,3.832,12.389,9.413,18.975,17.227c7.18,8.482,11.867,17.04,14.993,24.22c2.642,6.14,4.241,11.608,5.245,15.738
		c-3.311,7.627-9.523,18.863-20.982,28.723c-4.131,3.571-8.223,6.324-11.98,8.482c-1.973,2.195-4.725,4.985-8.371,7.851
		c-2.381,1.896-5.618,4.427-6.362,3.794c-0.595-0.521,0.446-3.088,2.046-4.873c1.898-2.084,4.242-2.716,4.205-2.828
		c-0.037-0.111-2.121,0.261-4.056,1.749c-2.232,1.748-2.12,3.386-3.237,3.646c-2.344,0.559-7.738-5.097-6.92-10.826
		c0.67-4.8,5.395-7.366,6.994-8.26c4.391-2.418,8.67-1.972,10.232-1.748c5.58-8.669,11.161-17.301,16.742-25.97
		c-1.525-1.228-3.535-2.977-5.73-5.246c-2.566-2.642-9.784-10.156-13.244-20.462C386.3,307.804,390.578,295.044,392.402,290.429z"/>
	<g>
		<g>
			<path fill="#161616" d="M376.849,388.055c1.377-3.051,3.721-5.432,6.771-6.771c0.67-0.298,0.074-1.266-0.558-0.968
				c-3.2,1.414-5.767,3.98-7.181,7.181C375.584,388.131,376.552,388.688,376.849,388.055L376.849,388.055z"/>
		</g>
	</g>
	<g>
		<g>
			<path fill="#161616" d="M380.943,393.227c-1.154-3.497,2.231-7.106,5.021-8.706c0.633-0.372,0.074-1.339-0.558-0.967
				c-3.237,1.859-6.883,5.952-5.544,9.971C380.086,394.195,381.166,393.897,380.943,393.227L380.943,393.227z"/>
		</g>
	</g>
	<path opacity="0.18" fill="#3D3D3D" enable-background="new    " d="M390.69,296.569c4.464,4.613,10.752,11.496,17.486,20.537
		c9.45,12.612,14.138,18.937,14.473,25.597c0.595,12.353-8.669,27.792-20.872,33.671c-3.534,1.711-12.725,5.171-18.008,11.942
		c-1.525,1.935-3.088,4.613-2.529,5.209c0.484,0.483,2.27-0.781,2.865-0.187c0.707,0.707-1.005,2.865-0.521,3.349
		c0.596,0.596,3.906-1.525,7.256-4.204c2.157-1.749,4.799-4.13,7.59-7.255c3.533-2.009,7.291-4.539,11.123-7.738
		c12.166-10.157,18.715-22.025,22.212-30.137c-0.855-3.273-2.157-7.701-4.204-12.798c-6.176-15.366-14.436-25.3-17.151-28.425
		c-3.907-4.539-9.785-10.455-18.007-16.147C391.806,292.178,391.248,294.374,390.69,296.569z"/>
	<path opacity="0.21" fill="#3D3D3D" enable-background="new    " d="M426.37,352.786c-3.571,4.613-5.396,7.552-6.883,9.747
		c-2.827,4.093-7.032,7.999-15.478,15.813c-3.014,2.79-7.105,6.511-12.129,10.789c-5.283,4.576-7.85,6.92-7.738,7.069
		c0.148,0.186,5.246-3.684,15.328-11.608c1.897-1.116,4.576-2.753,7.59-5.06c17.338-13.282,25.113-32.368,24.406-32.814
		C431.169,346.572,429.57,348.619,426.37,352.786z"/>
</g>
<g id="head">
	<path fill="#FFFFFF" stroke="#161616" stroke-width="3" stroke-miterlimit="10" d="M331.757,228.409
		c-10.938,8.967-10.492,27.16-6.213,38.917c2.715,7.44,7.068,12.538,9.934,15.365c-0.596,4.315-1.191,8.632-1.786,12.947
		c3.162,1.451,7.701,2.977,13.245,3.237c14.51,0.706,24.891-7.776,27.717-10.231c-2.566-8.595-5.134-17.189-7.701-25.82
		c-0.334-2.419-0.893-6.139-1.488-10.678c-1.6-11.832-1.525-12.464-2.232-14.398c-0.297-0.781-4.762-12.129-15.142-14.139
		C339.719,222.047,332.798,227.553,331.757,228.409z"/>
	<path fill="#161616" stroke="#161616" stroke-width="3" stroke-miterlimit="10" d="M322.753,258.694
		c-0.633,2.492-1.303,6.399-0.855,11.087c0.297,3.125,0.818,8.558,4.725,13.803c4.205,5.655,9.859,7.813,12.277,8.595
		c-0.186-0.633-0.408-1.414-0.521-2.344c-0.111-0.968-0.074-1.86,0-2.53c2.567,1.414,5.172,2.791,7.739,4.204
		c6.511-5.99,8.668-11.496,9.412-15.478c0.596-3.125,0.968-8.854,2.344-19.346c0.261-1.86,0.744-5.209,2.865-6.064
		c1.005-0.41,2.344-0.224,3.199,0.521c2.568,2.158-0.037,8.408,0.521,8.595c0.559,0.186,5.06-6.102,3.534-13.282
		c-0.781-3.721-2.938-6.288-4.204-7.553c-2.828,4.464-5.953,9.078-9.412,13.803c-2.195,3.014-4.391,5.841-6.549,8.595
		c-0.818,0.446-2.046,0.93-3.46,0.818c-1.116-0.111-1.488-0.483-2.307-0.707c-3.051-0.855-4.688,2.753-7.702,2.27
		c-2.455-0.409-2.678-3.051-5.395-3.125c-1.302-0.037-1.822,0.558-3.162,0.298C324.39,260.442,323.386,259.475,322.753,258.694z"/>
	<g>
		<g>
			<path fill="#161616" d="M335.404,248.128c-0.931,4.315-1.525,8.669-1.787,13.059c-0.037,0.447,0.484,0.67,0.856,0.484
				c1.525-0.781,3.088-1.601,4.613-2.382c0.633-0.334,0.075-1.302-0.558-0.967c-1.525,0.781-3.088,1.6-4.613,2.381
				c0.297,0.149,0.558,0.335,0.855,0.483c0.26-4.315,0.818-8.557,1.748-12.761C336.63,247.719,335.552,247.421,335.404,248.128
				L335.404,248.128z"/>
		</g>
	</g>
	
		<ellipse fill="#161616" stroke="#161616" stroke-width="3" stroke-miterlimit="10" cx="329.451" cy="250.434" rx="0.855" ry="2.158"/>
	
		<ellipse fill="#161616" stroke="#161616" stroke-width="3" stroke-miterlimit="10" cx="343.886" cy="250.434" rx="1.153" ry="2.158"/>
	<g>
		<g>
			<path fill="#161616" d="M327.367,246.23c0.707-1.302,2.27-1.005,3.424-0.596c0.669,0.224,0.967-0.855,0.297-1.078
				c-1.637-0.596-3.721-0.633-4.688,1.116C326.065,246.267,327.033,246.863,327.367,246.23L327.367,246.23z"/>
		</g>
	</g>
	<g>
		<g>
			<path fill="#161616" d="M341.431,244.705c1.748-1.674,4.427-1.525,5.915,0.483c0.409,0.559,1.376,0,0.968-0.558
				c-1.898-2.567-5.32-2.902-7.665-0.707C340.128,244.407,340.91,245.188,341.431,244.705L341.431,244.705z"/>
		</g>
	</g>
	<g>
		<g>
			<path fill="#161616" d="M314.123,239.385c15.662,0.93,31.289,2.232,46.84,3.943c2.121,0.224,2.121-3.125,0-3.348
				c-15.588-1.712-31.215-3.014-46.84-3.944C311.964,235.925,311.964,239.273,314.123,239.385L314.123,239.385z"/>
		</g>
	</g>
	<path fill="#2B59C3" d="M324.242,237.078c0.26-2.418,1.228-8.632,5.99-13.691c6.213-6.585,17.709-9.339,26.639-3.758
		c6.994,4.391,10.752,12.873,9.487,21.505C352.332,239.794,338.305,238.455,324.242,237.078z"/>
	<path display="none" opacity="0.69" fill="#3A1DA3" enable-background="new    " d="M344.035,217.917
		c-1.822,1.526-1.822,4.763-1.19,8.186c0.707,3.758,2.53,8.334,5.246,13.059c6.102,0.707,12.203,1.451,18.305,2.158
		c0.261-1.339,0.521-3.274,0.298-5.581c0,0-0.41-4.241-2.642-8.073C359.586,220.001,347.904,214.643,344.035,217.917z"/>
	<path opacity="0.24" fill="#3D3D3D" enable-background="new    " d="M363.158,261.595c-1.376,0.744-2.753,0.559-3.236,0.447
		c1.19,2.27,4.874,9.934,3.088,19.83c-1.711,9.413-7.292,15.105-9.227,16.928c2.418-0.483,5.172-1.265,8.147-2.455
		c5.655-2.307,9.897-5.357,12.762-7.851c-2.977-10.454-5.953-20.909-8.929-31.363C365.763,257.317,365.614,260.294,363.158,261.595z
		"/>
	<path opacity="0.19" fill="#3D3D3D" enable-background="new    " d="M349.392,242.1c0.447,1.897,0.818,4.763,0.372,8.111
		c-0.781,5.654-3.497,9.562-4.911,11.385c0.855-0.261,1.712-0.559,2.567-0.819c1.712-2.083,3.46-4.315,5.171-6.585
		c2.828-3.758,5.433-7.479,7.813-11.05C356.722,242.807,353.076,242.435,349.392,242.1z"/>
</g>
</svg>
