<?xml version="1.0" encoding="utf-8"?>
<!-- Generator: Adobe Illustrator 16.0.0, SVG Export Plug-In . SVG Version: 6.00 Build 0)  -->
<!DOCTYPE svg PUBLIC "-//W3C//DTD SVG 1.1//EN" "http://www.w3.org/Graphics/SVG/1.1/DTD/svg11.dtd">
<svg version="1.1" id="Layer_1" xmlns="http://www.w3.org/2000/svg" xmlns:xlink="http://www.w3.org/1999/xlink" x="0px" y="0px"
	 width="595.281px" height="436px" viewBox="0 213.446 595.281 436" enable-background="new 0 213.446 595.281 436"
	 xml:space="preserve">
<g id="background">
	<g display="none">
		<g display="inline">
			<path fill="#E8E8E8" d="M83.339,431.958c8.036,0,16.072,0,24.071,0c0.707,0,0.707-1.116,0-1.116c-8.036,0-16.072,0-24.071,0
				C82.595,430.842,82.595,431.958,83.339,431.958L83.339,431.958z"/>
		</g>
	</g>
	<g display="none">
		<g display="inline">
			<path fill="#E8E8E8" d="M84.232,431.177c4.242-6.995,8.781-13.803,13.543-20.426c-0.335,0-0.633,0-0.967,0
				c3.942,6.66,7.403,13.617,10.306,20.798c0.26,0.67,1.339,0.372,1.079-0.298c-2.939-7.255-6.438-14.287-10.417-21.059
				c-0.223-0.372-0.707-0.335-0.967,0c-4.763,6.622-9.302,13.432-13.543,20.426C82.893,431.251,83.86,431.809,84.232,431.177
				L84.232,431.177z"/>
		</g>
	</g>
	<g display="none">
		<g display="inline">
			<path fill="#E8E8E8" d="M84.456,443.045c7.516,0,15.068,0,22.583,0c0.707,0,0.707-1.116,0-1.116c-7.516,0-15.067,0-22.583,0
				C83.749,441.928,83.749,443.045,84.456,443.045L84.456,443.045z"/>
		</g>
	</g>
	<g display="none">
		<g display="inline">
			<path fill="#E8E8E8" d="M84.418,443.082c3.015,6.623,6.548,12.946,10.642,18.938c0.261,0.372,0.707,0.335,0.968,0
				c4.314-5.654,8.036-11.757,11.161-18.155c0.298-0.633-0.669-1.229-0.967-0.559c-3.089,6.438-6.81,12.501-11.162,18.156
				c0.335,0,0.633,0,0.968,0c-4.093-5.99-7.627-12.315-10.641-18.938C85.088,441.891,84.158,442.45,84.418,443.082L84.418,443.082z"
				/>
		</g>
	</g>
	<g display="none">
		<g display="inline">
			<path fill="#E8E8E8" d="M82.372,492.899c8.521,0,17.002,0,25.522,0c0.707,0,0.707-1.115,0-1.115c-8.521,0-17.002,0-25.522,0
				C81.665,491.783,81.665,492.899,82.372,492.899L82.372,492.899z"/>
		</g>
	</g>
	<g display="none">
		<g display="inline">
			<path fill="#E8E8E8" d="M83.302,492.118c4.501-6.994,9.301-13.804,14.36-20.426c-0.335,0-0.632,0-0.967,0
				c4.204,6.696,7.85,13.653,10.976,20.909c0.298,0.669,1.229,0.074,0.968-0.559c-3.125-7.255-6.771-14.249-10.977-20.909
				c-0.223-0.372-0.707-0.335-0.967,0c-5.06,6.622-9.822,13.431-14.361,20.426C81.962,492.156,82.93,492.751,83.302,492.118
				L83.302,492.118z"/>
		</g>
	</g>
	<g display="none">
		<g display="inline">
			<path fill="#E8E8E8" d="M82.26,530.774c8.52,0,17.003,0,25.521,0c0.707,0,0.707-1.115,0-1.115c-8.52,0-17.002,0-25.521,0
				C81.516,529.658,81.516,530.774,82.26,530.774L82.26,530.774z"/>
		</g>
	</g>
	<g display="none">
		<g display="inline">
			<path fill="#E8E8E8" d="M83.19,529.993c4.502-6.994,9.301-13.804,14.36-20.427c-0.335,0-0.633,0-0.967,0
				c4.204,6.697,7.851,13.654,10.976,20.909c0.298,0.67,1.228,0.074,0.967-0.558c-3.125-7.255-6.771-14.25-10.976-20.909
				c-0.224-0.372-0.706-0.335-0.967,0c-5.06,6.622-9.821,13.431-14.36,20.426C81.814,530.031,82.781,530.589,83.19,529.993
				L83.19,529.993z"/>
		</g>
	</g>
	<g display="none">
		<g display="inline">
			<path fill="#E8E8E8" d="M114.257,420.164c3.571-2.195,7.329,0.707,10.789,1.711c3.35,0.968,6.399-0.187,9.6-1.116
				c4.167-1.19,7.701,0,11.757,0.856c3.758,0.817,7.553,1.115,11.385,0.967c0.707-0.037,0.707-1.153,0-1.116
				c-4.315,0.149-8.557-0.297-12.724-1.302c-3.722-0.932-6.958-1.525-10.715-0.483c-1.897,0.559-3.795,1.302-5.805,1.45
				c-2.231,0.187-4.241-0.669-6.25-1.525c-2.753-1.152-5.841-2.083-8.594-0.408C113.066,419.568,113.624,420.536,114.257,420.164
				L114.257,420.164z"/>
		</g>
	</g>
	<g display="none">
		<g display="inline">
			<path fill="#E8E8E8" d="M166.604,421.763c1.376,0,2.716,0,4.093,0c0.707,0,0.707-1.116,0-1.116c-1.377,0-2.716,0-4.093,0
				C165.897,420.647,165.897,421.763,166.604,421.763L166.604,421.763z"/>
		</g>
	</g>
	<g display="none">
		<g display="inline">
			<path fill="#E8E8E8" d="M142.83,428.163c5.32-2.418,11.013,0.224,16.445,0.707c2.604,0.223,4.874-0.225,7.292-1.079
				c2.418-0.855,5.804-2.046,7.664,0.482c0.409,0.56,1.377,0,0.967-0.558c-1.228-1.675-3.199-2.271-5.208-2.047
				c-3.274,0.335-5.953,2.195-9.375,2.158c-6.213-0.074-12.278-3.387-18.379-0.634C141.602,427.493,142.16,428.461,142.83,428.163
				L142.83,428.163z"/>
		</g>
	</g>
	<g display="none">
		<g display="inline">
			<path fill="#E8E8E8" d="M114.294,451.677c2.158-1.637,4.688-2.604,7.404-2.604c2.679,0,5.134,1.042,7.552,2.083
				c4.242,1.785,8.074,2.529,12.538,1.115c4.316-1.339,8.187-3.795,12.613-4.762c5.691-1.228,11.272,1.005,16.444,3.199
				c0.67,0.261,0.968-0.818,0.298-1.079c-4.836-2.009-10.008-4.129-15.329-3.46c-4.911,0.596-9.152,3.349-13.767,4.874
				c-2.529,0.854-5.134,1.265-7.775,0.707c-2.567-0.559-4.911-1.823-7.33-2.716c-4.539-1.676-9.301-1.266-13.208,1.711
				C113.178,451.156,113.736,452.123,114.294,451.677L114.294,451.677z"/>
		</g>
	</g>
	<g display="none">
		<g display="inline">
			<path fill="#E8E8E8" d="M151.833,456.96c3.051-1.488,6.438-2.084,9.822-1.563c2.977,0.446,5.692,1.785,8.594,2.604
				c5.916,1.675,12.129,0.744,18.007-0.559c0.707-0.147,0.409-1.228-0.297-1.078c-3.571,0.78-7.181,1.45-10.827,1.413
				c-3.386,0-6.474-0.78-9.636-1.896c-5.543-1.936-10.752-2.53-16.184,0.111C150.643,456.29,151.201,457.258,151.833,456.96
				L151.833,456.96z"/>
		</g>
	</g>
	<g display="none">
		<g display="inline">
			<path fill="#E8E8E8" d="M116.638,480.213c3.571-5.581,11.198-1.525,15.737,0.147c2.604,0.932,5.208,1.414,7.962,0.856
				c2.53-0.521,4.874-1.786,7.182-2.939c2.716-1.34,5.469-2.419,8.557-2.419c2.977,0,5.878,0.782,8.706,1.713
				c5.172,1.637,10.269,3.795,15.813,3.423c0.707-0.037,0.707-1.153,0-1.116c-6.214,0.409-11.869-2.418-17.71-4.056
				c-2.754-0.744-5.618-1.266-8.445-0.968c-2.643,0.262-5.061,1.339-7.441,2.492c-2.865,1.377-5.804,3.014-9.041,3.051
				c-3.497,0.038-6.66-1.748-9.821-2.938c-4.094-1.525-9.674-1.972-12.354,2.231C115.298,480.25,116.266,480.808,116.638,480.213
				L116.638,480.213z"/>
		</g>
	</g>
	<g display="none">
		<g display="inline">
			<path fill="#E8E8E8" d="M156.447,486.686c3.646-0.854,7.366-1.711,11.124-1.749c3.721-0.037,7.032,1.005,10.455,2.271
				c6.213,2.231,12.389,2.977,18.826,1.34c0.707-0.188,0.41-1.265-0.297-1.079c-3.646,0.93-7.404,1.153-11.125,0.633
				c-3.349-0.483-6.438-1.786-9.637-2.865c-6.622-2.194-13.021-1.152-19.681,0.372C155.48,485.757,155.777,486.835,156.447,486.686
				L156.447,486.686z"/>
		</g>
	</g>
	<g display="none">
		<g display="inline">
			<path fill="#E8E8E8" d="M113.996,519.613c2.344-2.27,5.618-3.386,8.855-2.791c2.679,0.521,4.984,2.084,7.59,2.828
				c5.171,1.451,10.193-0.817,14.882-2.791c5.767-2.418,11.497-3.497,17.784-2.976c6.437,0.521,12.687,2.27,18.899,4.055
				c0.707,0.188,1.005-0.893,0.299-1.079c-6.288-1.821-12.65-3.57-19.198-4.092c-6.362-0.521-12.204,0.595-18.082,3.014
				c-2.79,1.153-5.581,2.419-8.594,2.977c-3.534,0.633-6.438-0.372-9.637-1.748c-4.762-2.047-9.71-1.972-13.58,1.823
				C112.694,519.352,113.475,520.134,113.996,519.613L113.996,519.613z"/>
		</g>
	</g>
	<g display="none">
		<g display="inline">
			<path fill="#E8E8E8" d="M160.279,523.966c7.329-3.684,15.031,0.968,22.063,3.125c6.958,2.121,14.398,2.047,21.318-0.074
				c0.67-0.223,0.409-1.302-0.297-1.079c-7.999,2.456-16.11,1.86-23.886-1.041c-6.288-2.345-13.245-5.209-19.756-1.936
				C159.051,523.333,159.609,524.263,160.279,523.966L160.279,523.966z"/>
		</g>
	</g>
	<g display="none">
		<g display="inline">
			<path fill="#E8E8E8" d="M234.354,257.839c24.927,0,49.892,0,74.818,0c0.707,0,0.707-1.116,0-1.116c-24.927,0-49.892,0-74.818,0
				C233.647,256.722,233.647,257.839,234.354,257.839L234.354,257.839z"/>
		</g>
	</g>
	<g display="none">
		<g display="inline">
			<path fill="#E8E8E8" d="M260.696,268.665c19.756,0,39.512,0,59.305,0c0.706,0,0.706-1.116,0-1.116c-19.756,0-39.512,0-59.305,0
				C259.989,267.549,259.989,268.665,260.696,268.665L260.696,268.665z"/>
		</g>
	</g>
	<g display="none">
		<g display="inline">
			<path fill="#E8E8E8" d="M301.509,537.844c-4.799,8.482-9.636,16.965-14.436,25.448c-0.372,0.632,0.596,1.189,0.967,0.558
				c4.8-8.481,9.636-16.966,14.436-25.448C302.812,537.768,301.844,537.211,301.509,537.844L301.509,537.844z"/>
		</g>
	</g>
	<g display="none">
		<g display="inline">
			<path fill="#E8E8E8" d="M301.77,539.517c3.386,8.26,6.771,16.481,10.157,24.741c0.26,0.67,1.339,0.372,1.077-0.298
				c-3.385-8.259-6.771-16.481-10.155-24.741C302.551,538.551,301.472,538.847,301.77,539.517L301.77,539.517z"/>
		</g>
	</g>
	<g display="none">
		<g display="inline">
			<path fill="#E8E8E8" d="M287.521,565.412c8.036-0.224,16.073-0.187,24.108,0.187c0.706,0.037,0.706-1.079,0-1.116
				c-8.035-0.372-16.072-0.445-24.108-0.187C286.776,564.333,286.776,565.449,287.521,565.412L287.521,565.412z"/>
		</g>
	</g>
	<g display="none">
		<g display="inline">
			<path fill="#E8E8E8" d="M321.042,552.837c5.506-0.298,10.9,0.781,16.369,1.116c5.246,0.335,9.822-0.596,14.734-2.381
				c2.455-0.895,4.91-1.823,7.515-2.121c2.605-0.298,5.172,0.261,7.665,0.931c4.203,1.153,8.594,2.716,12.835,0.967
				c0.67-0.26,0.372-1.339-0.298-1.079c-4.688,1.897-9.449-0.372-14.025-1.413c-4.763-1.115-8.893-0.224-13.395,1.413
				c-2.344,0.856-4.65,1.749-7.105,2.195c-2.717,0.521-5.507,0.521-8.26,0.335c-5.356-0.372-10.641-1.377-16.035-1.079
				C320.335,551.758,320.335,552.874,321.042,552.837L321.042,552.837z"/>
		</g>
	</g>
	<g display="none">
		<g display="inline">
			<path fill="#E8E8E8" d="M348.611,563.179c11.72-4.688,24.295,2.939,36.201-0.818c0.669-0.223,0.408-1.302-0.299-1.078
				c-11.904,3.721-24.443-3.906-36.199,0.818C347.644,562.361,347.941,563.44,348.611,563.179L348.611,563.179z"/>
		</g>
	</g>
	<g display="none">
		<g display="inline">
			<path fill="#E8E8E8" d="M374.208,290.17c-5.729,7.366-10.753,15.217-15.03,23.514c-0.336,0.632,0.633,1.19,0.967,0.559
				c4.242-8.224,9.188-15.998,14.846-23.29C375.436,290.392,374.654,289.611,374.208,290.17L374.208,290.17z"/>
		</g>
	</g>
	<g display="none">
		<g display="inline">
			<path fill="#E8E8E8" d="M374.729,290.989c5.356,7.402,10.343,15.067,14.993,22.918c0.373,0.633,1.34,0.073,0.968-0.559
				c-4.651-7.888-9.636-15.515-14.993-22.919C375.25,289.835,374.283,290.392,374.729,290.989L374.729,290.989z"/>
		</g>
	</g>
	<g display="none">
		<g display="inline">
			<path fill="#E8E8E8" d="M359.773,315.246c10.008,0.409,20.016,0.186,30.022-0.67c0.707-0.074,0.707-1.19,0-1.116
				c-9.971,0.893-20.016,1.116-30.022,0.67C359.029,314.093,359.029,315.209,359.773,315.246L359.773,315.246z"/>
		</g>
	</g>
	<g display="none">
		<g display="inline">
			<path fill="#E8E8E8" d="M163.367,569.281c12.166,0,24.332,0,36.461,0c0.707,0,0.707-1.116,0-1.116c-12.166,0-24.332,0-36.461,0
				C162.66,568.165,162.66,569.281,163.367,569.281L163.367,569.281z"/>
		</g>
	</g>
	<g display="none">
		<g display="inline">
			<path fill="#E8E8E8" d="M162.4,569.877c3.497,4.688,7.032,9.376,10.529,14.063c1.749,2.345,3.498,4.688,5.282,7.032
				c0.819,1.115,2.195,3.943,3.944,3.534c0.558-0.149,0.855-0.56,1.153-1.042c0.744-1.079,1.339-2.344,2.046-3.46
				c1.414-2.308,2.865-4.576,4.39-6.771c3.125-4.575,6.548-8.966,10.194-13.171c0.482-0.558-0.335-1.339-0.781-0.781
				c-6.102,7.069-11.571,14.696-16.296,22.808c-0.372,0.633-0.558,1.451-1.674,1.005c-0.484-0.186-1.079-1.377-1.376-1.786
				c-0.819-1.078-1.601-2.157-2.418-3.236c-1.525-2.047-3.088-4.093-4.613-6.139c-3.163-4.204-6.288-8.408-9.45-12.613
				C162.958,568.76,161.991,569.319,162.4,569.877L162.4,569.877z"/>
		</g>
	</g>
	<g display="none">
		<g display="inline">
			<path fill="#E8E8E8" d="M265.83,444.459c-4.167,7.439-8.333,14.845-12.5,22.286c-0.335,0.632,0.595,1.189,0.967,0.558
				c4.167-7.44,8.334-14.845,12.501-22.286C267.132,444.385,266.202,443.826,265.83,444.459L265.83,444.459z"/>
		</g>
	</g>
	<g display="none">
		<g display="inline">
			<path fill="#E8E8E8" d="M266.127,445.686c4.613,7.069,8.595,14.511,11.943,22.286c0.297,0.67,1.228,0.074,0.967-0.559
				c-3.311-7.775-7.33-15.217-11.942-22.285C266.686,444.533,265.718,445.092,266.127,445.686L266.127,445.686z"/>
		</g>
	</g>
	<g display="none">
		<g display="inline">
			<path fill="#E8E8E8" d="M257.31,468.344c6.771,0,13.58,0,20.351,0c0.707,0,0.707-1.116,0-1.116c-6.771,0-13.58,0-20.351,0
				C256.603,467.228,256.603,468.344,257.31,468.344L257.31,468.344z"/>
		</g>
	</g>
	<g>
		<g>
			<path fill="#2B59C3" d="M193.541,242.919c2.232-4.354,8.594-0.521,11.906,0.037c1.637,0.261,3.385,0.224,4.762-0.781
				c0.818-0.595,1.229-1.488,1.897-2.194c1.152-1.229,2.642-1.414,4.241-1.042c3.943,0.894,7.59,5.618,11.942,3.722
				c2.232-0.969,3.572-2.604,6.176-2.791c2.567-0.187,5.023,0.78,6.771,2.642c0.484,0.521,1.302-0.26,0.781-0.781
				c-2.902-3.051-7.776-3.942-11.496-1.822c-1.266,0.707-2.232,1.785-3.758,2.01c-1.749,0.26-3.387-0.596-4.838-1.414
				c-2.082-1.19-4.055-2.604-6.548-2.828c-2.121-0.186-3.46,0.744-4.725,2.345c-2.195,2.827-5.134,2.083-8.111,1.041
				c-3.162-1.116-8.072-2.455-10.008,1.34C192.238,242.993,193.206,243.552,193.541,242.919L193.541,242.919z"/>
		</g>
	</g>
	<g>
		<g>
			<path fill="#2B59C3" d="M47.213,388.427c4.576-2.529,7.701,7.553,12.725,4.651c1.972-1.153,1.674-3.981,3.683-5.099
				c2.158-1.189,5.134-0.073,7.145,0.932c3.757,1.896,8.259,4.092,11.532,0.186c1.973-2.381,3.498-5.729,6.995-3.236
				c2.158,1.525,4.316,2.455,6.995,2.754c0.707,0.073,0.707-1.042,0-1.116c-1.749-0.188-3.423-0.707-4.948-1.601
				c-1.004-0.596-1.896-1.524-3.014-1.935c-2.083-0.781-3.944,0.558-5.208,2.12c-2.009,2.456-3.312,4.837-6.995,3.98
				c-2.566-0.596-4.688-2.307-7.218-3.088c-1.711-0.559-3.721-0.855-5.432-0.148c-2.121,0.894-2.158,2.716-3.274,4.428
				c-2.307,3.534-6.213-1.451-8.148-2.865c-1.637-1.228-3.496-1.935-5.395-0.893C46.022,387.796,46.581,388.762,47.213,388.427
				L47.213,388.427z"/>
		</g>
	</g>
	<g>
		<g>
			<path fill="#2B59C3" d="M350.508,394.232c2.383-4.837,9.229,1.339,12.649,1.45c3.684,0.112,6.325-2.976,9.152-4.873
				c2.157-1.451,4.354-1.935,6.921-1.152c2.269,0.705,4.241,2.083,6.511,2.79c2.939,0.93,6.734,0.743,8.334-2.232
				c0.334-0.633-0.633-1.19-0.967-0.558c-2.605,4.836-9.078,0.705-12.465-0.634c-4.056-1.6-7.144-0.521-10.454,2.01
				c-1.563,1.189-3.088,2.604-4.985,3.236c-2.754,0.967-5.061-0.559-7.44-1.712c-2.604-1.265-6.697-2.009-8.261,1.153
				C349.244,394.306,350.21,394.865,350.508,394.232L350.508,394.232z"/>
		</g>
	</g>
	<g>
		<g>
			<path fill="#2B59C3" d="M236.401,601.836c1.414-2.716,4.613-3.199,7.329-2.381c2.418,0.744,4.278,2.642,6.697,3.235
				c1.896,0.484,3.088-0.372,4.391-1.563c2.344-2.157,5.097-1.637,7.887-0.632c3.274,1.189,7.59,3.385,10.827,0.854
				c1.265-1.005,1.823-2.307,3.832-1.896c1.265,0.261,2.53,0.707,3.758,1.079c2.939,0.854,5.878,1.711,8.817,2.565
				c0.707,0.188,1.005-0.893,0.298-1.078c-3.163-0.931-6.325-1.822-9.487-2.754c-1.935-0.558-4.539-1.859-6.361-0.335
				c-1.042,0.856-1.563,1.897-2.939,2.271s-2.902,0.111-4.241-0.261c-2.381-0.633-4.539-1.896-6.995-2.344
				c-1.859-0.335-3.758-0.148-5.282,1.004c-1.525,1.153-2.418,2.643-4.688,1.86c-1.302-0.446-2.381-1.339-3.609-1.972
				c-3.646-1.936-8.929-2.456-11.124,1.785C235.099,601.91,236.066,602.469,236.401,601.836L236.401,601.836z"/>
		</g>
	</g>
	<g>
		<g>
			<path d="M268.695,594.135c1.525-2.009,3.385-3.944,6.139-3.088c1.711,0.521,3.163,1.785,4.688,2.679
				c2.976,1.711,5.506,1.339,8.557,0.074c2.121-0.893,4.092-1.712,6.399-1.116c2.083,0.559,3.943,1.674,6.064,2.121
				c4.056,0.893,8.261,0.483,12.093-1.042c0.669-0.261,0.37-1.34-0.3-1.079c-4.688,1.86-9.82,1.972-14.546,0.111
				c-1.859-0.744-3.608-1.674-5.654-1.488c-1.936,0.188-3.684,1.153-5.507,1.86c-2.27,0.854-4.204,0.894-6.361-0.298
				c-1.525-0.818-2.865-1.936-4.465-2.643c-3.535-1.486-6.027,0.633-8.111,3.35C267.281,594.135,268.285,594.692,268.695,594.135
				L268.695,594.135z"/>
		</g>
	</g>
	<g>
		<g>
			<path d="M79.172,375.258c4.65-3.572,8.334,2.901,12.688,3.311c1.302,0.112,2.231-0.632,3.013-1.6
				c1.563-1.972,2.978-3.125,5.655-2.938c2.456,0.187,4.651,1.45,6.883,2.455c1.414,0.634,2.939,1.34,4.428,0.597
				c0.818-0.41,1.451-1.191,2.232-1.675c1.004-0.634,2.158-1.079,3.311-1.303c2.345-0.446,4.726,0.037,6.734,1.266
				c0.633,0.372,1.191-0.597,0.558-0.969c-3.236-1.972-7.403-2.119-10.752-0.26c-1.042,0.596-2.307,2.083-3.498,2.157
				c-1.339,0.075-2.826-0.93-3.98-1.487c-1.897-0.894-3.832-1.786-5.953-1.896c-1.674-0.112-3.46,0.26-4.799,1.339
				c-0.595,0.483-1.004,1.116-1.488,1.712c-0.67,0.893-1.189,1.711-2.642,1.45c-0.632-0.111-1.488-0.669-2.046-1.004
				c-3.2-1.897-7.256-4.911-10.901-2.121C78.056,374.736,78.614,375.704,79.172,375.258L79.172,375.258z"/>
		</g>
	</g>
	<g>
		<g>
			<path d="M339.384,384.26c0.671-3.571,5.729,0.484,7.329,0.968c2.232,0.633,4.502-0.037,6.549-0.854
				c2.643-1.079,5.209-2.604,8.11-2.68c3.423-0.111,6.66,1.376,9.673,2.827c0.634,0.298,1.229-0.67,0.559-0.967
				c-3.125-1.451-6.398-3.014-9.896-2.977c-3.348,0.037-6.213,1.784-9.264,2.938c-1.637,0.633-3.423,1.153-5.172,0.707
				c-1.563-0.409-2.752-1.524-4.24-2.12c-1.786-0.707-4.316-0.298-4.726,1.897C338.156,384.67,339.236,384.968,339.384,384.26
				L339.384,384.26z"/>
		</g>
	</g>
	<g>
		<g>
			<path d="M227.918,306.615c3.052-5.098,10.492,1.637,14.287,2.12c2.418,0.298,4.093-0.818,5.804-2.345
				c2.345-2.12,4.278-2.529,7.292-1.674c2.01,0.596,3.944,1.488,6.027,1.637c2.418,0.188,3.832-1.079,5.804-2.27
				c4.688-2.864,9.674,2.419,14.622,1.896c0.707-0.073,0.707-1.189,0-1.115c-4.836,0.521-9.413-4.391-14.212-2.271
				c-1.189,0.521-2.121,1.488-3.273,2.121c-1.488,0.781-3.088,0.633-4.65,0.224c-2.195-0.559-4.242-1.601-6.511-1.786
				c-2.232-0.187-3.869,0.671-5.506,2.121c-1.451,1.303-2.753,2.566-4.836,2.455c-1.711-0.073-3.35-0.968-4.836-1.749
				c-3.237-1.674-8.521-4.018-11.014,0.112C226.579,306.651,227.546,307.21,227.918,306.615L227.918,306.615z"/>
		</g>
	</g>
	<g>
		<g>
			<path d="M266.388,493.867c0.558-2.717,3.571-3.387,5.989-3.125c2.939,0.335,5.396,2.307,8.036,3.46
				c2.009,0.854,4.13,1.302,6.288,0.743c2.344-0.596,4.316-2.084,6.399-3.273c2.604-1.525,5.246-2.381,8.036-0.744
				c1.935,1.116,3.46,2.828,5.58,3.609c2.79,1.079,5.58-0.037,8.187-1.116c2.678-1.116,6.25-2.419,8.668-0.037
				c0.521,0.521,1.303-0.298,0.781-0.781c-3.349-3.312-7.961-0.818-11.607,0.483c-3.088,1.153-5.544,0.818-8.147-1.079
				c-1.638-1.19-3.236-2.604-5.283-3.014c-4.055-0.818-7.366,2.381-10.715,4.056c-2.865,1.413-5.506,1.228-8.371-0.149
				c-2.046-0.967-3.943-2.307-6.14-2.938c-3.236-0.895-7.925-0.224-8.742,3.646C265.16,494.276,266.239,494.574,266.388,493.867
				L266.388,493.867z"/>
		</g>
	</g>
	<g display="none">
		<g display="inline">
			<path fill="#EC615B" d="M428.49,226.102c0.149-1.563,2.158-1.637,3.274-1.339c1.005,0.26,1.896,0.967,2.79,1.487
				c1.34,0.781,2.754,1.303,4.315,0.894c1.525-0.409,2.716-1.563,4.019-2.419c2.01-1.339,3.684-1.078,5.692,0.112
				c2.455,1.451,4.688,2.753,7.254,0.707c0.969-0.781,1.786-1.786,3.052-2.084c1.229-0.298,2.604,0,3.831,0.111
				c2.568,0.224,5.173,0.446,7.739,0.67c0.707,0.073,0.707-1.042,0-1.116c-2.827-0.26-5.618-0.483-8.444-0.744
				c-2.121-0.187-3.87-0.26-5.618,1.153c-1.042,0.817-1.973,2.01-3.423,2.01c-1.116,0-2.12-0.67-3.052-1.191
				c-1.414-0.817-2.863-1.821-4.575-1.785c-1.749,0.074-3.127,1.229-4.466,2.195c-0.931,0.669-1.935,1.376-3.125,1.413
				c-1.487,0.037-2.716-0.967-3.943-1.674c-2.083-1.19-6.14-1.712-6.474,1.6C427.3,226.809,428.416,226.809,428.49,226.102
				L428.49,226.102z"/>
		</g>
	</g>
</g>
<g id="arrow">
	<path fill="#FFFFFF" stroke="#161616" stroke-width="3" stroke-miterlimit="10" d="M147.183,298.763
		c27.718,49.408,55.436,98.854,83.152,148.263c17.858-23.886,35.718-47.733,53.575-71.619c15.7,37.392,31.4,74.781,47.064,112.21
		c20.202-10.344,40.403-20.687,60.606-31.065c-18.192,2.827-36.387,5.692-54.58,8.52c-13.988-42.228-28.016-84.454-42.005-126.646
		c-20.723,29.875-41.446,59.714-62.169,89.59C204.293,384.893,175.719,341.81,147.183,298.763z"/>
	<path fill="#FFFFFF" stroke="#161616" stroke-width="3" stroke-miterlimit="10" d="M124.004,253.969
		c5.842,36.275,11.721,72.55,17.562,108.862c-0.297-25.709-0.559-51.417-0.855-77.126c21.281,13.281,42.563,26.563,63.845,39.847
		C177.729,301.666,150.866,277.817,124.004,253.969z"/>
</g>
<g id="leg_right">
	<path fill="#FFFFFF" d="M426.816,502.721c-0.26,2.493-0.56,5.916-0.894,10.009c-0.931,12.166-1.524,26.526-1.266,42.601
		c0.148,9.114,0.855,31.325,5.098,59.788c1.153,7.813,2.345,14.286,3.236,18.938c4.502,1.637,10.715,3.274,18.193,3.534
		c15.217,0.484,26.75-5.061,32.22-8.186c-1.451-6.771-3.2-16.034-4.539-27.086c-1.302-10.899-2.419-20.275-1.897-31.959
		c0.409-8.854,2.158-17.672,5.618-34.973c5.396-26.824,7.329-29.987,4.985-33.782C484.521,496.434,473.508,490.035,426.816,502.721z
		"/>
	<path opacity="0.11" fill="#898989" enable-background="new    " d="M468.857,522.44c-2.157,4.764-4.947,11.794-7.031,20.574
		c-1.451,6.027-3.758,18.008-2.046,44.349c0.818,12.538,2.604,29.206,6.733,48.701c5.655-2.231,11.311-4.465,16.966-6.695
		c-1.266-5.843-2.753-13.433-4.02-22.36c-1.004-6.958-2.231-15.775-2.641-27.309c-0.447-12.763,0.334-22.397,0.893-29.096
		c0.781-9.003,2.195-20.5,4.985-33.745C478.047,518.719,473.471,520.58,468.857,522.44z"/>
	<g>
		<g>
			<path fill="#161616" d="M426.257,502.721c-3.348,33.708-2.863,67.788,1.414,101.384c1.191,9.339,2.681,18.641,4.466,27.904
				c0.147,0.706,1.229,0.409,1.078-0.298c-6.361-33.112-8.966-66.896-7.775-100.604c0.336-9.486,1.005-18.938,1.936-28.388
				C427.449,502.014,426.333,502.014,426.257,502.721L426.257,502.721z"/>
		</g>
	</g>
	<g>
		<g>
			<path fill="#161616" d="M478.829,533.601c-3.2,24.816-3.088,50.041,0.335,74.857c0.967,7.067,2.232,14.101,3.758,21.058
				c0.148,0.707,1.229,0.409,1.078-0.298c-5.319-24.479-7.366-49.631-5.988-74.67c0.371-6.995,1.042-13.989,1.935-20.947
				C480.019,532.895,478.903,532.895,478.829,533.601L478.829,533.601z"/>
		</g>
	</g>
</g>
<g id="leg_left">
	<path fill="#FFFFFF" d="M520.536,504.805c0.632,0.93,0.669,1.265,2.716,8.408c2.084,7.255,4.354,14.473,6.324,21.765
		c3.498,12.799,8.334,25.857,12.576,37.43c5.06,13.729,12.018,31.027,21.244,50.783c-15.627,1.602-31.215,3.237-46.842,4.837
		c-13.06-18.677-20.724-32.33-25.41-41.67c-3.981-7.924-9.339-15.104-13.098-23.104c-1.005-2.158-4.019-8.669-9.71-13.878
		c-3.313-3.014-6.251-4.392-7.852-5.061c-2.381-0.968-4.501-1.414-6.026-1.6c0.262-4.539,1.229-11.795,4.985-19.682
		c1.972-4.094,6.734-13.768,17.04-19.979C491.552,493.941,513.914,494.947,520.536,504.805z"/>
	<path opacity="0.11" fill="#999999" enable-background="new    " d="M499.998,499.224c1.563,7.366,3.424,14.919,5.582,22.621
		c10.976,39.064,27.196,71.73,43.752,98.109c2.902-2.53,5.842-5.061,8.744-7.591c-4.168-9.784-7.926-19.049-11.272-27.792
		c-2.902-7.553-7.404-19.234-12.501-34.823c-3.722-11.349-6.251-19.941-8.743-28.647c-3.722-12.91-6.66-23.96-8.817-32.479
		C511.16,492.192,505.58,495.69,499.998,499.224z"/>
	<g>
		<g>
			<path fill="#161616" d="M521.428,508.712c7.479,27.755,16.48,55.101,27.048,81.851c2.938,7.404,5.989,14.771,9.114,22.102
				c0.299,0.669,1.229,0.073,0.969-0.56c-11.312-26.267-21.134-53.129-29.43-80.475c-2.345-7.701-4.539-15.439-6.623-23.216
				C522.322,507.707,521.242,508.005,521.428,508.712L521.428,508.712z"/>
		</g>
	</g>
	<g>
		<g>
			<path fill="#161616" d="M457.212,544.205c6.103,0.707,10.752,4.985,14.324,9.748c3.795,5.06,6.734,10.715,9.822,16.185
				c7.104,12.538,14.063,25.15,21.504,37.502c4.242,7.032,8.632,13.952,13.245,20.688c0.409,0.595,1.376,0.037,0.968-0.56
				c-8.632-12.538-16.334-25.671-23.849-38.916c-3.722-6.511-7.366-13.059-11.05-19.569c-3.199-5.654-6.25-11.496-10.231-16.667
				c-3.721-4.801-8.483-8.781-14.696-9.524C456.505,542.977,456.505,544.094,457.212,544.205L457.212,544.205z"/>
		</g>
	</g>
</g>
<g id="torso">
	<path d="M441.698,358.106c4.502-2.977,11.422-6.958,20.463-9.858c5.952-1.937,34.602-11.162,60.272,4.018
		c4.539,2.679,10.565,7.069,16.443,14.25c-0.744,5.134-1.822,12.725-3.273,21.913c-2.716,17.227-4.91,29.021-7.292,42.377
		c-2.009,11.161-4.8,27.011-8.036,46.396c0.854,10.491,1.711,20.945,2.566,31.438c-6.733,4.65-18.343,11.235-33.968,13.505
		c-32.853,4.763-57.668-13.282-63.212-17.522c1.376-25.3,3.534-51.938,6.733-79.769
		C435.039,401.635,438.201,379.349,441.698,358.106z"/>
</g>
<g id="hand_right">
	<path fill="#FFFFFF" d="M444.824,356.841c-0.484,2.344-1.229,5.879-2.084,10.157c-3.051,15.104-4.576,22.807-5.469,30.396
		c-0.521,4.502-1.117,10.977-1.191,18.9c8.818-0.335,15.998,0.335,20.984,0.967c13.244,1.749,22.1,3.051,27.233,9.896
		c3.089,4.093,3.758,8.742,3.869,11.683c-2.791,1.525-6.586,3.423-11.199,5.283c-3.533,1.414-12.129,4.688-24.221,6.622
		c-7.439,1.19-13.988,2.194-22.472,0.894c-9.524-1.451-12.835-4.428-14.36-6.214c-2.68-3.088-3.461-6.548-3.684-7.552
		c-0.744-3.535-0.148-6.027,1.451-12.91c2.977-12.873,2.344-10.529,2.938-12.873c1.34-5.061,2.978-11.236,5.768-18.863
		c2.231-6.063,3.98-10.9,6.994-16.406C432.062,371.76,436.824,364.43,444.824,356.841z"/>
	<path opacity="0.14" fill="#969595" enable-background="new    " d="M433.066,370.606c-1.229,3.2-3.051,8.148-4.873,14.25
		c-5.432,18.343-5.655,29.578-5.655,32.703c-0.038,8.073,0,12.203,2.381,15.924c4.391,6.734,12.688,8.334,21.579,10.045
		c6.438,1.229,16.482,2.308,28.982,0.225c-3.646,1.786-8.521,3.832-14.437,5.395c-7.143,1.897-12.687,2.271-17.15,2.567
		c-10.009,0.633-15.03,0.967-20.872-1.637c-2.643-1.153-7.404-3.35-9.822-8.334c-0.854-1.823-1.563-4.279-1.115-10.194
		c0.559-7.553,2.345-12.91,4.093-18.342c5.098-15.999,3.608-13.433,6.063-19.979C424.509,387.311,427.895,379.462,433.066,370.606z"
		/>
	<g>
		<g>
			<path fill="#161616" d="M444.414,356.431c-8.334,6.957-14.138,16.259-18.49,26.081c-4.874,11.013-8.407,22.657-11.161,34.34
				c-1.414,5.953-3.162,12.24-3.312,18.38c-0.111,4.948,2.009,9.302,5.915,12.314c4.204,3.273,9.524,4.465,14.771,4.8
				c6.063,0.409,12.276,0.037,18.305-0.744c13.282-1.712,26.191-5.916,37.986-12.314c0.633-0.335,0.073-1.303-0.56-0.968
				c-10.082,5.47-20.981,9.302-32.256,11.349c-5.655,1.004-11.422,1.563-17.152,1.674c-5.69,0.074-11.682-0.074-16.928-2.567
				c-4.873-2.307-8.668-6.695-8.893-12.239c-0.148-3.125,0.521-6.213,1.116-9.265c0.559-2.938,1.152-5.842,1.822-8.743
				c2.53-11.05,5.805-22.063,10.12-32.555c4.465-10.827,10.491-21.207,19.569-28.797
				C445.753,356.766,444.972,355.985,444.414,356.431L444.414,356.431z"/>
		</g>
	</g>
	<g>
		<g>
			<path fill="#161616" d="M422.388,420.982c13.878-5.021,29.095-5.432,43.194-1.079c0.67,0.225,0.967-0.854,0.298-1.078
				c-14.285-4.391-29.728-4.019-43.79,1.078C421.421,420.127,421.681,421.206,422.388,420.982L422.388,420.982z"/>
		</g>
	</g>
	<g>
		<g>
			<path fill="#161616" d="M444.898,357.138c-5.805,19.198-9.004,39.104-9.413,59.156c0,0.707,1.116,0.707,1.116,0
				c0.409-19.942,3.57-39.772,9.375-58.858C446.163,356.729,445.121,356.431,444.898,357.138L444.898,357.138z"/>
		</g>
	</g>
</g>
<g id="hand_left">
	<path fill="#FFFFFF" d="M532.478,362.198c-0.967,2.157-2.158,5.061-3.46,8.558c-0.781,2.158-3.534,9.71-5.878,20.202
		c-1.676,7.44-3.461,17.784-4.094,30.545c-2.345-1.004-5.879-2.492-10.119-4.315c-22.138-9.376-25.82-10.641-28.982-11.606
		c-11.385-3.498-18.193-4.057-23.142-3.981c-6.178,0.074-10.417,1.116-14.213,3.534c-2.901,1.86-4.837,4.093-6.026,5.692
		c-0.188,1.822-0.373,3.646-0.56,5.507c3.237-0.037,8.224,0.372,13.654,2.716c3.535,1.525,6.064,3.386,9.301,6.027
		c7.927,6.437,12.093,11.05,15.441,14.212c2.901,2.716,12.835,11.534,27.68,15.515c10.008,2.679,17.635,1.936,25.635,1.19
		c4.315-0.409,7.218-1.042,10.046-3.015c0.893-0.632,4.538-3.311,7.627-12.166c1.637-4.649,2.418-9.114,2.938-16.48
		c0.446-6.438,1.041-15.44-0.409-27.532c-0.408-3.497-1.935-9.71-5.021-22.137c-0.484-1.936-1.34-5.171-4.02-8.147
		C536.682,364.095,534.152,362.868,532.478,362.198z"/>
	<path opacity="0.15" fill="#7A7A7A" enable-background="new    " d="M539.584,367.853c0.483,5.246,1.005,12.428,1.079,20.983
		c0.037,7.367,0.074,15.292-1.34,25.039c-2.158,15.104-3.273,22.694-9.115,27.532c-8.297,6.846-20.275,4.575-23.327,3.979
		c-7.813-1.488-9.189-4.427-25.819-15.365c-20.835-13.729-29.467-16.222-37.764-15.365c-3.126,0.335-5.618,1.078-7.256,1.638
		c3.313,0,8.297,0.409,13.654,2.716c5.581,2.381,8.967,5.692,11.533,8.073c6.549,6.176,14.733,13.878,22.694,19.049
		c1.676,1.079,13.878,8.817,29.021,10.418c7.032,0.744,12.427-0.112,17.486-0.894c2.307-0.372,3.942-0.707,5.804-1.711
		c4.315-2.345,6.325-6.288,7.888-9.563c2.157-4.428,2.79-8.111,3.571-13.06c0.818-5.061,0.93-8.817,1.079-13.654
		c0.111-3.236,0.261-8.706-0.298-15.886c-0.409-5.655-0.781-10.529-2.308-16.668C545.091,380.763,543.193,374.699,539.584,367.853z"
		/>
	<g>
		<g>
			<path fill="#161616" d="M531.995,361.938c-8.185,18.678-12.538,38.843-12.761,59.23c0,0.706,1.115,0.706,1.115,0
				c0.187-20.166,4.465-40.183,12.575-58.636C533.259,361.864,532.292,361.268,531.995,361.938L531.995,361.938z"/>
		</g>
	</g>
	<g>
		<g>
			<path fill="#161616" d="M437.047,411.086c3.646-5.99,10.938-8.187,17.562-8.78c7.255-0.67,14.548,0.633,21.505,2.679
				c6.994,2.047,13.729,4.874,20.426,7.664c7.44,3.088,14.808,6.213,22.211,9.376c0.67,0.299,1.229-0.67,0.56-0.968
				c-11.795-5.06-23.552-10.306-35.605-14.695c-10.976-4.019-23.066-7.031-34.713-4.241c-5.134,1.229-10.082,3.832-12.91,8.445
				C435.708,411.16,436.675,411.719,437.047,411.086L437.047,411.086z"/>
		</g>
	</g>
	<g>
		<g>
			<path fill="#161616" d="M436.042,416.852c7.367,0.409,14.92,2.121,20.725,6.92c4.726,3.944,9.04,8.446,13.579,12.575
				c9.972,9.078,22.397,17.338,35.902,19.905c9.115,1.748,18.528,1.265,27.495-1.042c0.707-0.187,0.408-1.266-0.299-1.079
				c-8.296,2.121-17.039,2.716-25.521,1.303c-5.061-0.855-9.637-2.493-14.25-4.65c-8.631-4.056-16.333-9.486-23.327-15.961
				c-4.315-3.98-8.408-8.26-12.947-11.979c-5.989-4.911-13.729-6.697-21.355-7.144C435.335,415.699,435.335,416.815,436.042,416.852
				L436.042,416.852z"/>
		</g>
	</g>
	<g>
		<g>
			<path fill="#161616" d="M532.813,362.719c6.139,1.86,8.966,9.971,10.79,15.402c2.12,6.325,3.272,12.91,3.869,19.532
				c0.595,6.622,0.743,13.319,0.595,19.941c-0.148,7.069-0.744,14.175-2.643,20.983c-1.711,6.288-4.836,13.318-11.422,15.627
				c-0.67,0.223-0.372,1.302,0.298,1.078c5.396-1.897,8.706-6.733,10.753-11.868c2.679-6.847,3.646-14.361,4.019-21.69
				c0.372-7.59,0.223-15.254-0.372-22.807c-0.558-7.069-1.675-14.102-3.907-20.835c-1.971-5.953-4.983-14.474-11.682-16.481
				C532.441,361.454,532.144,362.533,532.813,362.719L532.813,362.719z"/>
		</g>
	</g>
</g>
<g id="head">
	<path fill="#FFFFFF" d="M451,273.576c-0.633,1.34-1.712,4.24-2.493,6.771c-1.265,3.943-2.716,9.524-3.423,16.333
		c-0.335,3.349-0.893,8.929-0.074,16.222c0.56,4.836,1.041,9.04,3.162,13.877c1.377,3.125,4.613,9.041,11.795,14.324
		c2.679,0.148,5.952,0.111,9.599-0.409c2.604-0.371,4.949-0.931,6.958-1.487c0.335,2.716,0.817,5.654,1.524,8.816
		c0.707,3.052,1.488,5.842,2.308,8.371c2.194,0.483,5.356,0.894,9.041,0.335c8.259-1.265,13.468-6.474,15.217-8.408
		c-0.819-4.612-1.377-8.595-1.749-11.72c-0.93-8.036-0.633-10.008-0.111-11.607c1.153-3.534,3.236-5.022,6.92-8.706
		c7.145-7.105,11.349-11.311,12.873-16.705c1.973-6.883-0.967-13.395-3.795-19.645c-1.45-3.163-4.502-9.934-10.343-14.808
		C490.882,250.658,457.138,260.48,451,273.576z"/>
	<path opacity="0.21" fill="#757575" enable-background="new    " d="M502.9,277.408c-0.26,3.98-0.967,9.523-2.978,15.85
		c-0.78,2.418-3.459,10.454-11.197,21.132c-4.948,6.81-13.767,17.264-28.201,27.086c3.349,0.111,7.589-0.148,12.352-1.488
		c11.608-3.236,18.751-10.752,21.766-14.397c0.817,9.376,1.638,18.788,2.456,28.164c2.307-1.488,4.612-2.978,6.883-4.428
		c-0.372-2.345-0.855-5.878-1.116-10.193c-0.67-10.79-1.004-16.185,2.121-19.868c3.46-4.055,7.031-1.6,11.422-6.139
		c3.646-3.795,4.241-8.706,4.873-13.729c0.707-5.654,1.266-10.193-1.265-14.36C515.327,277.26,503.942,277.371,502.9,277.408z"/>
	<path fill="#2B59C3" d="M448.469,280.347c-1.451-2.456-4.057-7.851-2.382-13.282c0.931-2.977,3.313-6.437,13.579-11.235
		c16.445-7.664,23.365-4.874,33.933-11.235c3.832-2.307,9.227-6.474,14.212-14.436c-0.483,3.758-1.005,7.478-1.487,11.234
		c2.344,0.298,5.432,0.372,8.891-0.409c9.712-2.194,15.144-9.523,16.743-11.867c0.446,3.051,0.781,7.999-0.633,13.766
		c-1.042,4.204-2.679,7.479-4.019,9.748c2.901-2.047,5.805-4.093,8.707-6.139c0,2.716-0.149,5.616-0.41,8.706
		c-0.595,6.102-1.711,11.495-2.978,16.108c2.121-2.753,4.242-5.506,6.363-8.26c-0.225,2.121-0.559,5.172-1.043,8.893
		c-1.785,13.134-2.678,19.683-5.506,26.08c-2.084,4.727-4.874,11.014-11.236,16.11c-6.026,4.799-10.899,5.097-14.844,10.826
		c-2.605,3.795-3.351,7.851-3.572,10.604c0.26-7.292,0.56-14.547,0.818-21.839c0.93,0.707,2.828,1.972,5.098,1.711
		c3.497-0.446,5.283-4.278,6.585-6.994c0.559-1.152,4.688-10.009,0.632-14.622c-0.444-0.521-2.083-2.193-4.427-2.193
		c-3.423,0-5.433,3.46-5.544,3.683c-1.637-5.06-4.799-12.761-11.087-20.611c-4.019-5.021-6.548-8.186-11.198-10.119
		c-9.637-4.019-21.021,0.298-27.83,6.214C451.929,274.096,449.697,277.854,448.469,280.347z"/>
	<g>
		<g>
			<path fill="#161616" d="M450.441,273.427c-5.061,12.203-7.255,25.56-6.103,38.768c1.006,11.349,4.986,23.29,15.291,29.393
				c0.634,0.372,1.191-0.596,0.56-0.967c-10.604-6.288-14.176-18.863-14.92-30.473c-0.781-12.426,1.414-24.927,6.214-36.424
				C451.781,273.093,450.702,272.795,450.441,273.427L450.441,273.427z"/>
		</g>
	</g>
	<g>
		<g>
			<path fill="#161616" d="M460.561,342.033c19.161,0.187,36.571-11.349,43.976-28.982c0.262-0.67-0.817-0.968-1.078-0.298
				c-7.181,17.188-24.295,28.351-42.896,28.164C459.854,340.88,459.854,341.996,460.561,342.033L460.561,342.033z"/>
		</g>
	</g>
	<g>
		<g>
			<path fill="#161616" d="M508.183,293.295c2.901-2.79,6.771-0.188,7.888,2.977c1.005,2.901,0.483,6.213-0.149,9.152
				c-0.558,2.679-1.563,5.432-3.646,7.292c-1.936,1.749-6.362,3.497-7.813,0.187c-0.297-0.67-1.265-0.074-0.967,0.559
				c1.303,3.014,5.283,2.79,7.738,1.414c3.572-1.972,5.172-5.953,5.879-9.748c0.744-3.869,1.265-8.521-1.451-11.794
				c-2.084-2.53-5.805-3.162-8.26-0.818C506.881,292.997,507.663,293.778,508.183,293.295L508.183,293.295z"/>
		</g>
	</g>
	<g>
		<g>
			<path fill="#161616" d="M503.755,313.572c-2.381,11.459-2.27,23.254,0.373,34.638c0.148,0.707,1.229,0.41,1.078-0.297
				c-2.604-11.199-2.716-22.808-0.371-34.043C504.984,313.162,503.905,312.865,503.755,313.572L503.755,313.572z"/>
		</g>
	</g>
	<g>
		<g>
			<path fill="#161616" d="M475.927,339.206c0.407,3.199,0.967,6.361,1.674,9.523c0.371,1.601,0.78,3.199,1.265,4.763
				c0.298,1.078,0.483,2.604,1.265,3.46c0.262,0.261,0.707,0.187,0.895-0.111c0.037-0.037,0.037-0.074,0.074-0.111
				c0.148-0.261,0.037-0.596-0.188-0.78c-0.037,0-0.037-0.037-0.074-0.037c-0.596-0.409-1.152,0.558-0.558,0.967
				c0.037,0,0.037,0.037,0.074,0.037c-0.074-0.26-0.149-0.521-0.188-0.781c-0.037,0.037-0.037,0.075-0.073,0.112
				c0.298-0.037,0.596-0.075,0.893-0.112c-0.744-0.818-0.967-2.938-1.264-4.018c-0.373-1.377-0.707-2.717-1.043-4.094
				c-0.669-2.938-1.189-5.878-1.563-8.892C476.968,338.499,475.852,338.499,475.927,339.206L475.927,339.206z"/>
		</g>
	</g>
	<g>
		<g>
			<path fill="#161616" d="M480.503,357.101c4.65,1.302,9.449,0.446,13.84-1.414c2.232-0.967,4.392-2.156,6.475-3.386
				c1.637-0.967,3.386-1.896,4.204-3.721c0.297-0.632-0.67-1.229-0.967-0.559c-0.819,1.786-2.755,2.68-4.392,3.646
				c-1.859,1.116-3.795,2.157-5.805,2.976c-4.166,1.749-8.705,2.604-13.133,1.377C480.13,355.837,479.833,356.915,480.503,357.101
				L480.503,357.101z"/>
		</g>
	</g>
	<g>
		<g>
			<path fill="#161616" d="M463.351,282.134c-2.978,10.678-5.617,21.467-7.924,32.331c-0.112,0.521,0.52,0.967,0.93,0.558
				c2.79-2.79,5.469-5.729,7.962-8.779c0.446-0.559-0.335-1.341-0.782-0.781c-2.492,3.051-5.171,5.99-7.961,8.78
				c0.297,0.187,0.633,0.372,0.93,0.559c2.345-10.864,4.986-21.616,7.926-32.332C464.654,281.761,463.575,281.464,463.351,282.134
				L463.351,282.134z"/>
		</g>
	</g>
	<g>
		<g>
			<path fill="#161616" d="M458.068,319.189c1.451,1.042,3.273,0.67,4.949,0.483c1.858-0.223,3.72-0.521,5.469-1.229
				c3.385-1.376,6.063-4.018,7.813-7.255c0.335-0.633-0.633-1.189-0.967-0.558c-1.451,2.716-3.608,5.021-6.398,6.397
				c-1.414,0.707-2.939,1.079-4.466,1.341c-1.712,0.261-4.314,0.93-5.804-0.111C458.031,317.812,457.472,318.781,458.068,319.189
				L458.068,319.189z"/>
		</g>
	</g>
	<g>
		<g>
			<path fill="#161616" d="M449.585,288.198c0.446,2.344,1.304,5.244,4.094,5.616c2.938,0.409,4.91-2.156,6.025-4.464
				c0.299-0.633-0.632-1.229-0.967-0.559c-0.93,1.935-2.716,4.576-5.283,3.869c-1.972-0.559-2.455-3.015-2.79-4.763
				C450.515,287.193,449.437,287.491,449.585,288.198L449.585,288.198z"/>
		</g>
	</g>
	<g>
		<g>
			<path fill="#161616" d="M452.896,277.482c0.818-1.972,2.456-3.607,4.577-4.167c2.642-0.707,3.795,1.079,4.538,3.274
				c0.225,0.67,1.303,0.372,1.079-0.298c-0.817-2.344-2.084-4.539-4.911-4.241c-2.938,0.335-5.282,2.493-6.361,5.135
				C451.52,277.854,452.599,278.115,452.896,277.482L452.896,277.482z"/>
		</g>
	</g>
	<g>
		<g>
			<path fill="#161616" d="M474.884,275.25c1.117-2.157,3.237-3.832,5.769-3.869c2.604-0.037,4.873,1.638,5.06,4.354
				c0.037,0.707,1.153,0.707,1.116,0c-0.186-2.864-2.344-5.061-5.172-5.395c-3.273-0.41-6.25,1.563-7.701,4.39
				C473.583,275.325,474.55,275.883,474.884,275.25L474.884,275.25z"/>
		</g>
	</g>
	<g>
		<g>
			<path fill="#161616" d="M472.392,288.346c-0.67,3.423,1.935,6.325,5.319,6.585c1.897,0.149,3.722-0.521,5.246-1.637
				c1.004-0.744,2.643-1.972,2.345-3.386c-0.148-0.707-1.229-0.409-1.079,0.298c0.187,0.744-1.786,2.12-2.271,2.455
				c-1.079,0.707-2.344,1.189-3.646,1.189c-2.828,0-5.396-2.193-4.837-5.171C473.583,287.937,472.503,287.639,472.392,288.346
				L472.392,288.346z"/>
		</g>
	</g>
</g>
</svg>
